solid OpenSCAD_Model
  facet normal -0.871978 0 0.489545
    outer loop
      vertex 167.025 4.5 4.49899
      vertex 167.175 112.5 4.76617
      vertex 167.025 112.5 4.49899
    endloop
  endfacet
  facet normal -0.871978 0 0.489545
    outer loop
      vertex 167.175 112.5 4.76617
      vertex 167.025 4.5 4.49899
      vertex 167.175 4.5 4.76617
    endloop
  endfacet
  facet normal -0.346434 0 0.938074
    outer loop
      vertex 169.008 112.5 6.33156
      vertex 169.295 4.5 6.43755
      vertex 169.295 112.5 6.43755
    endloop
  endfacet
  facet normal -0.346434 0 0.938074
    outer loop
      vertex 169.295 4.5 6.43755
      vertex 169.008 112.5 6.33156
      vertex 169.008 4.5 6.33156
    endloop
  endfacet
  facet normal 0.417556 0 0.908651
    outer loop
      vertex 171.992 112.5 6.33156
      vertex 172.271 4.5 6.20335
      vertex 172.271 112.5 6.20335
    endloop
  endfacet
  facet normal 0.417556 0 0.908651
    outer loop
      vertex 172.271 4.5 6.20335
      vertex 171.992 112.5 6.33156
      vertex 171.992 4.5 6.33156
    endloop
  endfacet
  facet normal 0.908399 -0 0.418105
    outer loop
      vertex 173.975 4.5 4.49899
      vertex 174.103 112.5 4.22089
      vertex 173.975 112.5 4.49899
    endloop
  endfacet
  facet normal 0.908399 0 0.418105
    outer loop
      vertex 174.103 112.5 4.22089
      vertex 173.975 4.5 4.49899
      vertex 174.103 4.5 4.22089
    endloop
  endfacet
  facet normal -0.999232 0 -0.0391868
    outer loop
      vertex 166.612 112.5 2.42244
      vertex 166.6 4.5 2.72843
      vertex 166.6 112.5 2.72843
    endloop
  endfacet
  facet normal -0.999232 0 -0.0391868
    outer loop
      vertex 166.612 -7.5 2.42244
      vertex 166.6 4.5 2.72843
      vertex 166.612 112.5 2.42244
    endloop
  endfacet
  facet normal -0.999232 -0 -0.0391868
    outer loop
      vertex 166.6 4.5 2.72843
      vertex 166.612 -7.5 2.42244
      vertex 166.6 -7.5 2.72843
    endloop
  endfacet
  facet normal -0.556503 0 0.830846
    outer loop
      vertex 168.208 112.5 5.88359
      vertex 168.462 4.5 6.05372
      vertex 168.462 112.5 6.05372
    endloop
  endfacet
  facet normal -0.556503 0 0.830846
    outer loop
      vertex 168.462 4.5 6.05372
      vertex 168.208 112.5 5.88359
      vertex 168.208 4.5 5.88359
    endloop
  endfacet
  facet normal 0.734107 -0 0.679034
    outer loop
      vertex 173.258 4.5 5.48614
      vertex 173.466 112.5 5.26127
      vertex 173.258 112.5 5.48614
    endloop
  endfacet
  facet normal 0.734107 0 0.679034
    outer loop
      vertex 173.466 112.5 5.26127
      vertex 173.258 4.5 5.48614
      vertex 173.466 4.5 5.26127
    endloop
  endfacet
  facet normal 0.271203 0 0.962522
    outer loop
      vertex 171.41 112.5 6.52067
      vertex 171.705 4.5 6.43755
      vertex 171.705 112.5 6.43755
    endloop
  endfacet
  facet normal 0.271203 0 0.962522
    outer loop
      vertex 171.705 4.5 6.43755
      vertex 171.41 112.5 6.52067
      vertex 171.41 4.5 6.52067
    endloop
  endfacet
  facet normal -0.831668 0 0.555273
    outer loop
      vertex 167.175 4.5 4.76617
      vertex 167.345 112.5 5.02079
      vertex 167.175 112.5 4.76617
    endloop
  endfacet
  facet normal -0.831668 0 0.555273
    outer loop
      vertex 167.345 112.5 5.02079
      vertex 167.175 4.5 4.76617
      vertex 167.345 4.5 5.02079
    endloop
  endfacet
  facet normal -0.678593 0 0.734514
    outer loop
      vertex 167.742 112.5 5.48614
      vertex 167.967 4.5 5.69401
      vertex 167.967 112.5 5.69401
    endloop
  endfacet
  facet normal -0.678593 0 0.734514
    outer loop
      vertex 167.967 4.5 5.69401
      vertex 167.742 112.5 5.48614
      vertex 167.742 4.5 5.48614
    endloop
  endfacet
  facet normal 0.0392834 0 0.999228
    outer loop
      vertex 170.5 112.5 6.62843
      vertex 170.806 4.5 6.6164
      vertex 170.806 112.5 6.6164
    endloop
  endfacet
  facet normal 0.0392834 0 0.999228
    outer loop
      vertex 170.806 4.5 6.6164
      vertex 170.5 112.5 6.62843
      vertex 170.5 4.5 6.62843
    endloop
  endfacet
  facet normal -0.271203 0 0.962522
    outer loop
      vertex 169.295 112.5 6.43755
      vertex 169.59 4.5 6.52067
      vertex 169.59 112.5 6.52067
    endloop
  endfacet
  facet normal -0.271203 0 0.962522
    outer loop
      vertex 169.59 4.5 6.52067
      vertex 169.295 112.5 6.43755
      vertex 169.295 4.5 6.43755
    endloop
  endfacet
  facet normal -0.117567 0 0.993065
    outer loop
      vertex 169.89 112.5 6.58041
      vertex 170.194 4.5 6.6164
      vertex 170.194 112.5 6.6164
    endloop
  endfacet
  facet normal -0.117567 0 0.993065
    outer loop
      vertex 170.194 4.5 6.6164
      vertex 169.89 112.5 6.58041
      vertex 169.89 4.5 6.58041
    endloop
  endfacet
  facet normal -0.488877 0 0.872353
    outer loop
      vertex 168.462 112.5 6.05372
      vertex 168.729 4.5 6.20335
      vertex 168.729 112.5 6.20335
    endloop
  endfacet
  facet normal -0.488877 0 0.872353
    outer loop
      vertex 168.729 4.5 6.20335
      vertex 168.462 112.5 6.05372
      vertex 168.462 4.5 6.05372
    endloop
  endfacet
  facet normal -0.618271 0 0.785965
    outer loop
      vertex 167.967 112.5 5.69401
      vertex 168.208 4.5 5.88359
      vertex 168.208 112.5 5.88359
    endloop
  endfacet
  facet normal -0.618271 0 0.785965
    outer loop
      vertex 168.208 4.5 5.88359
      vertex 167.967 112.5 5.69401
      vertex 167.967 4.5 5.69401
    endloop
  endfacet
  facet normal 0.999232 -0 0.0391868
    outer loop
      vertex 174.388 4.5 3.03442
      vertex 174.4 112.5 2.72843
      vertex 174.388 112.5 3.03442
    endloop
  endfacet
  facet normal 0.999232 0 0.0391868
    outer loop
      vertex 174.4 112.5 2.72843
      vertex 174.388 4.5 3.03442
      vertex 174.4 4.5 2.72843
    endloop
  endfacet
  facet normal 0.938181 -0 0.346144
    outer loop
      vertex 174.103 4.5 4.22089
      vertex 174.209 112.5 3.93359
      vertex 174.103 112.5 4.22089
    endloop
  endfacet
  facet normal 0.938181 0 0.346144
    outer loop
      vertex 174.209 112.5 3.93359
      vertex 174.103 4.5 4.22089
      vertex 174.209 4.5 3.93359
    endloop
  endfacet
  facet normal 0.980623 -0 0.195903
    outer loop
      vertex 174.292 4.5 3.63886
      vertex 174.352 112.5 3.33852
      vertex 174.292 112.5 3.63886
    endloop
  endfacet
  facet normal 0.980623 0 0.195903
    outer loop
      vertex 174.352 112.5 3.33852
      vertex 174.292 4.5 3.63886
      vertex 174.352 4.5 3.33852
    endloop
  endfacet
  facet normal 0.871978 -0 0.489545
    outer loop
      vertex 173.825 4.5 4.76617
      vertex 173.975 112.5 4.49899
      vertex 173.825 112.5 4.76617
    endloop
  endfacet
  facet normal 0.871978 0 0.489545
    outer loop
      vertex 173.975 112.5 4.49899
      vertex 173.825 4.5 4.76617
      vertex 173.975 4.5 4.49899
    endloop
  endfacet
  facet normal 0.831668 -0 0.555273
    outer loop
      vertex 173.655 4.5 5.02079
      vertex 173.825 112.5 4.76617
      vertex 173.655 112.5 5.02079
    endloop
  endfacet
  facet normal 0.831668 0 0.555273
    outer loop
      vertex 173.825 112.5 4.76617
      vertex 173.655 4.5 5.02079
      vertex 173.825 4.5 4.76617
    endloop
  endfacet
  facet normal 0.346434 0 0.938074
    outer loop
      vertex 171.705 112.5 6.43755
      vertex 171.992 4.5 6.33156
      vertex 171.992 112.5 6.33156
    endloop
  endfacet
  facet normal 0.346434 0 0.938074
    outer loop
      vertex 171.992 4.5 6.33156
      vertex 171.705 112.5 6.43755
      vertex 171.705 4.5 6.43755
    endloop
  endfacet
  facet normal 0.195299 0 0.980744
    outer loop
      vertex 171.11 112.5 6.58041
      vertex 171.41 4.5 6.52067
      vertex 171.41 112.5 6.52067
    endloop
  endfacet
  facet normal 0.195299 0 0.980744
    outer loop
      vertex 171.41 4.5 6.52067
      vertex 171.11 112.5 6.58041
      vertex 171.11 4.5 6.58041
    endloop
  endfacet
  facet normal 0.556503 0 0.830846
    outer loop
      vertex 172.538 112.5 6.05372
      vertex 172.792 4.5 5.88359
      vertex 172.792 112.5 5.88359
    endloop
  endfacet
  facet normal 0.556503 0 0.830846
    outer loop
      vertex 172.792 4.5 5.88359
      vertex 172.538 112.5 6.05372
      vertex 172.538 4.5 6.05372
    endloop
  endfacet
  facet normal 0.618271 0 0.785965
    outer loop
      vertex 172.792 112.5 5.88359
      vertex 173.033 4.5 5.69401
      vertex 173.033 112.5 5.69401
    endloop
  endfacet
  facet normal 0.618271 0 0.785965
    outer loop
      vertex 173.033 4.5 5.69401
      vertex 172.792 112.5 5.88359
      vertex 172.792 4.5 5.88359
    endloop
  endfacet
  facet normal 0.488877 0 0.872353
    outer loop
      vertex 172.271 112.5 6.20335
      vertex 172.538 4.5 6.05372
      vertex 172.538 112.5 6.05372
    endloop
  endfacet
  facet normal 0.488877 0 0.872353
    outer loop
      vertex 172.538 4.5 6.05372
      vertex 172.271 112.5 6.20335
      vertex 172.271 4.5 6.20335
    endloop
  endfacet
  facet normal 0.678593 0 0.734514
    outer loop
      vertex 173.033 112.5 5.69401
      vertex 173.258 4.5 5.48614
      vertex 173.258 112.5 5.48614
    endloop
  endfacet
  facet normal 0.678593 0 0.734514
    outer loop
      vertex 173.258 4.5 5.48614
      vertex 173.033 112.5 5.69401
      vertex 173.033 4.5 5.69401
    endloop
  endfacet
  facet normal -0.999232 0 0.0391868
    outer loop
      vertex 166.6 4.5 2.72843
      vertex 166.612 112.5 3.03442
      vertex 166.6 112.5 2.72843
    endloop
  endfacet
  facet normal -0.999232 0 0.0391868
    outer loop
      vertex 166.612 112.5 3.03442
      vertex 166.6 4.5 2.72843
      vertex 166.612 4.5 3.03442
    endloop
  endfacet
  facet normal -0.96256 0 -0.27107
    outer loop
      vertex 166.791 -7.5 1.52326
      vertex 166.708 112.5 1.81799
      vertex 166.791 112.5 1.52326
    endloop
  endfacet
  facet normal -0.96256 -0 -0.27107
    outer loop
      vertex 166.708 112.5 1.81799
      vertex 166.791 -7.5 1.52326
      vertex 166.708 -7.5 1.81799
    endloop
  endfacet
  facet normal 0.831667 0 -0.555274
    outer loop
      vertex 173.825 -7.5 0.690684
      vertex 173.655 112.5 0.436065
      vertex 173.825 112.5 0.690684
    endloop
  endfacet
  facet normal 0.831667 0 -0.555274
    outer loop
      vertex 173.655 112.5 0.436065
      vertex 173.825 -7.5 0.690684
      vertex 173.655 -7.5 0.436065
    endloop
  endfacet
  facet normal -0.993066 0 0.117561
    outer loop
      vertex 166.612 4.5 3.03442
      vertex 166.648 112.5 3.33852
      vertex 166.612 112.5 3.03442
    endloop
  endfacet
  facet normal -0.993066 0 0.117561
    outer loop
      vertex 166.648 112.5 3.33852
      vertex 166.612 4.5 3.03442
      vertex 166.648 4.5 3.33852
    endloop
  endfacet
  facet normal -0.908399 0 0.418105
    outer loop
      vertex 166.897 4.5 4.22089
      vertex 167.025 112.5 4.49899
      vertex 166.897 112.5 4.22089
    endloop
  endfacet
  facet normal -0.908399 0 0.418105
    outer loop
      vertex 167.025 112.5 4.49899
      vertex 166.897 4.5 4.22089
      vertex 167.025 4.5 4.49899
    endloop
  endfacet
  facet normal -0.938181 0 0.346144
    outer loop
      vertex 166.791 4.5 3.93359
      vertex 166.897 112.5 4.22089
      vertex 166.791 112.5 3.93359
    endloop
  endfacet
  facet normal -0.938181 0 0.346144
    outer loop
      vertex 166.897 112.5 4.22089
      vertex 166.791 4.5 3.93359
      vertex 166.897 4.5 4.22089
    endloop
  endfacet
  facet normal -0.980623 0 0.195903
    outer loop
      vertex 166.648 4.5 3.33852
      vertex 166.708 112.5 3.63886
      vertex 166.648 112.5 3.33852
    endloop
  endfacet
  facet normal -0.980623 0 0.195903
    outer loop
      vertex 166.708 112.5 3.63886
      vertex 166.648 4.5 3.33852
      vertex 166.708 4.5 3.63886
    endloop
  endfacet
  facet normal -0.96256 0 0.27107
    outer loop
      vertex 166.708 4.5 3.63886
      vertex 166.791 112.5 3.93359
      vertex 166.708 112.5 3.63886
    endloop
  endfacet
  facet normal -0.96256 0 0.27107
    outer loop
      vertex 166.791 112.5 3.93359
      vertex 166.708 4.5 3.63886
      vertex 166.791 4.5 3.93359
    endloop
  endfacet
  facet normal -0.786237 0 0.617926
    outer loop
      vertex 167.345 4.5 5.02079
      vertex 167.534 112.5 5.26127
      vertex 167.345 112.5 5.02079
    endloop
  endfacet
  facet normal -0.786237 0 0.617926
    outer loop
      vertex 167.534 112.5 5.26127
      vertex 167.345 4.5 5.02079
      vertex 167.534 4.5 5.26127
    endloop
  endfacet
  facet normal -0.734107 0 0.679034
    outer loop
      vertex 167.534 4.5 5.26127
      vertex 167.742 112.5 5.48614
      vertex 167.534 112.5 5.26127
    endloop
  endfacet
  facet normal -0.734107 0 0.679034
    outer loop
      vertex 167.742 112.5 5.48614
      vertex 167.534 4.5 5.26127
      vertex 167.742 4.5 5.48614
    endloop
  endfacet
  facet normal -0.0392834 0 0.999228
    outer loop
      vertex 170.194 112.5 6.6164
      vertex 170.5 4.5 6.62843
      vertex 170.5 112.5 6.62843
    endloop
  endfacet
  facet normal -0.0392834 0 0.999228
    outer loop
      vertex 170.5 4.5 6.62843
      vertex 170.194 112.5 6.6164
      vertex 170.194 4.5 6.6164
    endloop
  endfacet
  facet normal -0.195299 0 0.980744
    outer loop
      vertex 169.59 112.5 6.52067
      vertex 169.89 4.5 6.58041
      vertex 169.89 112.5 6.58041
    endloop
  endfacet
  facet normal -0.195299 0 0.980744
    outer loop
      vertex 169.89 4.5 6.58041
      vertex 169.59 112.5 6.52067
      vertex 169.59 4.5 6.52067
    endloop
  endfacet
  facet normal -0.417556 0 0.908651
    outer loop
      vertex 168.729 112.5 6.20335
      vertex 169.008 4.5 6.33156
      vertex 169.008 112.5 6.33156
    endloop
  endfacet
  facet normal -0.417556 0 0.908651
    outer loop
      vertex 169.008 4.5 6.33156
      vertex 168.729 112.5 6.20335
      vertex 168.729 4.5 6.20335
    endloop
  endfacet
  facet normal 0 1 0
    outer loop
      vertex 170.806 112.5 6.6164
      vertex 170.194 112.5 6.6164
      vertex 170.5 112.5 6.62843
    endloop
  endfacet
  facet normal 0 1 0
    outer loop
      vertex 171.11 112.5 6.58041
      vertex 170.194 112.5 6.6164
      vertex 170.806 112.5 6.6164
    endloop
  endfacet
  facet normal 0 1 0
    outer loop
      vertex 171.11 112.5 6.58041
      vertex 169.89 112.5 6.58041
      vertex 170.194 112.5 6.6164
    endloop
  endfacet
  facet normal 0 1 0
    outer loop
      vertex 171.41 112.5 6.52067
      vertex 169.89 112.5 6.58041
      vertex 171.11 112.5 6.58041
    endloop
  endfacet
  facet normal 0 1 0
    outer loop
      vertex 171.41 112.5 6.52067
      vertex 169.59 112.5 6.52067
      vertex 169.89 112.5 6.58041
    endloop
  endfacet
  facet normal 0 1 0
    outer loop
      vertex 171.705 112.5 6.43755
      vertex 169.59 112.5 6.52067
      vertex 171.41 112.5 6.52067
    endloop
  endfacet
  facet normal 0 1 0
    outer loop
      vertex 171.705 112.5 6.43755
      vertex 169.295 112.5 6.43755
      vertex 169.59 112.5 6.52067
    endloop
  endfacet
  facet normal 0 1 0
    outer loop
      vertex 171.992 112.5 6.33156
      vertex 169.295 112.5 6.43755
      vertex 171.705 112.5 6.43755
    endloop
  endfacet
  facet normal 0 1 0
    outer loop
      vertex 171.992 112.5 6.33156
      vertex 169.008 112.5 6.33156
      vertex 169.295 112.5 6.43755
    endloop
  endfacet
  facet normal 0 1 0
    outer loop
      vertex 172.271 112.5 6.20335
      vertex 169.008 112.5 6.33156
      vertex 171.992 112.5 6.33156
    endloop
  endfacet
  facet normal 0 1 0
    outer loop
      vertex 172.271 112.5 6.20335
      vertex 168.729 112.5 6.20335
      vertex 169.008 112.5 6.33156
    endloop
  endfacet
  facet normal 0 1 0
    outer loop
      vertex 172.538 112.5 6.05372
      vertex 168.729 112.5 6.20335
      vertex 172.271 112.5 6.20335
    endloop
  endfacet
  facet normal 0 1 0
    outer loop
      vertex 172.538 112.5 6.05372
      vertex 168.462 112.5 6.05372
      vertex 168.729 112.5 6.20335
    endloop
  endfacet
  facet normal 0 1 0
    outer loop
      vertex 172.792 112.5 5.88359
      vertex 168.462 112.5 6.05372
      vertex 172.538 112.5 6.05372
    endloop
  endfacet
  facet normal 0 1 0
    outer loop
      vertex 172.792 112.5 5.88359
      vertex 168.208 112.5 5.88359
      vertex 168.462 112.5 6.05372
    endloop
  endfacet
  facet normal 0 1 0
    outer loop
      vertex 173.033 112.5 5.69401
      vertex 168.208 112.5 5.88359
      vertex 172.792 112.5 5.88359
    endloop
  endfacet
  facet normal 0 1 0
    outer loop
      vertex 173.033 112.5 5.69401
      vertex 167.967 112.5 5.69401
      vertex 168.208 112.5 5.88359
    endloop
  endfacet
  facet normal 0 1 0
    outer loop
      vertex 173.258 112.5 5.48614
      vertex 167.967 112.5 5.69401
      vertex 173.033 112.5 5.69401
    endloop
  endfacet
  facet normal 0 1 0
    outer loop
      vertex 173.258 112.5 5.48614
      vertex 167.742 112.5 5.48614
      vertex 167.967 112.5 5.69401
    endloop
  endfacet
  facet normal 0 1 0
    outer loop
      vertex 173.466 112.5 5.26127
      vertex 167.742 112.5 5.48614
      vertex 173.258 112.5 5.48614
    endloop
  endfacet
  facet normal 0 1 0
    outer loop
      vertex 173.466 112.5 5.26127
      vertex 167.534 112.5 5.26127
      vertex 167.742 112.5 5.48614
    endloop
  endfacet
  facet normal 0 1 0
    outer loop
      vertex 173.655 112.5 5.02079
      vertex 167.534 112.5 5.26127
      vertex 173.466 112.5 5.26127
    endloop
  endfacet
  facet normal 0 1 0
    outer loop
      vertex 173.655 112.5 5.02079
      vertex 167.345 112.5 5.02079
      vertex 167.534 112.5 5.26127
    endloop
  endfacet
  facet normal 0 1 0
    outer loop
      vertex 173.825 112.5 4.76617
      vertex 167.345 112.5 5.02079
      vertex 173.655 112.5 5.02079
    endloop
  endfacet
  facet normal 0 1 0
    outer loop
      vertex 173.825 112.5 4.76617
      vertex 167.175 112.5 4.76617
      vertex 167.345 112.5 5.02079
    endloop
  endfacet
  facet normal 0 1 0
    outer loop
      vertex 173.975 112.5 4.49899
      vertex 167.175 112.5 4.76617
      vertex 173.825 112.5 4.76617
    endloop
  endfacet
  facet normal 0 1 0
    outer loop
      vertex 173.975 112.5 4.49899
      vertex 167.025 112.5 4.49899
      vertex 167.175 112.5 4.76617
    endloop
  endfacet
  facet normal 0 1 0
    outer loop
      vertex 174.103 112.5 4.22089
      vertex 167.025 112.5 4.49899
      vertex 173.975 112.5 4.49899
    endloop
  endfacet
  facet normal 0 1 0
    outer loop
      vertex 174.103 112.5 4.22089
      vertex 166.897 112.5 4.22089
      vertex 167.025 112.5 4.49899
    endloop
  endfacet
  facet normal 0 1 0
    outer loop
      vertex 174.209 112.5 3.93359
      vertex 166.897 112.5 4.22089
      vertex 174.103 112.5 4.22089
    endloop
  endfacet
  facet normal 0 1 0
    outer loop
      vertex 174.209 112.5 3.93359
      vertex 166.791 112.5 3.93359
      vertex 166.897 112.5 4.22089
    endloop
  endfacet
  facet normal 0 1 0
    outer loop
      vertex 174.292 112.5 3.63886
      vertex 166.791 112.5 3.93359
      vertex 174.209 112.5 3.93359
    endloop
  endfacet
  facet normal 0 1 0
    outer loop
      vertex 174.292 112.5 3.63886
      vertex 166.708 112.5 3.63886
      vertex 166.791 112.5 3.93359
    endloop
  endfacet
  facet normal 0 1 0
    outer loop
      vertex 174.352 112.5 3.33852
      vertex 166.708 112.5 3.63886
      vertex 174.292 112.5 3.63886
    endloop
  endfacet
  facet normal 0 1 0
    outer loop
      vertex 174.352 112.5 3.33852
      vertex 166.648 112.5 3.33852
      vertex 166.708 112.5 3.63886
    endloop
  endfacet
  facet normal 0 1 0
    outer loop
      vertex 174.388 112.5 3.03442
      vertex 166.648 112.5 3.33852
      vertex 174.352 112.5 3.33852
    endloop
  endfacet
  facet normal 0 1 0
    outer loop
      vertex 174.388 112.5 3.03442
      vertex 166.612 112.5 3.03442
      vertex 166.648 112.5 3.33852
    endloop
  endfacet
  facet normal 0 1 0
    outer loop
      vertex 174.4 112.5 2.72843
      vertex 166.612 112.5 3.03442
      vertex 174.388 112.5 3.03442
    endloop
  endfacet
  facet normal 0 1 0
    outer loop
      vertex 174.4 112.5 2.72843
      vertex 166.6 112.5 2.72843
      vertex 166.612 112.5 3.03442
    endloop
  endfacet
  facet normal 0 1 -0
    outer loop
      vertex 174.388 112.5 2.42244
      vertex 166.6 112.5 2.72843
      vertex 174.4 112.5 2.72843
    endloop
  endfacet
  facet normal 0 1 0
    outer loop
      vertex 174.388 112.5 2.42244
      vertex 166.612 112.5 2.42244
      vertex 166.6 112.5 2.72843
    endloop
  endfacet
  facet normal 0 1 -0
    outer loop
      vertex 174.352 112.5 2.11833
      vertex 166.612 112.5 2.42244
      vertex 174.388 112.5 2.42244
    endloop
  endfacet
  facet normal 0 1 0
    outer loop
      vertex 174.352 112.5 2.11833
      vertex 166.648 112.5 2.11833
      vertex 166.612 112.5 2.42244
    endloop
  endfacet
  facet normal 0 1 -0
    outer loop
      vertex 174.292 112.5 1.81799
      vertex 166.648 112.5 2.11833
      vertex 174.352 112.5 2.11833
    endloop
  endfacet
  facet normal 0 1 0
    outer loop
      vertex 174.292 112.5 1.81799
      vertex 166.708 112.5 1.81799
      vertex 166.648 112.5 2.11833
    endloop
  endfacet
  facet normal 0 1 -0
    outer loop
      vertex 174.209 112.5 1.52326
      vertex 166.708 112.5 1.81799
      vertex 174.292 112.5 1.81799
    endloop
  endfacet
  facet normal 0 1 0
    outer loop
      vertex 174.209 112.5 1.52326
      vertex 166.791 112.5 1.52326
      vertex 166.708 112.5 1.81799
    endloop
  endfacet
  facet normal 0 1 -0
    outer loop
      vertex 174.103 112.5 1.23596
      vertex 166.791 112.5 1.52326
      vertex 174.209 112.5 1.52326
    endloop
  endfacet
  facet normal 0 1 0
    outer loop
      vertex 174.103 112.5 1.23596
      vertex 166.897 112.5 1.23596
      vertex 166.791 112.5 1.52326
    endloop
  endfacet
  facet normal 0 1 -0
    outer loop
      vertex 173.975 112.5 0.957865
      vertex 166.897 112.5 1.23596
      vertex 174.103 112.5 1.23596
    endloop
  endfacet
  facet normal 0 1 0
    outer loop
      vertex 173.975 112.5 0.957865
      vertex 167.025 112.5 0.957865
      vertex 166.897 112.5 1.23596
    endloop
  endfacet
  facet normal 0 1 -0
    outer loop
      vertex 173.825 112.5 0.690684
      vertex 167.025 112.5 0.957865
      vertex 173.975 112.5 0.957865
    endloop
  endfacet
  facet normal 0 1 0
    outer loop
      vertex 173.825 112.5 0.690684
      vertex 167.175 112.5 0.690684
      vertex 167.025 112.5 0.957865
    endloop
  endfacet
  facet normal 0 1 -0
    outer loop
      vertex 173.655 112.5 0.436065
      vertex 167.175 112.5 0.690684
      vertex 173.825 112.5 0.690684
    endloop
  endfacet
  facet normal 0 1 0
    outer loop
      vertex 173.655 112.5 0.436065
      vertex 167.345 112.5 0.436065
      vertex 167.175 112.5 0.690684
    endloop
  endfacet
  facet normal 0 1 -0
    outer loop
      vertex 173.466 112.5 0.195581
      vertex 167.345 112.5 0.436065
      vertex 173.655 112.5 0.436065
    endloop
  endfacet
  facet normal 0 1 0
    outer loop
      vertex 173.466 112.5 0.195581
      vertex 167.534 112.5 0.195581
      vertex 167.345 112.5 0.436065
    endloop
  endfacet
  facet normal 0 1 -0
    outer loop
      vertex 173.285 112.5 1.91458e-07
      vertex 167.534 112.5 0.195581
      vertex 173.466 112.5 0.195581
    endloop
  endfacet
  facet normal 0 1 0
    outer loop
      vertex 167.534 112.5 0.195581
      vertex 173.285 112.5 1.91458e-07
      vertex 167.715 112.5 1.91458e-07
    endloop
  endfacet
  facet normal 0.993066 -0 0.117561
    outer loop
      vertex 174.352 4.5 3.33852
      vertex 174.388 112.5 3.03442
      vertex 174.352 112.5 3.33852
    endloop
  endfacet
  facet normal 0.993066 0 0.117561
    outer loop
      vertex 174.388 112.5 3.03442
      vertex 174.352 4.5 3.33852
      vertex 174.388 4.5 3.03442
    endloop
  endfacet
  facet normal 0.96256 -0 0.27107
    outer loop
      vertex 174.209 4.5 3.93359
      vertex 174.292 112.5 3.63886
      vertex 174.209 112.5 3.93359
    endloop
  endfacet
  facet normal 0.96256 0 0.27107
    outer loop
      vertex 174.292 112.5 3.63886
      vertex 174.209 4.5 3.93359
      vertex 174.292 4.5 3.63886
    endloop
  endfacet
  facet normal 0.786237 -0 0.617926
    outer loop
      vertex 173.466 4.5 5.26127
      vertex 173.655 112.5 5.02079
      vertex 173.466 112.5 5.26127
    endloop
  endfacet
  facet normal 0.786237 0 0.617926
    outer loop
      vertex 173.655 112.5 5.02079
      vertex 173.466 4.5 5.26127
      vertex 173.655 4.5 5.02079
    endloop
  endfacet
  facet normal 0.117567 0 0.993065
    outer loop
      vertex 170.806 112.5 6.6164
      vertex 171.11 4.5 6.58041
      vertex 171.11 112.5 6.58041
    endloop
  endfacet
  facet normal 0.117567 0 0.993065
    outer loop
      vertex 171.11 4.5 6.58041
      vertex 170.806 112.5 6.6164
      vertex 170.806 4.5 6.6164
    endloop
  endfacet
  facet normal -0.938181 0 -0.346144
    outer loop
      vertex 166.897 -7.5 1.23596
      vertex 166.791 112.5 1.52326
      vertex 166.897 112.5 1.23596
    endloop
  endfacet
  facet normal -0.938181 -0 -0.346144
    outer loop
      vertex 166.791 112.5 1.52326
      vertex 166.897 -7.5 1.23596
      vertex 166.791 -7.5 1.52326
    endloop
  endfacet
  facet normal -0.831667 0 -0.555274
    outer loop
      vertex 167.345 -7.5 0.436065
      vertex 167.175 112.5 0.690684
      vertex 167.345 112.5 0.436065
    endloop
  endfacet
  facet normal -0.831667 -0 -0.555274
    outer loop
      vertex 167.175 112.5 0.690684
      vertex 167.345 -7.5 0.436065
      vertex 167.175 -7.5 0.690684
    endloop
  endfacet
  facet normal 0 -1 0
    outer loop
      vertex 166.6 -7.5 2.72843
      vertex 174.4 -7.5 10.9
      vertex 166.6 -7.5 10.9
    endloop
  endfacet
  facet normal 0 -1 0
    outer loop
      vertex 166.6 -7.5 2.72843
      vertex 174.4 -7.5 2.72843
      vertex 174.4 -7.5 10.9
    endloop
  endfacet
  facet normal 0 -1 0
    outer loop
      vertex 166.612 -7.5 2.42244
      vertex 174.4 -7.5 2.72843
      vertex 166.6 -7.5 2.72843
    endloop
  endfacet
  facet normal 0 -1 0
    outer loop
      vertex 166.612 -7.5 2.42244
      vertex 174.388 -7.5 2.42244
      vertex 174.4 -7.5 2.72843
    endloop
  endfacet
  facet normal 0 -1 0
    outer loop
      vertex 166.648 -7.5 2.11833
      vertex 174.388 -7.5 2.42244
      vertex 166.612 -7.5 2.42244
    endloop
  endfacet
  facet normal 0 -1 0
    outer loop
      vertex 166.648 -7.5 2.11833
      vertex 174.352 -7.5 2.11833
      vertex 174.388 -7.5 2.42244
    endloop
  endfacet
  facet normal 0 -1 0
    outer loop
      vertex 166.708 -7.5 1.81799
      vertex 174.352 -7.5 2.11833
      vertex 166.648 -7.5 2.11833
    endloop
  endfacet
  facet normal 0 -1 0
    outer loop
      vertex 166.708 -7.5 1.81799
      vertex 174.292 -7.5 1.81799
      vertex 174.352 -7.5 2.11833
    endloop
  endfacet
  facet normal 0 -1 0
    outer loop
      vertex 166.791 -7.5 1.52326
      vertex 174.292 -7.5 1.81799
      vertex 166.708 -7.5 1.81799
    endloop
  endfacet
  facet normal 0 -1 0
    outer loop
      vertex 166.791 -7.5 1.52326
      vertex 174.209 -7.5 1.52326
      vertex 174.292 -7.5 1.81799
    endloop
  endfacet
  facet normal 0 -1 0
    outer loop
      vertex 166.897 -7.5 1.23596
      vertex 174.209 -7.5 1.52326
      vertex 166.791 -7.5 1.52326
    endloop
  endfacet
  facet normal 0 -1 0
    outer loop
      vertex 166.897 -7.5 1.23596
      vertex 174.103 -7.5 1.23596
      vertex 174.209 -7.5 1.52326
    endloop
  endfacet
  facet normal 0 -1 0
    outer loop
      vertex 167.025 -7.5 0.957865
      vertex 174.103 -7.5 1.23596
      vertex 166.897 -7.5 1.23596
    endloop
  endfacet
  facet normal 0 -1 0
    outer loop
      vertex 167.025 -7.5 0.957865
      vertex 173.975 -7.5 0.957865
      vertex 174.103 -7.5 1.23596
    endloop
  endfacet
  facet normal 0 -1 0
    outer loop
      vertex 167.175 -7.5 0.690684
      vertex 173.975 -7.5 0.957865
      vertex 167.025 -7.5 0.957865
    endloop
  endfacet
  facet normal 0 -1 0
    outer loop
      vertex 167.175 -7.5 0.690684
      vertex 173.825 -7.5 0.690684
      vertex 173.975 -7.5 0.957865
    endloop
  endfacet
  facet normal 0 -1 0
    outer loop
      vertex 167.345 -7.5 0.436065
      vertex 173.825 -7.5 0.690684
      vertex 167.175 -7.5 0.690684
    endloop
  endfacet
  facet normal 0 -1 0
    outer loop
      vertex 167.345 -7.5 0.436065
      vertex 173.655 -7.5 0.436065
      vertex 173.825 -7.5 0.690684
    endloop
  endfacet
  facet normal 0 -1 0
    outer loop
      vertex 167.534 -7.5 0.195581
      vertex 173.655 -7.5 0.436065
      vertex 167.345 -7.5 0.436065
    endloop
  endfacet
  facet normal 0 -1 0
    outer loop
      vertex 167.534 -7.5 0.195581
      vertex 173.466 -7.5 0.195581
      vertex 173.655 -7.5 0.436065
    endloop
  endfacet
  facet normal 0 -1 0
    outer loop
      vertex 167.715 -7.5 1.91458e-07
      vertex 173.466 -7.5 0.195581
      vertex 167.534 -7.5 0.195581
    endloop
  endfacet
  facet normal 0 -1 0
    outer loop
      vertex 173.466 -7.5 0.195581
      vertex 167.715 -7.5 1.91458e-07
      vertex 173.285 -7.5 1.91458e-07
    endloop
  endfacet
  facet normal 0.938181 0 -0.346144
    outer loop
      vertex 174.209 -7.5 1.52326
      vertex 174.103 112.5 1.23596
      vertex 174.209 112.5 1.52326
    endloop
  endfacet
  facet normal 0.938181 0 -0.346144
    outer loop
      vertex 174.103 112.5 1.23596
      vertex 174.209 -7.5 1.52326
      vertex 174.103 -7.5 1.23596
    endloop
  endfacet
  facet normal 0.786242 0 -0.617919
    outer loop
      vertex 173.655 -7.5 0.436065
      vertex 173.466 112.5 0.195581
      vertex 173.655 112.5 0.436065
    endloop
  endfacet
  facet normal 0.786242 0 -0.617919
    outer loop
      vertex 173.466 112.5 0.195581
      vertex 173.655 -7.5 0.436065
      vertex 173.466 -7.5 0.195581
    endloop
  endfacet
  facet normal -0.980623 0 -0.195903
    outer loop
      vertex 166.708 -7.5 1.81799
      vertex 166.648 112.5 2.11833
      vertex 166.708 112.5 1.81799
    endloop
  endfacet
  facet normal -0.980623 -0 -0.195903
    outer loop
      vertex 166.648 112.5 2.11833
      vertex 166.708 -7.5 1.81799
      vertex 166.648 -7.5 2.11833
    endloop
  endfacet
  facet normal -0.871979 0 -0.489544
    outer loop
      vertex 167.175 -7.5 0.690684
      vertex 167.025 112.5 0.957865
      vertex 167.175 112.5 0.690684
    endloop
  endfacet
  facet normal -0.871979 -0 -0.489544
    outer loop
      vertex 167.025 112.5 0.957865
      vertex 167.175 -7.5 0.690684
      vertex 167.025 -7.5 0.957865
    endloop
  endfacet
  facet normal -0.908396 0 -0.418111
    outer loop
      vertex 167.025 -7.5 0.957865
      vertex 166.897 112.5 1.23596
      vertex 167.025 112.5 0.957865
    endloop
  endfacet
  facet normal -0.908396 -0 -0.418111
    outer loop
      vertex 166.897 112.5 1.23596
      vertex 167.025 -7.5 0.957865
      vertex 166.897 -7.5 1.23596
    endloop
  endfacet
  facet normal -0.786242 0 -0.617919
    outer loop
      vertex 167.534 -7.5 0.195581
      vertex 167.345 112.5 0.436065
      vertex 167.534 112.5 0.195581
    endloop
  endfacet
  facet normal -0.786242 -0 -0.617919
    outer loop
      vertex 167.345 112.5 0.436065
      vertex 167.534 -7.5 0.195581
      vertex 167.345 -7.5 0.436065
    endloop
  endfacet
  facet normal 0.993066 0 -0.117557
    outer loop
      vertex 174.388 -7.5 2.42244
      vertex 174.352 112.5 2.11833
      vertex 174.388 112.5 2.42244
    endloop
  endfacet
  facet normal 0.993066 0 -0.117557
    outer loop
      vertex 174.352 112.5 2.11833
      vertex 174.388 -7.5 2.42244
      vertex 174.352 -7.5 2.11833
    endloop
  endfacet
  facet normal 0.999232 0 -0.0391868
    outer loop
      vertex 174.4 4.5 2.72843
      vertex 174.388 112.5 2.42244
      vertex 174.4 112.5 2.72843
    endloop
  endfacet
  facet normal 0.999232 0 -0.0391868
    outer loop
      vertex 174.388 -7.5 2.42244
      vertex 174.4 4.5 2.72843
      vertex 174.4 -7.5 2.72843
    endloop
  endfacet
  facet normal 0.999232 0 -0.0391868
    outer loop
      vertex 174.4 4.5 2.72843
      vertex 174.388 -7.5 2.42244
      vertex 174.388 112.5 2.42244
    endloop
  endfacet
  facet normal 0.871979 0 -0.489544
    outer loop
      vertex 173.975 -7.5 0.957865
      vertex 173.825 112.5 0.690684
      vertex 173.975 112.5 0.957865
    endloop
  endfacet
  facet normal 0.871979 0 -0.489544
    outer loop
      vertex 173.825 112.5 0.690684
      vertex 173.975 -7.5 0.957865
      vertex 173.825 -7.5 0.690684
    endloop
  endfacet
  facet normal 0.908396 0 -0.418111
    outer loop
      vertex 174.103 -7.5 1.23596
      vertex 173.975 112.5 0.957865
      vertex 174.103 112.5 1.23596
    endloop
  endfacet
  facet normal 0.908396 0 -0.418111
    outer loop
      vertex 173.975 112.5 0.957865
      vertex 174.103 -7.5 1.23596
      vertex 173.975 -7.5 0.957865
    endloop
  endfacet
  facet normal 0.733935 0 -0.679219
    outer loop
      vertex 173.466 -7.5 0.195581
      vertex 173.285 112.5 1.91458e-07
      vertex 173.466 112.5 0.195581
    endloop
  endfacet
  facet normal 0.733935 0 -0.679219
    outer loop
      vertex 173.285 112.5 1.91458e-07
      vertex 173.466 -7.5 0.195581
      vertex 173.285 -7.5 1.91458e-07
    endloop
  endfacet
  facet normal -0.993066 0 -0.117557
    outer loop
      vertex 166.648 -7.5 2.11833
      vertex 166.612 112.5 2.42244
      vertex 166.648 112.5 2.11833
    endloop
  endfacet
  facet normal -0.993066 -0 -0.117557
    outer loop
      vertex 166.612 112.5 2.42244
      vertex 166.648 -7.5 2.11833
      vertex 166.612 -7.5 2.42244
    endloop
  endfacet
  facet normal -0.733935 0 -0.679219
    outer loop
      vertex 167.715 -7.5 1.91458e-07
      vertex 167.534 112.5 0.195581
      vertex 167.715 112.5 1.91458e-07
    endloop
  endfacet
  facet normal -0.733935 -0 -0.679219
    outer loop
      vertex 167.534 112.5 0.195581
      vertex 167.715 -7.5 1.91458e-07
      vertex 167.534 -7.5 0.195581
    endloop
  endfacet
  facet normal 0.96256 0 -0.27107
    outer loop
      vertex 174.292 -7.5 1.81799
      vertex 174.209 112.5 1.52326
      vertex 174.292 112.5 1.81799
    endloop
  endfacet
  facet normal 0.96256 0 -0.27107
    outer loop
      vertex 174.209 112.5 1.52326
      vertex 174.292 -7.5 1.81799
      vertex 174.209 -7.5 1.52326
    endloop
  endfacet
  facet normal 0.980623 0 -0.195903
    outer loop
      vertex 174.352 -7.5 2.11833
      vertex 174.292 112.5 1.81799
      vertex 174.352 112.5 2.11833
    endloop
  endfacet
  facet normal 0.980623 0 -0.195903
    outer loop
      vertex 174.292 112.5 1.81799
      vertex 174.352 -7.5 2.11833
      vertex 174.292 -7.5 1.81799
    endloop
  endfacet
  facet normal 0 0 -1
    outer loop
      vertex 167.715 -7.5 1.91458e-07
      vertex 173.285 112.5 1.91458e-07
      vertex 173.285 -7.5 1.91458e-07
    endloop
  endfacet
  facet normal -0 0 -1
    outer loop
      vertex 173.285 112.5 1.91458e-07
      vertex 167.715 -7.5 1.91458e-07
      vertex 167.715 112.5 1.91458e-07
    endloop
  endfacet
  facet normal 1 -0 0
    outer loop
      vertex 174.4 -7.5 10.9
      vertex 174.4 4.5 2.72843
      vertex 174.4 4.5 10.9
    endloop
  endfacet
  facet normal 1 0 0
    outer loop
      vertex 174.4 4.5 2.72843
      vertex 174.4 -7.5 10.9
      vertex 174.4 -7.5 2.72843
    endloop
  endfacet
  facet normal 0 1 0
    outer loop
      vertex 174.4 4.5 10.9
      vertex 170.5 4.5 6.62843
      vertex 166.6 4.5 10.9
    endloop
  endfacet
  facet normal 0 1 0
    outer loop
      vertex 174.4 4.5 10.9
      vertex 170.806 4.5 6.6164
      vertex 170.5 4.5 6.62843
    endloop
  endfacet
  facet normal 0 1 0
    outer loop
      vertex 174.4 4.5 10.9
      vertex 171.11 4.5 6.58041
      vertex 170.806 4.5 6.6164
    endloop
  endfacet
  facet normal 0 1 0
    outer loop
      vertex 174.4 4.5 10.9
      vertex 171.41 4.5 6.52067
      vertex 171.11 4.5 6.58041
    endloop
  endfacet
  facet normal 0 1 0
    outer loop
      vertex 174.4 4.5 10.9
      vertex 171.705 4.5 6.43755
      vertex 171.41 4.5 6.52067
    endloop
  endfacet
  facet normal 0 1 0
    outer loop
      vertex 174.4 4.5 10.9
      vertex 171.992 4.5 6.33156
      vertex 171.705 4.5 6.43755
    endloop
  endfacet
  facet normal 0 1 0
    outer loop
      vertex 174.4 4.5 10.9
      vertex 172.271 4.5 6.20335
      vertex 171.992 4.5 6.33156
    endloop
  endfacet
  facet normal 0 1 0
    outer loop
      vertex 174.4 4.5 10.9
      vertex 172.538 4.5 6.05372
      vertex 172.271 4.5 6.20335
    endloop
  endfacet
  facet normal 0 1 0
    outer loop
      vertex 174.4 4.5 10.9
      vertex 172.792 4.5 5.88359
      vertex 172.538 4.5 6.05372
    endloop
  endfacet
  facet normal 0 1 0
    outer loop
      vertex 174.4 4.5 10.9
      vertex 173.033 4.5 5.69401
      vertex 172.792 4.5 5.88359
    endloop
  endfacet
  facet normal 0 1 0
    outer loop
      vertex 174.4 4.5 10.9
      vertex 173.258 4.5 5.48614
      vertex 173.033 4.5 5.69401
    endloop
  endfacet
  facet normal 0 1 0
    outer loop
      vertex 174.4 4.5 10.9
      vertex 173.466 4.5 5.26127
      vertex 173.258 4.5 5.48614
    endloop
  endfacet
  facet normal 0 1 0
    outer loop
      vertex 174.4 4.5 10.9
      vertex 173.655 4.5 5.02079
      vertex 173.466 4.5 5.26127
    endloop
  endfacet
  facet normal 0 1 0
    outer loop
      vertex 174.4 4.5 10.9
      vertex 173.825 4.5 4.76617
      vertex 173.655 4.5 5.02079
    endloop
  endfacet
  facet normal 0 1 0
    outer loop
      vertex 174.4 4.5 10.9
      vertex 173.975 4.5 4.49899
      vertex 173.825 4.5 4.76617
    endloop
  endfacet
  facet normal 0 1 0
    outer loop
      vertex 174.4 4.5 10.9
      vertex 174.103 4.5 4.22089
      vertex 173.975 4.5 4.49899
    endloop
  endfacet
  facet normal 0 1 0
    outer loop
      vertex 174.4 4.5 10.9
      vertex 174.209 4.5 3.93359
      vertex 174.103 4.5 4.22089
    endloop
  endfacet
  facet normal 0 1 0
    outer loop
      vertex 174.4 4.5 10.9
      vertex 174.292 4.5 3.63886
      vertex 174.209 4.5 3.93359
    endloop
  endfacet
  facet normal 0 1 0
    outer loop
      vertex 174.4 4.5 10.9
      vertex 174.352 4.5 3.33852
      vertex 174.292 4.5 3.63886
    endloop
  endfacet
  facet normal 0 1 0
    outer loop
      vertex 174.4 4.5 10.9
      vertex 174.388 4.5 3.03442
      vertex 174.352 4.5 3.33852
    endloop
  endfacet
  facet normal -0 1 0
    outer loop
      vertex 174.388 4.5 3.03442
      vertex 174.4 4.5 10.9
      vertex 174.4 4.5 2.72843
    endloop
  endfacet
  facet normal 0 1 -0
    outer loop
      vertex 170.194 4.5 6.6164
      vertex 166.6 4.5 10.9
      vertex 170.5 4.5 6.62843
    endloop
  endfacet
  facet normal 0 1 -0
    outer loop
      vertex 169.89 4.5 6.58041
      vertex 166.6 4.5 10.9
      vertex 170.194 4.5 6.6164
    endloop
  endfacet
  facet normal 0 1 -0
    outer loop
      vertex 169.59 4.5 6.52067
      vertex 166.6 4.5 10.9
      vertex 169.89 4.5 6.58041
    endloop
  endfacet
  facet normal 0 1 -0
    outer loop
      vertex 169.295 4.5 6.43755
      vertex 166.6 4.5 10.9
      vertex 169.59 4.5 6.52067
    endloop
  endfacet
  facet normal 0 1 -0
    outer loop
      vertex 169.008 4.5 6.33156
      vertex 166.6 4.5 10.9
      vertex 169.295 4.5 6.43755
    endloop
  endfacet
  facet normal 0 1 -0
    outer loop
      vertex 168.729 4.5 6.20335
      vertex 166.6 4.5 10.9
      vertex 169.008 4.5 6.33156
    endloop
  endfacet
  facet normal 0 1 -0
    outer loop
      vertex 168.462 4.5 6.05372
      vertex 166.6 4.5 10.9
      vertex 168.729 4.5 6.20335
    endloop
  endfacet
  facet normal 0 1 -0
    outer loop
      vertex 168.208 4.5 5.88359
      vertex 166.6 4.5 10.9
      vertex 168.462 4.5 6.05372
    endloop
  endfacet
  facet normal 0 1 -0
    outer loop
      vertex 167.967 4.5 5.69401
      vertex 166.6 4.5 10.9
      vertex 168.208 4.5 5.88359
    endloop
  endfacet
  facet normal 0 1 -0
    outer loop
      vertex 167.742 4.5 5.48614
      vertex 166.6 4.5 10.9
      vertex 167.967 4.5 5.69401
    endloop
  endfacet
  facet normal 0 1 -0
    outer loop
      vertex 167.534 4.5 5.26127
      vertex 166.6 4.5 10.9
      vertex 167.742 4.5 5.48614
    endloop
  endfacet
  facet normal 0 1 -0
    outer loop
      vertex 167.345 4.5 5.02079
      vertex 166.6 4.5 10.9
      vertex 167.534 4.5 5.26127
    endloop
  endfacet
  facet normal 0 1 -0
    outer loop
      vertex 167.175 4.5 4.76617
      vertex 166.6 4.5 10.9
      vertex 167.345 4.5 5.02079
    endloop
  endfacet
  facet normal 0 1 -0
    outer loop
      vertex 167.025 4.5 4.49899
      vertex 166.6 4.5 10.9
      vertex 167.175 4.5 4.76617
    endloop
  endfacet
  facet normal 0 1 -0
    outer loop
      vertex 166.897 4.5 4.22089
      vertex 166.6 4.5 10.9
      vertex 167.025 4.5 4.49899
    endloop
  endfacet
  facet normal 0 1 -0
    outer loop
      vertex 166.791 4.5 3.93359
      vertex 166.6 4.5 10.9
      vertex 166.897 4.5 4.22089
    endloop
  endfacet
  facet normal 0 1 -0
    outer loop
      vertex 166.708 4.5 3.63886
      vertex 166.6 4.5 10.9
      vertex 166.791 4.5 3.93359
    endloop
  endfacet
  facet normal 0 1 -0
    outer loop
      vertex 166.648 4.5 3.33852
      vertex 166.6 4.5 10.9
      vertex 166.708 4.5 3.63886
    endloop
  endfacet
  facet normal 0 1 -0
    outer loop
      vertex 166.612 4.5 3.03442
      vertex 166.6 4.5 10.9
      vertex 166.648 4.5 3.33852
    endloop
  endfacet
  facet normal 0 1 0
    outer loop
      vertex 166.6 4.5 10.9
      vertex 166.612 4.5 3.03442
      vertex 166.6 4.5 2.72843
    endloop
  endfacet
  facet normal -1 0 0
    outer loop
      vertex 166.6 -7.5 2.72843
      vertex 166.6 4.5 10.9
      vertex 166.6 4.5 2.72843
    endloop
  endfacet
  facet normal -1 -0 0
    outer loop
      vertex 166.6 4.5 10.9
      vertex 166.6 -7.5 2.72843
      vertex 166.6 -7.5 10.9
    endloop
  endfacet
  facet normal -0 0 1
    outer loop
      vertex 166.6 4.5 10.9
      vertex 174.4 -7.5 10.9
      vertex 174.4 4.5 10.9
    endloop
  endfacet
  facet normal 0 0 1
    outer loop
      vertex 174.4 -7.5 10.9
      vertex 166.6 4.5 10.9
      vertex 166.6 -7.5 10.9
    endloop
  endfacet
endsolid OpenSCAD_Model
