solid Izzy Hold Down Clamp
facet normal -0.9970484561080697 0.07677484075212976 0.0
  outer loop
    vertex 354.29852018034956 93.84546416282204 13.180730484590283
    vertex 354.0598920788584 90.7464830663465 8.418230484590286
    vertex 354.0598920788584 90.7464830663465 13.180730484590283
  endloop
endfacet
facet normal -0.9970484561080697 0.07677484075212976 0.0
  outer loop
    vertex 354.0598920788584 90.7464830663465 8.418230484590286
    vertex 354.29852018034956 93.84546416282204 13.180730484590283
    vertex 354.29852018034956 93.84546416282204 8.418230484590286
  endloop
endfacet
facet normal 0.18389632783912294 -0.9829456447877909 0.0
  outer loop
    vertex 369.64711306422066 80.07240844984818 13.180730484590283
    vertex 366.5919656905908 79.50083016777627 8.418230484590286
    vertex 369.64711306422066 80.07240844984818 8.418230484590286
  endloop
endfacet
facet normal 0.18389632783912294 -0.9829456447877909 0.0
  outer loop
    vertex 366.5919656905908 79.50083016777627 8.418230484590286
    vertex 369.64711306422066 80.07240844984818 13.180730484590283
    vertex 366.5919656905908 79.50083016777627 13.180730484590283
  endloop
endfacet
facet normal 0.0 0.0 1.0
  outer loop
    vertex 363.4929845941153 79.73945826926744 13.180730484590283
    vertex 362.92434210130995 90.42348971879983 13.180730484590283
    vertex 362.7773245630977 91.23918805653723 13.180730484590283
  endloop
endfacet
facet normal 0.0 0.0 1.0
  outer loop
    vertex 362.92434210130995 90.42348971879983 13.180730484590283
    vertex 363.4929845941153 79.73945826926744 13.180730484590283
    vertex 366.5919656905908 79.50083016777627 13.180730484590283
  endloop
endfacet
facet normal 0.0 0.0 1.0
  outer loop
    vertex 362.92434210130995 90.42348971879983 13.180730484590283
    vertex 366.5919656905908 79.50083016777627 13.180730484590283
    vertex 363.2774684032514 89.67363656677163 13.180730484590283
  endloop
endfacet
facet normal 0.0 0.0 1.0
  outer loop
    vertex 363.2774684032514 89.67363656677163 13.180730484590283
    vertex 366.5919656905908 79.50083016777627 13.180730484590283
    vertex 363.81263849501374 89.0407298535724 13.180730484590283
  endloop
endfacet
facet normal 0.0 0.0 1.0
  outer loop
    vertex 363.81263849501374 89.0407298535724 13.180730484590283
    vertex 366.5919656905908 79.50083016777627 13.180730484590283
    vertex 364.4933814192537 88.5679011257789 13.180730484590283
  endloop
endfacet
facet normal 0.0 0.0 1.0
  outer loop
    vertex 364.4933814192537 88.5679011257789 13.180730484590283
    vertex 366.5919656905908 79.50083016777627 13.180730484590283
    vertex 365.2733056706651 88.28737287980383 13.180730484590283
  endloop
endfacet
facet normal 0.0 0.0 1.0
  outer loop
    vertex 365.2733056706651 88.28737287980383 13.180730484590283
    vertex 366.5919656905908 79.50083016777627 13.180730484590283
    vertex 366.0992607004001 88.21826265201553 13.180730484590283
  endloop
endfacet
facet normal 0.0 0.0 1.0
  outer loop
    vertex 366.0992607004001 88.21826265201553 13.180730484590283
    vertex 366.5919656905908 79.50083016777627 13.180730484590283
    vertex 369.64711306422066 80.07240844984818 13.180730484590283
  endloop
endfacet
facet normal 0.0 0.0 1.0
  outer loop
    vertex 366.0992607004001 88.21826265201553 13.180730484590283
    vertex 369.64711306422066 80.07240844984818 13.180730484590283
    vertex 366.9149590381375 88.36528019022772 13.180730484590283
  endloop
endfacet
facet normal 0.0 0.0 1.0
  outer loop
    vertex 366.9149590381375 88.36528019022772 13.180730484590283
    vertex 369.64711306422066 80.07240844984818 13.180730484590283
    vertex 367.66481219016566 88.71840649216924 13.180730484590283
  endloop
endfacet
facet normal 0.0 0.0 1.0
  outer loop
    vertex 367.66481219016566 88.71840649216924 13.180730484590283
    vertex 369.64711306422066 80.07240844984818 13.180730484590283
    vertex 368.2977189033649 89.25357658393156 13.180730484590283
  endloop
endfacet
facet normal 0.0 0.0 1.0
  outer loop
    vertex 368.2977189033649 89.25357658393156 13.180730484590283
    vertex 369.64711306422066 80.07240844984818 13.180730484590283
    vertex 368.7705476311585 89.93431950817147 13.180730484590283
  endloop
endfacet
facet normal 0.0 0.0 1.0
  outer loop
    vertex 368.7705476311585 89.93431950817147 13.180730484590283
    vertex 369.64711306422066 80.07240844984818 13.180730484590283
    vertex 369.0510758771335 90.71424375958289 13.180730484590283
  endloop
endfacet
facet normal 0.0 0.0 1.0
  outer loop
    vertex 369.0510758771335 90.71424375958289 13.180730484590283
    vertex 369.64711306422066 80.07240844984818 13.180730484590283
    vertex 372.4502234703618 81.41524100013773 13.180730484590283
  endloop
endfacet
facet normal 0.0 0.0 1.0
  outer loop
    vertex 369.0510758771335 90.71424375958289 13.180730484590283
    vertex 372.4502234703618 81.41524100013773 13.180730484590283
    vertex 369.1201861049218 91.5401987893179 13.180730484590283
  endloop
endfacet
facet normal 0.0 0.0 1.0
  outer loop
    vertex 369.1201861049218 91.5401987893179 13.180730484590283
    vertex 372.4502234703618 81.41524100013773 13.180730484590283
    vertex 368.40452607390415 103.0399285765877 13.180730484590283
  endloop
endfacet
facet normal 0.0 0.0 1.0
  outer loop
    vertex 368.40452607390415 103.0399285765877 13.180730484590283
    vertex 372.4502234703618 81.41524100013773 13.180730484590283
    vertex 371.3361504528089 102.00735620229851 13.180730484590283
  endloop
endfacet
facet normal 0.0 0.0 1.0
  outer loop
    vertex 371.3361504528089 102.00735620229851 13.180730484590283
    vertex 372.4502234703618 81.41524100013773 13.180730484590283
    vertex 374.81026956719455 83.43781599947842 13.180730484590283
  endloop
endfacet
facet normal 0.0 0.0 1.0
  outer loop
    vertex 371.3361504528089 102.00735620229851 13.180730484590283
    vertex 374.81026956719455 83.43781599947842 13.180730484590283
    vertex 373.9006327574589 100.25120765611253 13.180730484590283
  endloop
endfacet
facet normal 0.0 0.0 1.0
  outer loop
    vertex 373.9006327574589 100.25120765611253 13.180730484590283
    vertex 374.81026956719455 83.43781599947842 13.180730484590283
    vertex 376.5664181133805 86.00229830412837 13.180730484590283
  endloop
endfacet
facet normal 0.0 0.0 1.0
  outer loop
    vertex 373.9006327574589 100.25120765611253 13.180730484590283
    vertex 376.5664181133805 86.00229830412837 13.180730484590283
    vertex 375.92320775679946 97.8911615592797 13.180730484590283
  endloop
endfacet
facet normal 0.0 0.0 1.0
  outer loop
    vertex 375.92320775679946 97.8911615592797 13.180730484590283
    vertex 376.5664181133805 86.00229830412837 13.180730484590283
    vertex 377.5989904876697 88.93392268303312 13.180730484590283
  endloop
endfacet
facet normal 0.0 0.0 1.0
  outer loop
    vertex 375.92320775679946 97.8911615592797 13.180730484590283
    vertex 377.5989904876697 88.93392268303312 13.180730484590283
    vertex 377.26604030708904 95.08805115313854 13.180730484590283
  endloop
endfacet
facet normal 0.0 0.0 1.0
  outer loop
    vertex 377.26604030708904 95.08805115313854 13.180730484590283
    vertex 377.5989904876697 88.93392268303312 13.180730484590283
    vertex 377.83761858916097 92.03290377950864 13.180730484590283
  endloop
endfacet
facet normal 0.0 0.0 1.0
  outer loop
    vertex 354.6314703609303 87.6913356927166 13.180730484590283
    vertex 354.29852018034956 93.84546416282204 13.180730484590283
    vertex 354.0598920788584 90.7464830663465 13.180730484590283
  endloop
endfacet
facet normal 0.0 0.0 1.0
  outer loop
    vertex 354.29852018034956 93.84546416282204 13.180730484590283
    vertex 354.6314703609303 87.6913356927166 13.180730484590283
    vertex 355.97430291121987 84.88822528657548 13.180730484590283
  endloop
endfacet
facet normal 0.0 0.0 1.0
  outer loop
    vertex 354.29852018034956 93.84546416282204 13.180730484590283
    vertex 355.97430291121987 84.88822528657548 13.180730484590283
    vertex 355.3310925546388 96.77708854172678 13.180730484590283
  endloop
endfacet
facet normal 0.0 0.0 1.0
  outer loop
    vertex 355.3310925546388 96.77708854172678 13.180730484590283
    vertex 355.97430291121987 84.88822528657548 13.180730484590283
    vertex 357.99687791056056 82.52817918974262 13.180730484590283
  endloop
endfacet
facet normal 0.0 0.0 1.0
  outer loop
    vertex 355.3310925546388 96.77708854172678 13.180730484590283
    vertex 357.99687791056056 82.52817918974262 13.180730484590283
    vertex 357.08724110082477 99.34157084637675 13.180730484590283
  endloop
endfacet
facet normal 0.0 0.0 1.0
  outer loop
    vertex 357.08724110082477 99.34157084637675 13.180730484590283
    vertex 357.99687791056056 82.52817918974262 13.180730484590283
    vertex 360.5613602152105 80.77203064355665 13.180730484590283
  endloop
endfacet
facet normal 0.0 0.0 1.0
  outer loop
    vertex 357.08724110082477 99.34157084637675 13.180730484590283
    vertex 360.5613602152105 80.77203064355665 13.180730484590283
    vertex 359.44728719765766 101.36414584571745 13.180730484590283
  endloop
endfacet
facet normal 0.0 0.0 1.0
  outer loop
    vertex 359.44728719765766 101.36414584571745 13.180730484590283
    vertex 360.5613602152105 80.77203064355665 13.180730484590283
    vertex 363.4929845941153 79.73945826926744 13.180730484590283
  endloop
endfacet
facet normal 0.0 0.0 1.0
  outer loop
    vertex 359.44728719765766 101.36414584571745 13.180730484590283
    vertex 363.4929845941153 79.73945826926744 13.180730484590283
    vertex 362.7773245630977 91.23918805653723 13.180730484590283
  endloop
endfacet
facet normal 0.0 0.0 1.0
  outer loop
    vertex 359.44728719765766 101.36414584571745 13.180730484590283
    vertex 362.7773245630977 91.23918805653723 13.180730484590283
    vertex 362.2503976037988 102.70697839600696 13.180730484590283
  endloop
endfacet
facet normal 0.0 0.0 1.0
  outer loop
    vertex 362.2503976037988 102.70697839600696 13.180730484590283
    vertex 362.7773245630977 91.23918805653723 13.180730484590283
    vertex 362.84643479088606 92.06514308627226 13.180730484590283
  endloop
endfacet
facet normal 0.0 0.0 1.0
  outer loop
    vertex 362.2503976037988 102.70697839600696 13.180730484590283
    vertex 362.84643479088606 92.06514308627226 13.180730484590283
    vertex 363.12696303686107 92.84506733768366 13.180730484590283
  endloop
endfacet
facet normal 0.0 0.0 1.0
  outer loop
    vertex 362.2503976037988 102.70697839600696 13.180730484590283
    vertex 363.12696303686107 92.84506733768366 13.180730484590283
    vertex 365.3055449774287 103.27855667807887 13.180730484590283
  endloop
endfacet
facet normal 0.0 0.0 1.0
  outer loop
    vertex 365.3055449774287 103.27855667807887 13.180730484590283
    vertex 363.12696303686107 92.84506733768366 13.180730484590283
    vertex 363.5997917646546 93.52581026192358 13.180730484590283
  endloop
endfacet
facet normal 0.0 0.0 1.0
  outer loop
    vertex 365.3055449774287 103.27855667807887 13.180730484590283
    vertex 363.5997917646546 93.52581026192358 13.180730484590283
    vertex 364.23269847785383 94.06098035368589 13.180730484590283
  endloop
endfacet
facet normal 0.0 0.0 1.0
  outer loop
    vertex 365.3055449774287 103.27855667807887 13.180730484590283
    vertex 364.23269847785383 94.06098035368589 13.180730484590283
    vertex 364.982551629882 94.4141066556274 13.180730484590283
  endloop
endfacet
facet normal 0.0 0.0 1.0
  outer loop
    vertex 365.3055449774287 103.27855667807887 13.180730484590283
    vertex 364.982551629882 94.4141066556274 13.180730484590283
    vertex 365.79824996761937 94.5611241938396 13.180730484590283
  endloop
endfacet
facet normal 0.0 0.0 1.0
  outer loop
    vertex 365.3055449774287 103.27855667807887 13.180730484590283
    vertex 365.79824996761937 94.5611241938396 13.180730484590283
    vertex 366.6242049973544 94.4920139660513 13.180730484590283
  endloop
endfacet
facet normal 0.0 0.0 1.0
  outer loop
    vertex 365.3055449774287 103.27855667807887 13.180730484590283
    vertex 366.6242049973544 94.4920139660513 13.180730484590283
    vertex 368.40452607390415 103.0399285765877 13.180730484590283
  endloop
endfacet
facet normal 0.0 0.0 1.0
  outer loop
    vertex 368.40452607390415 103.0399285765877 13.180730484590283
    vertex 366.6242049973544 94.4920139660513 13.180730484590283
    vertex 367.40412924876586 94.21148572007623 13.180730484590283
  endloop
endfacet
facet normal 0.0 0.0 1.0
  outer loop
    vertex 368.40452607390415 103.0399285765877 13.180730484590283
    vertex 367.40412924876586 94.21148572007623 13.180730484590283
    vertex 368.08487217300575 93.7386569922827 13.180730484590283
  endloop
endfacet
facet normal 0.0 0.0 1.0
  outer loop
    vertex 368.40452607390415 103.0399285765877 13.180730484590283
    vertex 368.08487217300575 93.7386569922827 13.180730484590283
    vertex 368.6200422647681 93.1057502790835 13.180730484590283
  endloop
endfacet
facet normal 0.0 0.0 1.0
  outer loop
    vertex 368.40452607390415 103.0399285765877 13.180730484590283
    vertex 368.6200422647681 93.1057502790835 13.180730484590283
    vertex 368.9731685667096 92.35589712705529 13.180730484590283
  endloop
endfacet
facet normal 0.0 0.0 1.0
  outer loop
    vertex 368.40452607390415 103.0399285765877 13.180730484590283
    vertex 368.9731685667096 92.35589712705529 13.180730484590283
    vertex 369.1201861049218 91.5401987893179 13.180730484590283
  endloop
endfacet
facet normal 0.6014337969226382 -0.7017843518254243 0.381806379533119
  outer loop
    vertex 374.81026956719455 83.43781599947842 8.418230484590286
    vertex 374.61737951581244 78.09042352587444 -1.1067695154097146
    vertex 377.7641076449229 80.78719019166202 -1.1067695154097146
  endloop
endfacet
facet normal 0.6014337969226382 -0.7017843518254243 0.381806379533119
  outer loop
    vertex 374.61737951581244 78.09042352587444 -1.1067695154097146
    vertex 374.81026956719455 83.43781599947842 8.418230484590286
    vertex 372.4502234703618 81.41524100013773 8.418230484590286
  endloop
endfacet
facet normal -0.9974849575987584 -0.07087848308339582 0.0
  outer loop
    vertex 371.1910165189492 94.93422888377388 7.243230484590298
    vertex 371.63954368018705 88.62202979392009 -1.1067695154097033
    vertex 371.63954368018705 88.62202979392009 7.243230484590298
  endloop
endfacet
facet normal -0.9974849575987584 -0.07087848308339582 0.0
  outer loop
    vertex 371.63954368018705 88.62202979392009 -1.1067695154097033
    vertex 371.1910165189492 94.93422888377388 7.243230484590298
    vertex 371.1910165189492 94.93422888377388 -1.1067695154097033
  endloop
endfacet
facet normal 0.437359911867431 0.899286554715077 0.0
  outer loop
    vertex 360.70649414907035 87.8451579620813 7.243230484590298
    vertex 366.39728249524785 85.07749433307382 -1.1067695154097033
    vertex 360.70649414907035 87.8451579620813 -1.1067695154097033
  endloop
endfacet
facet normal 0.437359911867431 0.899286554715077 0.0
  outer loop
    vertex 366.39728249524785 85.07749433307382 -1.1067695154097033
    vertex 360.70649414907035 87.8451579620813 7.243230484590298
    vertex 366.39728249524785 85.07749433307382 7.243230484590298
  endloop
endfacet
facet normal -0.759307735005943 -0.6507317139652447 0.0
  outer loop
    vertex 355.97430291121987 84.88822528657548 13.180730484590283
    vertex 357.99687791056056 82.52817918974262 8.418230484590286
    vertex 357.99687791056056 82.52817918974262 13.180730484590283
  endloop
endfacet
facet normal -0.759307735005943 -0.6507317139652447 0.0
  outer loop
    vertex 357.99687791056056 82.52817918974262 8.418230484590286
    vertex 355.97430291121987 84.88822528657548 13.180730484590283
    vertex 355.97430291121987 84.88822528657548 8.418230484590286
  endloop
endfacet
facet normal 0.0 0.0 -1.0
  outer loop
    vertex 360.2579669878324 94.15735705193504 7.243230484590298
    vertex 363.12696303686107 92.84506733768366 7.243230484590298
    vertex 360.70649414907035 87.8451579620813 7.243230484590298
  endloop
endfacet
facet normal 0.0 0.0 -1.0
  outer loop
    vertex 363.12696303686107 92.84506733768366 7.243230484590298
    vertex 360.2579669878324 94.15735705193504 7.243230484590298
    vertex 365.50022817277187 97.70189251278134 7.243230484590298
  endloop
endfacet
facet normal 0.0 0.0 -1.0
  outer loop
    vertex 360.70649414907035 87.8451579620813 7.243230484590298
    vertex 363.12696303686107 92.84506733768366 7.243230484590298
    vertex 362.84643479088606 92.06514308627226 7.243230484590298
  endloop
endfacet
facet normal 0.0 0.0 -1.0
  outer loop
    vertex 360.70649414907035 87.8451579620813 7.243230484590298
    vertex 362.84643479088606 92.06514308627226 7.243230484590298
    vertex 362.7773245630977 91.23918805653723 7.243230484590298
  endloop
endfacet
facet normal 0.0 0.0 -1.0
  outer loop
    vertex 363.12696303686107 92.84506733768366 7.243230484590298
    vertex 365.50022817277187 97.70189251278134 7.243230484590298
    vertex 363.5997917646546 93.52581026192358 7.243230484590298
  endloop
endfacet
facet normal 0.0 0.0 -1.0
  outer loop
    vertex 363.5997917646546 93.52581026192358 7.243230484590298
    vertex 365.50022817277187 97.70189251278134 7.243230484590298
    vertex 364.23269847785383 94.06098035368589 7.243230484590298
  endloop
endfacet
facet normal 0.0 0.0 -1.0
  outer loop
    vertex 364.23269847785383 94.06098035368589 7.243230484590298
    vertex 365.50022817277187 97.70189251278134 7.243230484590298
    vertex 364.982551629882 94.4141066556274 7.243230484590298
  endloop
endfacet
facet normal 0.0 0.0 -1.0
  outer loop
    vertex 364.982551629882 94.4141066556274 7.243230484590298
    vertex 365.50022817277187 97.70189251278134 7.243230484590298
    vertex 365.79824996761937 94.5611241938396 7.243230484590298
  endloop
endfacet
facet normal 0.0 0.0 -1.0
  outer loop
    vertex 365.79824996761937 94.5611241938396 7.243230484590298
    vertex 365.50022817277187 97.70189251278134 7.243230484590298
    vertex 371.1910165189492 94.93422888377388 7.243230484590298
  endloop
endfacet
facet normal 0.0 0.0 -1.0
  outer loop
    vertex 365.79824996761937 94.5611241938396 7.243230484590298
    vertex 371.1910165189492 94.93422888377388 7.243230484590298
    vertex 366.6242049973544 94.4920139660513 7.243230484590298
  endloop
endfacet
facet normal 0.0 0.0 -1.0
  outer loop
    vertex 366.6242049973544 94.4920139660513 7.243230484590298
    vertex 371.1910165189492 94.93422888377388 7.243230484590298
    vertex 367.40412924876586 94.21148572007623 7.243230484590298
  endloop
endfacet
facet normal 0.0 0.0 -1.0
  outer loop
    vertex 367.40412924876586 94.21148572007623 7.243230484590298
    vertex 371.1910165189492 94.93422888377388 7.243230484590298
    vertex 368.08487217300575 93.7386569922827 7.243230484590298
  endloop
endfacet
facet normal 0.0 0.0 -1.0
  outer loop
    vertex 368.08487217300575 93.7386569922827 7.243230484590298
    vertex 371.1910165189492 94.93422888377388 7.243230484590298
    vertex 368.6200422647681 93.1057502790835 7.243230484590298
  endloop
endfacet
facet normal 0.0 0.0 -1.0
  outer loop
    vertex 368.6200422647681 93.1057502790835 7.243230484590298
    vertex 371.1910165189492 94.93422888377388 7.243230484590298
    vertex 368.9731685667096 92.35589712705529 7.243230484590298
  endloop
endfacet
facet normal 0.0 0.0 -1.0
  outer loop
    vertex 368.9731685667096 92.35589712705529 7.243230484590298
    vertex 371.1910165189492 94.93422888377388 7.243230484590298
    vertex 369.1201861049218 91.5401987893179 7.243230484590298
  endloop
endfacet
facet normal 0.0 0.0 -1.0
  outer loop
    vertex 360.70649414907035 87.8451579620813 7.243230484590298
    vertex 363.2774684032514 89.67363656677163 7.243230484590298
    vertex 366.39728249524785 85.07749433307382 7.243230484590298
  endloop
endfacet
facet normal 0.0 0.0 -1.0
  outer loop
    vertex 363.2774684032514 89.67363656677163 7.243230484590298
    vertex 360.70649414907035 87.8451579620813 7.243230484590298
    vertex 362.92434210130995 90.42348971879983 7.243230484590298
  endloop
endfacet
facet normal 0.0 0.0 -1.0
  outer loop
    vertex 362.92434210130995 90.42348971879983 7.243230484590298
    vertex 360.70649414907035 87.8451579620813 7.243230484590298
    vertex 362.7773245630977 91.23918805653723 7.243230484590298
  endloop
endfacet
facet normal 0.0 0.0 -1.0
  outer loop
    vertex 366.39728249524785 85.07749433307382 7.243230484590298
    vertex 363.2774684032514 89.67363656677163 7.243230484590298
    vertex 363.81263849501374 89.0407298535724 7.243230484590298
  endloop
endfacet
facet normal 0.0 0.0 -1.0
  outer loop
    vertex 366.39728249524785 85.07749433307382 7.243230484590298
    vertex 363.81263849501374 89.0407298535724 7.243230484590298
    vertex 364.4933814192537 88.5679011257789 7.243230484590298
  endloop
endfacet
facet normal 0.0 0.0 -1.0
  outer loop
    vertex 366.39728249524785 85.07749433307382 7.243230484590298
    vertex 364.4933814192537 88.5679011257789 7.243230484590298
    vertex 365.2733056706651 88.28737287980383 7.243230484590298
  endloop
endfacet
facet normal 0.0 0.0 -1.0
  outer loop
    vertex 366.39728249524785 85.07749433307382 7.243230484590298
    vertex 365.2733056706651 88.28737287980383 7.243230484590298
    vertex 366.0992607004001 88.21826265201553 7.243230484590298
  endloop
endfacet
facet normal 0.0 0.0 -1.0
  outer loop
    vertex 366.39728249524785 85.07749433307382 7.243230484590298
    vertex 366.0992607004001 88.21826265201553 7.243230484590298
    vertex 366.9149590381375 88.36528019022772 7.243230484590298
  endloop
endfacet
facet normal 0.0 0.0 -1.0
  outer loop
    vertex 366.39728249524785 85.07749433307382 7.243230484590298
    vertex 366.9149590381375 88.36528019022772 7.243230484590298
    vertex 371.63954368018705 88.62202979392009 7.243230484590298
  endloop
endfacet
facet normal 0.0 0.0 -1.0
  outer loop
    vertex 371.63954368018705 88.62202979392009 7.243230484590298
    vertex 366.9149590381375 88.36528019022772 7.243230484590298
    vertex 367.66481219016566 88.71840649216924 7.243230484590298
  endloop
endfacet
facet normal 0.0 0.0 -1.0
  outer loop
    vertex 371.63954368018705 88.62202979392009 7.243230484590298
    vertex 367.66481219016566 88.71840649216924 7.243230484590298
    vertex 368.2977189033649 89.25357658393156 7.243230484590298
  endloop
endfacet
facet normal 0.0 0.0 -1.0
  outer loop
    vertex 371.63954368018705 88.62202979392009 7.243230484590298
    vertex 368.2977189033649 89.25357658393156 7.243230484590298
    vertex 368.7705476311585 89.93431950817147 7.243230484590298
  endloop
endfacet
facet normal 0.0 0.0 -1.0
  outer loop
    vertex 371.63954368018705 88.62202979392009 7.243230484590298
    vertex 368.7705476311585 89.93431950817147 7.243230484590298
    vertex 369.0510758771335 90.71424375958289 7.243230484590298
  endloop
endfacet
facet normal 0.0 0.0 -1.0
  outer loop
    vertex 371.63954368018705 88.62202979392009 7.243230484590298
    vertex 369.0510758771335 90.71424375958289 7.243230484590298
    vertex 369.1201861049218 91.5401987893179 7.243230484590298
  endloop
endfacet
facet normal 0.0 0.0 -1.0
  outer loop
    vertex 371.63954368018705 88.62202979392009 7.243230484590298
    vertex 369.1201861049218 91.5401987893179 7.243230484590298
    vertex 371.1910165189492 94.93422888377388 7.243230484590298
  endloop
endfacet
facet normal 0.7593077350059534 0.6507317139652322 0.0
  outer loop
    vertex 373.9006327574589 100.25120765611253 8.418230484590286
    vertex 375.92320775679946 97.8911615592797 13.180730484590283
    vertex 375.92320775679946 97.8911615592797 8.418230484590286
  endloop
endfacet
facet normal 0.7593077350059534 0.6507317139652322 0.0
  outer loop
    vertex 375.92320775679946 97.8911615592797 13.180730484590283
    vertex 373.9006327574589 100.25120765611253 8.418230484590286
    vertex 373.9006327574589 100.25120765611253 13.180730484590283
  endloop
endfacet
facet normal 0.9829456447877912 0.18389632783912027 0.0
  outer loop
    vertex 377.26604030708904 95.08805115313854 8.418230484590286
    vertex 377.83761858916097 92.03290377950864 13.180730484590283
    vertex 377.83761858916097 92.03290377950864 8.418230484590286
  endloop
endfacet
facet normal 0.9829456447877912 0.18389632783912027 0.0
  outer loop
    vertex 377.83761858916097 92.03290377950864 13.180730484590283
    vertex 377.26604030708904 95.08805115313854 8.418230484590286
    vertex 377.26604030708904 95.08805115313854 13.180730484590283
  endloop
endfacet
facet normal 0.7625755930580177 -0.5222091089018122 0.38180637953311913
  outer loop
    vertex 380.1056390398374 84.2064999311953 -1.1067695154097146
    vertex 374.81026956719455 83.43781599947842 8.418230484590286
    vertex 377.7641076449229 80.78719019166202 -1.1067695154097146
  endloop
endfacet
facet normal 0.7625755930580177 -0.5222091089018122 0.38180637953311913
  outer loop
    vertex 374.81026956719455 83.43781599947842 8.418230484590286
    vertex 380.1056390398374 84.2064999311953 -1.1067695154097146
    vertex 376.5664181133805 86.00229830412837 8.418230484590286
  endloop
endfacet
facet normal 0.0 0.0 -1.0
  outer loop
    vertex 361.01761169372844 106.47940672036677 -1.1067695154097146
    vertex 360.2579669878324 94.15735705193504 -1.1067695154097033
    vertex 357.28013115220693 104.68896331998072 -1.1067695154097146
  endloop
endfacet
facet normal 0.0 0.0 -1.0
  outer loop
    vertex 360.2579669878324 94.15735705193504 -1.1067695154097033
    vertex 361.01761169372844 106.47940672036677 -1.1067695154097146
    vertex 365.50022817277187 97.70189251278134 -1.1067695154097033
  endloop
endfacet
facet normal 0.0 0.0 -1.0
  outer loop
    vertex 365.50022817277187 97.70189251278134 -1.1067695154097033
    vertex 361.01761169372844 106.47940672036677 -1.1067695154097146
    vertex 365.091141525235 107.24151109646267 -1.1067695154097146
  endloop
endfacet
facet normal 0.0 0.0 -1.0
  outer loop
    vertex 365.50022817277187 97.70189251278134 -1.1067695154097033
    vertex 365.091141525235 107.24151109646267 -1.1067695154097146
    vertex 371.1910165189492 94.93422888377388 -1.1067695154097033
  endloop
endfacet
facet normal 0.0 0.0 -1.0
  outer loop
    vertex 371.1910165189492 94.93422888377388 -1.1067695154097033
    vertex 365.091141525235 107.24151109646267 -1.1067695154097146
    vertex 369.22311632053567 106.9233402944744 -1.1067695154097146
  endloop
endfacet
facet normal 0.0 0.0 -1.0
  outer loop
    vertex 371.1910165189492 94.93422888377388 -1.1067695154097033
    vertex 369.22311632053567 106.9233402944744 -1.1067695154097146
    vertex 373.131948825742 105.54657712875547 -1.1067695154097146
  endloop
endfacet
facet normal 0.0 0.0 -1.0
  outer loop
    vertex 371.1910165189492 94.93422888377388 -1.1067695154097033
    vertex 373.131948825742 105.54657712875547 -1.1067695154097146
    vertex 371.63954368018705 88.62202979392009 -1.1067695154097033
  endloop
endfacet
facet normal 0.0 0.0 -1.0
  outer loop
    vertex 371.63954368018705 88.62202979392009 -1.1067695154097033
    vertex 373.131948825742 105.54657712875547 -1.1067695154097146
    vertex 374.61737951581244 78.09042352587444 -1.1067695154097146
  endloop
endfacet
facet normal 0.0 0.0 -1.0
  outer loop
    vertex 374.61737951581244 78.09042352587444 -1.1067695154097146
    vertex 373.131948825742 105.54657712875547 -1.1067695154097146
    vertex 377.7641076449229 80.78719019166202 -1.1067695154097146
  endloop
endfacet
facet normal 0.0 0.0 -1.0
  outer loop
    vertex 377.7641076449229 80.78719019166202 -1.1067695154097146
    vertex 373.131948825742 105.54657712875547 -1.1067695154097146
    vertex 376.55125856527525 103.20504573384083 -1.1067695154097146
  endloop
endfacet
facet normal 0.0 0.0 -1.0
  outer loop
    vertex 377.7641076449229 80.78719019166202 -1.1067695154097146
    vertex 376.55125856527525 103.20504573384083 -1.1067695154097146
    vertex 380.1056390398374 84.2064999311953 -1.1067695154097146
  endloop
endfacet
facet normal 0.0 0.0 -1.0
  outer loop
    vertex 380.1056390398374 84.2064999311953 -1.1067695154097146
    vertex 376.55125856527525 103.20504573384083 -1.1067695154097146
    vertex 379.24802523106274 100.05831760473038 -1.1067695154097146
  endloop
endfacet
facet normal 0.0 0.0 -1.0
  outer loop
    vertex 380.1056390398374 84.2064999311953 -1.1067695154097146
    vertex 379.24802523106274 100.05831760473038 -1.1067695154097146
    vertex 381.4824022055564 88.11533243640163 -1.1067695154097146
  endloop
endfacet
facet normal 0.0 0.0 -1.0
  outer loop
    vertex 381.4824022055564 88.11533243640163 -1.1067695154097146
    vertex 379.24802523106274 100.05831760473038 -1.1067695154097146
    vertex 381.03846863144884 96.32083706320886 -1.1067695154097146
  endloop
endfacet
facet normal 0.0 0.0 -1.0
  outer loop
    vertex 381.4824022055564 88.11533243640163 -1.1067695154097146
    vertex 381.03846863144884 96.32083706320886 -1.1067695154097146
    vertex 381.8005730075447 92.24730723170234 -1.1067695154097146
  endloop
endfacet
facet normal 0.0 0.0 -1.0
  outer loop
    vertex 350.41510846246285 94.6640544094535 -1.1067695154097146
    vertex 350.85904203657054 86.45854978264629 -1.1067695154097146
    vertex 350.0969376604747 90.53207961415282 -1.1067695154097146
  endloop
endfacet
facet normal 0.0 0.0 -1.0
  outer loop
    vertex 350.85904203657054 86.45854978264629 -1.1067695154097146
    vertex 350.41510846246285 94.6640544094535 -1.1067695154097146
    vertex 352.6494854369566 82.72106924112478 -1.1067695154097146
  endloop
endfacet
facet normal 0.0 0.0 -1.0
  outer loop
    vertex 352.6494854369566 82.72106924112478 -1.1067695154097146
    vertex 350.41510846246285 94.6640544094535 -1.1067695154097146
    vertex 351.79187162818187 98.57288691465985 -1.1067695154097146
  endloop
endfacet
facet normal 0.0 0.0 -1.0
  outer loop
    vertex 352.6494854369566 82.72106924112478 -1.1067695154097146
    vertex 351.79187162818187 98.57288691465985 -1.1067695154097146
    vertex 355.34625210274413 79.5743411120143 -1.1067695154097146
  endloop
endfacet
facet normal 0.0 0.0 -1.0
  outer loop
    vertex 355.34625210274413 79.5743411120143 -1.1067695154097146
    vertex 351.79187162818187 98.57288691465985 -1.1067695154097146
    vertex 354.13340302309643 101.99219665419315 -1.1067695154097146
  endloop
endfacet
facet normal 0.0 0.0 -1.0
  outer loop
    vertex 355.34625210274413 79.5743411120143 -1.1067695154097146
    vertex 354.13340302309643 101.99219665419315 -1.1067695154097146
    vertex 358.76556184227746 77.23280971709968 -1.1067695154097146
  endloop
endfacet
facet normal 0.0 0.0 -1.0
  outer loop
    vertex 358.76556184227746 77.23280971709968 -1.1067695154097146
    vertex 354.13340302309643 101.99219665419315 -1.1067695154097146
    vertex 357.28013115220693 104.68896331998072 -1.1067695154097146
  endloop
endfacet
facet normal 0.0 0.0 -1.0
  outer loop
    vertex 358.76556184227746 77.23280971709968 -1.1067695154097146
    vertex 357.28013115220693 104.68896331998072 -1.1067695154097146
    vertex 362.67439434748377 75.85604655138073 -1.1067695154097146
  endloop
endfacet
facet normal 0.0 0.0 -1.0
  outer loop
    vertex 362.67439434748377 75.85604655138073 -1.1067695154097146
    vertex 357.28013115220693 104.68896331998072 -1.1067695154097146
    vertex 360.70649414907035 87.8451579620813 -1.1067695154097033
  endloop
endfacet
facet normal 0.0 0.0 -1.0
  outer loop
    vertex 360.70649414907035 87.8451579620813 -1.1067695154097033
    vertex 357.28013115220693 104.68896331998072 -1.1067695154097146
    vertex 360.2579669878324 94.15735705193504 -1.1067695154097033
  endloop
endfacet
facet normal 0.0 0.0 -1.0
  outer loop
    vertex 362.67439434748377 75.85604655138073 -1.1067695154097146
    vertex 360.70649414907035 87.8451579620813 -1.1067695154097033
    vertex 366.39728249524785 85.07749433307382 -1.1067695154097033
  endloop
endfacet
facet normal 0.0 0.0 -1.0
  outer loop
    vertex 362.67439434748377 75.85604655138073 -1.1067695154097146
    vertex 366.39728249524785 85.07749433307382 -1.1067695154097033
    vertex 366.8063691427845 75.53787574939251 -1.1067695154097146
  endloop
endfacet
facet normal 0.0 0.0 -1.0
  outer loop
    vertex 366.8063691427845 75.53787574939251 -1.1067695154097146
    vertex 366.39728249524785 85.07749433307382 -1.1067695154097033
    vertex 370.879898974291 76.29998012548837 -1.1067695154097146
  endloop
endfacet
facet normal 0.0 0.0 -1.0
  outer loop
    vertex 370.879898974291 76.29998012548837 -1.1067695154097146
    vertex 366.39728249524785 85.07749433307382 -1.1067695154097033
    vertex 371.63954368018705 88.62202979392009 -1.1067695154097033
  endloop
endfacet
facet normal 0.0 0.0 -1.0
  outer loop
    vertex 370.879898974291 76.29998012548837 -1.1067695154097146
    vertex 371.63954368018705 88.62202979392009 -1.1067695154097033
    vertex 374.61737951581244 78.09042352587444 -1.1067695154097146
  endloop
endfacet
facet normal 0.3070461781979001 0.8717491227422455 0.38180637953311997
  outer loop
    vertex 368.40452607390415 103.0399285765877 8.418230484590286
    vertex 373.131948825742 105.54657712875547 -1.1067695154097146
    vertex 369.22311632053567 106.9233402944744 -1.1067695154097146
  endloop
endfacet
facet normal 0.3070461781979001 0.8717491227422455 0.38180637953311997
  outer loop
    vertex 373.131948825742 105.54657712875547 -1.1067695154097146
    vertex 368.40452607390415 103.0399285765877 8.418230484590286
    vertex 371.3361504528089 102.00735620229851 8.418230484590286
  endloop
endfacet
facet normal 0.16996477091682016 -0.9084799751205329 0.38180637953312
  outer loop
    vertex 369.64711306422066 80.07240844984818 8.418230484590286
    vertex 366.8063691427845 75.53787574939251 -1.1067695154097146
    vertex 370.879898974291 76.29998012548837 -1.1067695154097146
  endloop
endfacet
facet normal 0.16996477091682016 -0.9084799751205329 0.38180637953312
  outer loop
    vertex 366.8063691427845 75.53787574939251 -1.1067695154097146
    vertex 369.64711306422066 80.07240844984818 8.418230484590286
    vertex 366.5919656905908 79.50083016777627 8.418230484590286
  endloop
endfacet
facet normal -0.8717491227422433 0.30704617819790797 0.3818063795331192
  outer loop
    vertex 355.3310925546388 96.77708854172678 8.418230484590286
    vertex 350.41510846246285 94.6640544094535 -1.1067695154097146
    vertex 354.29852018034956 93.84546416282204 8.418230484590286
  endloop
endfacet
facet normal -0.8717491227422433 0.30704617819790797 0.3818063795331192
  outer loop
    vertex 350.41510846246285 94.6640544094535 -1.1067695154097146
    vertex 355.3310925546388 96.77708854172678 8.418230484590286
    vertex 351.79187162818187 98.57288691465985 -1.1067695154097146
  endloop
endfacet
facet normal 0.07095855786760147 0.9215143903451326 0.38180637953312
  outer loop
    vertex 365.3055449774287 103.27855667807887 8.418230484590286
    vertex 369.22311632053567 106.9233402944744 -1.1067695154097146
    vertex 365.091141525235 107.24151109646267 -1.1067695154097146
  endloop
endfacet
facet normal 0.07095855786760147 0.9215143903451326 0.38180637953312
  outer loop
    vertex 369.22311632053567 106.9233402944744 -1.1067695154097146
    vertex 365.3055449774287 103.27855667807887 8.418230484590286
    vertex 368.40452607390415 103.0399285765877 8.418230484590286
  endloop
endfacet
facet normal 0.5222091089018157 0.7625755930580144 0.38180637953312013
  outer loop
    vertex 371.3361504528089 102.00735620229851 8.418230484590286
    vertex 376.55125856527525 103.20504573384083 -1.1067695154097146
    vertex 373.131948825742 105.54657712875547 -1.1067695154097146
  endloop
endfacet
facet normal 0.5222091089018157 0.7625755930580144 0.38180637953312013
  outer loop
    vertex 376.55125856527525 103.20504573384083 -1.1067695154097146
    vertex 371.3361504528089 102.00735620229851 8.418230484590286
    vertex 373.9006327574589 100.25120765611253 8.418230484590286
  endloop
endfacet
facet normal -0.5222091089018135 -0.7625755930580163 0.38180637953312
  outer loop
    vertex 360.5613602152105 80.77203064355665 8.418230484590286
    vertex 355.34625210274413 79.5743411120143 -1.1067695154097146
    vertex 358.76556184227746 77.23280971709968 -1.1067695154097146
  endloop
endfacet
facet normal -0.5222091089018135 -0.7625755930580163 0.38180637953312
  outer loop
    vertex 355.34625210274413 79.5743411120143 -1.1067695154097146
    vertex 360.5613602152105 80.77203064355665 8.418230484590286
    vertex 357.99687791056056 82.52817918974262 8.418230484590286
  endloop
endfacet
facet normal -0.33845832610385035 -0.9409813821170852 0.0
  outer loop
    vertex 367.40412924876586 94.21148572007623 13.180730484590283
    vertex 366.6242049973544 94.4920139660513 7.243230484590298
    vertex 367.40412924876586 94.21148572007623 7.243230484590298
  endloop
endfacet
facet normal -0.33845832610385035 -0.9409813821170852 0.0
  outer loop
    vertex 366.6242049973544 94.4920139660513 7.243230484590298
    vertex 367.40412924876586 94.21148572007623 13.180730484590283
    vertex 366.6242049973544 94.4920139660513 13.180730484590283
  endloop
endfacet
facet normal 0.560125045731316 -0.8284080716316634 0.0
  outer loop
    vertex 365.50022817277187 97.70189251278134 7.243230484590298
    vertex 360.2579669878324 94.15735705193504 -1.1067695154097033
    vertex 365.50022817277187 97.70189251278134 -1.1067695154097033
  endloop
endfacet
facet normal 0.560125045731316 -0.8284080716316634 0.0
  outer loop
    vertex 360.2579669878324 94.15735705193504 -1.1067695154097033
    vertex 365.50022817277187 97.70189251278134 7.243230484590298
    vertex 360.2579669878324 94.15735705193504 7.243230484590298
  endloop
endfacet
facet normal 0.9974849575987564 0.07087848308342458 0.0
  outer loop
    vertex 360.2579669878324 94.15735705193504 -1.1067695154097033
    vertex 360.70649414907035 87.8451579620813 7.243230484590298
    vertex 360.70649414907035 87.8451579620813 -1.1067695154097033
  endloop
endfacet
facet normal 0.9974849575987564 0.07087848308342458 0.0
  outer loop
    vertex 360.70649414907035 87.8451579620813 7.243230484590298
    vertex 360.2579669878324 94.15735705193504 -1.1067695154097033
    vertex 360.2579669878324 94.15735705193504 7.243230484590298
  endloop
endfacet
facet normal 0.908479975120533 0.16996477091681828 0.3818063795331204
  outer loop
    vertex 381.03846863144884 96.32083706320886 -1.1067695154097146
    vertex 377.83761858916097 92.03290377950864 8.418230484590286
    vertex 381.8005730075447 92.24730723170234 -1.1067695154097146
  endloop
endfacet
facet normal 0.908479975120533 0.16996477091681828 0.3818063795331204
  outer loop
    vertex 377.83761858916097 92.03290377950864 8.418230484590286
    vertex 381.03846863144884 96.32083706320886 -1.1067695154097146
    vertex 377.26604030708904 95.08805115313854 8.418230484590286
  endloop
endfacet
facet normal -0.6014337969226312 0.7017843518254305 0.3818063795331185
  outer loop
    vertex 357.08724110082477 99.34157084637675 8.418230484590286
    vertex 357.28013115220693 104.68896331998072 -1.1067695154097146
    vertex 354.13340302309643 101.99219665419315 -1.1067695154097146
  endloop
endfacet
facet normal -0.6014337969226312 0.7017843518254305 0.3818063795331185
  outer loop
    vertex 357.28013115220693 104.68896331998072 -1.1067695154097146
    vertex 357.08724110082477 99.34157084637675 8.418230484590286
    vertex 359.44728719765766 101.36414584571745 8.418230484590286
  endloop
endfacet
facet normal -0.39930528144331734 0.8335341509256147 0.381806379533119
  outer loop
    vertex 359.44728719765766 101.36414584571745 8.418230484590286
    vertex 361.01761169372844 106.47940672036677 -1.1067695154097146
    vertex 357.28013115220693 104.68896331998072 -1.1067695154097146
  endloop
endfacet
facet normal -0.39930528144331734 0.8335341509256147 0.381806379533119
  outer loop
    vertex 361.01761169372844 106.47940672036677 -1.1067695154097146
    vertex 359.44728719765766 101.36414584571745 8.418230484590286
    vertex 362.2503976037988 102.70697839600696 8.418230484590286
  endloop
endfacet
facet normal 0.3993052814433217 -0.833534150925612 0.38180637953311963
  outer loop
    vertex 372.4502234703618 81.41524100013773 8.418230484590286
    vertex 370.879898974291 76.29998012548837 -1.1067695154097146
    vertex 374.61737951581244 78.09042352587444 -1.1067695154097146
  endloop
endfacet
facet normal 0.3993052814433217 -0.833534150925612 0.38180637953311963
  outer loop
    vertex 370.879898974291 76.29998012548837 -1.1067695154097146
    vertex 372.4502234703618 81.41524100013773 8.418230484590286
    vertex 369.64711306422066 80.07240844984818 8.418230484590286
  endloop
endfacet
facet normal -0.0709585578676007 -0.9215143903451327 0.38180637953312013
  outer loop
    vertex 366.5919656905908 79.50083016777627 8.418230484590286
    vertex 362.67439434748377 75.85604655138073 -1.1067695154097146
    vertex 366.8063691427845 75.53787574939251 -1.1067695154097146
  endloop
endfacet
facet normal -0.0709585578676007 -0.9215143903451327 0.38180637953312013
  outer loop
    vertex 362.67439434748377 75.85604655138073 -1.1067695154097146
    vertex 366.5919656905908 79.50083016777627 8.418230484590286
    vertex 363.4929845941153 79.73945826926744 8.418230484590286
  endloop
endfacet
facet normal -0.43735991186743506 -0.8992865547150749 0.0
  outer loop
    vertex 371.1910165189492 94.93422888377388 7.243230484590298
    vertex 365.50022817277187 97.70189251278134 -1.1067695154097033
    vertex 371.1910165189492 94.93422888377388 -1.1067695154097033
  endloop
endfacet
facet normal -0.43735991186743506 -0.8992865547150749 0.0
  outer loop
    vertex 365.50022817277187 97.70189251278134 -1.1067695154097033
    vertex 371.1910165189492 94.93422888377388 7.243230484590298
    vertex 365.50022817277187 97.70189251278134 7.243230484590298
  endloop
endfacet
facet normal 0.42604813872820535 -0.9047004938023587 0.0
  outer loop
    vertex 364.982551629882 94.4141066556274 13.180730484590283
    vertex 364.23269847785383 94.06098035368589 7.243230484590298
    vertex 364.982551629882 94.4141066556274 7.243230484590298
  endloop
endfacet
facet normal 0.42604813872820535 -0.9047004938023587 0.0
  outer loop
    vertex 364.23269847785383 94.06098035368589 7.243230484590298
    vertex 364.982551629882 94.4141066556274 13.180730484590283
    vertex 364.23269847785383 94.06098035368589 13.180730484590283
  endloop
endfacet
facet normal -0.6507317139652434 0.7593077350059438 0.0
  outer loop
    vertex 357.08724110082477 99.34157084637675 13.180730484590283
    vertex 359.44728719765766 101.36414584571745 8.418230484590286
    vertex 357.08724110082477 99.34157084637675 8.418230484590286
  endloop
endfacet
facet normal -0.6507317139652434 0.7593077350059438 0.0
  outer loop
    vertex 359.44728719765766 101.36414584571745 8.418230484590286
    vertex 357.08724110082477 99.34157084637675 13.180730484590283
    vertex 359.44728719765766 101.36414584571745 13.180730484590283
  endloop
endfacet
facet normal 0.9018567121697076 0.4320352655911842 0.0
  outer loop
    vertex 375.92320775679946 97.8911615592797 8.418230484590286
    vertex 377.26604030708904 95.08805115313854 13.180730484590283
    vertex 377.26604030708904 95.08805115313854 8.418230484590286
  endloop
endfacet
facet normal 0.9018567121697076 0.4320352655911842 0.0
  outer loop
    vertex 377.26604030708904 95.08805115313854 13.180730484590283
    vertex 375.92320775679946 97.8911615592797 8.418230484590286
    vertex 375.92320775679946 97.8911615592797 13.180730484590283
  endloop
endfacet
facet normal -0.9432040628450591 0.33221393082255557 0.0
  outer loop
    vertex 355.3310925546388 96.77708854172678 13.180730484590283
    vertex 354.29852018034956 93.84546416282204 8.418230484590286
    vertex 354.29852018034956 93.84546416282204 13.180730484590283
  endloop
endfacet
facet normal -0.9432040628450591 0.33221393082255557 0.0
  outer loop
    vertex 354.29852018034956 93.84546416282204 8.418230484590286
    vertex 355.3310925546388 96.77708854172678 13.180730484590283
    vertex 355.3310925546388 96.77708854172678 8.418230484590286
  endloop
endfacet
facet normal 0.6507317139652505 -0.7593077350059377 0.0
  outer loop
    vertex 374.81026956719455 83.43781599947842 13.180730484590283
    vertex 372.4502234703618 81.41524100013773 8.418230484590286
    vertex 374.81026956719455 83.43781599947842 8.418230484590286
  endloop
endfacet
facet normal 0.6507317139652505 -0.7593077350059377 0.0
  outer loop
    vertex 372.4502234703618 81.41524100013773 8.418230484590286
    vertex 374.81026956719455 83.43781599947842 13.180730484590283
    vertex 372.4502234703618 81.41524100013773 13.180730484590283
  endloop
endfacet
facet normal -0.33221393082254363 -0.9432040628450634 0.0
  outer loop
    vertex 363.4929845941153 79.73945826926744 13.180730484590283
    vertex 360.5613602152105 80.77203064355665 8.418230484590286
    vertex 363.4929845941153 79.73945826926744 8.418230484590286
  endloop
endfacet
facet normal -0.33221393082254363 -0.9432040628450634 0.0
  outer loop
    vertex 360.5613602152105 80.77203064355665 8.418230484590286
    vertex 363.4929845941153 79.73945826926744 13.180730484590283
    vertex 360.5613602152105 80.77203064355665 13.180730484590283
  endloop
endfacet
facet normal -0.8250818714175757 0.5650131905168861 0.0
  outer loop
    vertex 357.08724110082477 99.34157084637675 13.180730484590283
    vertex 355.3310925546388 96.77708854172678 8.418230484590286
    vertex 355.3310925546388 96.77708854172678 13.180730484590283
  endloop
endfacet
facet normal -0.8250818714175757 0.5650131905168861 0.0
  outer loop
    vertex 355.3310925546388 96.77708854172678 8.418230484590286
    vertex 357.08724110082477 99.34157084637675 13.180730484590283
    vertex 357.08724110082477 99.34157084637675 8.418230484590286
  endloop
endfacet
facet normal -0.9409813821170938 0.33845832610382637 0.0
  outer loop
    vertex 369.0510758771335 90.71424375958289 13.180730484590283
    vertex 368.7705476311585 89.93431950817147 7.243230484590298
    vertex 368.7705476311585 89.93431950817147 13.180730484590283
  endloop
endfacet
facet normal -0.9409813821170938 0.33845832610382637 0.0
  outer loop
    vertex 368.7705476311585 89.93431950817147 7.243230484590298
    vertex 369.0510758771335 90.71424375958289 13.180730484590283
    vertex 369.0510758771335 90.71424375958289 7.243230484590298
  endloop
endfacet
facet normal -0.996517679813268 0.0833817355275204 0.0
  outer loop
    vertex 369.1201861049218 91.5401987893179 13.180730484590283
    vertex 369.0510758771335 90.71424375958289 7.243230484590298
    vertex 369.0510758771335 90.71424375958289 13.180730484590283
  endloop
endfacet
facet normal -0.996517679813268 0.0833817355275204 0.0
  outer loop
    vertex 369.0510758771335 90.71424375958289 7.243230484590298
    vertex 369.1201861049218 91.5401987893179 13.180730484590283
    vertex 369.1201861049218 91.5401987893179 7.243230484590298
  endloop
endfacet
facet normal -0.9841429444535084 -0.1773771825302761 0.0
  outer loop
    vertex 368.9731685667096 92.35589712705529 13.180730484590283
    vertex 369.1201861049218 91.5401987893179 7.243230484590298
    vertex 369.1201861049218 91.5401987893179 13.180730484590283
  endloop
endfacet
facet normal -0.9841429444535084 -0.1773771825302761 0.0
  outer loop
    vertex 369.1201861049218 91.5401987893179 7.243230484590298
    vertex 368.9731685667096 92.35589712705529 13.180730484590283
    vertex 368.9731685667096 92.35589712705529 7.243230484590298
  endloop
endfacet
facet normal -0.07677484075213335 -0.9970484561080692 0.0
  outer loop
    vertex 366.5919656905908 79.50083016777627 13.180730484590283
    vertex 363.4929845941153 79.73945826926744 8.418230484590286
    vertex 366.5919656905908 79.50083016777627 8.418230484590286
  endloop
endfacet
facet normal -0.07677484075213335 -0.9970484561080692 0.0
  outer loop
    vertex 363.4929845941153 79.73945826926744 8.418230484590286
    vertex 366.5919656905908 79.50083016777627 13.180730484590283
    vertex 363.4929845941153 79.73945826926744 13.180730484590283
  endloop
endfacet
facet normal -0.08338173552749448 -0.9965176798132701 0.0
  outer loop
    vertex 366.6242049973544 94.4920139660513 13.180730484590283
    vertex 365.79824996761937 94.5611241938396 7.243230484590298
    vertex 366.6242049973544 94.4920139660513 7.243230484590298
  endloop
endfacet
facet normal -0.08338173552749448 -0.9965176798132701 0.0
  outer loop
    vertex 365.79824996761937 94.5611241938396 7.243230484590298
    vertex 366.6242049973544 94.4920139660513 13.180730484590283
    vertex 365.79824996761937 94.5611241938396 13.180730484590283
  endloop
endfacet
facet normal 0.5650131905168878 0.8250818714175747 0.0
  outer loop
    vertex 371.3361504528089 102.00735620229851 13.180730484590283
    vertex 373.9006327574589 100.25120765611253 8.418230484590286
    vertex 371.3361504528089 102.00735620229851 8.418230484590286
  endloop
endfacet
facet normal 0.5650131905168878 0.8250818714175747 0.0
  outer loop
    vertex 373.9006327574589 100.25120765611253 8.418230484590286
    vertex 371.3361504528089 102.00735620229851 13.180730484590283
    vertex 373.9006327574589 100.25120765611253 13.180730484590283
  endloop
endfacet
facet normal 0.4320352655911897 -0.9018567121697051 0.0
  outer loop
    vertex 372.4502234703618 81.41524100013773 13.180730484590283
    vertex 369.64711306422066 80.07240844984818 8.418230484590286
    vertex 372.4502234703618 81.41524100013773 8.418230484590286
  endloop
endfacet
facet normal 0.4320352655911897 -0.9018567121697051 0.0
  outer loop
    vertex 369.64711306422066 80.07240844984818 8.418230484590286
    vertex 372.4502234703618 81.41524100013773 13.180730484590283
    vertex 369.64711306422066 80.07240844984818 13.180730484590283
  endloop
endfacet
facet normal 0.33221393082254685 0.9432040628450623 0.0
  outer loop
    vertex 368.40452607390415 103.0399285765877 13.180730484590283
    vertex 371.3361504528089 102.00735620229851 8.418230484590286
    vertex 368.40452607390415 103.0399285765877 8.418230484590286
  endloop
endfacet
facet normal 0.33221393082254685 0.9432040628450623 0.0
  outer loop
    vertex 371.3361504528089 102.00735620229851 8.418230484590286
    vertex 368.40452607390415 103.0399285765877 13.180730484590283
    vertex 371.3361504528089 102.00735620229851 13.180730484590283
  endloop
endfacet
facet normal -0.645684618349652 0.7636041995868439 0.0
  outer loop
    vertex 367.66481219016566 88.71840649216924 13.180730484590283
    vertex 368.2977189033649 89.25357658393156 7.243230484590298
    vertex 367.66481219016566 88.71840649216924 7.243230484590298
  endloop
endfacet
facet normal -0.645684618349652 0.7636041995868439 0.0
  outer loop
    vertex 368.2977189033649 89.25357658393156 7.243230484590298
    vertex 367.66481219016566 88.71840649216924 13.180730484590283
    vertex 368.2977189033649 89.25357658393156 13.180730484590283
  endloop
endfacet
facet normal -0.8213187582748666 0.5704695410850883 0.0
  outer loop
    vertex 368.7705476311585 89.93431950817147 13.180730484590283
    vertex 368.2977189033649 89.25357658393156 7.243230484590298
    vertex 368.2977189033649 89.25357658393156 13.180730484590283
  endloop
endfacet
facet normal -0.8213187582748666 0.5704695410850883 0.0
  outer loop
    vertex 368.2977189033649 89.25357658393156 7.243230484590298
    vertex 368.7705476311585 89.93431950817147 13.180730484590283
    vertex 368.7705476311585 89.93431950817147 7.243230484590298
  endloop
endfacet
facet normal 0.9970484561080686 -0.07677484075214419 0.0
  outer loop
    vertex 377.83761858916097 92.03290377950864 8.418230484590286
    vertex 377.5989904876697 88.93392268303312 13.180730484590283
    vertex 377.5989904876697 88.93392268303312 8.418230484590286
  endloop
endfacet
facet normal 0.9970484561080686 -0.07677484075214419 0.0
  outer loop
    vertex 377.5989904876697 88.93392268303312 13.180730484590283
    vertex 377.83761858916097 92.03290377950864 8.418230484590286
    vertex 377.83761858916097 92.03290377950864 13.180730484590283
  endloop
endfacet
facet normal -0.5704695410850792 -0.8213187582748731 0.0
  outer loop
    vertex 368.08487217300575 93.7386569922827 13.180730484590283
    vertex 367.40412924876586 94.21148572007623 7.243230484590298
    vertex 368.08487217300575 93.7386569922827 7.243230484590298
  endloop
endfacet
facet normal -0.5704695410850792 -0.8213187582748731 0.0
  outer loop
    vertex 367.40412924876586 94.21148572007623 7.243230484590298
    vertex 368.08487217300575 93.7386569922827 13.180730484590283
    vertex 367.40412924876586 94.21148572007623 13.180730484590283
  endloop
endfacet
facet normal 0.33845832610385035 0.9409813821170852 0.0
  outer loop
    vertex 364.4933814192537 88.5679011257789 13.180730484590283
    vertex 365.2733056706651 88.28737287980383 7.243230484590298
    vertex 364.4933814192537 88.5679011257789 7.243230484590298
  endloop
endfacet
facet normal 0.33845832610385035 0.9409813821170852 0.0
  outer loop
    vertex 365.2733056706651 88.28737287980383 7.243230484590298
    vertex 364.4933814192537 88.5679011257789 13.180730484590283
    vertex 365.2733056706651 88.28737287980383 13.180730484590283
  endloop
endfacet
facet normal 0.08338173552749448 0.9965176798132701 0.0
  outer loop
    vertex 365.2733056706651 88.28737287980383 13.180730484590283
    vertex 366.0992607004001 88.21826265201553 7.243230484590298
    vertex 365.2733056706651 88.28737287980383 7.243230484590298
  endloop
endfacet
facet normal 0.08338173552749448 0.9965176798132701 0.0
  outer loop
    vertex 366.0992607004001 88.21826265201553 7.243230484590298
    vertex 365.2733056706651 88.28737287980383 13.180730484590283
    vertex 366.0992607004001 88.21826265201553 13.180730484590283
  endloop
endfacet
facet normal -0.17737718253024973 0.984142944453513 0.0
  outer loop
    vertex 366.0992607004001 88.21826265201553 13.180730484590283
    vertex 366.9149590381375 88.36528019022772 7.243230484590298
    vertex 366.0992607004001 88.21826265201553 7.243230484590298
  endloop
endfacet
facet normal -0.17737718253024973 0.984142944453513 0.0
  outer loop
    vertex 366.9149590381375 88.36528019022772 7.243230484590298
    vertex 366.0992607004001 88.21826265201553 13.180730484590283
    vertex 366.9149590381375 88.36528019022772 13.180730484590283
  endloop
endfacet
facet normal -0.42604813872820535 0.9047004938023587 0.0
  outer loop
    vertex 366.9149590381375 88.36528019022772 13.180730484590283
    vertex 367.66481219016566 88.71840649216924 7.243230484590298
    vertex 366.9149590381375 88.36528019022772 7.243230484590298
  endloop
endfacet
facet normal -0.42604813872820535 0.9047004938023587 0.0
  outer loop
    vertex 367.66481219016566 88.71840649216924 7.243230484590298
    vertex 366.9149590381375 88.36528019022772 13.180730484590283
    vertex 367.66481219016566 88.71840649216924 13.180730484590283
  endloop
endfacet
facet normal 0.9965176798132679 -0.0833817355275215 0.0
  outer loop
    vertex 362.84643479088606 92.06514308627226 7.243230484590298
    vertex 362.7773245630977 91.23918805653723 13.180730484590283
    vertex 362.7773245630977 91.23918805653723 7.243230484590298
  endloop
endfacet
facet normal 0.9965176798132679 -0.0833817355275215 0.0
  outer loop
    vertex 362.7773245630977 91.23918805653723 13.180730484590283
    vertex 362.84643479088606 92.06514308627226 7.243230484590298
    vertex 362.84643479088606 92.06514308627226 13.180730484590283
  endloop
endfacet
facet normal 0.9841429444535088 0.17737718253027374 0.0
  outer loop
    vertex 362.7773245630977 91.23918805653723 7.243230484590298
    vertex 362.92434210130995 90.42348971879983 13.180730484590283
    vertex 362.92434210130995 90.42348971879983 7.243230484590298
  endloop
endfacet
facet normal 0.9841429444535088 0.17737718253027374 0.0
  outer loop
    vertex 362.92434210130995 90.42348971879983 13.180730484590283
    vertex 362.7773245630977 91.23918805653723 7.243230484590298
    vertex 362.7773245630977 91.23918805653723 13.180730484590283
  endloop
endfacet
facet normal 0.9047004938023719 0.42604813872817787 0.0
  outer loop
    vertex 362.92434210130995 90.42348971879983 7.243230484590298
    vertex 363.2774684032514 89.67363656677163 13.180730484590283
    vertex 363.2774684032514 89.67363656677163 7.243230484590298
  endloop
endfacet
facet normal 0.9047004938023719 0.42604813872817787 0.0
  outer loop
    vertex 363.2774684032514 89.67363656677163 13.180730484590283
    vertex 362.92434210130995 90.42348971879983 7.243230484590298
    vertex 362.92434210130995 90.42348971879983 13.180730484590283
  endloop
endfacet
facet normal 0.7636041995868247 0.6456846183496746 0.0
  outer loop
    vertex 363.2774684032514 89.67363656677163 7.243230484590298
    vertex 363.81263849501374 89.0407298535724 13.180730484590283
    vertex 363.81263849501374 89.0407298535724 7.243230484590298
  endloop
endfacet
facet normal 0.7636041995868247 0.6456846183496746 0.0
  outer loop
    vertex 363.81263849501374 89.0407298535724 13.180730484590283
    vertex 363.2774684032514 89.67363656677163 7.243230484590298
    vertex 363.2774684032514 89.67363656677163 13.180730484590283
  endloop
endfacet
facet normal 0.645684618349652 -0.7636041995868439 0.0
  outer loop
    vertex 364.23269847785383 94.06098035368589 13.180730484590283
    vertex 363.5997917646546 93.52581026192358 7.243230484590298
    vertex 364.23269847785383 94.06098035368589 7.243230484590298
  endloop
endfacet
facet normal 0.645684618349652 -0.7636041995868439 0.0
  outer loop
    vertex 363.5997917646546 93.52581026192358 7.243230484590298
    vertex 364.23269847785383 94.06098035368589 13.180730484590283
    vertex 363.5997917646546 93.52581026192358 13.180730484590283
  endloop
endfacet
facet normal 0.8213187582748666 -0.5704695410850883 0.0
  outer loop
    vertex 363.5997917646546 93.52581026192358 7.243230484590298
    vertex 363.12696303686107 92.84506733768366 13.180730484590283
    vertex 363.12696303686107 92.84506733768366 7.243230484590298
  endloop
endfacet
facet normal 0.8213187582748666 -0.5704695410850883 0.0
  outer loop
    vertex 363.12696303686107 92.84506733768366 13.180730484590283
    vertex 363.5997917646546 93.52581026192358 7.243230484590298
    vertex 363.5997917646546 93.52581026192358 13.180730484590283
  endloop
endfacet
facet normal 0.9409813821170938 -0.33845832610382637 0.0
  outer loop
    vertex 363.12696303686107 92.84506733768366 7.243230484590298
    vertex 362.84643479088606 92.06514308627226 13.180730484590283
    vertex 362.84643479088606 92.06514308627226 7.243230484590298
  endloop
endfacet
facet normal 0.9409813821170938 -0.33845832610382637 0.0
  outer loop
    vertex 362.84643479088606 92.06514308627226 13.180730484590283
    vertex 363.12696303686107 92.84506733768366 7.243230484590298
    vertex 363.12696303686107 92.84506733768366 13.180730484590283
  endloop
endfacet
facet normal 0.17737718253024973 -0.984142944453513 0.0
  outer loop
    vertex 365.79824996761937 94.5611241938396 13.180730484590283
    vertex 364.982551629882 94.4141066556274 7.243230484590298
    vertex 365.79824996761937 94.5611241938396 7.243230484590298
  endloop
endfacet
facet normal 0.17737718253024973 -0.984142944453513 0.0
  outer loop
    vertex 364.982551629882 94.4141066556274 7.243230484590298
    vertex 365.79824996761937 94.5611241938396 13.180730484590283
    vertex 364.982551629882 94.4141066556274 13.180730484590283
  endloop
endfacet
facet normal 0.5704695410850792 0.8213187582748731 0.0
  outer loop
    vertex 363.81263849501374 89.0407298535724 13.180730484590283
    vertex 364.4933814192537 88.5679011257789 7.243230484590298
    vertex 363.81263849501374 89.0407298535724 7.243230484590298
  endloop
endfacet
facet normal 0.5704695410850792 0.8213187582748731 0.0
  outer loop
    vertex 364.4933814192537 88.5679011257789 7.243230484590298
    vertex 363.81263849501374 89.0407298535724 13.180730484590283
    vertex 364.4933814192537 88.5679011257789 13.180730484590283
  endloop
endfacet
facet normal -0.9047004938023743 -0.4260481387281726 0.0
  outer loop
    vertex 368.6200422647681 93.1057502790835 13.180730484590283
    vertex 368.9731685667096 92.35589712705529 7.243230484590298
    vertex 368.9731685667096 92.35589712705529 13.180730484590283
  endloop
endfacet
facet normal -0.9047004938023743 -0.4260481387281726 0.0
  outer loop
    vertex 368.9731685667096 92.35589712705529 7.243230484590298
    vertex 368.6200422647681 93.1057502790835 13.180730484590283
    vertex 368.6200422647681 93.1057502790835 7.243230484590298
  endloop
endfacet
facet normal -0.763604199586819 -0.6456846183496813 0.0
  outer loop
    vertex 368.08487217300575 93.7386569922827 13.180730484590283
    vertex 368.6200422647681 93.1057502790835 7.243230484590298
    vertex 368.6200422647681 93.1057502790835 13.180730484590283
  endloop
endfacet
facet normal -0.763604199586819 -0.6456846183496813 0.0
  outer loop
    vertex 368.6200422647681 93.1057502790835 7.243230484590298
    vertex 368.08487217300575 93.7386569922827 13.180730484590283
    vertex 368.08487217300575 93.7386569922827 7.243230484590298
  endloop
endfacet
facet normal -0.4320352655911811 0.9018567121697092 0.0
  outer loop
    vertex 359.44728719765766 101.36414584571745 13.180730484590283
    vertex 362.2503976037988 102.70697839600696 8.418230484590286
    vertex 359.44728719765766 101.36414584571745 8.418230484590286
  endloop
endfacet
facet normal -0.4320352655911811 0.9018567121697092 0.0
  outer loop
    vertex 362.2503976037988 102.70697839600696 8.418230484590286
    vertex 359.44728719765766 101.36414584571745 13.180730484590283
    vertex 362.2503976037988 102.70697839600696 13.180730484590283
  endloop
endfacet
facet normal -0.9829456447877912 -0.18389632783912027 0.0
  outer loop
    vertex 354.0598920788584 90.7464830663465 13.180730484590283
    vertex 354.6314703609303 87.6913356927166 8.418230484590286
    vertex 354.6314703609303 87.6913356927166 13.180730484590283
  endloop
endfacet
facet normal -0.9829456447877912 -0.18389632783912027 0.0
  outer loop
    vertex 354.6314703609303 87.6913356927166 8.418230484590286
    vertex 354.0598920788584 90.7464830663465 13.180730484590283
    vertex 354.0598920788584 90.7464830663465 8.418230484590286
  endloop
endfacet
facet normal 0.07677484075213199 0.9970484561080695 0.0
  outer loop
    vertex 365.3055449774287 103.27855667807887 13.180730484590283
    vertex 368.40452607390415 103.0399285765877 8.418230484590286
    vertex 365.3055449774287 103.27855667807887 8.418230484590286
  endloop
endfacet
facet normal 0.07677484075213199 0.9970484561080695 0.0
  outer loop
    vertex 368.40452607390415 103.0399285765877 8.418230484590286
    vertex 365.3055449774287 103.27855667807887 13.180730484590283
    vertex 368.40452607390415 103.0399285765877 13.180730484590283
  endloop
endfacet
facet normal -0.18389632783911766 0.9829456447877918 0.0
  outer loop
    vertex 362.2503976037988 102.70697839600696 13.180730484590283
    vertex 365.3055449774287 103.27855667807887 8.418230484590286
    vertex 362.2503976037988 102.70697839600696 8.418230484590286
  endloop
endfacet
facet normal -0.18389632783911766 0.9829456447877918 0.0
  outer loop
    vertex 365.3055449774287 103.27855667807887 8.418230484590286
    vertex 362.2503976037988 102.70697839600696 13.180730484590283
    vertex 365.3055449774287 103.27855667807887 13.180730484590283
  endloop
endfacet
facet normal -0.5650131905168853 -0.8250818714175764 0.0
  outer loop
    vertex 360.5613602152105 80.77203064355665 13.180730484590283
    vertex 357.99687791056056 82.52817918974262 8.418230484590286
    vertex 360.5613602152105 80.77203064355665 8.418230484590286
  endloop
endfacet
facet normal -0.5650131905168853 -0.8250818714175764 0.0
  outer loop
    vertex 357.99687791056056 82.52817918974262 8.418230484590286
    vertex 360.5613602152105 80.77203064355665 13.180730484590283
    vertex 357.99687791056056 82.52817918974262 13.180730484590283
  endloop
endfacet
facet normal -0.9018567121697064 -0.4320352655911871 0.0
  outer loop
    vertex 354.6314703609303 87.6913356927166 13.180730484590283
    vertex 355.97430291121987 84.88822528657548 8.418230484590286
    vertex 355.97430291121987 84.88822528657548 13.180730484590283
  endloop
endfacet
facet normal -0.9018567121697064 -0.4320352655911871 0.0
  outer loop
    vertex 355.97430291121987 84.88822528657548 8.418230484590286
    vertex 354.6314703609303 87.6913356927166 13.180730484590283
    vertex 354.6314703609303 87.6913356927166 8.418230484590286
  endloop
endfacet
facet normal 0.8250818714175802 -0.5650131905168797 0.0
  outer loop
    vertex 376.5664181133805 86.00229830412837 8.418230484590286
    vertex 374.81026956719455 83.43781599947842 13.180730484590283
    vertex 374.81026956719455 83.43781599947842 8.418230484590286
  endloop
endfacet
facet normal 0.8250818714175802 -0.5650131905168797 0.0
  outer loop
    vertex 374.81026956719455 83.43781599947842 13.180730484590283
    vertex 376.5664181133805 86.00229830412837 8.418230484590286
    vertex 376.5664181133805 86.00229830412837 13.180730484590283
  endloop
endfacet
facet normal -0.3070461781978978 -0.8717491227422465 0.38180637953311963
  outer loop
    vertex 363.4929845941153 79.73945826926744 8.418230484590286
    vertex 358.76556184227746 77.23280971709968 -1.1067695154097146
    vertex 362.67439434748377 75.85604655138073 -1.1067695154097146
  endloop
endfacet
facet normal -0.3070461781978978 -0.8717491227422465 0.38180637953311963
  outer loop
    vertex 358.76556184227746 77.23280971709968 -1.1067695154097146
    vertex 363.4929845941153 79.73945826926744 8.418230484590286
    vertex 360.5613602152105 80.77203064355665 8.418230484590286
  endloop
endfacet
facet normal 0.701784351825438 0.6014337969226214 0.38180637953311997
  outer loop
    vertex 379.24802523106274 100.05831760473038 -1.1067695154097146
    vertex 373.9006327574589 100.25120765611253 8.418230484590286
    vertex 375.92320775679946 97.8911615592797 8.418230484590286
  endloop
endfacet
facet normal 0.701784351825438 0.6014337969226214 0.38180637953311997
  outer loop
    vertex 373.9006327574589 100.25120765611253 8.418230484590286
    vertex 379.24802523106274 100.05831760473038 -1.1067695154097146
    vertex 376.55125856527525 103.20504573384083 -1.1067695154097146
  endloop
endfacet
facet normal 0.8717491227422434 -0.3070461781979073 0.38180637953311913
  outer loop
    vertex 381.4824022055564 88.11533243640163 -1.1067695154097146
    vertex 376.5664181133805 86.00229830412837 8.418230484590286
    vertex 380.1056390398374 84.2064999311953 -1.1067695154097146
  endloop
endfacet
facet normal 0.8717491227422434 -0.3070461781979073 0.38180637953311913
  outer loop
    vertex 376.5664181133805 86.00229830412837 8.418230484590286
    vertex 381.4824022055564 88.11533243640163 -1.1067695154097146
    vertex 377.5989904876697 88.93392268303312 8.418230484590286
  endloop
endfacet
facet normal -0.9084799751205345 -0.16996477091681858 0.3818063795331167
  outer loop
    vertex 354.6314703609303 87.6913356927166 8.418230484590286
    vertex 350.0969376604747 90.53207961415282 -1.1067695154097146
    vertex 350.85904203657054 86.45854978264629 -1.1067695154097146
  endloop
endfacet
facet normal -0.9084799751205345 -0.16996477091681858 0.3818063795331167
  outer loop
    vertex 350.0969376604747 90.53207961415282 -1.1067695154097146
    vertex 354.6314703609303 87.6913356927166 8.418230484590286
    vertex 354.0598920788584 90.7464830663465 8.418230484590286
  endloop
endfacet
facet normal -0.8335341509256153 -0.3993052814433168 0.3818063795331181
  outer loop
    vertex 355.97430291121987 84.88822528657548 8.418230484590286
    vertex 350.85904203657054 86.45854978264629 -1.1067695154097146
    vertex 352.6494854369566 82.72106924112478 -1.1067695154097146
  endloop
endfacet
facet normal -0.8335341509256153 -0.3993052814433168 0.3818063795331181
  outer loop
    vertex 350.85904203657054 86.45854978264629 -1.1067695154097146
    vertex 355.97430291121987 84.88822528657548 8.418230484590286
    vertex 354.6314703609303 87.6913356927166 8.418230484590286
  endloop
endfacet
facet normal -0.16996477091681683 0.9084799751205334 0.38180637953312024
  outer loop
    vertex 362.2503976037988 102.70697839600696 8.418230484590286
    vertex 365.091141525235 107.24151109646267 -1.1067695154097146
    vertex 361.01761169372844 106.47940672036677 -1.1067695154097146
  endloop
endfacet
facet normal -0.16996477091681683 0.9084799751205334 0.38180637953312024
  outer loop
    vertex 365.091141525235 107.24151109646267 -1.1067695154097146
    vertex 362.2503976037988 102.70697839600696 8.418230484590286
    vertex 365.3055449774287 103.27855667807887 8.418230484590286
  endloop
endfacet
facet normal 0.9215143903451319 -0.07095855786761122 0.38180637953311997
  outer loop
    vertex 381.8005730075447 92.24730723170234 -1.1067695154097146
    vertex 377.5989904876697 88.93392268303312 8.418230484590286
    vertex 381.4824022055564 88.11533243640163 -1.1067695154097146
  endloop
endfacet
facet normal 0.9215143903451319 -0.07095855786761122 0.38180637953311997
  outer loop
    vertex 377.5989904876697 88.93392268303312 8.418230484590286
    vertex 381.8005730075447 92.24730723170234 -1.1067695154097146
    vertex 377.83761858916097 92.03290377950864 8.418230484590286
  endloop
endfacet
facet normal 0.8335341509256132 0.3993052814433195 0.38180637953311974
  outer loop
    vertex 381.03846863144884 96.32083706320886 -1.1067695154097146
    vertex 375.92320775679946 97.8911615592797 8.418230484590286
    vertex 377.26604030708904 95.08805115313854 8.418230484590286
  endloop
endfacet
facet normal 0.8335341509256132 0.3993052814433195 0.38180637953311974
  outer loop
    vertex 375.92320775679946 97.8911615592797 8.418230484590286
    vertex 381.03846863144884 96.32083706320886 -1.1067695154097146
    vertex 379.24802523106274 100.05831760473038 -1.1067695154097146
  endloop
endfacet
facet normal -0.9215143903451342 0.07095855786759368 0.381806379533118
  outer loop
    vertex 354.29852018034956 93.84546416282204 8.418230484590286
    vertex 350.0969376604747 90.53207961415282 -1.1067695154097146
    vertex 354.0598920788584 90.7464830663465 8.418230484590286
  endloop
endfacet
facet normal -0.9215143903451342 0.07095855786759368 0.381806379533118
  outer loop
    vertex 350.0969376604747 90.53207961415282 -1.1067695154097146
    vertex 354.29852018034956 93.84546416282204 8.418230484590286
    vertex 350.41510846246285 94.6640544094535 -1.1067695154097146
  endloop
endfacet
facet normal -0.70178435182543 -0.6014337969226309 0.3818063795331201
  outer loop
    vertex 357.99687791056056 82.52817918974262 8.418230484590286
    vertex 352.6494854369566 82.72106924112478 -1.1067695154097146
    vertex 355.34625210274413 79.5743411120143 -1.1067695154097146
  endloop
endfacet
facet normal -0.70178435182543 -0.6014337969226309 0.3818063795331201
  outer loop
    vertex 352.6494854369566 82.72106924112478 -1.1067695154097146
    vertex 357.99687791056056 82.52817918974262 8.418230484590286
    vertex 355.97430291121987 84.88822528657548 8.418230484590286
  endloop
endfacet
facet normal 0.9432040628450594 -0.332213930822555 0.0
  outer loop
    vertex 377.5989904876697 88.93392268303312 8.418230484590286
    vertex 376.5664181133805 86.00229830412837 13.180730484590283
    vertex 376.5664181133805 86.00229830412837 8.418230484590286
  endloop
endfacet
facet normal 0.9432040628450594 -0.332213930822555 0.0
  outer loop
    vertex 376.5664181133805 86.00229830412837 13.180730484590283
    vertex 377.5989904876697 88.93392268303312 8.418230484590286
    vertex 377.5989904876697 88.93392268303312 13.180730484590283
  endloop
endfacet
facet normal -0.7625755930580143 0.5222091089018172 0.381806379533119
  outer loop
    vertex 357.08724110082477 99.34157084637675 8.418230484590286
    vertex 351.79187162818187 98.57288691465985 -1.1067695154097146
    vertex 355.3310925546388 96.77708854172678 8.418230484590286
  endloop
endfacet
facet normal -0.7625755930580143 0.5222091089018172 0.381806379533119
  outer loop
    vertex 351.79187162818187 98.57288691465985 -1.1067695154097146
    vertex 357.08724110082477 99.34157084637675 8.418230484590286
    vertex 354.13340302309643 101.99219665419315 -1.1067695154097146
  endloop
endfacet
facet normal -0.5601250457313334 0.8284080716316516 0.0
  outer loop
    vertex 366.39728249524785 85.07749433307382 7.243230484590298
    vertex 371.63954368018705 88.62202979392009 -1.1067695154097033
    vertex 366.39728249524785 85.07749433307382 -1.1067695154097033
  endloop
endfacet
facet normal -0.5601250457313334 0.8284080716316516 0.0
  outer loop
    vertex 371.63954368018705 88.62202979392009 -1.1067695154097033
    vertex 366.39728249524785 85.07749433307382 7.243230484590298
    vertex 371.63954368018705 88.62202979392009 7.243230484590298
  endloop
endfacet
endsolid Izzy Hold Down Clamp
