solid Izzy Hold Down Clamp Small
facet normal 8.326672684688675e-17 2.766423551532772e-16 1.0
  outer loop
    vertex 0.7268659824518409 46.79347099841491 10.117420497186341
    vertex 1.3616252222958812e-13 68.07984792376864 10.117420497186336
    vertex 0.695687086487089 47.108625851927215 10.117420497186341
  endloop
endfacet
facet normal 8.326672684688675e-17 2.766423551532772e-16 1.0
  outer loop
    vertex 1.3616252222958812e-13 68.07984792376864 10.117420497186336
    vertex 0.7268659824518409 46.79347099841491 10.117420497186341
    vertex 0.010223806801240057 68.39637624638831 10.117420497186334
  endloop
endfacet
facet normal 8.326672684688675e-17 2.766423551532772e-16 1.0
  outer loop
    vertex 0.010223806801240057 68.39637624638831 10.117420497186334
    vertex 0.7268659824518409 46.79347099841491 10.117420497186341
    vertex 0.798914101628021 46.48508200093104 10.117420497186341
  endloop
endfacet
facet normal 8.326672684688675e-17 2.766423551532772e-16 1.0
  outer loop
    vertex 0.010223806801240057 68.39637624638831 10.117420497186334
    vertex 0.798914101628021 46.48508200093104 10.117420497186341
    vertex 0.061675384199188076 68.70886215075714 10.117420497186334
  endloop
endfacet
facet normal 8.326672684688675e-17 2.766423551532772e-16 1.0
  outer loop
    vertex 0.061675384199188076 68.70886215075714 10.117420497186334
    vertex 0.798914101628021 46.48508200093104 10.117420497186341
    vertex 0.9105986807210037 46.188735480724105 10.117420497186341
  endloop
endfacet
facet normal 8.326672684688675e-17 2.766423551532772e-16 1.0
  outer loop
    vertex 0.061675384199188076 68.70886215075714 10.117420497186334
    vertex 0.9105986807210037 46.188735480724105 10.117420497186341
    vertex 0.15347438143966466 69.01195891641389 10.117420497186334
  endloop
endfacet
facet normal 8.326672684688675e-17 2.766423551532772e-16 1.0
  outer loop
    vertex 0.15347438143966466 69.01195891641389 10.117420497186334
    vertex 0.9105986807210037 46.188735480724105 10.117420497186341
    vertex 1.0600087656177022 45.90950200891763 10.117420497186341
  endloop
endfacet
facet normal 8.326672684688675e-17 2.766423551532772e-16 1.0
  outer loop
    vertex 0.15347438143966466 69.01195891641389 10.117420497186334
    vertex 1.0600087656177022 45.90950200891763 10.117420497186341
    vertex 0.2840500922284054 69.30048047366385 10.117420497186334
  endloop
endfacet
facet normal 8.326672684688675e-17 2.766423551532772e-16 1.0
  outer loop
    vertex 0.2840500922284054 69.30048047366385 10.117420497186334
    vertex 1.0600087656177022 45.90950200891763 10.117420497186341
    vertex 1.2445879083412994 45.65215934763238 10.117420497186341
  endloop
endfacet
facet normal 8.326672684688675e-17 2.766423551532772e-16 1.0
  outer loop
    vertex 0.2840500922284054 69.30048047366385 10.117420497186334
    vertex 1.2445879083412994 45.65215934763238 10.117420497186341
    vertex 0.4511683299513632 69.56949013866924 10.117420497186334
  endloop
endfacet
facet normal 8.326672684688675e-17 2.766423551532772e-16 1.0
  outer loop
    vertex 0.4511683299513632 69.56949013866924 10.117420497186334
    vertex 1.2445879083412994 45.65215934763238 10.117420497186341
    vertex 0.6519696552271799 69.81438508147819 10.117420497186334
  endloop
endfacet
facet normal 8.326672684688675e-17 2.766423551532772e-16 1.0
  outer loop
    vertex 0.6519696552271799 69.81438508147819 10.117420497186334
    vertex 1.2445879083412994 45.65215934763238 10.117420497186341
    vertex 1.4611779085847059 45.42111070115184 10.117420497186341
  endloop
endfacet
facet normal 8.326672684688675e-17 2.766423551532772e-16 1.0
  outer loop
    vertex 0.6519696552271799 69.81438508147819 10.117420497186334
    vertex 1.4611779085847059 45.42111070115184 10.117420497186341
    vertex 0.8830183017077564 70.03097508172158 10.117420497186334
  endloop
endfacet
facet normal 8.326672684688675e-17 2.766423551532772e-16 1.0
  outer loop
    vertex 0.8830183017077564 70.03097508172158 10.117420497186334
    vertex 1.4611779085847059 45.42111070115184 10.117420497186341
    vertex 1.706072851393683 45.220309375876 10.117420497186341
  endloop
endfacet
facet normal 8.326672684688675e-17 2.766423551532772e-16 1.0
  outer loop
    vertex 0.8830183017077564 70.03097508172158 10.117420497186334
    vertex 1.706072851393683 45.220309375876 10.117420497186341
    vertex 1.140360962992983 70.21555422444516 10.117420497186334
  endloop
endfacet
facet normal 8.326672684688675e-17 2.766423551532772e-16 1.0
  outer loop
    vertex 1.140360962992983 70.21555422444516 10.117420497186334
    vertex 1.706072851393683 45.220309375876 10.117420497186341
    vertex 1.9750825163990213 45.05319113815303 10.117420497186341
  endloop
endfacet
facet normal 8.326672684688675e-17 2.766423551532772e-16 1.0
  outer loop
    vertex 1.140360962992983 70.21555422444516 10.117420497186334
    vertex 1.9750825163990213 45.05319113815303 10.117420497186341
    vertex 1.4195944347994482 70.36496430934187 10.117420497186334
  endloop
endfacet
facet normal 8.326672684688675e-17 2.766423551532772e-16 1.0
  outer loop
    vertex 1.4195944347994482 70.36496430934187 10.117420497186334
    vertex 1.9750825163990213 45.05319113815303 10.117420497186341
    vertex 2.2636040736489997 44.9226154273643 10.117420497186341
  endloop
endfacet
facet normal 8.326672684688675e-17 2.766423551532772e-16 1.0
  outer loop
    vertex 1.4195944347994482 70.36496430934187 10.117420497186334
    vertex 2.2636040736489997 44.9226154273643 10.117420497186341
    vertex 1.7159409550063955 70.47664888843487 10.117420497186334
  endloop
endfacet
facet normal 8.326672684688675e-17 2.766423551532772e-16 1.0
  outer loop
    vertex 1.7159409550063955 70.47664888843487 10.117420497186334
    vertex 2.2636040736489997 44.9226154273643 10.117420497186341
    vertex 2.5667008393057333 44.830816430123804 10.117420497186341
  endloop
endfacet
facet normal 8.326672684688675e-17 2.766423551532772e-16 1.0
  outer loop
    vertex 1.7159409550063955 70.47664888843487 10.117420497186334
    vertex 2.5667008393057333 44.830816430123804 10.117420497186341
    vertex 2.8791867436745324 44.77936485272585 10.117420497186341
  endloop
endfacet
facet normal 8.326672684688675e-17 2.766423551532772e-16 1.0
  outer loop
    vertex 1.7159409550063955 70.47664888843487 10.117420497186334
    vertex 2.8791867436745324 44.77936485272585 10.117420497186341
    vertex 2.0243299524902794 70.54869700761104 10.117420497186334
  endloop
endfacet
facet normal 8.326672684688675e-17 2.766423551532772e-16 1.0
  outer loop
    vertex 2.0243299524902794 70.54869700761104 10.117420497186334
    vertex 2.8791867436745324 44.77936485272585 10.117420497186341
    vertex 3.1957150662942806 44.76914104592477 10.117420497186341
  endloop
endfacet
facet normal 8.326672684688675e-17 2.766423551532772e-16 1.0
  outer loop
    vertex 2.0243299524902794 70.54869700761104 10.117420497186334
    vertex 3.1957150662942806 44.76914104592477 10.117420497186341
    vertex 2.339484806002548 70.57987590357577 10.117420497186334
  endloop
endfacet
facet normal 8.326672684688675e-17 2.766423551532772e-16 1.0
  outer loop
    vertex 2.339484806002548 70.57987590357577 10.117420497186334
    vertex 3.1957150662942806 44.76914104592477 10.117420497186341
    vertex 36.21607430666952 71.70367812020856 10.11742049718633
  endloop
endfacet
facet normal 8.326672684688675e-17 2.766423551532772e-16 1.0
  outer loop
    vertex 36.21607430666952 71.70367812020856 10.11742049718633
    vertex 3.1957150662942806 44.76914104592477 10.117420497186341
    vertex 37.07230456696118 45.89294326255759 10.117420497186338
  endloop
endfacet
facet normal 8.326672684688675e-17 2.766423551532772e-16 1.0
  outer loop
    vertex 36.21607430666952 71.70367812020856 10.11742049718633
    vertex 37.07230456696118 45.89294326255759 10.117420497186338
    vertex 37.38745942047343 45.92412215852229 10.117420497186338
  endloop
endfacet
facet normal 8.326672684688675e-17 2.766423551532772e-16 1.0
  outer loop
    vertex 36.21607430666952 71.70367812020856 10.11742049718633
    vertex 37.38745942047343 45.92412215852229 10.117420497186338
    vertex 36.532602629289194 71.69345431340747 10.11742049718633
  endloop
endfacet
facet normal 8.326672684688675e-17 2.766423551532772e-16 1.0
  outer loop
    vertex 36.532602629289194 71.69345431340747 10.11742049718633
    vertex 37.38745942047343 45.92412215852229 10.117420497186338
    vertex 37.69584841795736 45.99617027769846 10.117420497186338
  endloop
endfacet
facet normal 8.326672684688675e-17 2.766423551532772e-16 1.0
  outer loop
    vertex 36.532602629289194 71.69345431340747 10.11742049718633
    vertex 37.69584841795736 45.99617027769846 10.117420497186338
    vertex 36.84508853365802 71.6420027360095 10.11742049718633
  endloop
endfacet
facet normal 8.326672684688675e-17 2.766423551532772e-16 1.0
  outer loop
    vertex 36.84508853365802 71.6420027360095 10.11742049718633
    vertex 37.69584841795736 45.99617027769846 10.117420497186338
    vertex 37.99219493816428 46.1078548567915 10.117420497186338
  endloop
endfacet
facet normal 8.326672684688675e-17 2.766423551532772e-16 1.0
  outer loop
    vertex 36.84508853365802 71.6420027360095 10.11742049718633
    vertex 37.99219493816428 46.1078548567915 10.117420497186338
    vertex 37.148185299314754 71.55020373876903 10.11742049718633
  endloop
endfacet
facet normal 8.326672684688675e-17 2.766423551532772e-16 1.0
  outer loop
    vertex 37.148185299314754 71.55020373876903 10.11742049718633
    vertex 37.99219493816428 46.1078548567915 10.117420497186338
    vertex 38.271428409970746 46.2572649416882 10.117420497186338
  endloop
endfacet
facet normal 8.326672684688675e-17 2.766423551532772e-16 1.0
  outer loop
    vertex 37.148185299314754 71.55020373876903 10.11742049718633
    vertex 38.271428409970746 46.2572649416882 10.117420497186338
    vertex 37.43670685656473 71.4196280279803 10.11742049718633
  endloop
endfacet
facet normal 8.326672684688675e-17 2.766423551532772e-16 1.0
  outer loop
    vertex 37.43670685656473 71.4196280279803 10.11742049718633
    vertex 38.271428409970746 46.2572649416882 10.117420497186338
    vertex 38.528771071256 46.441844084411734 10.117420497186338
  endloop
endfacet
facet normal 8.326672684688675e-17 2.766423551532772e-16 1.0
  outer loop
    vertex 37.43670685656473 71.4196280279803 10.11742049718633
    vertex 38.528771071256 46.441844084411734 10.117420497186338
    vertex 37.70571652157012 71.25250979025732 10.11742049718633
  endloop
endfacet
facet normal 8.326672684688675e-17 2.766423551532772e-16 1.0
  outer loop
    vertex 37.70571652157012 71.25250979025732 10.11742049718633
    vertex 38.528771071256 46.441844084411734 10.117420497186338
    vertex 38.759819717736534 46.658434084655156 10.117420497186338
  endloop
endfacet
facet normal 8.326672684688675e-17 2.766423551532772e-16 1.0
  outer loop
    vertex 37.70571652157012 71.25250979025732 10.11742049718633
    vertex 38.759819717736534 46.658434084655156 10.117420497186338
    vertex 37.9506114643791 71.0517084649815 10.11742049718633
  endloop
endfacet
facet normal 8.326672684688675e-17 2.766423551532772e-16 1.0
  outer loop
    vertex 37.9506114643791 71.0517084649815 10.11742049718633
    vertex 38.759819717736534 46.658434084655156 10.117420497186338
    vertex 38.960621043012296 46.9033290274641 10.117420497186338
  endloop
endfacet
facet normal 8.326672684688675e-17 2.766423551532772e-16 1.0
  outer loop
    vertex 37.9506114643791 71.0517084649815 10.11742049718633
    vertex 38.960621043012296 46.9033290274641 10.117420497186338
    vertex 38.16720146462248 70.82065981850093 10.11742049718633
  endloop
endfacet
facet normal 8.326672684688675e-17 2.766423551532772e-16 1.0
  outer loop
    vertex 38.16720146462248 70.82065981850093 10.11742049718633
    vertex 38.960621043012296 46.9033290274641 10.117420497186338
    vertex 39.12773928073535 47.172338692469495 10.117420497186338
  endloop
endfacet
facet normal 8.326672684688675e-17 2.766423551532772e-16 1.0
  outer loop
    vertex 38.16720146462248 70.82065981850093 10.11742049718633
    vertex 39.12773928073535 47.172338692469495 10.117420497186338
    vertex 38.35178060734598 70.56331715721568 10.11742049718633
  endloop
endfacet
facet normal 8.326672684688675e-17 2.766423551532772e-16 1.0
  outer loop
    vertex 38.35178060734598 70.56331715721568 10.11742049718633
    vertex 39.12773928073535 47.172338692469495 10.117420497186338
    vertex 38.50119069224275 70.28408368540926 10.11742049718633
  endloop
endfacet
facet normal 8.326672684688675e-17 2.766423551532772e-16 1.0
  outer loop
    vertex 38.50119069224275 70.28408368540926 10.11742049718633
    vertex 39.12773928073535 47.172338692469495 10.117420497186338
    vertex 39.258314991524045 47.460860249719445 10.117420497186338
  endloop
endfacet
facet normal 8.326672684688675e-17 2.766423551532772e-16 1.0
  outer loop
    vertex 38.50119069224275 70.28408368540926 10.11742049718633
    vertex 39.258314991524045 47.460860249719445 10.117420497186338
    vertex 39.35011398876454 47.76395701537619 10.117420497186338
  endloop
endfacet
facet normal 8.326672684688675e-17 2.766423551532772e-16 1.0
  outer loop
    vertex 38.50119069224275 70.28408368540926 10.11742049718633
    vertex 39.35011398876454 47.76395701537619 10.117420497186338
    vertex 38.61287527133571 69.98773716520233 10.11742049718633
  endloop
endfacet
facet normal 8.326672684688675e-17 2.766423551532772e-16 1.0
  outer loop
    vertex 38.61287527133571 69.98773716520233 10.11742049718633
    vertex 39.35011398876454 47.76395701537619 10.117420497186338
    vertex 39.40156556616254 48.076442919745034 10.117420497186338
  endloop
endfacet
facet normal 8.326672684688675e-17 2.766423551532772e-16 1.0
  outer loop
    vertex 38.61287527133571 69.98773716520233 10.11742049718633
    vertex 39.40156556616254 48.076442919745034 10.117420497186338
    vertex 38.68492339051187 69.67934816771843 10.11742049718633
  endloop
endfacet
facet normal 8.326672684688675e-17 2.766423551532772e-16 1.0
  outer loop
    vertex 38.68492339051187 69.67934816771843 10.11742049718633
    vertex 39.40156556616254 48.076442919745034 10.117420497186338
    vertex 38.71610228647664 69.36419331420616 10.11742049718633
  endloop
endfacet
facet normal 8.326672684688675e-17 2.766423551532772e-16 1.0
  outer loop
    vertex 38.71610228647664 69.36419331420616 10.11742049718633
    vertex 39.40156556616254 48.076442919745034 10.117420497186338
    vertex 39.411789372963625 48.39297124236471 10.117420497186338
  endloop
endfacet
facet normal -8.326672684688675e-17 -2.766423551532772e-16 -1.0
  outer loop
    vertex 1.3535839116229907e-13 68.07984792376864 0.4330706243927178
    vertex 0.72686598245184 46.793470998414904 0.4330706243927235
    vertex 0.6956870864870882 47.10862585192721 0.4330706243927235
  endloop
endfacet
facet normal -8.326672684688675e-17 -2.766423551532772e-16 -1.0
  outer loop
    vertex 0.72686598245184 46.793470998414904 0.4330706243927235
    vertex 1.3535839116229907e-13 68.07984792376864 0.4330706243927178
    vertex 0.010223806801239252 68.39637624638831 0.43307062439271643
  endloop
endfacet
facet normal -8.326672684688675e-17 -2.766423551532772e-16 -1.0
  outer loop
    vertex 0.72686598245184 46.793470998414904 0.4330706243927235
    vertex 0.010223806801239252 68.39637624638831 0.43307062439271643
    vertex 0.7989141016280201 46.48508200093104 0.4330706243927235
  endloop
endfacet
facet normal -8.326672684688675e-17 -2.766423551532772e-16 -1.0
  outer loop
    vertex 0.7989141016280201 46.48508200093104 0.4330706243927235
    vertex 0.010223806801239252 68.39637624638831 0.43307062439271643
    vertex 0.06167538419918726 68.70886215075714 0.43307062439271643
  endloop
endfacet
facet normal -8.326672684688675e-17 -2.766423551532772e-16 -1.0
  outer loop
    vertex 0.7989141016280201 46.48508200093104 0.4330706243927235
    vertex 0.06167538419918726 68.70886215075714 0.43307062439271643
    vertex 0.15347438143966388 69.01195891641389 0.43307062439271643
  endloop
endfacet
facet normal -8.326672684688675e-17 -2.766423551532772e-16 -1.0
  outer loop
    vertex 0.7989141016280201 46.48508200093104 0.4330706243927235
    vertex 0.15347438143966388 69.01195891641389 0.43307062439271643
    vertex 0.9105986807210028 46.1887354807241 0.4330706243927235
  endloop
endfacet
facet normal -8.326672684688675e-17 -2.766423551532772e-16 -1.0
  outer loop
    vertex 0.9105986807210028 46.1887354807241 0.4330706243927235
    vertex 0.15347438143966388 69.01195891641389 0.43307062439271643
    vertex 0.2840500922284046 69.30048047366385 0.43307062439271643
  endloop
endfacet
facet normal -8.326672684688675e-17 -2.766423551532772e-16 -1.0
  outer loop
    vertex 0.9105986807210028 46.1887354807241 0.4330706243927235
    vertex 0.2840500922284046 69.30048047366385 0.43307062439271643
    vertex 1.0600087656177013 45.90950200891763 0.4330706243927235
  endloop
endfacet
facet normal -8.326672684688675e-17 -2.766423551532772e-16 -1.0
  outer loop
    vertex 1.0600087656177013 45.90950200891763 0.4330706243927235
    vertex 0.2840500922284046 69.30048047366385 0.43307062439271643
    vertex 1.2445879083412985 45.65215934763238 0.4330706243927235
  endloop
endfacet
facet normal -8.326672684688675e-17 -2.766423551532772e-16 -1.0
  outer loop
    vertex 1.2445879083412985 45.65215934763238 0.4330706243927235
    vertex 0.2840500922284046 69.30048047366385 0.43307062439271643
    vertex 0.45116832995136236 69.56949013866924 0.43307062439271643
  endloop
endfacet
facet normal -8.326672684688675e-17 -2.766423551532772e-16 -1.0
  outer loop
    vertex 1.2445879083412985 45.65215934763238 0.4330706243927235
    vertex 0.45116832995136236 69.56949013866924 0.43307062439271643
    vertex 0.6519696552271791 69.81438508147819 0.43307062439271643
  endloop
endfacet
facet normal -8.326672684688675e-17 -2.766423551532772e-16 -1.0
  outer loop
    vertex 1.2445879083412985 45.65215934763238 0.4330706243927235
    vertex 0.6519696552271791 69.81438508147819 0.43307062439271643
    vertex 1.461177908584705 45.42111070115184 0.4330706243927235
  endloop
endfacet
facet normal -8.326672684688675e-17 -2.766423551532772e-16 -1.0
  outer loop
    vertex 1.461177908584705 45.42111070115184 0.4330706243927235
    vertex 0.6519696552271791 69.81438508147819 0.43307062439271643
    vertex 0.8830183017077555 70.03097508172158 0.43307062439271643
  endloop
endfacet
facet normal -8.326672684688675e-17 -2.766423551532772e-16 -1.0
  outer loop
    vertex 1.461177908584705 45.42111070115184 0.4330706243927235
    vertex 0.8830183017077555 70.03097508172158 0.43307062439271643
    vertex 1.7060728513936823 45.220309375876 0.4330706243927235
  endloop
endfacet
facet normal -8.326672684688675e-17 -2.766423551532772e-16 -1.0
  outer loop
    vertex 1.7060728513936823 45.220309375876 0.4330706243927235
    vertex 0.8830183017077555 70.03097508172158 0.43307062439271643
    vertex 1.140360962992982 70.21555422444516 0.43307062439271643
  endloop
endfacet
facet normal -8.326672684688675e-17 -2.766423551532772e-16 -1.0
  outer loop
    vertex 1.7060728513936823 45.220309375876 0.4330706243927235
    vertex 1.140360962992982 70.21555422444516 0.43307062439271643
    vertex 1.9750825163990204 45.05319113815303 0.4330706243927235
  endloop
endfacet
facet normal -8.326672684688675e-17 -2.766423551532772e-16 -1.0
  outer loop
    vertex 1.9750825163990204 45.05319113815303 0.4330706243927235
    vertex 1.140360962992982 70.21555422444516 0.43307062439271643
    vertex 1.4195944347994474 70.36496430934187 0.43307062439271643
  endloop
endfacet
facet normal -8.326672684688675e-17 -2.766423551532772e-16 -1.0
  outer loop
    vertex 1.9750825163990204 45.05319113815303 0.4330706243927235
    vertex 1.4195944347994474 70.36496430934187 0.43307062439271643
    vertex 2.263604073648999 44.9226154273643 0.4330706243927235
  endloop
endfacet
facet normal -8.326672684688675e-17 -2.766423551532772e-16 -1.0
  outer loop
    vertex 2.263604073648999 44.9226154273643 0.4330706243927235
    vertex 1.4195944347994474 70.36496430934187 0.43307062439271643
    vertex 1.7159409550063949 70.47664888843487 0.43307062439271643
  endloop
endfacet
facet normal -8.326672684688675e-17 -2.766423551532772e-16 -1.0
  outer loop
    vertex 2.263604073648999 44.9226154273643 0.4330706243927235
    vertex 1.7159409550063949 70.47664888843487 0.43307062439271643
    vertex 2.5667008393057325 44.830816430123804 0.4330706243927235
  endloop
endfacet
facet normal -8.326672684688675e-17 -2.766423551532772e-16 -1.0
  outer loop
    vertex 2.5667008393057325 44.830816430123804 0.4330706243927235
    vertex 1.7159409550063949 70.47664888843487 0.43307062439271643
    vertex 2.024329952490279 70.54869700761104 0.43307062439271643
  endloop
endfacet
facet normal -8.326672684688675e-17 -2.766423551532772e-16 -1.0
  outer loop
    vertex 2.5667008393057325 44.830816430123804 0.4330706243927235
    vertex 2.024329952490279 70.54869700761104 0.43307062439271643
    vertex 2.879186743674532 44.77936485272585 0.4330706243927235
  endloop
endfacet
facet normal -8.326672684688675e-17 -2.766423551532772e-16 -1.0
  outer loop
    vertex 2.879186743674532 44.77936485272585 0.4330706243927235
    vertex 2.024329952490279 70.54869700761104 0.43307062439271643
    vertex 3.19571506629428 44.76914104592477 0.4330706243927235
  endloop
endfacet
facet normal -8.326672684688675e-17 -2.766423551532772e-16 -1.0
  outer loop
    vertex 3.19571506629428 44.76914104592477 0.4330706243927235
    vertex 2.024329952490279 70.54869700761104 0.43307062439271643
    vertex 2.3394848060025475 70.57987590357577 0.43307062439271643
  endloop
endfacet
facet normal -8.326672684688675e-17 -2.766423551532772e-16 -1.0
  outer loop
    vertex 3.19571506629428 44.76914104592477 0.4330706243927235
    vertex 2.3394848060025475 70.57987590357577 0.43307062439271643
    vertex 36.21607430666952 71.70367812020856 0.4330706243927136
  endloop
endfacet
facet normal -8.326672684688675e-17 -2.766423551532772e-16 -1.0
  outer loop
    vertex 3.19571506629428 44.76914104592477 0.4330706243927235
    vertex 36.21607430666952 71.70367812020856 0.4330706243927136
    vertex 37.07230456696118 45.89294326255758 0.43307062439272065
  endloop
endfacet
facet normal -8.326672684688675e-17 -2.766423551532772e-16 -1.0
  outer loop
    vertex 37.07230456696118 45.89294326255758 0.43307062439272065
    vertex 36.21607430666952 71.70367812020856 0.4330706243927136
    vertex 36.532602629289194 71.69345431340747 0.4330706243927136
  endloop
endfacet
facet normal -8.326672684688675e-17 -2.766423551532772e-16 -1.0
  outer loop
    vertex 37.07230456696118 45.89294326255758 0.43307062439272065
    vertex 36.532602629289194 71.69345431340747 0.4330706243927136
    vertex 37.38745942047343 45.92412215852229 0.43307062439272065
  endloop
endfacet
facet normal -8.326672684688675e-17 -2.766423551532772e-16 -1.0
  outer loop
    vertex 37.38745942047343 45.92412215852229 0.43307062439272065
    vertex 36.532602629289194 71.69345431340747 0.4330706243927136
    vertex 37.69584841795736 45.99617027769846 0.43307062439272065
  endloop
endfacet
facet normal -8.326672684688675e-17 -2.766423551532772e-16 -1.0
  outer loop
    vertex 37.69584841795736 45.99617027769846 0.43307062439272065
    vertex 36.532602629289194 71.69345431340747 0.4330706243927136
    vertex 36.84508853365802 71.6420027360095 0.4330706243927136
  endloop
endfacet
facet normal -8.326672684688675e-17 -2.766423551532772e-16 -1.0
  outer loop
    vertex 37.69584841795736 45.99617027769846 0.43307062439272065
    vertex 36.84508853365802 71.6420027360095 0.4330706243927136
    vertex 37.148185299314754 71.55020373876903 0.4330706243927136
  endloop
endfacet
facet normal -8.326672684688675e-17 -2.766423551532772e-16 -1.0
  outer loop
    vertex 37.69584841795736 45.99617027769846 0.43307062439272065
    vertex 37.148185299314754 71.55020373876903 0.4330706243927136
    vertex 37.99219493816428 46.10785485679149 0.43307062439272065
  endloop
endfacet
facet normal -8.326672684688675e-17 -2.766423551532772e-16 -1.0
  outer loop
    vertex 37.99219493816428 46.10785485679149 0.43307062439272065
    vertex 37.148185299314754 71.55020373876903 0.4330706243927136
    vertex 37.43670685656473 71.4196280279803 0.4330706243927136
  endloop
endfacet
facet normal -8.326672684688675e-17 -2.766423551532772e-16 -1.0
  outer loop
    vertex 37.99219493816428 46.10785485679149 0.43307062439272065
    vertex 37.43670685656473 71.4196280279803 0.4330706243927136
    vertex 38.271428409970746 46.25726494168819 0.43307062439272065
  endloop
endfacet
facet normal -8.326672684688675e-17 -2.766423551532772e-16 -1.0
  outer loop
    vertex 38.271428409970746 46.25726494168819 0.43307062439272065
    vertex 37.43670685656473 71.4196280279803 0.4330706243927136
    vertex 37.70571652157012 71.25250979025732 0.4330706243927136
  endloop
endfacet
facet normal -8.326672684688675e-17 -2.766423551532772e-16 -1.0
  outer loop
    vertex 38.271428409970746 46.25726494168819 0.43307062439272065
    vertex 37.70571652157012 71.25250979025732 0.4330706243927136
    vertex 38.528771071256 46.441844084411734 0.43307062439272065
  endloop
endfacet
facet normal -8.326672684688675e-17 -2.766423551532772e-16 -1.0
  outer loop
    vertex 38.528771071256 46.441844084411734 0.43307062439272065
    vertex 37.70571652157012 71.25250979025732 0.4330706243927136
    vertex 37.9506114643791 71.0517084649815 0.4330706243927136
  endloop
endfacet
facet normal -8.326672684688675e-17 -2.766423551532772e-16 -1.0
  outer loop
    vertex 38.528771071256 46.441844084411734 0.43307062439272065
    vertex 37.9506114643791 71.0517084649815 0.4330706243927136
    vertex 38.759819717736534 46.658434084655156 0.43307062439272065
  endloop
endfacet
facet normal -8.326672684688675e-17 -2.766423551532772e-16 -1.0
  outer loop
    vertex 38.759819717736534 46.658434084655156 0.43307062439272065
    vertex 37.9506114643791 71.0517084649815 0.4330706243927136
    vertex 38.960621043012296 46.9033290274641 0.43307062439272065
  endloop
endfacet
facet normal -8.326672684688675e-17 -2.766423551532772e-16 -1.0
  outer loop
    vertex 38.960621043012296 46.9033290274641 0.43307062439272065
    vertex 37.9506114643791 71.0517084649815 0.4330706243927136
    vertex 38.16720146462248 70.82065981850091 0.4330706243927136
  endloop
endfacet
facet normal -8.326672684688675e-17 -2.766423551532772e-16 -1.0
  outer loop
    vertex 38.960621043012296 46.9033290274641 0.43307062439272065
    vertex 38.16720146462248 70.82065981850091 0.4330706243927136
    vertex 39.12773928073535 47.17233869246949 0.43307062439272065
  endloop
endfacet
facet normal -8.326672684688675e-17 -2.766423551532772e-16 -1.0
  outer loop
    vertex 39.12773928073535 47.17233869246949 0.43307062439272065
    vertex 38.16720146462248 70.82065981850091 0.4330706243927136
    vertex 38.35178060734598 70.56331715721568 0.4330706243927136
  endloop
endfacet
facet normal -8.326672684688675e-17 -2.766423551532772e-16 -1.0
  outer loop
    vertex 39.12773928073535 47.17233869246949 0.43307062439272065
    vertex 38.35178060734598 70.56331715721568 0.4330706243927136
    vertex 38.50119069224275 70.28408368540924 0.4330706243927136
  endloop
endfacet
facet normal -8.326672684688675e-17 -2.766423551532772e-16 -1.0
  outer loop
    vertex 39.12773928073535 47.17233869246949 0.43307062439272065
    vertex 38.50119069224275 70.28408368540924 0.4330706243927136
    vertex 39.258314991524045 47.460860249719445 0.43307062439272065
  endloop
endfacet
facet normal -8.326672684688675e-17 -2.766423551532772e-16 -1.0
  outer loop
    vertex 39.258314991524045 47.460860249719445 0.43307062439272065
    vertex 38.50119069224275 70.28408368540924 0.4330706243927136
    vertex 39.35011398876454 47.76395701537619 0.43307062439272065
  endloop
endfacet
facet normal -8.326672684688675e-17 -2.766423551532772e-16 -1.0
  outer loop
    vertex 39.35011398876454 47.76395701537619 0.43307062439272065
    vertex 38.50119069224275 70.28408368540924 0.4330706243927136
    vertex 38.61287527133571 69.98773716520233 0.4330706243927136
  endloop
endfacet
facet normal -8.326672684688675e-17 -2.766423551532772e-16 -1.0
  outer loop
    vertex 39.35011398876454 47.76395701537619 0.43307062439272065
    vertex 38.61287527133571 69.98773716520233 0.4330706243927136
    vertex 38.68492339051187 69.67934816771843 0.4330706243927136
  endloop
endfacet
facet normal -8.326672684688675e-17 -2.766423551532772e-16 -1.0
  outer loop
    vertex 39.35011398876454 47.76395701537619 0.43307062439272065
    vertex 38.68492339051187 69.67934816771843 0.4330706243927136
    vertex 39.40156556616254 48.07644291974503 0.43307062439272065
  endloop
endfacet
facet normal -8.326672684688675e-17 -2.766423551532772e-16 -1.0
  outer loop
    vertex 39.40156556616254 48.07644291974503 0.43307062439272065
    vertex 38.68492339051187 69.67934816771843 0.4330706243927136
    vertex 38.71610228647664 69.36419331420616 0.4330706243927136
  endloop
endfacet
facet normal -8.326672684688675e-17 -2.766423551532772e-16 -1.0
  outer loop
    vertex 39.40156556616254 48.07644291974503 0.43307062439272065
    vertex 38.71610228647664 69.36419331420616 0.4330706243927136
    vertex 39.411789372963625 48.39297124236471 0.43307062439272065
  endloop
endfacet
facet normal -0.033155178388525525 0.9994502159417573 -3.038191536833936e-16
  outer loop
    vertex 36.21607430666952 71.70367812020856 0.4330706243927136
    vertex 2.339484806002548 70.57987590357577 10.117420497186334
    vertex 36.21607430666952 71.70367812020856 10.11742049718633
  endloop
endfacet
facet normal -0.033155178388525525 0.9994502159417573 -3.038191536833936e-16
  outer loop
    vertex 2.339484806002548 70.57987590357577 10.117420497186334
    vertex 36.21607430666952 71.70367812020856 0.4330706243927136
    vertex 2.3394848060025475 70.57987590357577 0.43307062439271643
  endloop
endfacet
facet normal -0.09845136223887294 0.9951418638934402 -2.9727507007728275e-16
  outer loop
    vertex 2.3394848060025475 70.57987590357577 0.43307062439271643
    vertex 2.0243299524902794 70.54869700761104 10.117420497186334
    vertex 2.339484806002548 70.57987590357577 10.117420497186334
  endloop
endfacet
facet normal -0.09845136223887294 0.9951418638934402 -2.9727507007728275e-16
  outer loop
    vertex 2.0243299524902794 70.54869700761104 10.117420497186334
    vertex 2.3394848060025475 70.57987590357577 0.43307062439271643
    vertex 2.024329952490279 70.54869700761104 0.43307062439271643
  endloop
endfacet
facet normal -0.22750117539982975 0.9737778058631732 -2.804014442550417e-16
  outer loop
    vertex 2.024329952490279 70.54869700761104 0.43307062439271643
    vertex 1.7159409550063955 70.47664888843487 10.117420497186334
    vertex 2.0243299524902794 70.54869700761104 10.117420497186334
  endloop
endfacet
facet normal -0.22750117539982975 0.9737778058631732 -2.804014442550417e-16
  outer loop
    vertex 1.7159409550063955 70.47664888843487 10.117420497186334
    vertex 2.024329952490279 70.54869700761104 0.43307062439271643
    vertex 1.7159409550063949 70.47664888843487 0.43307062439271643
  endloop
endfacet
facet normal -0.35265838037432334 0.9357521395924024 -2.5873007197964847e-16
  outer loop
    vertex 1.7159409550063949 70.47664888843487 0.43307062439271643
    vertex 1.4195944347994482 70.36496430934187 10.117420497186334
    vertex 1.7159409550063955 70.47664888843487 10.117420497186334
  endloop
endfacet
facet normal -0.35265838037432334 0.9357521395924024 -2.5873007197964847e-16
  outer loop
    vertex 1.4195944347994482 70.36496430934187 10.117420497186334
    vertex 1.7159409550063949 70.47664888843487 0.43307062439271643
    vertex 1.4195944347994474 70.36496430934187 0.43307062439271643
  endloop
endfacet
facet normal -0.47178150268528074 0.881715494773693 -2.326317564391502e-16
  outer loop
    vertex 1.4195944347994474 70.36496430934187 0.43307062439271643
    vertex 1.140360962992983 70.21555422444516 10.117420497186334
    vertex 1.4195944347994482 70.36496430934187 10.117420497186334
  endloop
endfacet
facet normal -0.47178150268528074 0.881715494773693 -2.326317564391502e-16
  outer loop
    vertex 1.140360962992983 70.21555422444516 10.117420497186334
    vertex 1.4195944347994474 70.36496430934187 0.43307062439271643
    vertex 1.140360962992982 70.21555422444516 0.43307062439271643
  endloop
endfacet
facet normal -0.5828323126828345 0.8125924533816314 -2.0255304704824616e-16
  outer loop
    vertex 1.140360962992982 70.21555422444516 0.43307062439271643
    vertex 0.8830183017077564 70.03097508172158 10.117420497186334
    vertex 1.140360962992983 70.21555422444516 10.117420497186334
  endloop
endfacet
facet normal -0.5828323126828345 0.8125924533816314 -2.0255304704824616e-16
  outer loop
    vertex 0.8830183017077564 70.03097508172158 10.117420497186334
    vertex 1.140360962992982 70.21555422444516 0.43307062439271643
    vertex 0.8830183017077555 70.03097508172158 0.43307062439271643
  endloop
endfacet
facet normal -0.683910700218606 0.7295657298191138 -1.6900859886407224e-16
  outer loop
    vertex 0.8830183017077555 70.03097508172158 0.43307062439271643
    vertex 0.6519696552271799 69.81438508147819 10.117420497186334
    vertex 0.8830183017077564 70.03097508172158 10.117420497186334
  endloop
endfacet
facet normal -0.683910700218606 0.7295657298191138 -1.6900859886407224e-16
  outer loop
    vertex 0.6519696552271799 69.81438508147819 10.117420497186334
    vertex 0.8830183017077555 70.03097508172158 0.43307062439271643
    vertex 0.6519696552271791 69.81438508147819 0.43307062439271643
  endloop
endfacet
facet normal -0.7732871860578451 0.6340559343454961 -1.325723666952731e-16
  outer loop
    vertex 0.45116832995136236 69.56949013866924 0.43307062439271643
    vertex 0.6519696552271799 69.81438508147819 10.117420497186334
    vertex 0.6519696552271791 69.81438508147819 0.43307062439271643
  endloop
endfacet
facet normal -0.7732871860578451 0.6340559343454961 -1.325723666952731e-16
  outer loop
    vertex 0.6519696552271799 69.81438508147819 10.117420497186334
    vertex 0.45116832995136236 69.56949013866924 0.43307062439271643
    vertex 0.4511683299513632 69.56949013866924 10.117420497186334
  endloop
endfacet
facet normal -0.8494325137479238 0.5276972660416988 -9.386778457631006e-17
  outer loop
    vertex 0.2840500922284046 69.30048047366385 0.43307062439271643
    vertex 0.4511683299513632 69.56949013866924 10.117420497186334
    vertex 0.45116832995136236 69.56949013866924 0.43307062439271643
  endloop
endfacet
facet normal -0.8494325137479238 0.5276972660416988 -9.386778457631006e-17
  outer loop
    vertex 0.4511683299513632 69.56949013866924 10.117420497186334
    vertex 0.2840500922284046 69.30048047366385 0.43307062439271643
    vertex 0.2840500922284054 69.30048047366385 10.117420497186334
  endloop
endfacet
facet normal -0.9110438156205589 0.4123095512106566 -5.355709863819792e-17
  outer loop
    vertex 0.15347438143966388 69.01195891641389 0.43307062439271643
    vertex 0.2840500922284054 69.30048047366385 10.117420497186334
    vertex 0.2840500922284046 69.30048047366385 0.43307062439271643
  endloop
endfacet
facet normal -0.9110438156205589 0.4123095512106566 -5.355709863819792e-17
  outer loop
    vertex 0.2840500922284054 69.30048047366385 10.117420497186334
    vertex 0.15347438143966388 69.01195891641389 0.43307062439271643
    vertex 0.15347438143966466 69.01195891641389 10.117420497186334
  endloop
endfacet
facet normal -0.9570669052188796 0.2898671056445627 -1.2330035893541448e-17
  outer loop
    vertex 0.06167538419918726 68.70886215075714 0.43307062439271643
    vertex 0.15347438143966466 69.01195891641389 10.117420497186334
    vertex 0.15347438143966388 69.01195891641389 0.43307062439271643
  endloop
endfacet
facet normal -0.9570669052188796 0.2898671056445627 -1.2330035893541448e-17
  outer loop
    vertex 0.15347438143966466 69.01195891641389 10.117420497186334
    vertex 0.06167538419918726 68.70886215075714 0.43307062439271643
    vertex 0.061675384199188076 68.70886215075714 10.117420497186334
  endloop
endfacet
facet normal -0.9867143147198307 0.16246495353452398 2.910799718379211e-17
  outer loop
    vertex 0.010223806801239252 68.39637624638831 0.43307062439271643
    vertex 0.061675384199188076 68.70886215075714 10.117420497186334
    vertex 0.06167538419918726 68.70886215075714 0.43307062439271643
  endloop
endfacet
facet normal -0.9867143147198307 0.16246495353452398 2.910799718379211e-17
  outer loop
    vertex 0.061675384199188076 68.70886215075714 10.117420497186334
    vertex 0.010223806801239252 68.39637624638831 0.43307062439271643
    vertex 0.010223806801240057 68.39637624638831 10.117420497186334
  endloop
endfacet
facet normal -0.9994787687270239 0.032282981025802376 7.004798435902178e-17
  outer loop
    vertex 1.3535839116229907e-13 68.07984792376864 0.4330706243927178
    vertex 0.010223806801240057 68.39637624638831 10.117420497186334
    vertex 0.010223806801239252 68.39637624638831 0.43307062439271643
  endloop
endfacet
facet normal -0.9994787687270239 0.032282981025802376 7.004798435902178e-17
  outer loop
    vertex 0.010223806801240057 68.39637624638831 10.117420497186334
    vertex 1.3535839116229907e-13 68.07984792376864 0.4330706243927178
    vertex 1.3616252222958812e-13 68.07984792376864 10.117420497186336
  endloop
endfacet
facet normal -0.9994502159417573 -0.03315517838852578 9.011164367618424e-17
  outer loop
    vertex 0.6956870864870882 47.10862585192721 0.4330706243927235
    vertex 1.3616252222958812e-13 68.07984792376864 10.117420497186336
    vertex 1.3535839116229907e-13 68.07984792376864 0.4330706243927178
  endloop
endfacet
facet normal -0.9994502159417573 -0.03315517838852578 9.011164367618424e-17
  outer loop
    vertex 1.3616252222958812e-13 68.07984792376864 10.117420497186336
    vertex 0.6956870864870882 47.10862585192721 0.4330706243927235
    vertex 0.695687086487089 47.108625851927215 10.117420497186341
  endloop
endfacet
facet normal -0.9951418638934368 -0.09845136223890796 1.0978943110093059e-16
  outer loop
    vertex 0.72686598245184 46.793470998414904 0.4330706243927235
    vertex 0.695687086487089 47.108625851927215 10.117420497186341
    vertex 0.6956870864870882 47.10862585192721 0.4330706243927235
  endloop
endfacet
facet normal -0.9951418638934368 -0.09845136223890796 1.0978943110093059e-16
  outer loop
    vertex 0.695687086487089 47.108625851927215 10.117420497186341
    vertex 0.72686598245184 46.793470998414904 0.4330706243927235
    vertex 0.7268659824518409 46.79347099841491 10.117420497186341
  endloop
endfacet
facet normal -0.9737778058631827 -0.2275011753997894 1.4765235023730707e-16
  outer loop
    vertex 0.7989141016280201 46.48508200093104 0.4330706243927235
    vertex 0.7268659824518409 46.79347099841491 10.117420497186341
    vertex 0.72686598245184 46.793470998414904 0.4330706243927235
  endloop
endfacet
facet normal -0.9737778058631827 -0.2275011753997894 1.4765235023730707e-16
  outer loop
    vertex 0.7268659824518409 46.79347099841491 10.117420497186341
    vertex 0.7989141016280201 46.48508200093104 0.4330706243927235
    vertex 0.798914101628021 46.48508200093104 10.117420497186341
  endloop
endfacet
facet normal -0.9357521395924112 -0.3526583803743006 1.8298889672414755e-16
  outer loop
    vertex 0.9105986807210028 46.1887354807241 0.4330706243927235
    vertex 0.798914101628021 46.48508200093104 10.117420497186341
    vertex 0.7989141016280201 46.48508200093104 0.4330706243927235
  endloop
endfacet
facet normal -0.9357521395924112 -0.3526583803743006 1.8298889672414755e-16
  outer loop
    vertex 0.798914101628021 46.48508200093104 10.117420497186341
    vertex 0.9105986807210028 46.1887354807241 0.4330706243927235
    vertex 0.9105986807210037 46.188735480724105 10.117420497186341
  endloop
endfacet
facet normal -0.881715494773693 -0.47178150268528074 2.1519445245394454e-16
  outer loop
    vertex 1.0600087656177013 45.90950200891763 0.4330706243927235
    vertex 0.9105986807210037 46.188735480724105 10.117420497186341
    vertex 0.9105986807210028 46.1887354807241 0.4330706243927235
  endloop
endfacet
facet normal -0.881715494773693 -0.47178150268528074 2.1519445245394454e-16
  outer loop
    vertex 0.9105986807210037 46.188735480724105 10.117420497186341
    vertex 1.0600087656177013 45.90950200891763 0.4330706243927235
    vertex 1.0600087656177022 45.90950200891763 10.117420497186341
  endloop
endfacet
facet normal -0.8125924533816534 -0.5828323126828036 2.437179714390884e-16
  outer loop
    vertex 1.2445879083412985 45.65215934763238 0.4330706243927235
    vertex 1.0600087656177022 45.90950200891763 10.117420497186341
    vertex 1.0600087656177013 45.90950200891763 0.4330706243927235
  endloop
endfacet
facet normal -0.8125924533816534 -0.5828323126828036 2.437179714390884e-16
  outer loop
    vertex 1.0600087656177022 45.90950200891763 10.117420497186341
    vertex 1.2445879083412985 45.65215934763238 0.4330706243927235
    vertex 1.2445879083412994 45.65215934763238 10.117420497186341
  endloop
endfacet
facet normal -0.7295657298190442 -0.6839107002186804 2.6807140836152123e-16
  outer loop
    vertex 1.461177908584705 45.42111070115184 0.4330706243927235
    vertex 1.2445879083412994 45.65215934763238 10.117420497186341
    vertex 1.2445879083412985 45.65215934763238 0.4330706243927235
  endloop
endfacet
facet normal -0.7295657298190442 -0.6839107002186804 2.6807140836152123e-16
  outer loop
    vertex 1.2445879083412994 45.65215934763238 10.117420497186341
    vertex 1.461177908584705 45.42111070115184 0.4330706243927235
    vertex 1.4611779085847059 45.42111070115184 10.117420497186341
  endloop
endfacet
facet normal -0.6340559343455173 -0.7732871860578275 2.8783806916342564e-16
  outer loop
    vertex 1.461177908584705 45.42111070115184 0.4330706243927235
    vertex 1.706072851393683 45.220309375876 10.117420497186341
    vertex 1.4611779085847059 45.42111070115184 10.117420497186341
  endloop
endfacet
facet normal -0.6340559343455173 -0.7732871860578275 2.8783806916342564e-16
  outer loop
    vertex 1.706072851393683 45.220309375876 10.117420497186341
    vertex 1.461177908584705 45.42111070115184 0.4330706243927235
    vertex 1.7060728513936823 45.220309375876 0.4330706243927235
  endloop
endfacet
facet normal -0.5276972660417528 -0.8494325137478902 3.026797407981726e-16
  outer loop
    vertex 1.7060728513936823 45.220309375876 0.4330706243927235
    vertex 1.9750825163990213 45.05319113815303 10.117420497186341
    vertex 1.706072851393683 45.220309375876 10.117420497186341
  endloop
endfacet
facet normal -0.5276972660417528 -0.8494325137478902 3.026797407981726e-16
  outer loop
    vertex 1.9750825163990213 45.05319113815303 10.117420497186341
    vertex 1.7060728513936823 45.220309375876 0.4330706243927235
    vertex 1.9750825163990204 45.05319113815303 0.4330706243927235
  endloop
endfacet
facet normal -0.41230955121064083 -0.9110438156205661 3.12342478149188e-16
  outer loop
    vertex 1.9750825163990204 45.05319113815303 0.4330706243927235
    vertex 2.2636040736489997 44.9226154273643 10.117420497186341
    vertex 1.9750825163990213 45.05319113815303 10.117420497186341
  endloop
endfacet
facet normal -0.41230955121064083 -0.9110438156205661 3.12342478149188e-16
  outer loop
    vertex 2.2636040736489997 44.9226154273643 10.117420497186341
    vertex 1.9750825163990204 45.05319113815303 0.4330706243927235
    vertex 2.263604073648999 44.9226154273643 0.4330706243927235
  endloop
endfacet
facet normal -0.2898671056446075 -0.9570669052188662 3.166609491013704e-16
  outer loop
    vertex 2.263604073648999 44.9226154273643 0.4330706243927235
    vertex 2.5667008393057333 44.830816430123804 10.117420497186341
    vertex 2.2636040736489997 44.9226154273643 10.117420497186341
  endloop
endfacet
facet normal -0.2898671056446075 -0.9570669052188662 3.166609491013704e-16
  outer loop
    vertex 2.5667008393057333 44.830816430123804 10.117420497186341
    vertex 2.263604073648999 44.9226154273643 0.4330706243927235
    vertex 2.5667008393057325 44.830816430123804 0.4330706243927235
  endloop
endfacet
facet normal -0.16246495353454052 -0.986714314719828 3.1556126341942825e-16
  outer loop
    vertex 2.5667008393057325 44.830816430123804 0.4330706243927235
    vertex 2.8791867436745324 44.77936485272585 10.117420497186341
    vertex 2.5667008393057333 44.830816430123804 10.117420497186341
  endloop
endfacet
facet normal -0.16246495353454052 -0.986714314719828 3.1556126341942825e-16
  outer loop
    vertex 2.8791867436745324 44.77936485272585 10.117420497186341
    vertex 2.5667008393057325 44.830816430123804 0.4330706243927235
    vertex 2.879186743674532 44.77936485272585 0.4330706243927235
  endloop
endfacet
facet normal -0.032282981025747705 -0.9994787687270257 3.0906223703026703e-16
  outer loop
    vertex 2.879186743674532 44.77936485272585 0.4330706243927235
    vertex 3.1957150662942806 44.76914104592477 10.117420497186341
    vertex 2.8791867436745324 44.77936485272585 10.117420497186341
  endloop
endfacet
facet normal -0.032282981025747705 -0.9994787687270257 3.0906223703026703e-16
  outer loop
    vertex 3.1957150662942806 44.76914104592477 10.117420497186341
    vertex 2.879186743674532 44.77936485272585 0.4330706243927235
    vertex 3.19571506629428 44.76914104592477 0.4330706243927235
  endloop
endfacet
facet normal 0.03315517838852613 -0.9994502159417573 3.0381915368339354e-16
  outer loop
    vertex 3.19571506629428 44.76914104592477 0.4330706243927235
    vertex 37.07230456696118 45.89294326255759 10.117420497186338
    vertex 3.1957150662942806 44.76914104592477 10.117420497186341
  endloop
endfacet
facet normal 0.03315517838852613 -0.9994502159417573 3.0381915368339354e-16
  outer loop
    vertex 37.07230456696118 45.89294326255759 10.117420497186338
    vertex 3.19571506629428 44.76914104592477 0.4330706243927235
    vertex 37.07230456696118 45.89294326255758 0.43307062439272065
  endloop
endfacet
facet normal 0.09845136223883892 -0.9951418638934436 2.9727507007728655e-16
  outer loop
    vertex 37.07230456696118 45.89294326255758 0.43307062439272065
    vertex 37.38745942047343 45.92412215852229 10.117420497186338
    vertex 37.07230456696118 45.89294326255759 10.117420497186338
  endloop
endfacet
facet normal 0.09845136223883892 -0.9951418638934436 2.9727507007728655e-16
  outer loop
    vertex 37.38745942047343 45.92412215852229 10.117420497186338
    vertex 37.07230456696118 45.89294326255758 0.43307062439272065
    vertex 37.38745942047343 45.92412215852229 0.43307062439272065
  endloop
endfacet
facet normal 0.22750117539977271 -0.9737778058631867 2.804014442550504e-16
  outer loop
    vertex 37.38745942047343 45.92412215852229 0.43307062439272065
    vertex 37.69584841795736 45.99617027769846 10.117420497186338
    vertex 37.38745942047343 45.92412215852229 10.117420497186338
  endloop
endfacet
facet normal 0.22750117539977271 -0.9737778058631867 2.804014442550504e-16
  outer loop
    vertex 37.69584841795736 45.99617027769846 10.117420497186338
    vertex 37.38745942047343 45.92412215852229 0.43307062439272065
    vertex 37.69584841795736 45.99617027769846 0.43307062439272065
  endloop
endfacet
facet normal 0.3526583803744208 -0.9357521395923658 2.587300719796294e-16
  outer loop
    vertex 37.69584841795736 45.99617027769846 0.43307062439272065
    vertex 37.99219493816428 46.1078548567915 10.117420497186338
    vertex 37.69584841795736 45.99617027769846 10.117420497186338
  endloop
endfacet
facet normal 0.3526583803744208 -0.9357521395923658 2.587300719796294e-16
  outer loop
    vertex 37.99219493816428 46.1078548567915 10.117420497186338
    vertex 37.69584841795736 45.99617027769846 0.43307062439272065
    vertex 37.99219493816428 46.10785485679149 0.43307062439272065
  endloop
endfacet
facet normal 0.4717815026852486 -0.8817154947737105 2.3263175643915807e-16
  outer loop
    vertex 37.99219493816428 46.10785485679149 0.43307062439272065
    vertex 38.271428409970746 46.2572649416882 10.117420497186338
    vertex 37.99219493816428 46.1078548567915 10.117420497186338
  endloop
endfacet
facet normal 0.4717815026852486 -0.8817154947737105 2.3263175643915807e-16
  outer loop
    vertex 38.271428409970746 46.2572649416882 10.117420497186338
    vertex 37.99219493816428 46.10785485679149 0.43307062439272065
    vertex 38.271428409970746 46.25726494168819 0.43307062439272065
  endloop
endfacet
facet normal 0.5828323126827536 -0.8125924533816894 2.025530470482704e-16
  outer loop
    vertex 38.271428409970746 46.25726494168819 0.43307062439272065
    vertex 38.528771071256 46.441844084411734 10.117420497186338
    vertex 38.271428409970746 46.2572649416882 10.117420497186338
  endloop
endfacet
facet normal 0.5828323126827536 -0.8125924533816894 2.025530470482704e-16
  outer loop
    vertex 38.528771071256 46.441844084411734 10.117420497186338
    vertex 38.271428409970746 46.25726494168819 0.43307062439272065
    vertex 38.528771071256 46.441844084411734 0.43307062439272065
  endloop
endfacet
facet normal 0.6839107002187137 -0.7295657298190127 1.690085988640326e-16
  outer loop
    vertex 38.528771071256 46.441844084411734 0.43307062439272065
    vertex 38.759819717736534 46.658434084655156 10.117420497186338
    vertex 38.528771071256 46.441844084411734 10.117420497186338
  endloop
endfacet
facet normal 0.6839107002187137 -0.7295657298190127 1.690085988640326e-16
  outer loop
    vertex 38.759819717736534 46.658434084655156 10.117420497186338
    vertex 38.528771071256 46.441844084411734 0.43307062439272065
    vertex 38.759819717736534 46.658434084655156 0.43307062439272065
  endloop
endfacet
facet normal 0.7732871860578607 -0.6340559343454767 1.3257236669526593e-16
  outer loop
    vertex 38.759819717736534 46.658434084655156 10.117420497186338
    vertex 38.960621043012296 46.9033290274641 0.43307062439272065
    vertex 38.960621043012296 46.9033290274641 10.117420497186338
  endloop
endfacet
facet normal 0.7732871860578607 -0.6340559343454767 1.3257236669526593e-16
  outer loop
    vertex 38.960621043012296 46.9033290274641 0.43307062439272065
    vertex 38.759819717736534 46.658434084655156 10.117420497186338
    vertex 38.759819717736534 46.658434084655156 0.43307062439272065
  endloop
endfacet
facet normal 0.8494325137478197 -0.5276972660418662 9.38677845763697e-17
  outer loop
    vertex 38.960621043012296 46.9033290274641 10.117420497186338
    vertex 39.12773928073535 47.17233869246949 0.43307062439272065
    vertex 39.12773928073535 47.172338692469495 10.117420497186338
  endloop
endfacet
facet normal 0.8494325137478197 -0.5276972660418662 9.38677845763697e-17
  outer loop
    vertex 39.12773928073535 47.17233869246949 0.43307062439272065
    vertex 38.960621043012296 46.9033290274641 10.117420497186338
    vertex 38.960621043012296 46.9033290274641 0.43307062439272065
  endloop
endfacet
facet normal 0.9110438156206045 -0.41230955121055624 5.3557098638163485e-17
  outer loop
    vertex 39.12773928073535 47.172338692469495 10.117420497186338
    vertex 39.258314991524045 47.460860249719445 0.43307062439272065
    vertex 39.258314991524045 47.460860249719445 10.117420497186338
  endloop
endfacet
facet normal 0.9110438156206045 -0.41230955121055624 5.3557098638163485e-17
  outer loop
    vertex 39.258314991524045 47.460860249719445 0.43307062439272065
    vertex 39.12773928073535 47.172338692469495 10.117420497186338
    vertex 39.12773928073535 47.17233869246949 0.43307062439272065
  endloop
endfacet
facet normal 0.9570669052188834 -0.28986710564455037 1.2330035893537365e-17
  outer loop
    vertex 39.258314991524045 47.460860249719445 10.117420497186338
    vertex 39.35011398876454 47.76395701537619 0.43307062439272065
    vertex 39.35011398876454 47.76395701537619 10.117420497186338
  endloop
endfacet
facet normal 0.9570669052188834 -0.28986710564455037 1.2330035893537365e-17
  outer loop
    vertex 39.35011398876454 47.76395701537619 0.43307062439272065
    vertex 39.258314991524045 47.460860249719445 10.117420497186338
    vertex 39.258314991524045 47.460860249719445 0.43307062439272065
  endloop
endfacet
facet normal 0.9867143147198079 -0.16246495353466298 -2.9107997183747657e-17
  outer loop
    vertex 39.35011398876454 47.76395701537619 10.117420497186338
    vertex 39.40156556616254 48.07644291974503 0.43307062439272065
    vertex 39.40156556616254 48.076442919745034 10.117420497186338
  endloop
endfacet
facet normal 0.9867143147198079 -0.16246495353466298 -2.9107997183747657e-17
  outer loop
    vertex 39.40156556616254 48.07644291974503 0.43307062439272065
    vertex 39.35011398876454 47.76395701537619 10.117420497186338
    vertex 39.35011398876454 47.76395701537619 0.43307062439272065
  endloop
endfacet
facet normal 0.9994787687270239 -0.032282981025802376 -7.004798435902178e-17
  outer loop
    vertex 39.40156556616254 48.076442919745034 10.117420497186338
    vertex 39.411789372963625 48.39297124236471 0.43307062439272065
    vertex 39.411789372963625 48.39297124236471 10.117420497186338
  endloop
endfacet
facet normal 0.9994787687270239 -0.032282981025802376 -7.004798435902178e-17
  outer loop
    vertex 39.411789372963625 48.39297124236471 0.43307062439272065
    vertex 39.40156556616254 48.076442919745034 10.117420497186338
    vertex 39.40156556616254 48.07644291974503 0.43307062439272065
  endloop
endfacet
facet normal 0.9994502159417571 0.0331551783885269 -9.011164367618457e-17
  outer loop
    vertex 39.411789372963625 48.39297124236471 10.117420497186338
    vertex 38.71610228647664 69.36419331420616 0.4330706243927136
    vertex 38.71610228647664 69.36419331420616 10.11742049718633
  endloop
endfacet
facet normal 0.9994502159417571 0.0331551783885269 -9.011164367618457e-17
  outer loop
    vertex 38.71610228647664 69.36419331420616 0.4330706243927136
    vertex 39.411789372963625 48.39297124236471 10.117420497186338
    vertex 39.411789372963625 48.39297124236471 0.43307062439272065
  endloop
endfacet
facet normal 0.9951418638934294 0.098451362238982 -1.097894311009527e-16
  outer loop
    vertex 38.71610228647664 69.36419331420616 10.11742049718633
    vertex 38.68492339051187 69.67934816771843 0.4330706243927136
    vertex 38.68492339051187 69.67934816771843 10.11742049718633
  endloop
endfacet
facet normal 0.9951418638934294 0.098451362238982 -1.097894311009527e-16
  outer loop
    vertex 38.68492339051187 69.67934816771843 0.4330706243927136
    vertex 38.71610228647664 69.36419331420616 10.11742049718633
    vertex 38.71610228647664 69.36419331420616 0.4330706243927136
  endloop
endfacet
facet normal 0.9737778058632016 0.22750117539970857 -1.476523502372838e-16
  outer loop
    vertex 38.68492339051187 69.67934816771843 10.11742049718633
    vertex 38.61287527133571 69.98773716520233 0.4330706243927136
    vertex 38.61287527133571 69.98773716520233 10.11742049718633
  endloop
endfacet
facet normal 0.9737778058632016 0.22750117539970857 -1.476523502372838e-16
  outer loop
    vertex 38.61287527133571 69.98773716520233 0.4330706243927136
    vertex 38.68492339051187 69.67934816771843 10.11742049718633
    vertex 38.68492339051187 69.67934816771843 0.4330706243927136
  endloop
endfacet
facet normal 0.9357521395924283 0.352658380374255 -1.8298889672413495e-16
  outer loop
    vertex 38.61287527133571 69.98773716520233 10.11742049718633
    vertex 38.50119069224275 70.28408368540924 0.4330706243927136
    vertex 38.50119069224275 70.28408368540926 10.11742049718633
  endloop
endfacet
facet normal 0.9357521395924283 0.352658380374255 -1.8298889672413495e-16
  outer loop
    vertex 38.50119069224275 70.28408368540924 0.4330706243927136
    vertex 38.61287527133571 69.98773716520233 10.11742049718633
    vertex 38.61287527133571 69.98773716520233 0.4330706243927136
  endloop
endfacet
facet normal 0.8817154947735857 0.4717815026854817 -2.1519445245399757e-16
  outer loop
    vertex 38.50119069224275 70.28408368540926 10.11742049718633
    vertex 38.35178060734598 70.56331715721568 0.4330706243927136
    vertex 38.35178060734598 70.56331715721568 10.11742049718633
  endloop
endfacet
facet normal 0.8817154947735857 0.4717815026854817 -2.1519445245399757e-16
  outer loop
    vertex 38.35178060734598 70.56331715721568 0.4330706243927136
    vertex 38.50119069224275 70.28408368540926 10.11742049718633
    vertex 38.50119069224275 70.28408368540924 0.4330706243927136
  endloop
endfacet
facet normal 0.8125924533817503 0.5828323126826688 -2.437179714390548e-16
  outer loop
    vertex 38.35178060734598 70.56331715721568 10.11742049718633
    vertex 38.16720146462248 70.82065981850091 0.4330706243927136
    vertex 38.16720146462248 70.82065981850093 10.11742049718633
  endloop
endfacet
facet normal 0.8125924533817503 0.5828323126826688 -2.437179714390548e-16
  outer loop
    vertex 38.16720146462248 70.82065981850091 0.4330706243927136
    vertex 38.35178060734598 70.56331715721568 10.11742049718633
    vertex 38.35178060734598 70.56331715721568 0.4330706243927136
  endloop
endfacet
facet normal 0.7295657298191294 0.6839107002185895 -2.6807140836150013e-16
  outer loop
    vertex 38.16720146462248 70.82065981850093 10.11742049718633
    vertex 37.9506114643791 71.0517084649815 0.4330706243927136
    vertex 37.9506114643791 71.0517084649815 10.11742049718633
  endloop
endfacet
facet normal 0.7295657298191294 0.6839107002185895 -2.6807140836150013e-16
  outer loop
    vertex 37.9506114643791 71.0517084649815 0.4330706243927136
    vertex 38.16720146462248 70.82065981850093 10.11742049718633
    vertex 38.16720146462248 70.82065981850091 0.4330706243927136
  endloop
endfacet
facet normal 0.6340559343454767 0.7732871860578607 -2.8783806916343264e-16
  outer loop
    vertex 37.9506114643791 71.0517084649815 0.4330706243927136
    vertex 37.70571652157012 71.25250979025732 10.11742049718633
    vertex 37.9506114643791 71.0517084649815 10.11742049718633
  endloop
endfacet
facet normal 0.6340559343454767 0.7732871860578607 -2.8783806916343264e-16
  outer loop
    vertex 37.70571652157012 71.25250979025732 10.11742049718633
    vertex 37.9506114643791 71.0517084649815 0.4330706243927136
    vertex 37.70571652157012 71.25250979025732 0.4330706243927136
  endloop
endfacet
facet normal 0.5276972660417415 0.8494325137478971 -3.026797407981738e-16
  outer loop
    vertex 37.70571652157012 71.25250979025732 0.4330706243927136
    vertex 37.43670685656473 71.4196280279803 10.11742049718633
    vertex 37.70571652157012 71.25250979025732 10.11742049718633
  endloop
endfacet
facet normal 0.5276972660417415 0.8494325137478971 -3.026797407981738e-16
  outer loop
    vertex 37.43670685656473 71.4196280279803 10.11742049718633
    vertex 37.70571652157012 71.25250979025732 0.4330706243927136
    vertex 37.43670685656473 71.4196280279803 0.4330706243927136
  endloop
endfacet
facet normal 0.41230955121064083 0.9110438156205661 -3.12342478149188e-16
  outer loop
    vertex 37.43670685656473 71.4196280279803 0.4330706243927136
    vertex 37.148185299314754 71.55020373876903 10.11742049718633
    vertex 37.43670685656473 71.4196280279803 10.11742049718633
  endloop
endfacet
facet normal 0.41230955121064083 0.9110438156205661 -3.12342478149188e-16
  outer loop
    vertex 37.148185299314754 71.55020373876903 10.11742049718633
    vertex 37.43670685656473 71.4196280279803 0.4330706243927136
    vertex 37.148185299314754 71.55020373876903 0.4330706243927136
  endloop
endfacet
facet normal 0.2898671056445751 0.9570669052188759 -3.166609491013708e-16
  outer loop
    vertex 37.148185299314754 71.55020373876903 0.4330706243927136
    vertex 36.84508853365802 71.6420027360095 10.11742049718633
    vertex 37.148185299314754 71.55020373876903 10.11742049718633
  endloop
endfacet
facet normal 0.2898671056445751 0.9570669052188759 -3.166609491013708e-16
  outer loop
    vertex 36.84508853365802 71.6420027360095 10.11742049718633
    vertex 37.148185299314754 71.55020373876903 0.4330706243927136
    vertex 36.84508853365802 71.6420027360095 0.4330706243927136
  endloop
endfacet
facet normal 0.16246495353452398 0.9867143147198307 -3.1556126341942775e-16
  outer loop
    vertex 36.84508853365802 71.6420027360095 0.4330706243927136
    vertex 36.532602629289194 71.69345431340747 10.11742049718633
    vertex 36.84508853365802 71.6420027360095 10.11742049718633
  endloop
endfacet
facet normal 0.16246495353452398 0.9867143147198307 -3.1556126341942775e-16
  outer loop
    vertex 36.532602629289194 71.69345431340747 10.11742049718633
    vertex 36.84508853365802 71.6420027360095 0.4330706243927136
    vertex 36.532602629289194 71.69345431340747 0.4330706243927136
  endloop
endfacet
facet normal 0.03228298102579863 0.9994787687270239 -3.090622370302706e-16
  outer loop
    vertex 36.532602629289194 71.69345431340747 0.4330706243927136
    vertex 36.21607430666952 71.70367812020856 10.11742049718633
    vertex 36.532602629289194 71.69345431340747 10.11742049718633
  endloop
endfacet
facet normal 0.03228298102579863 0.9994787687270239 -3.090622370302706e-16
  outer loop
    vertex 36.21607430666952 71.70367812020856 10.11742049718633
    vertex 36.532602629289194 71.69345431340747 0.4330706243927136
    vertex 36.21607430666952 71.70367812020856 0.4330706243927136
  endloop
endfacet
endsolid Izzy Hold Down Clamp Small
