solid Izzy Hold Down Clamp Small
facet normal -8.326672684688677e-17 2.273113842496299e-15 1.0
  outer loop
    vertex 21.294093865758153 147.66029344685302 9.68434987279369
    vertex 21.809191637962538 156.7219931295466 9.684349872793675
    vertex 21.754193934655273 157.13974216063247 9.684349872793682
  endloop
endfacet
facet normal -8.326672684688677e-17 2.273113842496299e-15 1.0
  outer loop
    vertex 21.809191637962538 156.7219931295466 9.684349872793675
    vertex 21.294093865758153 147.66029344685302 9.68434987279369
    vertex 23.818230962936177 147.44646613744075 9.684349872793696
  endloop
endfacet
facet normal -8.326672684688677e-17 2.273113842496299e-15 1.0
  outer loop
    vertex 21.809191637962538 156.7219931295466 9.684349872793675
    vertex 23.818230962936177 147.44646613744075 9.684349872793696
    vertex 21.97043674529164 156.3327130045663 9.684349872793682
  endloop
endfacet
facet normal -8.326672684688677e-17 2.273113842496299e-15 1.0
  outer loop
    vertex 21.97043674529164 156.3327130045663 9.684349872793682
    vertex 23.818230962936177 147.44646613744075 9.684349872793696
    vertex 22.226940669048386 155.99843058289318 9.684349872793677
  endloop
endfacet
facet normal -8.326672684688677e-17 2.273113842496299e-15 1.0
  outer loop
    vertex 22.226940669048386 155.99843058289318 9.684349872793677
    vertex 23.818230962936177 147.44646613744075 9.684349872793696
    vertex 22.561223090721548 155.74192665913645 9.684349872793678
  endloop
endfacet
facet normal -8.326672684688677e-17 2.273113842496299e-15 1.0
  outer loop
    vertex 22.561223090721548 155.74192665913645 9.684349872793678
    vertex 23.818230962936177 147.44646613744075 9.684349872793696
    vertex 22.950503215701925 155.58068155180734 9.684349872793684
  endloop
endfacet
facet normal -8.326672684688677e-17 2.273113842496299e-15 1.0
  outer loop
    vertex 22.950503215701925 155.58068155180734 9.684349872793684
    vertex 23.818230962936177 147.44646613744075 9.684349872793696
    vertex 23.36825224678754 155.5256838485002 9.684349872793678
  endloop
endfacet
facet normal -8.326672684688677e-17 2.273113842496299e-15 1.0
  outer loop
    vertex 23.36825224678754 155.5256838485002 9.684349872793678
    vertex 23.818230962936177 147.44646613744075 9.684349872793696
    vertex 23.78600127787362 155.58068155180734 9.684349872793678
  endloop
endfacet
facet normal -8.326672684688677e-17 2.273113842496299e-15 1.0
  outer loop
    vertex 23.78600127787362 155.58068155180734 9.684349872793678
    vertex 23.818230962936177 147.44646613744075 9.684349872793696
    vertex 24.17528140285377 155.74192665913645 9.684349872793678
  endloop
endfacet
facet normal -8.326672684688677e-17 2.273113842496299e-15 1.0
  outer loop
    vertex 24.17528140285377 155.74192665913645 9.684349872793678
    vertex 23.818230962936177 147.44646613744075 9.684349872793696
    vertex 26.311702754233565 147.893219570113 9.684349872793696
  endloop
endfacet
facet normal -8.326672684688677e-17 2.273113842496299e-15 1.0
  outer loop
    vertex 24.17528140285377 155.74192665913645 9.684349872793678
    vertex 26.311702754233565 147.893219570113 9.684349872793696
    vertex 24.509563824526886 155.9984305828932 9.684349872793678
  endloop
endfacet
facet normal -8.326672684688677e-17 2.273113842496299e-15 1.0
  outer loop
    vertex 24.509563824526886 155.9984305828932 9.684349872793678
    vertex 26.311702754233565 147.893219570113 9.684349872793696
    vertex 24.76606774828363 156.3327130045663 9.684349872793682
  endloop
endfacet
facet normal -8.326672684688677e-17 2.273113842496299e-15 1.0
  outer loop
    vertex 24.76606774828363 156.3327130045663 9.684349872793682
    vertex 26.311702754233565 147.893219570113 9.684349872793696
    vertex 24.927312855612826 156.7219931295466 9.684349872793682
  endloop
endfacet
facet normal -8.326672684688677e-17 2.273113842496299e-15 1.0
  outer loop
    vertex 24.927312855612826 156.7219931295466 9.684349872793682
    vertex 26.311702754233565 147.893219570113 9.684349872793696
    vertex 24.98231055891991 157.13974216063247 9.684349872793682
  endloop
endfacet
facet normal -8.326672684688677e-17 2.273113842496299e-15 1.0
  outer loop
    vertex -0.5819801025512894 178.61965028218066 9.68434987279363
    vertex -0.2787990685388164 182.36714754721532 9.684349872793621
    vertex -0.6770732728669961 180.5133561848724 9.684349872793627
  endloop
endfacet
facet normal -8.326672684688677e-17 2.273113842496299e-15 1.0
  outer loop
    vertex -0.2787990685388164 182.36714754721532 9.684349872793621
    vertex -0.5819801025512894 178.61965028218066 9.68434987279363
    vertex -3.965577866082981e-15 176.81508276691147 9.684349872793623
  endloop
endfacet
facet normal -8.326672684688677e-17 2.273113842496299e-15 1.0
  outer loop
    vertex -0.2787990685388164 182.36714754721532 9.684349872793621
    vertex -3.965577866082981e-15 176.81508276691147 9.684349872793623
    vertex 0.5857007815873233 184.05469155140074 9.684349872793607
  endloop
endfacet
facet normal -8.326672684688677e-17 2.273113842496299e-15 1.0
  outer loop
    vertex 0.5857007815873233 184.05469155140074 9.684349872793607
    vertex -3.965577866082981e-15 176.81508276691147 9.684349872793623
    vertex 15.198618322883249 151.90341114968976 9.684349872793687
  endloop
endfacet
facet normal -8.326672684688677e-17 2.273113842496299e-15 1.0
  outer loop
    vertex 0.5857007815873233 184.05469155140074 9.684349872793607
    vertex 15.198618322883249 151.90341114968976 9.684349872793687
    vertex 1.8575120413788582 185.46098486234186 9.684349872793609
  endloop
endfacet
facet normal -8.326672684688677e-17 2.273113842496299e-15 1.0
  outer loop
    vertex 1.8575120413788582 185.46098486234186 9.684349872793609
    vertex 15.198618322883249 151.90341114968976 9.684349872793687
    vertex 5.003474902797256 179.50990637219928 9.684349872793629
  endloop
endfacet
facet normal -8.326672684688677e-17 2.273113842496299e-15 1.0
  outer loop
    vertex 1.8575120413788582 185.46098486234186 9.684349872793609
    vertex 5.003474902797256 179.50990637219928 9.684349872793629
    vertex 3.449962875248569 186.4901909149075 9.6843498727936
  endloop
endfacet
facet normal -8.326672684688677e-17 2.273113842496299e-15 1.0
  outer loop
    vertex 3.449962875248569 186.4901909149075 9.6843498727936
    vertex 5.003474902797256 179.50990637219928 9.684349872793629
    vertex 4.9484771994900845 179.92765540328514 9.684349872793627
  endloop
endfacet
facet normal -8.326672684688677e-17 2.273113842496299e-15 1.0
  outer loop
    vertex 5.003474902797256 179.50990637219928 9.684349872793629
    vertex 15.198618322883249 151.90341114968976 9.684349872793687
    vertex 5.164720010126361 179.12062624721898 9.684349872793629
  endloop
endfacet
facet normal -8.326672684688677e-17 2.273113842496299e-15 1.0
  outer loop
    vertex 5.164720010126361 179.12062624721898 9.684349872793629
    vertex 15.198618322883249 151.90341114968976 9.684349872793687
    vertex 5.421223933883058 178.78634382554588 9.68434987279362
  endloop
endfacet
facet normal -8.326672684688677e-17 2.273113842496299e-15 1.0
  outer loop
    vertex 5.421223933883058 178.78634382554588 9.68434987279362
    vertex 15.198618322883249 151.90341114968976 9.684349872793687
    vertex 5.755506355556173 178.52983990178916 9.68434987279363
  endloop
endfacet
facet normal -8.326672684688677e-17 2.273113842496299e-15 1.0
  outer loop
    vertex 5.755506355556173 178.52983990178916 9.68434987279363
    vertex 15.198618322883249 151.90341114968976 9.684349872793687
    vertex 6.144786480536553 178.36859479446002 9.684349872793632
  endloop
endfacet
facet normal -8.326672684688677e-17 2.273113842496299e-15 1.0
  outer loop
    vertex 6.144786480536553 178.36859479446002 9.684349872793632
    vertex 15.198618322883249 151.90341114968976 9.684349872793687
    vertex 6.562535511622309 178.31359709115287 9.684349872793632
  endloop
endfacet
facet normal -8.326672684688677e-17 2.273113842496299e-15 1.0
  outer loop
    vertex 6.562535511622309 178.31359709115287 9.684349872793632
    vertex 15.198618322883249 151.90341114968976 9.684349872793687
    vertex 6.980284542708201 178.36859479446002 9.684349872793627
  endloop
endfacet
facet normal -8.326672684688677e-17 2.273113842496299e-15 1.0
  outer loop
    vertex 6.980284542708201 178.36859479446002 9.684349872793627
    vertex 15.198618322883249 151.90341114968976 9.684349872793687
    vertex 7.369564667688535 178.52983990178916 9.68434987279362
  endloop
endfacet
facet normal -8.326672684688677e-17 2.273113842496299e-15 1.0
  outer loop
    vertex 7.369564667688535 178.52983990178916 9.68434987279362
    vertex 15.198618322883249 151.90341114968976 9.684349872793687
    vertex 7.703847089361605 178.78634382554588 9.68434987279363
  endloop
endfacet
facet normal -8.326672684688677e-17 2.273113842496299e-15 1.0
  outer loop
    vertex 7.703847089361605 178.78634382554588 9.68434987279363
    vertex 15.198618322883249 151.90341114968976 9.684349872793687
    vertex 7.960351013118303 179.12062624721898 9.684349872793629
  endloop
endfacet
facet normal -8.326672684688677e-17 2.273113842496299e-15 1.0
  outer loop
    vertex 7.960351013118303 179.12062624721898 9.684349872793629
    vertex 15.198618322883249 151.90341114968976 9.684349872793687
    vertex 8.121596120447453 179.50990637219928 9.684349872793629
  endloop
endfacet
facet normal -8.326672684688677e-17 2.273113842496299e-15 1.0
  outer loop
    vertex 8.121596120447453 179.50990637219928 9.684349872793629
    vertex 15.198618322883249 151.90341114968976 9.684349872793687
    vertex 8.176593823754533 179.92765540328514 9.684349872793616
  endloop
endfacet
facet normal -8.326672684688677e-17 2.273113842496299e-15 1.0
  outer loop
    vertex 8.176593823754533 179.92765540328514 9.684349872793616
    vertex 15.198618322883249 151.90341114968976 9.684349872793687
    vertex 9.002027655552503 186.76898998344635 9.684349872793607
  endloop
endfacet
facet normal -8.326672684688677e-17 2.273113842496299e-15 1.0
  outer loop
    vertex 9.002027655552503 186.76898998344635 9.684349872793607
    vertex 15.198618322883249 151.90341114968976 9.684349872793687
    vertex 10.68957165973801 185.90449013332022 9.684349872793609
  endloop
endfacet
facet normal -8.326672684688677e-17 2.273113842496299e-15 1.0
  outer loop
    vertex 10.68957165973801 185.90449013332022 9.684349872793609
    vertex 15.198618322883249 151.90341114968976 9.684349872793687
    vertex 12.095864970678983 184.6326788735286 9.684349872793613
  endloop
endfacet
facet normal -8.326672684688677e-17 2.273113842496299e-15 1.0
  outer loop
    vertex 12.095864970678983 184.6326788735286 9.684349872793613
    vertex 15.198618322883249 151.90341114968976 9.684349872793687
    vertex 22.226940669048386 158.2810537383717 9.684349872793673
  endloop
endfacet
facet normal -8.326672684688677e-17 2.273113842496299e-15 1.0
  outer loop
    vertex 12.095864970678983 184.6326788735286 9.684349872793613
    vertex 22.226940669048386 158.2810537383717 9.684349872793673
    vertex 29.904250453121417 164.31210637012245 9.68434987279366
  endloop
endfacet
facet normal -8.326672684688677e-17 2.273113842496299e-15 1.0
  outer loop
    vertex 22.226940669048386 158.2810537383717 9.684349872793673
    vertex 15.198618322883249 151.90341114968976 9.684349872793687
    vertex 21.97043674529164 157.9467713166986 9.684349872793678
  endloop
endfacet
facet normal -8.326672684688677e-17 2.273113842496299e-15 1.0
  outer loop
    vertex 21.97043674529164 157.9467713166986 9.684349872793678
    vertex 15.198618322883249 151.90341114968976 9.684349872793687
    vertex 16.832254040453993 149.96737795114248 9.684349872793685
  endloop
endfacet
facet normal -8.326672684688677e-17 2.273113842496299e-15 1.0
  outer loop
    vertex 21.97043674529164 157.9467713166986 9.684349872793678
    vertex 16.832254040453993 149.96737795114248 9.684349872793685
    vertex 21.809191637962538 157.5574911917183 9.684349872793675
  endloop
endfacet
facet normal -8.326672684688677e-17 2.273113842496299e-15 1.0
  outer loop
    vertex 21.809191637962538 157.5574911917183 9.684349872793675
    vertex 16.832254040453993 149.96737795114248 9.684349872793685
    vertex 18.91130723453861 148.52012952057964 9.684349872793694
  endloop
endfacet
facet normal -8.326672684688677e-17 2.273113842496299e-15 1.0
  outer loop
    vertex 21.809191637962538 157.5574911917183 9.684349872793675
    vertex 18.91130723453861 148.52012952057964 9.684349872793694
    vertex 21.754193934655273 157.13974216063247 9.684349872793682
  endloop
endfacet
facet normal -8.326672684688677e-17 2.273113842496299e-15 1.0
  outer loop
    vertex 21.754193934655273 157.13974216063247 9.684349872793682
    vertex 18.91130723453861 148.52012952057964 9.684349872793694
    vertex 21.294093865758153 147.66029344685302 9.68434987279369
  endloop
endfacet
facet normal -8.326672684688677e-17 2.273113842496299e-15 1.0
  outer loop
    vertex 29.904250453121417 164.31210637012245 9.68434987279366
    vertex 22.226940669048386 158.2810537383717 9.684349872793673
    vertex 22.561223090721548 158.53755766212845 9.684349872793671
  endloop
endfacet
facet normal -8.326672684688677e-17 2.273113842496299e-15 1.0
  outer loop
    vertex 29.904250453121417 164.31210637012245 9.68434987279366
    vertex 22.561223090721548 158.53755766212845 9.684349872793671
    vertex 22.950503215701833 158.69880276945756 9.684349872793671
  endloop
endfacet
facet normal -8.326672684688677e-17 2.273113842496299e-15 1.0
  outer loop
    vertex 29.904250453121417 164.31210637012245 9.68434987279366
    vertex 22.950503215701833 158.69880276945756 9.684349872793671
    vertex 23.368252246787637 158.75380047276474 9.684349872793677
  endloop
endfacet
facet normal -8.326672684688677e-17 2.273113842496299e-15 1.0
  outer loop
    vertex 29.904250453121417 164.31210637012245 9.68434987279366
    vertex 23.368252246787637 158.75380047276474 9.684349872793677
    vertex 23.786001277873485 158.69880276945756 9.684349872793677
  endloop
endfacet
facet normal -8.326672684688677e-17 2.273113842496299e-15 1.0
  outer loop
    vertex 29.904250453121417 164.31210637012245 9.68434987279366
    vertex 23.786001277873485 158.69880276945756 9.684349872793677
    vertex 24.175281402853862 158.53755766212845 9.684349872793673
  endloop
endfacet
facet normal -8.326672684688677e-17 2.273113842496299e-15 1.0
  outer loop
    vertex 29.904250453121417 164.31210637012245 9.68434987279366
    vertex 24.175281402853862 158.53755766212845 9.684349872793673
    vertex 24.509563824526886 158.28105373837172 9.684349872793673
  endloop
endfacet
facet normal -8.326672684688677e-17 2.273113842496299e-15 1.0
  outer loop
    vertex 29.904250453121417 164.31210637012245 9.68434987279366
    vertex 24.509563824526886 158.28105373837172 9.684349872793673
    vertex 24.766067748283717 157.94677131669863 9.68434987279368
  endloop
endfacet
facet normal -8.326672684688677e-17 2.273113842496299e-15 1.0
  outer loop
    vertex 29.904250453121417 164.31210637012245 9.68434987279366
    vertex 24.766067748283717 157.94677131669863 9.68434987279368
    vertex 24.927312855612826 157.5574911917183 9.68434987279368
  endloop
endfacet
facet normal -8.326672684688677e-17 2.273113842496299e-15 1.0
  outer loop
    vertex 29.904250453121417 164.31210637012245 9.68434987279366
    vertex 24.927312855612826 157.5574911917183 9.68434987279368
    vertex 24.98231055891991 157.13974216063247 9.684349872793682
  endloop
endfacet
facet normal -8.326672684688677e-17 2.273113842496299e-15 1.0
  outer loop
    vertex 29.904250453121417 164.31210637012245 9.68434987279366
    vertex 24.98231055891991 157.13974216063247 9.684349872793682
    vertex 26.311702754233565 147.893219570113 9.684349872793696
  endloop
endfacet
facet normal -8.326672684688677e-17 2.273113842496299e-15 1.0
  outer loop
    vertex 29.904250453121417 164.31210637012245 9.68434987279366
    vertex 26.311702754233565 147.893219570113 9.684349872793696
    vertex 28.60458325773031 148.97010823672807 9.6843498727937
  endloop
endfacet
facet normal -8.326672684688677e-17 2.273113842496299e-15 1.0
  outer loop
    vertex 29.904250453121417 164.31210637012245 9.68434987279366
    vertex 28.60458325773031 148.97010823672807 9.6843498727937
    vertex 30.54061645627768 150.6037439542988 9.684349872793696
  endloop
endfacet
facet normal -8.326672684688677e-17 2.273113842496299e-15 1.0
  outer loop
    vertex 29.904250453121417 164.31210637012245 9.68434987279366
    vertex 30.54061645627768 150.6037439542988 9.684349872793696
    vertex 31.537886170692023 162.37607317157514 9.684349872793664
  endloop
endfacet
facet normal -8.326672684688677e-17 2.273113842496299e-15 1.0
  outer loop
    vertex 31.537886170692023 162.37607317157514 9.684349872793664
    vertex 30.54061645627768 150.6037439542988 9.684349872793696
    vertex 31.98786488684052 152.68279714838343 9.68434987279369
  endloop
endfacet
facet normal -8.326672684688677e-17 2.273113842496299e-15 1.0
  outer loop
    vertex 31.537886170692023 162.37607317157514 9.684349872793664
    vertex 31.98786488684052 152.68279714838343 9.68434987279369
    vertex 32.61477483730711 160.08319266807828 9.68434987279367
  endloop
endfacet
facet normal -8.326672684688677e-17 2.273113842496299e-15 1.0
  outer loop
    vertex 32.61477483730711 160.08319266807828 9.68434987279367
    vertex 31.98786488684052 152.68279714838343 9.68434987279369
    vertex 32.847700960567074 155.06558377960295 9.684349872793682
  endloop
endfacet
facet normal -8.326672684688677e-17 2.273113842496299e-15 1.0
  outer loop
    vertex 32.61477483730711 160.08319266807828 9.68434987279367
    vertex 32.847700960567074 155.06558377960295 9.684349872793682
    vertex 33.06152826997938 157.5897208767809 9.684349872793682
  endloop
endfacet
facet normal -8.326672684688677e-17 2.273113842496299e-15 1.0
  outer loop
    vertex 4.9484771994900845 179.92765540328514 9.684349872793627
    vertex 5.254530390517861 187.07217101745874 9.684349872793605
    vertex 3.449962875248569 186.4901909149075 9.6843498727936
  endloop
endfacet
facet normal -8.326672684688677e-17 2.273113842496299e-15 1.0
  outer loop
    vertex 5.254530390517861 187.07217101745874 9.684349872793605
    vertex 4.9484771994900845 179.92765540328514 9.684349872793627
    vertex 5.003474902797256 180.345404434371 9.684349872793627
  endloop
endfacet
facet normal -8.326672684688677e-17 2.273113842496299e-15 1.0
  outer loop
    vertex 5.254530390517861 187.07217101745874 9.684349872793605
    vertex 5.003474902797256 180.345404434371 9.684349872793627
    vertex 5.164720010126315 180.7346845593513 9.684349872793627
  endloop
endfacet
facet normal -8.326672684688677e-17 2.273113842496299e-15 1.0
  outer loop
    vertex 5.254530390517861 187.07217101745874 9.684349872793605
    vertex 5.164720010126315 180.7346845593513 9.684349872793627
    vertex 5.421223933883058 181.0689669810244 9.684349872793613
  endloop
endfacet
facet normal -8.326672684688677e-17 2.273113842496299e-15 1.0
  outer loop
    vertex 5.254530390517861 187.07217101745874 9.684349872793605
    vertex 5.421223933883058 181.0689669810244 9.684349872793613
    vertex 7.148236293209545 187.16726418777444 9.684349872793605
  endloop
endfacet
facet normal -8.326672684688677e-17 2.273113842496299e-15 1.0
  outer loop
    vertex 7.148236293209545 187.16726418777444 9.684349872793605
    vertex 5.421223933883058 181.0689669810244 9.684349872793613
    vertex 5.755506355556173 181.32547090478113 9.684349872793625
  endloop
endfacet
facet normal -8.326672684688677e-17 2.273113842496299e-15 1.0
  outer loop
    vertex 7.148236293209545 187.16726418777444 9.684349872793605
    vertex 5.755506355556173 181.32547090478113 9.684349872793625
    vertex 6.144786480536461 181.48671601211026 9.684349872793625
  endloop
endfacet
facet normal -8.326672684688677e-17 2.273113842496299e-15 1.0
  outer loop
    vertex 7.148236293209545 187.16726418777444 9.684349872793605
    vertex 6.144786480536461 181.48671601211026 9.684349872793625
    vertex 6.562535511622355 181.54171371541742 9.684349872793623
  endloop
endfacet
facet normal -8.326672684688677e-17 2.273113842496299e-15 1.0
  outer loop
    vertex 7.148236293209545 187.16726418777444 9.684349872793605
    vertex 6.562535511622355 181.54171371541742 9.684349872793623
    vertex 6.980284542708156 181.48671601211026 9.684349872793625
  endloop
endfacet
facet normal -8.326672684688677e-17 2.273113842496299e-15 1.0
  outer loop
    vertex 7.148236293209545 187.16726418777444 9.684349872793605
    vertex 6.980284542708156 181.48671601211026 9.684349872793625
    vertex 7.3695646676883975 181.32547090478113 9.68434987279362
  endloop
endfacet
facet normal -8.326672684688677e-17 2.273113842496299e-15 1.0
  outer loop
    vertex 7.148236293209545 187.16726418777444 9.684349872793605
    vertex 7.3695646676883975 181.32547090478113 9.68434987279362
    vertex 9.002027655552503 186.76898998344635 9.684349872793607
  endloop
endfacet
facet normal -8.326672684688677e-17 2.273113842496299e-15 1.0
  outer loop
    vertex 9.002027655552503 186.76898998344635 9.684349872793607
    vertex 7.3695646676883975 181.32547090478113 9.68434987279362
    vertex 7.703847089361651 181.0689669810244 9.684349872793625
  endloop
endfacet
facet normal -8.326672684688677e-17 2.273113842496299e-15 1.0
  outer loop
    vertex 9.002027655552503 186.76898998344635 9.684349872793607
    vertex 7.703847089361651 181.0689669810244 9.684349872793625
    vertex 7.960351013118395 180.7346845593513 9.684349872793627
  endloop
endfacet
facet normal -8.326672684688677e-17 2.273113842496299e-15 1.0
  outer loop
    vertex 9.002027655552503 186.76898998344635 9.684349872793607
    vertex 7.960351013118395 180.7346845593513 9.684349872793627
    vertex 8.1215961204475 180.345404434371 9.684349872793627
  endloop
endfacet
facet normal -8.326672684688677e-17 2.273113842496299e-15 1.0
  outer loop
    vertex 9.002027655552503 186.76898998344635 9.684349872793607
    vertex 8.1215961204475 180.345404434371 9.684349872793627
    vertex 8.176593823754533 179.92765540328514 9.684349872793616
  endloop
endfacet
facet normal 8.326672684688677e-17 -2.273113842496299e-15 -1.0
  outer loop
    vertex -0.27879906853881564 182.3671475472153 -5.639932965095795e-15
    vertex -0.5819801025512428 178.61965028218066 2.8199664825478975e-15
    vertex -0.6770732728669495 180.5133561848724 -7.049916206369744e-15
  endloop
endfacet
facet normal 8.326672684688677e-17 -2.273113842496299e-15 -1.0
  outer loop
    vertex -0.5819801025512428 178.61965028218066 2.8199664825478975e-15
    vertex -0.27879906853881564 182.3671475472153 -5.639932965095795e-15
    vertex -3.1724622928663847e-15 176.81508276691144 1.4099832412739487e-15
  endloop
endfacet
facet normal 8.326672684688677e-17 -2.273113842496299e-15 -1.0
  outer loop
    vertex -3.1724622928663847e-15 176.81508276691144 1.4099832412739487e-15
    vertex -0.27879906853881564 182.3671475472153 -5.639932965095795e-15
    vertex 0.5857007815873242 184.05469155140074 -9.86988268891764e-15
  endloop
endfacet
facet normal 8.326672684688677e-17 -2.273113842496299e-15 -1.0
  outer loop
    vertex -3.1724622928663847e-15 176.81508276691144 1.4099832412739487e-15
    vertex 0.5857007815873242 184.05469155140074 -9.86988268891764e-15
    vertex 15.198618322883249 151.90341114968976 5.921929613350585e-14
  endloop
endfacet
facet normal 8.326672684688677e-17 -2.273113842496299e-15 -1.0
  outer loop
    vertex 15.198618322883249 151.90341114968976 5.921929613350585e-14
    vertex 0.5857007815873242 184.05469155140074 -9.86988268891764e-15
    vertex 1.8575120413788588 185.46098486234183 -1.8329782136561334e-14
  endloop
endfacet
facet normal 8.326672684688677e-17 -2.273113842496299e-15 -1.0
  outer loop
    vertex 15.198618322883249 151.90341114968976 5.921929613350585e-14
    vertex 1.8575120413788588 185.46098486234183 -1.8329782136561334e-14
    vertex 5.003474902797212 179.50990637219925 7.049916206369744e-15
  endloop
endfacet
facet normal 8.326672684688677e-17 -2.273113842496299e-15 -1.0
  outer loop
    vertex 5.003474902797212 179.50990637219925 7.049916206369744e-15
    vertex 1.8575120413788588 185.46098486234183 -1.8329782136561334e-14
    vertex 3.4499628752486156 186.49019091490746 -1.5509815654013436e-14
  endloop
endfacet
facet normal 8.326672684688677e-17 -2.273113842496299e-15 -1.0
  outer loop
    vertex 5.003474902797212 179.50990637219925 7.049916206369744e-15
    vertex 3.4499628752486156 186.49019091490746 -1.5509815654013436e-14
    vertex 4.948477199490039 179.92765540328512 -5.639932965095795e-15
  endloop
endfacet
facet normal 8.326672684688677e-17 -2.273113842496299e-15 -1.0
  outer loop
    vertex 15.198618322883249 151.90341114968976 5.921929613350585e-14
    vertex 5.003474902797212 179.50990637219925 7.049916206369744e-15
    vertex 5.164720010126316 179.12062624721895 7.049916206369744e-15
  endloop
endfacet
facet normal 8.326672684688677e-17 -2.273113842496299e-15 -1.0
  outer loop
    vertex 15.198618322883249 151.90341114968976 5.921929613350585e-14
    vertex 5.164720010126316 179.12062624721895 7.049916206369744e-15
    vertex 5.421223933883059 178.78634382554586 2.8199664825478975e-15
  endloop
endfacet
facet normal 8.326672684688677e-17 -2.273113842496299e-15 -1.0
  outer loop
    vertex 15.198618322883249 151.90341114968976 5.921929613350585e-14
    vertex 5.421223933883059 178.78634382554586 2.8199664825478975e-15
    vertex 5.755506355556175 178.52983990178913 -2.8199664825478975e-15
  endloop
endfacet
facet normal 8.326672684688677e-17 -2.273113842496299e-15 -1.0
  outer loop
    vertex 15.198618322883249 151.90341114968976 5.921929613350585e-14
    vertex 5.755506355556175 178.52983990178913 -2.8199664825478975e-15
    vertex 6.1447864805365535 178.36859479446 9.86988268891764e-15
  endloop
endfacet
facet normal 8.326672684688677e-17 -2.273113842496299e-15 -1.0
  outer loop
    vertex 15.198618322883249 151.90341114968976 5.921929613350585e-14
    vertex 6.1447864805365535 178.36859479446 9.86988268891764e-15
    vertex 6.56253551162231 178.31359709115284 -1.4099832412739487e-15
  endloop
endfacet
facet normal 8.326672684688677e-17 -2.273113842496299e-15 -1.0
  outer loop
    vertex 15.198618322883249 151.90341114968976 5.921929613350585e-14
    vertex 6.56253551162231 178.31359709115284 -1.4099832412739487e-15
    vertex 6.980284542708203 178.36859479446002 9.86988268891764e-15
  endloop
endfacet
facet normal 8.326672684688677e-17 -2.273113842496299e-15 -1.0
  outer loop
    vertex 15.198618322883249 151.90341114968976 5.921929613350585e-14
    vertex 6.980284542708203 178.36859479446002 9.86988268891764e-15
    vertex 7.369564667688537 178.52983990178913 -2.8199664825478975e-15
  endloop
endfacet
facet normal 8.326672684688677e-17 -2.273113842496299e-15 -1.0
  outer loop
    vertex 15.198618322883249 151.90341114968976 5.921929613350585e-14
    vertex 7.369564667688537 178.52983990178913 -2.8199664825478975e-15
    vertex 7.703847089361561 178.78634382554586 -2.8199664825478975e-15
  endloop
endfacet
facet normal 8.326672684688677e-17 -2.273113842496299e-15 -1.0
  outer loop
    vertex 15.198618322883249 151.90341114968976 5.921929613350585e-14
    vertex 7.703847089361561 178.78634382554586 -2.8199664825478975e-15
    vertex 7.96035101311835 179.12062624721895 7.049916206369744e-15
  endloop
endfacet
facet normal 8.326672684688677e-17 -2.273113842496299e-15 -1.0
  outer loop
    vertex 15.198618322883249 151.90341114968976 5.921929613350585e-14
    vertex 7.96035101311835 179.12062624721895 7.049916206369744e-15
    vertex 8.121596120447455 179.50990637219925 7.049916206369744e-15
  endloop
endfacet
facet normal 8.326672684688677e-17 -2.273113842496299e-15 -1.0
  outer loop
    vertex 15.198618322883249 151.90341114968976 5.921929613350585e-14
    vertex 8.121596120447455 179.50990637219925 7.049916206369744e-15
    vertex 8.176593823754581 179.92765540328512 -5.639932965095795e-15
  endloop
endfacet
facet normal 8.326672684688677e-17 -2.273113842496299e-15 -1.0
  outer loop
    vertex 15.198618322883249 151.90341114968976 5.921929613350585e-14
    vertex 8.176593823754581 179.92765540328512 -5.639932965095795e-15
    vertex 9.002027655552503 186.76898998344632 -1.5509815654013436e-14
  endloop
endfacet
facet normal 8.326672684688677e-17 -2.273113842496299e-15 -1.0
  outer loop
    vertex 15.198618322883249 151.90341114968976 5.921929613350585e-14
    vertex 9.002027655552503 186.76898998344632 -1.5509815654013436e-14
    vertex 10.689571659738059 185.9044901333202 -2.3969715101657127e-14
  endloop
endfacet
facet normal 8.326672684688677e-17 -2.273113842496299e-15 -1.0
  outer loop
    vertex 15.198618322883249 151.90341114968976 5.921929613350585e-14
    vertex 10.689571659738059 185.9044901333202 -2.3969715101657127e-14
    vertex 12.095864970679031 184.6326788735286 -1.5509815654013436e-14
  endloop
endfacet
facet normal 8.326672684688677e-17 -2.273113842496299e-15 -1.0
  outer loop
    vertex 15.198618322883249 151.90341114968976 5.921929613350585e-14
    vertex 12.095864970679031 184.6326788735286 -1.5509815654013436e-14
    vertex 22.226940669048386 158.28105373837167 5.0759396685862156e-14
  endloop
endfacet
facet normal 8.326672684688677e-17 -2.273113842496299e-15 -1.0
  outer loop
    vertex 22.226940669048386 158.28105373837167 5.0759396685862156e-14
    vertex 12.095864970679031 184.6326788735286 -1.5509815654013436e-14
    vertex 29.904250453121417 164.31210637012242 3.8069547514396615e-14
  endloop
endfacet
facet normal 8.326672684688677e-17 -2.273113842496299e-15 -1.0
  outer loop
    vertex 15.198618322883249 151.90341114968976 5.921929613350585e-14
    vertex 22.226940669048386 158.28105373837167 5.0759396685862156e-14
    vertex 21.97043674529169 157.94677131669857 5.0759396685862156e-14
  endloop
endfacet
facet normal 8.326672684688677e-17 -2.273113842496299e-15 -1.0
  outer loop
    vertex 15.198618322883249 151.90341114968976 5.921929613350585e-14
    vertex 21.97043674529169 157.94677131669857 5.0759396685862156e-14
    vertex 16.832254040453993 149.96737795114245 6.34492458573277e-14
  endloop
endfacet
facet normal 8.326672684688677e-17 -2.273113842496299e-15 -1.0
  outer loop
    vertex 16.832254040453993 149.96737795114245 6.34492458573277e-14
    vertex 21.97043674529169 157.94677131669857 5.0759396685862156e-14
    vertex 21.809191637962538 157.5574911917183 5.2169379927136103e-14
  endloop
endfacet
facet normal 8.326672684688677e-17 -2.273113842496299e-15 -1.0
  outer loop
    vertex 16.832254040453993 149.96737795114245 6.34492458573277e-14
    vertex 21.809191637962538 157.5574911917183 5.2169379927136103e-14
    vertex 18.91130723453861 148.52012952057962 6.626921233987559e-14
  endloop
endfacet
facet normal 8.326672684688677e-17 -2.273113842496299e-15 -1.0
  outer loop
    vertex 18.91130723453861 148.52012952057962 6.626921233987559e-14
    vertex 21.809191637962538 157.5574911917183 5.2169379927136103e-14
    vertex 21.75419393465532 157.13974216063244 5.357936316841005e-14
  endloop
endfacet
facet normal 8.326672684688677e-17 -2.273113842496299e-15 -1.0
  outer loop
    vertex 18.91130723453861 148.52012952057962 6.626921233987559e-14
    vertex 21.75419393465532 157.13974216063244 5.357936316841005e-14
    vertex 21.294093865758153 147.660293446853 6.908917882242349e-14
  endloop
endfacet
facet normal 8.326672684688677e-17 -2.273113842496299e-15 -1.0
  outer loop
    vertex 22.226940669048386 158.28105373837167 5.0759396685862156e-14
    vertex 29.904250453121417 164.31210637012242 3.8069547514396615e-14
    vertex 22.5612230907215 158.53755766212845 5.4989346409684e-14
  endloop
endfacet
facet normal 8.326672684688677e-17 -2.273113842496299e-15 -1.0
  outer loop
    vertex 22.5612230907215 158.53755766212845 5.4989346409684e-14
    vertex 29.904250453121417 164.31210637012242 3.8069547514396615e-14
    vertex 22.950503215701787 158.69880276945756 5.4989346409684e-14
  endloop
endfacet
facet normal 8.326672684688677e-17 -2.273113842496299e-15 -1.0
  outer loop
    vertex 22.950503215701787 158.69880276945756 5.4989346409684e-14
    vertex 29.904250453121417 164.31210637012242 3.8069547514396615e-14
    vertex 23.36825224678768 158.7538004727647 4.934941344458821e-14
  endloop
endfacet
facet normal 8.326672684688677e-17 -2.273113842496299e-15 -1.0
  outer loop
    vertex 23.36825224678768 158.7538004727647 4.934941344458821e-14
    vertex 29.904250453121417 164.31210637012242 3.8069547514396615e-14
    vertex 23.78600127787353 158.69880276945756 4.934941344458821e-14
  endloop
endfacet
facet normal 8.326672684688677e-17 -2.273113842496299e-15 -1.0
  outer loop
    vertex 23.78600127787353 158.69880276945756 4.934941344458821e-14
    vertex 29.904250453121417 164.31210637012242 3.8069547514396615e-14
    vertex 24.175281402853862 158.53755766212845 4.511946372076636e-14
  endloop
endfacet
facet normal 8.326672684688677e-17 -2.273113842496299e-15 -1.0
  outer loop
    vertex 24.175281402853862 158.53755766212845 4.511946372076636e-14
    vertex 29.904250453121417 164.31210637012242 3.8069547514396615e-14
    vertex 24.509563824526886 158.2810537383717 5.0759396685862156e-14
  endloop
endfacet
facet normal 8.326672684688677e-17 -2.273113842496299e-15 -1.0
  outer loop
    vertex 24.509563824526886 158.2810537383717 5.0759396685862156e-14
    vertex 29.904250453121417 164.31210637012242 3.8069547514396615e-14
    vertex 24.766067748283717 157.9467713166986 4.6529446962040307e-14
  endloop
endfacet
facet normal 8.326672684688677e-17 -2.273113842496299e-15 -1.0
  outer loop
    vertex 24.766067748283717 157.9467713166986 4.6529446962040307e-14
    vertex 29.904250453121417 164.31210637012242 3.8069547514396615e-14
    vertex 24.927312855612826 157.5574911917183 4.6529446962040307e-14
  endloop
endfacet
facet normal 8.326672684688677e-17 -2.273113842496299e-15 -1.0
  outer loop
    vertex 24.927312855612826 157.5574911917183 4.6529446962040307e-14
    vertex 29.904250453121417 164.31210637012242 3.8069547514396615e-14
    vertex 24.98231055891991 157.13974216063244 4.7939430203314254e-14
  endloop
endfacet
facet normal 8.326672684688677e-17 -2.273113842496299e-15 -1.0
  outer loop
    vertex 24.98231055891991 157.13974216063244 4.7939430203314254e-14
    vertex 29.904250453121417 164.31210637012242 3.8069547514396615e-14
    vertex 26.31170275423352 147.89321957011296 7.472911178751928e-14
  endloop
endfacet
facet normal 8.326672684688677e-17 -2.273113842496299e-15 -1.0
  outer loop
    vertex 26.31170275423352 147.89321957011296 7.472911178751928e-14
    vertex 29.904250453121417 164.31210637012242 3.8069547514396615e-14
    vertex 28.60458325773031 148.97010823672804 6.626921233987559e-14
  endloop
endfacet
facet normal 8.326672684688677e-17 -2.273113842496299e-15 -1.0
  outer loop
    vertex 28.60458325773031 148.97010823672804 6.626921233987559e-14
    vertex 29.904250453121417 164.31210637012242 3.8069547514396615e-14
    vertex 30.540616456277583 150.60374395429878 6.34492458573277e-14
  endloop
endfacet
facet normal 8.326672684688677e-17 -2.273113842496299e-15 -1.0
  outer loop
    vertex 30.540616456277583 150.60374395429878 6.34492458573277e-14
    vertex 29.904250453121417 164.31210637012242 3.8069547514396615e-14
    vertex 31.537886170692023 162.37607317157511 3.101963130802687e-14
  endloop
endfacet
facet normal 8.326672684688677e-17 -2.273113842496299e-15 -1.0
  outer loop
    vertex 30.540616456277583 150.60374395429878 6.34492458573277e-14
    vertex 31.537886170692023 162.37607317157511 3.101963130802687e-14
    vertex 31.987864886840427 152.6827971483834 4.6529446962040307e-14
  endloop
endfacet
facet normal 8.326672684688677e-17 -2.273113842496299e-15 -1.0
  outer loop
    vertex 31.987864886840427 152.6827971483834 4.6529446962040307e-14
    vertex 31.537886170692023 162.37607317157511 3.101963130802687e-14
    vertex 32.61477483730716 160.08319266807825 3.665956427312267e-14
  endloop
endfacet
facet normal 8.326672684688677e-17 -2.273113842496299e-15 -1.0
  outer loop
    vertex 31.987864886840427 152.6827971483834 4.6529446962040307e-14
    vertex 32.61477483730716 160.08319266807825 3.665956427312267e-14
    vertex 32.847700960567074 155.06558377960292 4.7939430203314254e-14
  endloop
endfacet
facet normal 8.326672684688677e-17 -2.273113842496299e-15 -1.0
  outer loop
    vertex 32.847700960567074 155.06558377960292 4.7939430203314254e-14
    vertex 32.61477483730716 160.08319266807825 3.665956427312267e-14
    vertex 33.061528269979334 157.58972087678086 5.357936316841005e-14
  endloop
endfacet
facet normal 8.326672684688677e-17 -2.273113842496299e-15 -1.0
  outer loop
    vertex 21.294093865758153 147.660293446853 6.908917882242349e-14
    vertex 21.809191637962538 156.72199312954658 5.357936316841005e-14
    vertex 23.81823096293613 147.44646613744075 7.472911178751928e-14
  endloop
endfacet
facet normal 8.326672684688677e-17 -2.273113842496299e-15 -1.0
  outer loop
    vertex 21.809191637962538 156.72199312954658 5.357936316841005e-14
    vertex 21.294093865758153 147.660293446853 6.908917882242349e-14
    vertex 21.75419393465532 157.13974216063244 5.357936316841005e-14
  endloop
endfacet
facet normal 8.326672684688677e-17 -2.273113842496299e-15 -1.0
  outer loop
    vertex 23.81823096293613 147.44646613744075 7.472911178751928e-14
    vertex 21.809191637962538 156.72199312954658 5.357936316841005e-14
    vertex 21.97043674529169 156.33271300456627 5.4989346409684e-14
  endloop
endfacet
facet normal 8.326672684688677e-17 -2.273113842496299e-15 -1.0
  outer loop
    vertex 23.81823096293613 147.44646613744075 7.472911178751928e-14
    vertex 21.97043674529169 156.33271300456627 5.4989346409684e-14
    vertex 22.226940669048386 155.99843058289318 4.511946372076636e-14
  endloop
endfacet
facet normal 8.326672684688677e-17 -2.273113842496299e-15 -1.0
  outer loop
    vertex 23.81823096293613 147.44646613744075 7.472911178751928e-14
    vertex 22.226940669048386 155.99843058289318 4.511946372076636e-14
    vertex 22.5612230907215 155.74192665913645 6.203926261605374e-14
  endloop
endfacet
facet normal 8.326672684688677e-17 -2.273113842496299e-15 -1.0
  outer loop
    vertex 23.81823096293613 147.44646613744075 7.472911178751928e-14
    vertex 22.5612230907215 155.74192665913645 6.203926261605374e-14
    vertex 22.95050321570188 155.58068155180734 5.639932965095795e-14
  endloop
endfacet
facet normal 8.326672684688677e-17 -2.273113842496299e-15 -1.0
  outer loop
    vertex 23.81823096293613 147.44646613744075 7.472911178751928e-14
    vertex 22.95050321570188 155.58068155180734 5.639932965095795e-14
    vertex 23.36825224678759 155.52568384850017 6.203926261605374e-14
  endloop
endfacet
facet normal 8.326672684688677e-17 -2.273113842496299e-15 -1.0
  outer loop
    vertex 23.81823096293613 147.44646613744075 7.472911178751928e-14
    vertex 23.36825224678759 155.52568384850017 6.203926261605374e-14
    vertex 23.78600127787362 155.58068155180734 6.203926261605374e-14
  endloop
endfacet
facet normal 8.326672684688677e-17 -2.273113842496299e-15 -1.0
  outer loop
    vertex 23.81823096293613 147.44646613744075 7.472911178751928e-14
    vertex 23.78600127787362 155.58068155180734 6.203926261605374e-14
    vertex 24.17528140285377 155.74192665913645 5.639932965095795e-14
  endloop
endfacet
facet normal 8.326672684688677e-17 -2.273113842496299e-15 -1.0
  outer loop
    vertex 23.81823096293613 147.44646613744075 7.472911178751928e-14
    vertex 24.17528140285377 155.74192665913645 5.639932965095795e-14
    vertex 26.31170275423352 147.89321957011296 7.472911178751928e-14
  endloop
endfacet
facet normal 8.326672684688677e-17 -2.273113842496299e-15 -1.0
  outer loop
    vertex 26.31170275423352 147.89321957011296 7.472911178751928e-14
    vertex 24.17528140285377 155.74192665913645 5.639932965095795e-14
    vertex 24.509563824526886 155.99843058289318 5.639932965095795e-14
  endloop
endfacet
facet normal 8.326672684688677e-17 -2.273113842496299e-15 -1.0
  outer loop
    vertex 26.31170275423352 147.89321957011296 7.472911178751928e-14
    vertex 24.509563824526886 155.99843058289318 5.639932965095795e-14
    vertex 24.76606774828363 156.33271300456627 6.06292793747798e-14
  endloop
endfacet
facet normal 8.326672684688677e-17 -2.273113842496299e-15 -1.0
  outer loop
    vertex 26.31170275423352 147.89321957011296 7.472911178751928e-14
    vertex 24.76606774828363 156.33271300456627 6.06292793747798e-14
    vertex 24.927312855612826 156.72199312954658 4.934941344458821e-14
  endloop
endfacet
facet normal 8.326672684688677e-17 -2.273113842496299e-15 -1.0
  outer loop
    vertex 26.31170275423352 147.89321957011296 7.472911178751928e-14
    vertex 24.927312855612826 156.72199312954658 4.934941344458821e-14
    vertex 24.98231055891991 157.13974216063244 4.7939430203314254e-14
  endloop
endfacet
facet normal 8.326672684688677e-17 -2.273113842496299e-15 -1.0
  outer loop
    vertex 5.2545303905178615 187.07217101745874 -2.8199664825478976e-14
    vertex 4.948477199490039 179.92765540328512 -5.639932965095795e-15
    vertex 3.4499628752486156 186.49019091490746 -1.5509815654013436e-14
  endloop
endfacet
facet normal 8.326672684688677e-17 -2.273113842496299e-15 -1.0
  outer loop
    vertex 4.948477199490039 179.92765540328512 -5.639932965095795e-15
    vertex 5.2545303905178615 187.07217101745874 -2.8199664825478976e-14
    vertex 5.003474902797212 180.345404434371 4.229949723821846e-15
  endloop
endfacet
facet normal 8.326672684688677e-17 -2.273113842496299e-15 -1.0
  outer loop
    vertex 5.003474902797212 180.345404434371 4.229949723821846e-15
    vertex 5.2545303905178615 187.07217101745874 -2.8199664825478976e-14
    vertex 5.16472001012627 180.73468455935128 -1.4099832412739487e-15
  endloop
endfacet
facet normal 8.326672684688677e-17 -2.273113842496299e-15 -1.0
  outer loop
    vertex 5.16472001012627 180.73468455935128 -1.4099832412739487e-15
    vertex 5.2545303905178615 187.07217101745874 -2.8199664825478976e-14
    vertex 5.421223933883059 181.0689669810244 -2.8199664825478975e-15
  endloop
endfacet
facet normal 8.326672684688677e-17 -2.273113842496299e-15 -1.0
  outer loop
    vertex 5.421223933883059 181.0689669810244 -2.8199664825478975e-15
    vertex 5.2545303905178615 187.07217101745874 -2.8199664825478976e-14
    vertex 7.148236293209546 187.16726418777444 -1.6919798895287383e-14
  endloop
endfacet
facet normal 8.326672684688677e-17 -2.273113842496299e-15 -1.0
  outer loop
    vertex 5.421223933883059 181.0689669810244 -2.8199664825478975e-15
    vertex 7.148236293209546 187.16726418777444 -1.6919798895287383e-14
    vertex 5.755506355556175 181.32547090478113 -8.459899447643692e-15
  endloop
endfacet
facet normal 8.326672684688677e-17 -2.273113842496299e-15 -1.0
  outer loop
    vertex 5.755506355556175 181.32547090478113 -8.459899447643692e-15
    vertex 7.148236293209546 187.16726418777444 -1.6919798895287383e-14
    vertex 6.144786480536462 181.48671601211024 2.8199664825478975e-15
  endloop
endfacet
facet normal 8.326672684688677e-17 -2.273113842496299e-15 -1.0
  outer loop
    vertex 6.144786480536462 181.48671601211024 2.8199664825478975e-15
    vertex 7.148236293209546 187.16726418777444 -1.6919798895287383e-14
    vertex 6.562535511622356 181.54171371541742 -9.86988268891764e-15
  endloop
endfacet
facet normal 8.326672684688677e-17 -2.273113842496299e-15 -1.0
  outer loop
    vertex 6.562535511622356 181.54171371541742 -9.86988268891764e-15
    vertex 7.148236293209546 187.16726418777444 -1.6919798895287383e-14
    vertex 6.980284542708158 181.48671601211026 -2.8199664825478975e-15
  endloop
endfacet
facet normal 8.326672684688677e-17 -2.273113842496299e-15 -1.0
  outer loop
    vertex 6.980284542708158 181.48671601211026 -2.8199664825478975e-15
    vertex 7.148236293209546 187.16726418777444 -1.6919798895287383e-14
    vertex 7.369564667688398 181.32547090478113 -8.459899447643692e-15
  endloop
endfacet
facet normal 8.326672684688677e-17 -2.273113842496299e-15 -1.0
  outer loop
    vertex 7.369564667688398 181.32547090478113 -8.459899447643692e-15
    vertex 7.148236293209546 187.16726418777444 -1.6919798895287383e-14
    vertex 9.002027655552503 186.76898998344632 -1.5509815654013436e-14
  endloop
endfacet
facet normal 8.326672684688677e-17 -2.273113842496299e-15 -1.0
  outer loop
    vertex 7.369564667688398 181.32547090478113 -8.459899447643692e-15
    vertex 9.002027655552503 186.76898998344632 -1.5509815654013436e-14
    vertex 7.703847089361607 181.06896698102437 -8.459899447643692e-15
  endloop
endfacet
facet normal 8.326672684688677e-17 -2.273113842496299e-15 -1.0
  outer loop
    vertex 7.703847089361607 181.06896698102437 -8.459899447643692e-15
    vertex 9.002027655552503 186.76898998344632 -1.5509815654013436e-14
    vertex 7.960351013118442 180.73468455935128 -1.4099832412739487e-15
  endloop
endfacet
facet normal 8.326672684688677e-17 -2.273113842496299e-15 -1.0
  outer loop
    vertex 7.960351013118442 180.73468455935128 -1.4099832412739487e-15
    vertex 9.002027655552503 186.76898998344632 -1.5509815654013436e-14
    vertex 8.1215961204475 180.345404434371 -7.049916206369744e-15
  endloop
endfacet
facet normal 8.326672684688677e-17 -2.273113842496299e-15 -1.0
  outer loop
    vertex 8.1215961204475 180.345404434371 -7.049916206369744e-15
    vertex 9.002027655552503 186.76898998344632 -1.5509815654013436e-14
    vertex 8.176593823754581 179.92765540328512 -5.639932965095795e-15
  endloop
endfacet
facet normal 0.6707539930694335 0.7416799045285039 -1.640023362307717e-15
  outer loop
    vertex 10.68957165973801 185.90449013332022 9.684349872793609
    vertex 12.095864970679031 184.6326788735286 -1.5509815654013436e-14
    vertex 10.689571659738059 185.9044901333202 -2.3969715101657127e-14
  endloop
endfacet
facet normal 0.6707539930694335 0.7416799045285039 -1.640023362307717e-15
  outer loop
    vertex 12.095864970679031 184.6326788735286 -1.5509815654013436e-14
    vertex 10.68957165973801 185.90449013332022 9.684349872793609
    vertex 12.095864970678983 184.6326788735286 9.684349872793613
  endloop
endfacet
facet normal 0.7520650302431869 0.6590889092416247 -1.441238462800582e-15
  outer loop
    vertex 29.904250453121417 164.31210637012242 3.8069547514396615e-14
    vertex 12.095864970678983 184.6326788735286 9.684349872793613
    vertex 29.904250453121417 164.31210637012245 9.68434987279366
  endloop
endfacet
facet normal 0.7520650302431869 0.6590889092416247 -1.441238462800582e-15
  outer loop
    vertex 12.095864970678983 184.6326788735286 9.684349872793613
    vertex 29.904250453121417 164.31210637012242 3.8069547514396615e-14
    vertex 12.095864970679031 184.6326788735286 -1.5509815654013436e-14
  endloop
endfacet
facet normal 0.7642705271602629 0.6448957755437495 -1.4012625862209568e-15
  outer loop
    vertex 31.537886170692023 162.37607317157511 3.101963130802687e-14
    vertex 29.904250453121417 164.31210637012245 9.68434987279366
    vertex 31.537886170692023 162.37607317157514 9.684349872793664
  endloop
endfacet
facet normal 0.7642705271602629 0.6448957755437495 -1.4012625862209568e-15
  outer loop
    vertex 29.904250453121417 164.31210637012245 9.68434987279366
    vertex 31.537886170692023 162.37607317157511 3.101963130802687e-14
    vertex 29.904250453121417 164.31210637012242 3.8069547514396615e-14
  endloop
endfacet
facet normal 0.9051399492725372 0.42511371682281535 -8.833847068262794e-16
  outer loop
    vertex 31.537886170692023 162.37607317157511 3.101963130802687e-14
    vertex 32.61477483730711 160.08319266807828 9.68434987279367
    vertex 32.61477483730716 160.08319266807825 3.665956427312267e-14
  endloop
endfacet
facet normal 0.9051399492725372 0.42511371682281535 -8.833847068262794e-16
  outer loop
    vertex 32.61477483730711 160.08319266807828 9.68434987279367
    vertex 31.537886170692023 162.37607317157511 3.101963130802687e-14
    vertex 31.537886170692023 162.37607317157514 9.684349872793664
  endloop
endfacet
facet normal 0.9843255796563873 0.17636086083402192 -3.188749705646136e-16
  outer loop
    vertex 32.61477483730716 160.08319266807825 3.665956427312267e-14
    vertex 33.06152826997938 157.5897208767809 9.684349872793682
    vertex 33.061528269979334 157.58972087678086 5.357936316841005e-14
  endloop
endfacet
facet normal 0.9843255796563873 0.17636086083402192 -3.188749705646136e-16
  outer loop
    vertex 33.06152826997938 157.5897208767809 9.684349872793682
    vertex 32.61477483730716 160.08319266807825 3.665956427312267e-14
    vertex 32.61477483730711 160.08319266807828 9.68434987279367
  endloop
endfacet
facet normal 0.9964310484615831 -0.0844106963704839 2.5916226999718943e-16
  outer loop
    vertex 33.061528269979334 157.58972087678086 5.357936316841005e-14
    vertex 32.847700960567074 155.06558377960295 9.684349872793682
    vertex 32.847700960567074 155.06558377960292 4.7939430203314254e-14
  endloop
endfacet
facet normal 0.9964310484615831 -0.0844106963704839 2.5916226999718943e-16
  outer loop
    vertex 32.847700960567074 155.06558377960295 9.684349872793682
    vertex 33.061528269979334 157.58972087678086 5.357936316841005e-14
    vertex 33.06152826997938 157.5897208767809 9.684349872793682
  endloop
endfacet
facet normal 0.9406313879942902 -0.3394298041126249 8.296328247325387e-16
  outer loop
    vertex 31.987864886840427 152.6827971483834 4.6529446962040307e-14
    vertex 32.847700960567074 155.06558377960295 9.684349872793682
    vertex 31.98786488684052 152.68279714838343 9.68434987279369
  endloop
endfacet
facet normal 0.9406313879942902 -0.3394298041126249 8.296328247325387e-16
  outer loop
    vertex 32.847700960567074 155.06558377960295 9.684349872793682
    vertex 31.987864886840427 152.6827971483834 4.6529446962040307e-14
    vertex 32.847700960567074 155.06558377960292 4.7939430203314254e-14
  endloop
endfacet
facet normal 0.8207292529020488 -0.5713173316387707 1.3659650150503278e-15
  outer loop
    vertex 30.540616456277583 150.60374395429878 6.34492458573277e-14
    vertex 31.98786488684052 152.68279714838343 9.68434987279369
    vertex 30.54061645627768 150.6037439542988 9.684349872793696
  endloop
endfacet
facet normal 0.8207292529020488 -0.5713173316387707 1.3659650150503278e-15
  outer loop
    vertex 31.98786488684052 152.68279714838343 9.68434987279369
    vertex 30.540616456277583 150.60374395429878 6.34492458573277e-14
    vertex 31.987864886840427 152.6827971483834 4.6529446962040307e-14
  endloop
endfacet
facet normal 0.6448957755437495 -0.7642705271602627 1.790766855009359e-15
  outer loop
    vertex 30.54061645627768 150.6037439542988 9.684349872793696
    vertex 28.60458325773031 148.97010823672804 6.626921233987559e-14
    vertex 30.540616456277583 150.60374395429878 6.34492458573277e-14
  endloop
endfacet
facet normal 0.6448957755437495 -0.7642705271602627 1.790766855009359e-15
  outer loop
    vertex 28.60458325773031 148.97010823672804 6.626921233987559e-14
    vertex 30.54061645627768 150.6037439542988 9.684349872793696
    vertex 28.60458325773031 148.97010823672807 9.6843498727937
  endloop
endfacet
facet normal 0.42511371682282545 -0.9051399492725324 2.0932275659159724e-15
  outer loop
    vertex 28.60458325773031 148.97010823672807 9.6843498727937
    vertex 26.31170275423352 147.89321957011296 7.472911178751928e-14
    vertex 28.60458325773031 148.97010823672804 6.626921233987559e-14
  endloop
endfacet
facet normal 0.42511371682282545 -0.9051399492725324 2.0932275659159724e-15
  outer loop
    vertex 26.31170275423352 147.89321957011296 7.472911178751928e-14
    vertex 28.60458325773031 148.97010823672807 9.6843498727937
    vertex 26.311702754233565 147.893219570113 9.684349872793696
  endloop
endfacet
facet normal 0.17636086083403155 -0.9843255796563857 2.2517120926652483e-15
  outer loop
    vertex 26.311702754233565 147.893219570113 9.684349872793696
    vertex 23.81823096293613 147.44646613744075 7.472911178751928e-14
    vertex 26.31170275423352 147.89321957011296 7.472911178751928e-14
  endloop
endfacet
facet normal 0.17636086083403155 -0.9843255796563857 2.2517120926652483e-15
  outer loop
    vertex 23.81823096293613 147.44646613744075 7.472911178751928e-14
    vertex 26.311702754233565 147.893219570113 9.684349872793696
    vertex 23.818230962936177 147.44646613744075 9.684349872793696
  endloop
endfacet
facet normal -0.08441069637048823 -0.9964310484615829 2.2588907009944714e-15
  outer loop
    vertex 23.81823096293613 147.44646613744075 7.472911178751928e-14
    vertex 21.294093865758153 147.66029344685302 9.68434987279369
    vertex 21.294093865758153 147.660293446853 6.908917882242349e-14
  endloop
endfacet
facet normal -0.08441069637048823 -0.9964310484615829 2.2588907009944714e-15
  outer loop
    vertex 21.294093865758153 147.66029344685302 9.68434987279369
    vertex 23.81823096293613 147.44646613744075 7.472911178751928e-14
    vertex 23.818230962936177 147.44646613744075 9.684349872793696
  endloop
endfacet
facet normal -0.3394298041126292 -0.9406313879942889 2.1096418255739852e-15
  outer loop
    vertex 21.294093865758153 147.66029344685302 9.68434987279369
    vertex 18.91130723453861 148.52012952057962 6.626921233987559e-14
    vertex 21.294093865758153 147.660293446853 6.908917882242349e-14
  endloop
endfacet
facet normal -0.3394298041126292 -0.9406313879942889 2.1096418255739852e-15
  outer loop
    vertex 18.91130723453861 148.52012952057962 6.626921233987559e-14
    vertex 21.294093865758153 147.66029344685302 9.68434987279369
    vertex 18.91130723453861 148.52012952057964 9.684349872793694
  endloop
endfacet
facet normal -0.5713173316387707 -0.8207292529020486 1.8236569550629214e-15
  outer loop
    vertex 18.91130723453861 148.52012952057964 9.684349872793694
    vertex 16.832254040453993 149.96737795114245 6.34492458573277e-14
    vertex 18.91130723453861 148.52012952057962 6.626921233987559e-14
  endloop
endfacet
facet normal -0.5713173316387707 -0.8207292529020486 1.8236569550629214e-15
  outer loop
    vertex 16.832254040453993 149.96737795114245 6.34492458573277e-14
    vertex 18.91130723453861 148.52012952057964 9.684349872793694
    vertex 16.832254040453993 149.96737795114248 9.684349872793685
  endloop
endfacet
facet normal -0.7642705271602533 -0.6448957755437605 1.4012625862209878e-15
  outer loop
    vertex 16.832254040453993 149.96737795114248 9.684349872793685
    vertex 15.198618322883249 151.90341114968976 5.921929613350585e-14
    vertex 16.832254040453993 149.96737795114245 6.34492458573277e-14
  endloop
endfacet
facet normal -0.7642705271602533 -0.6448957755437605 1.4012625862209878e-15
  outer loop
    vertex 15.198618322883249 151.90341114968976 5.921929613350585e-14
    vertex 16.832254040453993 149.96737795114248 9.684349872793685
    vertex 15.198618322883249 151.90341114968976 9.684349872793687
  endloop
endfacet
facet normal -0.8536655420503871 -0.5208216031577597 1.1156905310716262e-15
  outer loop
    vertex 15.198618322883249 151.90341114968976 9.684349872793687
    vertex -3.1724622928663847e-15 176.81508276691144 1.4099832412739487e-15
    vertex 15.198618322883249 151.90341114968976 5.921929613350585e-14
  endloop
endfacet
facet normal -0.8536655420503871 -0.5208216031577597 1.1156905310716262e-15
  outer loop
    vertex -3.1724622928663847e-15 176.81508276691144 1.4099832412739487e-15
    vertex 15.198618322883249 151.90341114968976 9.684349872793687
    vertex -3.965577866082981e-15 176.81508276691147 9.684349872793623
  endloop
endfacet
facet normal -0.9517299499522262 -0.30693664226340456 5.967474929501686e-16
  outer loop
    vertex -0.5819801025512894 178.61965028218066 9.68434987279363
    vertex -3.1724622928663847e-15 176.81508276691144 1.4099832412739487e-15
    vertex -3.965577866082981e-15 176.81508276691147 9.684349872793623
  endloop
endfacet
facet normal -0.9517299499522262 -0.30693664226340456 5.967474929501686e-16
  outer loop
    vertex -3.1724622928663847e-15 176.81508276691144 1.4099832412739487e-15
    vertex -0.5819801025512894 178.61965028218066 9.68434987279363
    vertex -0.5819801025512428 178.61965028218066 2.8199664825478975e-15
  endloop
endfacet
facet normal -0.9987415869692458 -0.05015219295457276 1.287038842563133e-17
  outer loop
    vertex -0.6770732728669961 180.5133561848724 9.684349872793627
    vertex -0.5819801025512428 178.61965028218066 2.8199664825478975e-15
    vertex -0.5819801025512894 178.61965028218066 9.68434987279363
  endloop
endfacet
facet normal -0.9987415869692458 -0.05015219295457276 1.287038842563133e-17
  outer loop
    vertex -0.5819801025512428 178.61965028218066 2.8199664825478975e-15
    vertex -0.6770732728669961 180.5133561848724 9.684349872793627
    vertex -0.6770732728669495 180.5133561848724 -7.049916206369744e-15
  endloop
endfacet
facet normal -0.9776906353328183 0.21005004542372865 -5.608432689079877e-16
  outer loop
    vertex -0.2787990685388164 182.36714754721532 9.684349872793621
    vertex -0.6770732728669495 180.5133561848724 -7.049916206369744e-15
    vertex -0.6770732728669961 180.5133561848724 9.684349872793627
  endloop
endfacet
facet normal -0.9776906353328183 0.21005004542372865 -5.608432689079877e-16
  outer loop
    vertex -0.6770732728669495 180.5133561848724 -7.049916206369744e-15
    vertex -0.2787990685388164 182.36714754721532 9.684349872793621
    vertex -0.27879906853881564 182.3671475472153 -5.639932965095795e-15
  endloop
endfacet
facet normal -0.890011682608632 0.4559377203304764 -1.103593933975742e-15
  outer loop
    vertex 0.5857007815873233 184.05469155140074 9.684349872793607
    vertex -0.27879906853881564 182.3671475472153 -5.639932965095795e-15
    vertex -0.2787990685388164 182.36714754721532 9.684349872793621
  endloop
endfacet
facet normal -0.890011682608632 0.4559377203304764 -1.103593933975742e-15
  outer loop
    vertex -0.27879906853881564 182.3671475472153 -5.639932965095795e-15
    vertex 0.5857007815873233 184.05469155140074 9.684349872793607
    vertex 0.5857007815873242 184.05469155140074 -9.86988268891764e-15
  endloop
endfacet
facet normal -0.7416799045285346 0.6707539930693994 -1.5768212050503682e-15
  outer loop
    vertex 1.8575120413788582 185.46098486234186 9.684349872793609
    vertex 0.5857007815873242 184.05469155140074 -9.86988268891764e-15
    vertex 0.5857007815873233 184.05469155140074 9.684349872793607
  endloop
endfacet
facet normal -0.7416799045285346 0.6707539930693994 -1.5768212050503682e-15
  outer loop
    vertex 0.5857007815873242 184.05469155140074 -9.86988268891764e-15
    vertex 1.8575120413788582 185.46098486234186 9.684349872793609
    vertex 1.8575120413788588 185.46098486234183 -1.8329782136561334e-14
  endloop
endfacet
facet normal -0.5428038666387819 0.8398594896540656 -1.9550601011738154e-15
  outer loop
    vertex 1.8575120413788582 185.46098486234186 9.684349872793609
    vertex 3.4499628752486156 186.49019091490746 -1.5509815654013436e-14
    vertex 1.8575120413788588 185.46098486234183 -1.8329782136561334e-14
  endloop
endfacet
facet normal -0.5428038666387819 0.8398594896540656 -1.9550601011738154e-15
  outer loop
    vertex 3.4499628752486156 186.49019091490746 -1.5509815654013436e-14
    vertex 1.8575120413788582 185.46098486234186 9.684349872793609
    vertex 3.449962875248569 186.4901909149075 9.6843498727936
  endloop
endfacet
facet normal -0.3069366422633915 0.9517299499522304 -2.1904582903598385e-15
  outer loop
    vertex 3.4499628752486156 186.49019091490746 -1.5509815654013436e-14
    vertex 5.254530390517861 187.07217101745874 9.684349872793605
    vertex 5.2545303905178615 187.07217101745874 -2.8199664825478976e-14
  endloop
endfacet
facet normal -0.3069366422633915 0.9517299499522304 -2.1904582903598385e-15
  outer loop
    vertex 5.254530390517861 187.07217101745874 9.684349872793605
    vertex 3.4499628752486156 186.49019091490746 -1.5509815654013436e-14
    vertex 3.449962875248569 186.4901909149075 9.6843498727936
  endloop
endfacet
facet normal -0.05015219295457713 0.9987415869692455 -2.274269240610505e-15
  outer loop
    vertex 5.254530390517861 187.07217101745874 9.684349872793605
    vertex 7.148236293209546 187.16726418777444 -1.6919798895287383e-14
    vertex 5.2545303905178615 187.07217101745874 -2.8199664825478976e-14
  endloop
endfacet
facet normal -0.05015219295457713 0.9987415869692455 -2.274269240610505e-15
  outer loop
    vertex 7.148236293209546 187.16726418777444 -1.6919798895287383e-14
    vertex 5.254530390517861 187.07217101745874 9.684349872793605
    vertex 7.148236293209545 187.16726418777444 9.684349872793605
  endloop
endfacet
facet normal 0.21005004542371353 0.9776906353328213 -2.2065284440441422e-15
  outer loop
    vertex 7.148236293209545 187.16726418777444 9.684349872793605
    vertex 9.002027655552503 186.76898998344632 -1.5509815654013436e-14
    vertex 7.148236293209546 187.16726418777444 -1.6919798895287383e-14
  endloop
endfacet
facet normal 0.21005004542371353 0.9776906353328213 -2.2065284440441422e-15
  outer loop
    vertex 9.002027655552503 186.76898998344632 -1.5509815654013436e-14
    vertex 7.148236293209545 187.16726418777444 9.684349872793605
    vertex 9.002027655552503 186.76898998344635 9.684349872793607
  endloop
endfacet
facet normal 0.4559377203304538 0.8900116826086437 -1.981808277407276e-15
  outer loop
    vertex 9.002027655552503 186.76898998344632 -1.5509815654013436e-14
    vertex 10.68957165973801 185.90449013332022 9.684349872793609
    vertex 10.689571659738059 185.9044901333202 -2.3969715101657127e-14
  endloop
endfacet
facet normal 0.4559377203304538 0.8900116826086437 -1.981808277407276e-15
  outer loop
    vertex 10.68957165973801 185.90449013332022 9.684349872793609
    vertex 9.002027655552503 186.76898998344632 -1.5509815654013436e-14
    vertex 9.002027655552503 186.76898998344635 9.684349872793607
  endloop
endfacet
facet normal -0.7933533402912454 0.6087614290087073 -1.4387124349390077e-15
  outer loop
    vertex 24.76606774828363 156.3327130045663 9.684349872793682
    vertex 24.509563824526886 155.99843058289318 5.639932965095795e-14
    vertex 24.509563824526886 155.9984305828932 9.684349872793678
  endloop
endfacet
facet normal -0.7933533402912454 0.6087614290087073 -1.4387124349390077e-15
  outer loop
    vertex 24.509563824526886 155.99843058289318 5.639932965095795e-14
    vertex 24.76606774828363 156.3327130045663 9.684349872793682
    vertex 24.76606774828363 156.33271300456627 6.06292793747798e-14
  endloop
endfacet
facet normal -0.9238795325112351 0.38268343236521474 -9.608451604282739e-16
  outer loop
    vertex 24.927312855612826 156.7219931295466 9.684349872793682
    vertex 24.76606774828363 156.33271300456627 6.06292793747798e-14
    vertex 24.76606774828363 156.3327130045663 9.684349872793682
  endloop
endfacet
facet normal -0.9238795325112351 0.38268343236521474 -9.608451604282739e-16
  outer loop
    vertex 24.76606774828363 156.33271300456627 6.06292793747798e-14
    vertex 24.927312855612826 156.7219931295466 9.684349872793682
    vertex 24.927312855612826 156.72199312954658 4.934941344458821e-14
  endloop
endfacet
facet normal -0.9914448613738246 0.13052619221994455 -3.7145442692585347e-16
  outer loop
    vertex 24.927312855612826 156.7219931295466 9.684349872793682
    vertex 24.98231055891991 157.13974216063244 4.7939430203314254e-14
    vertex 24.927312855612826 156.72199312954658 4.934941344458821e-14
  endloop
endfacet
facet normal -0.9914448613738246 0.13052619221994455 -3.7145442692585347e-16
  outer loop
    vertex 24.98231055891991 157.13974216063244 4.7939430203314254e-14
    vertex 24.927312855612826 156.7219931295466 9.684349872793682
    vertex 24.98231055891991 157.13974216063247 9.684349872793682
  endloop
endfacet
facet normal -0.9914448613738189 -0.13052619221998835 2.0634569001444676e-16
  outer loop
    vertex 24.927312855612826 157.5574911917183 9.68434987279368
    vertex 24.98231055891991 157.13974216063244 4.7939430203314254e-14
    vertex 24.98231055891991 157.13974216063247 9.684349872793682
  endloop
endfacet
facet normal -0.9914448613738189 -0.13052619221998835 2.0634569001444676e-16
  outer loop
    vertex 24.98231055891991 157.13974216063244 4.7939430203314254e-14
    vertex 24.927312855612826 157.5574911917183 9.68434987279368
    vertex 24.927312855612826 157.5574911917183 4.6529446962040307e-14
  endloop
endfacet
facet normal -0.9238795325113119 -0.38268343236502944 8.069883110816743e-16
  outer loop
    vertex 24.766067748283717 157.94677131669863 9.68434987279368
    vertex 24.927312855612826 157.5574911917183 4.6529446962040307e-14
    vertex 24.927312855612826 157.5574911917183 9.68434987279368
  endloop
endfacet
facet normal -0.9238795325113119 -0.38268343236502944 8.069883110816743e-16
  outer loop
    vertex 24.927312855612826 157.5574911917183 4.6529446962040307e-14
    vertex 24.766067748283717 157.94677131669863 9.68434987279368
    vertex 24.766067748283717 157.9467713166986 4.6529446962040307e-14
  endloop
endfacet
facet normal -0.7933533402911745 -0.6087614290087997 1.3204703509888889e-15
  outer loop
    vertex 24.509563824526886 158.28105373837172 9.684349872793673
    vertex 24.766067748283717 157.9467713166986 4.6529446962040307e-14
    vertex 24.766067748283717 157.94677131669863 9.68434987279368
  endloop
endfacet
facet normal -0.7933533402911745 -0.6087614290087997 1.3204703509888889e-15
  outer loop
    vertex 24.766067748283717 157.9467713166986 4.6529446962040307e-14
    vertex 24.509563824526886 158.28105373837172 9.684349872793673
    vertex 24.509563824526886 158.2810537383717 5.0759396685862156e-14
  endloop
endfacet
facet normal -0.608761429008779 -0.7933533402911904 1.7523322540195832e-15
  outer loop
    vertex 24.509563824526886 158.2810537383717 5.0759396685862156e-14
    vertex 24.175281402853862 158.53755766212845 9.684349872793673
    vertex 24.175281402853862 158.53755766212845 4.511946372076636e-14
  endloop
endfacet
facet normal -0.608761429008779 -0.7933533402911904 1.7523322540195832e-15
  outer loop
    vertex 24.175281402853862 158.53755766212845 9.684349872793673
    vertex 24.509563824526886 158.2810537383717 5.0759396685862156e-14
    vertex 24.509563824526886 158.28105373837172 9.684349872793673
  endloop
endfacet
facet normal -0.38268343236501584 -0.9238795325113174 2.0635265342347553e-15
  outer loop
    vertex 24.175281402853862 158.53755766212845 9.684349872793673
    vertex 23.78600127787353 158.69880276945756 4.934941344458821e-14
    vertex 24.175281402853862 158.53755766212845 4.511946372076636e-14
  endloop
endfacet
facet normal -0.38268343236501584 -0.9238795325113174 2.0635265342347553e-15
  outer loop
    vertex 23.78600127787353 158.69880276945756 4.934941344458821e-14
    vertex 24.175281402853862 158.53755766212845 9.684349872793673
    vertex 23.786001277873485 158.69880276945756 9.684349872793677
  endloop
endfacet
facet normal -0.1305261922200588 -0.9914448613738095 2.242231299068928e-15
  outer loop
    vertex 23.786001277873485 158.69880276945756 9.684349872793677
    vertex 23.36825224678768 158.7538004727647 4.934941344458821e-14
    vertex 23.78600127787353 158.69880276945756 4.934941344458821e-14
  endloop
endfacet
facet normal -0.1305261922200588 -0.9914448613738095 2.242231299068928e-15
  outer loop
    vertex 23.36825224678768 158.7538004727647 4.934941344458821e-14
    vertex 23.786001277873485 158.69880276945756 9.684349872793677
    vertex 23.368252246787637 158.75380047276474 9.684349872793677
  endloop
endfacet
facet normal 0.13052619222006223 -0.991444861373809 2.2639682766568307e-15
  outer loop
    vertex 23.368252246787637 158.75380047276474 9.684349872793677
    vertex 22.950503215701787 158.69880276945756 5.4989346409684e-14
    vertex 23.36825224678768 158.7538004727647 4.934941344458821e-14
  endloop
endfacet
facet normal 0.13052619222006223 -0.991444861373809 2.2639682766568307e-15
  outer loop
    vertex 22.950503215701787 158.69880276945756 5.4989346409684e-14
    vertex 23.368252246787637 158.75380047276474 9.684349872793677
    vertex 22.950503215701833 158.69880276945756 9.684349872793671
  endloop
endfacet
facet normal 0.38268343236508556 -0.9238795325112885 2.130725574849769e-15
  outer loop
    vertex 22.950503215701833 158.69880276945756 9.684349872793671
    vertex 22.5612230907215 158.53755766212845 5.4989346409684e-14
    vertex 22.950503215701787 158.69880276945756 5.4989346409684e-14
  endloop
endfacet
facet normal 0.38268343236508556 -0.9238795325112885 2.130725574849769e-15
  outer loop
    vertex 22.5612230907215 158.53755766212845 5.4989346409684e-14
    vertex 22.950503215701833 158.69880276945756 9.684349872793671
    vertex 22.561223090721548 158.53755766212845 9.684349872793671
  endloop
endfacet
facet normal 0.6087614290087225 -0.7933533402912337 1.8537113972680868e-15
  outer loop
    vertex 22.5612230907215 158.53755766212845 5.4989346409684e-14
    vertex 22.226940669048386 158.2810537383717 9.684349872793673
    vertex 22.226940669048386 158.28105373837167 5.0759396685862156e-14
  endloop
endfacet
facet normal 0.6087614290087225 -0.7933533402912337 1.8537113972680868e-15
  outer loop
    vertex 22.226940669048386 158.2810537383717 9.684349872793673
    vertex 22.5612230907215 158.53755766212845 5.4989346409684e-14
    vertex 22.561223090721548 158.53755766212845 9.684349872793671
  endloop
endfacet
facet normal 0.7933533402912454 -0.6087614290087073 1.4387124349390077e-15
  outer loop
    vertex 22.226940669048386 158.28105373837167 5.0759396685862156e-14
    vertex 21.97043674529164 157.9467713166986 9.684349872793678
    vertex 21.97043674529169 157.94677131669857 5.0759396685862156e-14
  endloop
endfacet
facet normal 0.7933533402912454 -0.6087614290087073 1.4387124349390077e-15
  outer loop
    vertex 21.97043674529164 157.9467713166986 9.684349872793678
    vertex 22.226940669048386 158.28105373837167 5.0759396685862156e-14
    vertex 22.226940669048386 158.2810537383717 9.684349872793673
  endloop
endfacet
facet normal 0.923879532511278 -0.3826834323651113 9.469673726201792e-16
  outer loop
    vertex 21.97043674529169 157.94677131669857 5.0759396685862156e-14
    vertex 21.809191637962538 157.5574911917183 9.684349872793675
    vertex 21.809191637962538 157.5574911917183 5.2169379927136103e-14
  endloop
endfacet
facet normal 0.923879532511278 -0.3826834323651113 9.469673726201792e-16
  outer loop
    vertex 21.809191637962538 157.5574911917183 9.684349872793675
    vertex 21.97043674529169 157.94677131669857 5.0759396685862156e-14
    vertex 21.97043674529164 157.9467713166986 9.684349872793678
  endloop
endfacet
facet normal 0.991444861373796 -0.13052619222016168 3.714544269264471e-16
  outer loop
    vertex 21.809191637962538 157.5574911917183 5.2169379927136103e-14
    vertex 21.754193934655273 157.13974216063247 9.684349872793682
    vertex 21.75419393465532 157.13974216063244 5.357936316841005e-14
  endloop
endfacet
facet normal 0.991444861373796 -0.13052619222016168 3.714544269264471e-16
  outer loop
    vertex 21.754193934655273 157.13974216063247 9.684349872793682
    vertex 21.809191637962538 157.5574911917183 5.2169379927136103e-14
    vertex 21.809191637962538 157.5574911917183 9.684349872793675
  endloop
endfacet
facet normal 0.991444861373791 0.1305261922201999 -2.0634569001502968e-16
  outer loop
    vertex 21.75419393465532 157.13974216063244 5.357936316841005e-14
    vertex 21.809191637962538 156.7219931295466 9.684349872793675
    vertex 21.809191637962538 156.72199312954658 5.357936316841005e-14
  endloop
endfacet
facet normal 0.991444861373791 0.1305261922201999 -2.0634569001502968e-16
  outer loop
    vertex 21.809191637962538 156.7219931295466 9.684349872793675
    vertex 21.75419393465532 157.13974216063244 5.357936316841005e-14
    vertex 21.754193934655273 157.13974216063247 9.684349872793682
  endloop
endfacet
facet normal 0.9238795325113073 0.38268343236504065 -7.931105232738909e-16
  outer loop
    vertex 21.809191637962538 156.72199312954658 5.357936316841005e-14
    vertex 21.97043674529164 156.3327130045663 9.684349872793682
    vertex 21.97043674529169 156.33271300456627 5.4989346409684e-14
  endloop
endfacet
facet normal 0.9238795325113073 0.38268343236504065 -7.931105232738909e-16
  outer loop
    vertex 21.97043674529164 156.3327130045663 9.684349872793682
    vertex 21.809191637962538 156.72199312954658 5.357936316841005e-14
    vertex 21.809191637962538 156.7219931295466 9.684349872793675
  endloop
endfacet
facet normal 0.793353340291235 0.6087614290087208 -1.31353145708476e-15
  outer loop
    vertex 21.97043674529169 156.33271300456627 5.4989346409684e-14
    vertex 22.226940669048386 155.99843058289318 9.684349872793677
    vertex 22.226940669048386 155.99843058289318 4.511946372076636e-14
  endloop
endfacet
facet normal 0.793353340291235 0.6087614290087208 -1.31353145708476e-15
  outer loop
    vertex 22.226940669048386 155.99843058289318 9.684349872793677
    vertex 21.97043674529169 156.33271300456627 5.4989346409684e-14
    vertex 21.97043674529164 156.3327130045663 9.684349872793682
  endloop
endfacet
facet normal 0.6087614290087134 0.7933533402912407 -1.7523322540197271e-15
  outer loop
    vertex 22.226940669048386 155.99843058289318 9.684349872793677
    vertex 22.5612230907215 155.74192665913645 6.203926261605374e-14
    vertex 22.226940669048386 155.99843058289318 4.511946372076636e-14
  endloop
endfacet
facet normal 0.6087614290087134 0.7933533402912407 -1.7523322540197271e-15
  outer loop
    vertex 22.5612230907215 155.74192665913645 6.203926261605374e-14
    vertex 22.226940669048386 155.99843058289318 9.684349872793677
    vertex 22.561223090721548 155.74192665913645 9.684349872793678
  endloop
endfacet
facet normal 0.38268343236501584 0.9238795325113174 -2.0635265342347553e-15
  outer loop
    vertex 22.5612230907215 155.74192665913645 6.203926261605374e-14
    vertex 22.950503215701925 155.58068155180734 9.684349872793684
    vertex 22.95050321570188 155.58068155180734 5.639932965095795e-14
  endloop
endfacet
facet normal 0.38268343236501584 0.9238795325113174 -2.0635265342347553e-15
  outer loop
    vertex 22.950503215701925 155.58068155180734 9.684349872793684
    vertex 22.5612230907215 155.74192665913645 6.203926261605374e-14
    vertex 22.561223090721548 155.74192665913645 9.684349872793678
  endloop
endfacet
facet normal 0.13052619222009862 0.9914448613738043 -2.2439660225448874e-15
  outer loop
    vertex 22.950503215701925 155.58068155180734 9.684349872793684
    vertex 23.36825224678759 155.52568384850017 6.203926261605374e-14
    vertex 22.95050321570188 155.58068155180734 5.639932965095795e-14
  endloop
endfacet
facet normal 0.13052619222009862 0.9914448613738043 -2.2439660225448874e-15
  outer loop
    vertex 23.36825224678759 155.52568384850017 6.203926261605374e-14
    vertex 22.950503215701925 155.58068155180734 9.684349872793684
    vertex 23.36825224678754 155.5256838485002 9.684349872793678
  endloop
endfacet
facet normal -0.1305261922200454 0.9914448613738113 -2.2639682766568354e-15
  outer loop
    vertex 23.36825224678754 155.5256838485002 9.684349872793678
    vertex 23.78600127787362 155.58068155180734 6.203926261605374e-14
    vertex 23.36825224678759 155.52568384850017 6.203926261605374e-14
  endloop
endfacet
facet normal -0.1305261922200454 0.9914448613738113 -2.2639682766568354e-15
  outer loop
    vertex 23.78600127787362 155.58068155180734 6.203926261605374e-14
    vertex 23.36825224678754 155.5256838485002 9.684349872793678
    vertex 23.78600127787362 155.58068155180734 9.684349872793678
  endloop
endfacet
facet normal -0.382683432365108 0.9238795325112792 -2.1307255748497455e-15
  outer loop
    vertex 23.78600127787362 155.58068155180734 6.203926261605374e-14
    vertex 24.17528140285377 155.74192665913645 9.684349872793678
    vertex 24.17528140285377 155.74192665913645 5.639932965095795e-14
  endloop
endfacet
facet normal -0.382683432365108 0.9238795325112792 -2.1307255748497455e-15
  outer loop
    vertex 24.17528140285377 155.74192665913645 9.684349872793678
    vertex 23.78600127787362 155.58068155180734 6.203926261605374e-14
    vertex 23.78600127787362 155.58068155180734 9.684349872793678
  endloop
endfacet
facet normal -0.6087614290087225 0.7933533402912337 -1.8537113972680868e-15
  outer loop
    vertex 24.17528140285377 155.74192665913645 9.684349872793678
    vertex 24.509563824526886 155.99843058289318 5.639932965095795e-14
    vertex 24.17528140285377 155.74192665913645 5.639932965095795e-14
  endloop
endfacet
facet normal -0.6087614290087225 0.7933533402912337 -1.8537113972680868e-15
  outer loop
    vertex 24.509563824526886 155.99843058289318 5.639932965095795e-14
    vertex 24.17528140285377 155.74192665913645 9.684349872793678
    vertex 24.509563824526886 155.9984305828932 9.684349872793678
  endloop
endfacet
facet normal -0.9914448613738246 0.13052619221994455 -3.7145442692585347e-16
  outer loop
    vertex 8.176593823754533 179.92765540328514 9.684349872793616
    vertex 8.121596120447455 179.50990637219925 7.049916206369744e-15
    vertex 8.121596120447453 179.50990637219928 9.684349872793629
  endloop
endfacet
facet normal -0.9914448613738246 0.13052619221994455 -3.7145442692585347e-16
  outer loop
    vertex 8.121596120447455 179.50990637219925 7.049916206369744e-15
    vertex 8.176593823754533 179.92765540328514 9.684349872793616
    vertex 8.176593823754581 179.92765540328512 -5.639932965095795e-15
  endloop
endfacet
facet normal -0.9914448613738335 -0.1305261922198772 2.0634569001414048e-16
  outer loop
    vertex 8.1215961204475 180.345404434371 9.684349872793627
    vertex 8.176593823754581 179.92765540328512 -5.639932965095795e-15
    vertex 8.176593823754533 179.92765540328514 9.684349872793616
  endloop
endfacet
facet normal -0.9914448613738335 -0.1305261922198772 2.0634569001414048e-16
  outer loop
    vertex 8.176593823754581 179.92765540328512 -5.639932965095795e-15
    vertex 8.1215961204475 180.345404434371 9.684349872793627
    vertex 8.1215961204475 180.345404434371 -7.049916206369744e-15
  endloop
endfacet
facet normal -0.9238795325113073 -0.38268343236504065 7.931105232738909e-16
  outer loop
    vertex 7.960351013118395 180.7346845593513 9.684349872793627
    vertex 8.1215961204475 180.345404434371 -7.049916206369744e-15
    vertex 8.1215961204475 180.345404434371 9.684349872793627
  endloop
endfacet
facet normal -0.9238795325113073 -0.38268343236504065 7.931105232738909e-16
  outer loop
    vertex 8.1215961204475 180.345404434371 -7.049916206369744e-15
    vertex 7.960351013118395 180.7346845593513 9.684349872793627
    vertex 7.960351013118442 180.73468455935128 -1.4099832412739487e-15
  endloop
endfacet
facet normal -0.7933533402911745 -0.6087614290087997 1.3204703509888889e-15
  outer loop
    vertex 7.703847089361651 181.0689669810244 9.684349872793625
    vertex 7.960351013118442 180.73468455935128 -1.4099832412739487e-15
    vertex 7.960351013118395 180.7346845593513 9.684349872793627
  endloop
endfacet
facet normal -0.7933533402911745 -0.6087614290087997 1.3204703509888889e-15
  outer loop
    vertex 7.960351013118442 180.73468455935128 -1.4099832412739487e-15
    vertex 7.703847089361651 181.0689669810244 9.684349872793625
    vertex 7.703847089361607 181.06896698102437 -8.459899447643692e-15
  endloop
endfacet
facet normal -0.6087614290086658 -0.7933533402912775 1.7592711479237385e-15
  outer loop
    vertex 7.703847089361651 181.0689669810244 9.684349872793625
    vertex 7.369564667688398 181.32547090478113 -8.459899447643692e-15
    vertex 7.703847089361607 181.06896698102437 -8.459899447643692e-15
  endloop
endfacet
facet normal -0.6087614290086658 -0.7933533402912775 1.7592711479237385e-15
  outer loop
    vertex 7.369564667688398 181.32547090478113 -8.459899447643692e-15
    vertex 7.703847089361651 181.0689669810244 9.684349872793625
    vertex 7.3695646676883975 181.32547090478113 9.68434987279362
  endloop
endfacet
facet normal -0.3826834323651034 -0.9238795325112812 2.0669959811866024e-15
  outer loop
    vertex 7.3695646676883975 181.32547090478113 9.68434987279362
    vertex 6.980284542708158 181.48671601211026 -2.8199664825478975e-15
    vertex 7.369564667688398 181.32547090478113 -8.459899447643692e-15
  endloop
endfacet
facet normal -0.3826834323651034 -0.9238795325112812 2.0669959811866024e-15
  outer loop
    vertex 6.980284542708158 181.48671601211026 -2.8199664825478975e-15
    vertex 7.3695646676883975 181.32547090478113 9.68434987279362
    vertex 6.980284542708156 181.48671601211026 9.684349872793625
  endloop
endfacet
facet normal -0.1305261922200588 -0.9914448613738095 2.242231299068928e-15
  outer loop
    vertex 6.980284542708158 181.48671601211026 -2.8199664825478975e-15
    vertex 6.562535511622355 181.54171371541742 9.684349872793623
    vertex 6.562535511622356 181.54171371541742 -9.86988268891764e-15
  endloop
endfacet
facet normal -0.1305261922200588 -0.9914448613738095 2.242231299068928e-15
  outer loop
    vertex 6.562535511622355 181.54171371541742 9.684349872793623
    vertex 6.980284542708158 181.48671601211026 -2.8199664825478975e-15
    vertex 6.980284542708156 181.48671601211026 9.684349872793625
  endloop
endfacet
facet normal 0.13052619222006223 -0.991444861373809 2.2639682766568307e-15
  outer loop
    vertex 6.562535511622355 181.54171371541742 9.684349872793623
    vertex 6.144786480536462 181.48671601211024 2.8199664825478975e-15
    vertex 6.562535511622356 181.54171371541742 -9.86988268891764e-15
  endloop
endfacet
facet normal 0.13052619222006223 -0.991444861373809 2.2639682766568307e-15
  outer loop
    vertex 6.144786480536462 181.48671601211024 2.8199664825478975e-15
    vertex 6.562535511622355 181.54171371541742 9.684349872793623
    vertex 6.144786480536461 181.48671601211026 9.684349872793625
  endloop
endfacet
facet normal 0.382683432365063 -0.9238795325112978 2.1272561278978392e-15
  outer loop
    vertex 6.144786480536462 181.48671601211024 2.8199664825478975e-15
    vertex 5.755506355556173 181.32547090478113 9.684349872793625
    vertex 5.755506355556175 181.32547090478113 -8.459899447643692e-15
  endloop
endfacet
facet normal 0.382683432365063 -0.9238795325112978 2.1272561278978392e-15
  outer loop
    vertex 5.755506355556173 181.32547090478113 9.684349872793625
    vertex 6.144786480536462 181.48671601211024 2.8199664825478975e-15
    vertex 6.144786480536461 181.48671601211026 9.684349872793625
  endloop
endfacet
facet normal 0.6087614290087063 -0.7933533402912462 1.8537113972681195e-15
  outer loop
    vertex 5.755506355556173 181.32547090478113 9.684349872793625
    vertex 5.421223933883059 181.0689669810244 -2.8199664825478975e-15
    vertex 5.755506355556175 181.32547090478113 -8.459899447643692e-15
  endloop
endfacet
facet normal 0.6087614290087063 -0.7933533402912462 1.8537113972681195e-15
  outer loop
    vertex 5.421223933883059 181.0689669810244 -2.8199664825478975e-15
    vertex 5.755506355556173 181.32547090478113 9.684349872793625
    vertex 5.421223933883058 181.0689669810244 9.684349872793613
  endloop
endfacet
facet normal 0.7933533402911992 -0.6087614290087677 1.4456513288430766e-15
  outer loop
    vertex 5.421223933883059 181.0689669810244 -2.8199664825478975e-15
    vertex 5.164720010126315 180.7346845593513 9.684349872793627
    vertex 5.16472001012627 180.73468455935128 -1.4099832412739487e-15
  endloop
endfacet
facet normal 0.7933533402911992 -0.6087614290087677 1.4456513288430766e-15
  outer loop
    vertex 5.164720010126315 180.7346845593513 9.684349872793627
    vertex 5.421223933883059 181.0689669810244 -2.8199664825478975e-15
    vertex 5.421223933883058 181.0689669810244 9.684349872793613
  endloop
endfacet
facet normal 0.9238795325113174 -0.3826834323650159 9.60845160427735e-16
  outer loop
    vertex 5.16472001012627 180.73468455935128 -1.4099832412739487e-15
    vertex 5.003474902797256 180.345404434371 9.684349872793627
    vertex 5.003474902797212 180.345404434371 4.229949723821846e-15
  endloop
endfacet
facet normal 0.9238795325113174 -0.3826834323650159 9.60845160427735e-16
  outer loop
    vertex 5.003474902797256 180.345404434371 9.684349872793627
    vertex 5.16472001012627 180.73468455935128 -1.4099832412739487e-15
    vertex 5.164720010126315 180.7346845593513 9.684349872793627
  endloop
endfacet
facet normal 0.9914448613738104 -0.13052619222005232 3.7145442692614806e-16
  outer loop
    vertex 5.003474902797212 180.345404434371 4.229949723821846e-15
    vertex 4.9484771994900845 179.92765540328514 9.684349872793627
    vertex 4.948477199490039 179.92765540328512 -5.639932965095795e-15
  endloop
endfacet
facet normal 0.9914448613738104 -0.13052619222005232 3.7145442692614806e-16
  outer loop
    vertex 4.9484771994900845 179.92765540328514 9.684349872793627
    vertex 5.003474902797212 180.345404434371 4.229949723821846e-15
    vertex 5.003474902797256 180.345404434371 9.684349872793627
  endloop
endfacet
facet normal 0.9914448613738049 0.13052619222009412 -2.2022347782255272e-16
  outer loop
    vertex 4.948477199490039 179.92765540328512 -5.639932965095795e-15
    vertex 5.003474902797256 179.50990637219928 9.684349872793629
    vertex 5.003474902797212 179.50990637219925 7.049916206369744e-15
  endloop
endfacet
facet normal 0.9914448613738049 0.13052619222009412 -2.2022347782255272e-16
  outer loop
    vertex 5.003474902797256 179.50990637219928 9.684349872793629
    vertex 4.948477199490039 179.92765540328512 -5.639932965095795e-15
    vertex 4.9484771994900845 179.92765540328514 9.684349872793627
  endloop
endfacet
facet normal 0.9238795325113119 0.38268343236502944 -8.069883110816743e-16
  outer loop
    vertex 5.003474902797212 179.50990637219925 7.049916206369744e-15
    vertex 5.164720010126361 179.12062624721898 9.684349872793629
    vertex 5.164720010126316 179.12062624721895 7.049916206369744e-15
  endloop
endfacet
facet normal 0.9238795325113119 0.38268343236502944 -8.069883110816743e-16
  outer loop
    vertex 5.164720010126361 179.12062624721898 9.684349872793629
    vertex 5.003474902797212 179.50990637219925 7.049916206369744e-15
    vertex 5.003474902797256 179.50990637219928 9.684349872793629
  endloop
endfacet
facet normal 0.7933533402912241 0.6087614290087352 -1.3135314570848002e-15
  outer loop
    vertex 5.164720010126316 179.12062624721895 7.049916206369744e-15
    vertex 5.421223933883058 178.78634382554588 9.68434987279362
    vertex 5.421223933883059 178.78634382554586 2.8199664825478975e-15
  endloop
endfacet
facet normal 0.7933533402912241 0.6087614290087352 -1.3135314570848002e-15
  outer loop
    vertex 5.421223933883058 178.78634382554588 9.68434987279362
    vertex 5.164720010126316 179.12062624721895 7.049916206369744e-15
    vertex 5.164720010126361 179.12062624721898 9.684349872793629
  endloop
endfacet
facet normal 0.6087614290087134 0.7933533402912407 -1.7523322540197271e-15
  outer loop
    vertex 5.421223933883059 178.78634382554586 2.8199664825478975e-15
    vertex 5.755506355556173 178.52983990178916 9.68434987279363
    vertex 5.755506355556175 178.52983990178913 -2.8199664825478975e-15
  endloop
endfacet
facet normal 0.6087614290087134 0.7933533402912407 -1.7523322540197271e-15
  outer loop
    vertex 5.755506355556173 178.52983990178916 9.68434987279363
    vertex 5.421223933883059 178.78634382554586 2.8199664825478975e-15
    vertex 5.421223933883058 178.78634382554588 9.68434987279362
  endloop
endfacet
facet normal 0.3826834323650397 0.9238795325113075 -2.0669959811866797e-15
  outer loop
    vertex 5.755506355556173 178.52983990178916 9.68434987279363
    vertex 6.1447864805365535 178.36859479446 9.86988268891764e-15
    vertex 5.755506355556175 178.52983990178913 -2.8199664825478975e-15
  endloop
endfacet
facet normal 0.3826834323650397 0.9238795325113075 -2.0669959811866797e-15
  outer loop
    vertex 6.1447864805365535 178.36859479446 9.86988268891764e-15
    vertex 5.755506355556173 178.52983990178916 9.68434987279363
    vertex 6.144786480536553 178.36859479446002 9.684349872793632
  endloop
endfacet
facet normal 0.13052619222003825 0.9914448613738122 -2.2422312990689378e-15
  outer loop
    vertex 6.1447864805365535 178.36859479446 9.86988268891764e-15
    vertex 6.562535511622309 178.31359709115287 9.684349872793632
    vertex 6.56253551162231 178.31359709115284 -1.4099832412739487e-15
  endloop
endfacet
facet normal 0.13052619222003825 0.9914448613738122 -2.2422312990689378e-15
  outer loop
    vertex 6.562535511622309 178.31359709115287 9.684349872793632
    vertex 6.1447864805365535 178.36859479446 9.86988268891764e-15
    vertex 6.144786480536553 178.36859479446002 9.684349872793632
  endloop
endfacet
facet normal -0.13052619222006223 0.991444861373809 -2.2639682766568307e-15
  outer loop
    vertex 6.562535511622309 178.31359709115287 9.684349872793632
    vertex 6.980284542708203 178.36859479446002 9.86988268891764e-15
    vertex 6.56253551162231 178.31359709115284 -1.4099832412739487e-15
  endloop
endfacet
facet normal -0.13052619222006223 0.991444861373809 -2.2639682766568307e-15
  outer loop
    vertex 6.980284542708203 178.36859479446002 9.86988268891764e-15
    vertex 6.562535511622309 178.31359709115287 9.684349872793632
    vertex 6.980284542708201 178.36859479446002 9.684349872793627
  endloop
endfacet
facet normal -0.3826834323650181 0.9238795325113165 -2.127256127897887e-15
  outer loop
    vertex 6.980284542708203 178.36859479446002 9.86988268891764e-15
    vertex 7.369564667688535 178.52983990178916 9.68434987279362
    vertex 7.369564667688537 178.52983990178913 -2.8199664825478975e-15
  endloop
endfacet
facet normal -0.3826834323650181 0.9238795325113165 -2.127256127897887e-15
  outer loop
    vertex 7.369564667688535 178.52983990178916 9.68434987279362
    vertex 6.980284542708203 178.36859479446002 9.86988268891764e-15
    vertex 6.980284542708201 178.36859479446002 9.684349872793627
  endloop
endfacet
facet normal -0.6087614290087637 0.7933533402912023 -1.8467725033640967e-15
  outer loop
    vertex 7.369564667688535 178.52983990178916 9.68434987279362
    vertex 7.703847089361561 178.78634382554586 -2.8199664825478975e-15
    vertex 7.369564667688537 178.52983990178913 -2.8199664825478975e-15
  endloop
endfacet
facet normal -0.6087614290087637 0.7933533402912023 -1.8467725033640967e-15
  outer loop
    vertex 7.703847089361561 178.78634382554586 -2.8199664825478975e-15
    vertex 7.369564667688535 178.52983990178916 9.68434987279362
    vertex 7.703847089361605 178.78634382554588 9.68434987279363
  endloop
endfacet
facet normal -0.7933533402912454 0.6087614290087073 -1.4387124349390077e-15
  outer loop
    vertex 7.960351013118303 179.12062624721898 9.684349872793629
    vertex 7.703847089361561 178.78634382554586 -2.8199664825478975e-15
    vertex 7.703847089361605 178.78634382554588 9.68434987279363
  endloop
endfacet
facet normal -0.7933533402912454 0.6087614290087073 -1.4387124349390077e-15
  outer loop
    vertex 7.703847089361561 178.78634382554586 -2.8199664825478975e-15
    vertex 7.960351013118303 179.12062624721898 9.684349872793629
    vertex 7.96035101311835 179.12062624721895 7.049916206369744e-15
  endloop
endfacet
facet normal -0.923879532511278 0.3826834323651113 -9.469673726201792e-16
  outer loop
    vertex 8.121596120447453 179.50990637219928 9.684349872793629
    vertex 7.96035101311835 179.12062624721895 7.049916206369744e-15
    vertex 7.960351013118303 179.12062624721898 9.684349872793629
  endloop
endfacet
facet normal -0.923879532511278 0.3826834323651113 -9.469673726201792e-16
  outer loop
    vertex 7.96035101311835 179.12062624721895 7.049916206369744e-15
    vertex 8.121596120447453 179.50990637219928 9.684349872793629
    vertex 8.121596120447455 179.50990637219925 7.049916206369744e-15
  endloop
endfacet
endsolid Izzy Hold Down Clamp Small
