solid Izzy Hold Down Clamp Small
facet normal -9.48505316072322e-17 -3.7211493150923325e-16 -1.0
  outer loop
    vertex 158.0298251662862 1.9797198033032686 -2.1140740053248743e-15
    vertex 157.95625 -1.127986593019159e-14 -1.3704120626758682e-15
    vertex 157.9470916834369 0.9915674550161998 -1.7385204470913712e-15
  endloop
endfacet
facet normal -9.48505316072322e-17 -3.7211493150923325e-16 -1.0
  outer loop
    vertex 157.95625 -1.127986593019159e-14 -1.3704120626758682e-15
    vertex 158.0298251662862 1.9797198033032686 -2.1140740053248743e-15
    vertex 270.96990823453825 0.0 -1.208981762509987e-14
  endloop
endfacet
facet normal -9.48505316072322e-17 -3.7211493150923325e-16 -1.0
  outer loop
    vertex 270.96990823453825 0.0 -1.208981762509987e-14
    vertex 158.0298251662862 1.9797198033032686 -2.1140740053248743e-15
    vertex 158.20373898496385 2.9559594645967415 -2.4938431781791127e-15
  endloop
endfacet
facet normal -9.48505316072322e-17 -3.7211493150923325e-16 -1.0
  outer loop
    vertex 270.96990823453825 0.0 -1.208981762509987e-14
    vertex 158.20373898496385 2.9559594645967415 -2.4938431781791127e-15
    vertex 158.46733757389666 3.9118913013519703 -2.8745621544319723e-15
  endloop
endfacet
facet normal -9.48505316072322e-17 -3.7211493150923325e-16 -1.0
  outer loop
    vertex 270.96990823453825 0.0 -1.208981762509987e-14
    vertex 158.46733757389666 3.9118913013519703 -2.8745621544319723e-15
    vertex 158.8183541265837 4.839294812424264 -3.2529569550613648e-15
  endloop
endfacet
facet normal -9.48505316072322e-17 -3.7211493150923325e-16 -1.0
  outer loop
    vertex 270.96990823453825 0.0 -1.208981762509987e-14
    vertex 158.8183541265837 4.839294812424264 -3.2529569550613648e-15
    vertex 159.2537700889167 5.73019482497069 -3.625773587709211e-15
  endloop
endfacet
facet normal -9.48505316072322e-17 -3.7211493150923325e-16 -1.0
  outer loop
    vertex 270.96990823453825 0.0 -1.208981762509987e-14
    vertex 159.2537700889167 5.73019482497069 -3.625773587709211e-15
    vertex 159.76984111712636 6.576930076659291 -3.98980602927055e-15
  endloop
endfacet
facet normal -9.48505316072322e-17 -3.7211493150923325e-16 -1.0
  outer loop
    vertex 270.96990823453825 0.0 -1.208981762509987e-14
    vertex 159.76984111712636 6.576930076659291 -3.98980602927055e-15
    vertex 160.36212927713112 7.37221909841667 -4.3419237959729584e-15
  endloop
endfacet
facet normal -9.48505316072322e-17 -3.7211493150923325e-16 -1.0
  outer loop
    vertex 270.96990823453825 0.0 -1.208981762509987e-14
    vertex 160.36212927713112 7.37221909841667 -4.3419237959729584e-15
    vertex 161.02554120838985 8.10922283115694 -4.679098863858127e-15
  endloop
endfacet
facet normal -9.48505316072322e-17 -3.7211493150923325e-16 -1.0
  outer loop
    vertex 270.96990823453825 0.0 -1.208981762509987e-14
    vertex 161.02554120838985 8.10922283115694 -4.679098863858127e-15
    vertex 161.75437192407142 8.781603438022286 -4.998431708164037e-15
  endloop
endfacet
facet normal -9.48505316072322e-17 -3.7211493150923325e-16 -1.0
  outer loop
    vertex 270.96990823453825 0.0 -1.208981762509987e-14
    vertex 161.75437192407142 8.781603438022286 -4.998431708164037e-15
    vertex 162.54235387088178 9.383578806381067 -5.297176237682975e-15
  endloop
endfacet
facet normal -9.48505316072322e-17 -3.7211493150923325e-16 -1.0
  outer loop
    vertex 270.96990823453825 0.0 -1.208981762509987e-14
    vertex 162.54235387088178 9.383578806381067 -5.297176237682975e-15
    vertex 163.38271082666068 9.909972270895507 -5.5727634096731375e-15
  endloop
endfacet
facet normal -9.48505316072322e-17 -3.7211493150923325e-16 -1.0
  outer loop
    vertex 270.96990823453825 0.0 -1.208981762509987e-14
    vertex 163.38271082666068 9.909972270895507 -5.5727634096731375e-15
    vertex 165.41134956101078 10.805715088866108 -6.098500149424286e-15
  endloop
endfacet
facet normal -9.48505316072322e-17 -3.7211493150923325e-16 -1.0
  outer loop
    vertex 270.96990823453825 0.0 -1.208981762509987e-14
    vertex 165.41134956101078 10.805715088866108 -6.098500149424286e-15
    vertex 167.4019264217164 11.783127014348382 -6.651016994574412e-15
  endloop
endfacet
facet normal -9.48505316072322e-17 -3.7211493150923325e-16 -1.0
  outer loop
    vertex 270.96990823453825 0.0 -1.208981762509987e-14
    vertex 167.4019264217164 11.783127014348382 -6.651016994574412e-15
    vertex 169.35115521871575 12.840594464154886 -7.229401809851917e-15
  endloop
endfacet
facet normal -9.48505316072322e-17 -3.7211493150923325e-16 -1.0
  outer loop
    vertex 270.96990823453825 0.0 -1.208981762509987e-14
    vertex 169.35115521871575 12.840594464154886 -7.229401809851917e-15
    vertex 171.25581802235857 13.976371693575768 -7.83269975524566e-15
  endloop
endfacet
facet normal -9.48505316072322e-17 -3.7211493150923325e-16 -1.0
  outer loop
    vertex 270.96990823453825 0.0 -1.208981762509987e-14
    vertex 171.25581802235857 13.976371693575768 -7.83269975524566e-15
    vertex 173.11277047580057 15.188583678381896 -8.459914862324791e-15
  endloop
endfacet
facet normal -9.48505316072322e-17 -3.7211493150923325e-16 -1.0
  outer loop
    vertex 270.96990823453825 0.0 -1.208981762509987e-14
    vertex 173.11277047580057 15.188583678381896 -8.459914862324791e-15
    vertex 174.9189469859374 16.475229210252202 -9.110011678456342e-15
  endloop
endfacet
facet normal -9.48505316072322e-17 -3.7211493150923325e-16 -1.0
  outer loop
    vertex 270.96990823453825 0.0 -1.208981762509987e-14
    vertex 174.9189469859374 16.475229210252202 -9.110011678456342e-15
    vertex 176.67136578431038 17.8341842005151 -9.781916976206334e-15
  endloop
endfacet
facet normal -9.48505316072322e-17 -3.7211493150923325e-16 -1.0
  outer loop
    vertex 270.96990823453825 0.0 -1.208981762509987e-14
    vertex 176.67136578431038 17.8341842005151 -9.781916976206334e-15
    vertex 178.36713384962886 19.26320518674936 -1.0474521525102177e-14
  endloop
endfacet
facet normal -9.48505316072322e-17 -3.7211493150923325e-16 -1.0
  outer loop
    vertex 270.96990823453825 0.0 -1.208981762509987e-14
    vertex 178.36713384962886 19.26320518674936 -1.0474521525102177e-14
    vertex 201.10322715971694 15.008889948100663 -1.104795783858722e-14
  endloop
endfacet
facet normal -9.48505316072322e-17 -3.7211493150923325e-16 -1.0
  outer loop
    vertex 201.10322715971694 15.008889948100663 -1.104795783858722e-14
    vertex 178.36713384962886 19.26320518674936 -1.0474521525102177e-14
    vertex 200.02050514662668 15.253353116751493 -1.103622947532179e-14
  endloop
endfacet
facet normal -9.48505316072322e-17 -3.7211493150923325e-16 -1.0
  outer loop
    vertex 200.02050514662668 15.253353116751493 -1.103622947532179e-14
    vertex 178.36713384962886 19.26320518674936 -1.0474521525102177e-14
    vertex 180.0034516837805 20.75993303645641 -1.1186681922831558e-14
  endloop
endfacet
facet normal -9.48505316072322e-17 -3.7211493150923325e-16 -1.0
  outer loop
    vertex 200.02050514662668 15.253353116751493 -1.103622947532179e-14
    vertex 180.0034516837805 20.75993303645641 -1.1186681922831558e-14
    vertex 198.95816300212473 15.575033651556447 -1.1055167888343816e-14
  endloop
endfacet
facet normal -9.48505316072322e-17 -3.7211493150923325e-16 -1.0
  outer loop
    vertex 198.95816300212473 15.575033651556447 -1.1055167888343816e-14
    vertex 180.0034516837805 20.75993303645641 -1.1186681922831558e-14
    vertex 197.92170007656213 15.972266331973335 -1.1104675040529574e-14
  endloop
endfacet
facet normal -9.48505316072322e-17 -3.7211493150923325e-16 -1.0
  outer loop
    vertex 197.92170007656213 15.972266331973335 -1.1104675040529574e-14
    vertex 180.0034516837805 20.75993303645641 -1.1186681922831558e-14
    vertex 181.57761793344898 22.3218968416889 -1.1917222482854766e-14
  endloop
endfacet
facet normal -9.48505316072322e-17 -3.7211493150923325e-16 -1.0
  outer loop
    vertex 197.92170007656213 15.972266331973335 -1.1104675040529574e-14
    vertex 181.57761793344898 22.3218968416889 -1.1917222482854766e-14
    vertex 196.91648175319355 16.442994832089006 -1.1184494651756722e-14
  endloop
endfacet
facet normal -9.48505316072322e-17 -3.7211493150923325e-16 -1.0
  outer loop
    vertex 196.91648175319355 16.442994832089006 -1.1184494651756722e-14
    vertex 181.57761793344898 22.3218968416889 -1.1917222482854766e-14
    vertex 183.087033849705 23.946517998206527 -1.2664937175314075e-14
  endloop
endfacet
facet normal -9.48505316072322e-17 -3.7211493150923325e-16 -1.0
  outer loop
    vertex 196.91648175319355 16.442994832089006 -1.1184494651756722e-14
    vertex 183.087033849705 23.946517998206527 -1.2664937175314075e-14
    vertex 195.9477116735837 16.984782365454272 -1.1294213525571316e-14
  endloop
endfacet
facet normal -9.48505316072322e-17 -3.7211493150923325e-16 -1.0
  outer loop
    vertex 195.9477116735837 16.984782365454272 -1.1294213525571316e-14
    vertex 183.087033849705 23.946517998206527 -1.2664937175314075e-14
    vertex 195.02040480028938 17.5948242994213 -1.1433263688152211e-14
  endloop
endfacet
facet normal -9.48505316072322e-17 -3.7211493150923325e-16 -1.0
  outer loop
    vertex 195.02040480028938 17.5948242994213 -1.1433263688152211e-14
    vertex 183.087033849705 23.946517998206527 -1.2664937175314075e-14
    vertex 184.52920757821187 25.631114462424758 -1.3428591618036197e-14
  endloop
endfacet
facet normal -9.48505316072322e-17 -3.7211493150923325e-16 -1.0
  outer loop
    vertex 195.02040480028938 17.5948242994213 -1.1433263688152211e-14
    vertex 184.52920757821187 25.631114462424758 -1.3428591618036197e-14
    vertex 194.1393614562622 18.269962673684358 -1.1600925328500374e-14
  endloop
endfacet
facet normal -9.48505316072322e-17 -3.7211493150923325e-16 -1.0
  outer loop
    vertex 270.96990823453825 0.0 -1.208981762509987e-14
    vertex 201.10322715971694 15.008889948100663 -1.104795783858722e-14
    vertex 202.20072419204178 14.842909640547548 -1.1090292264763583e-14
  endloop
endfacet
facet normal -9.48505316072322e-17 -3.7211493150923325e-16 -1.0
  outer loop
    vertex 270.96990823453825 0.0 -1.208981762509987e-14
    vertex 202.20072419204178 14.842909640547548 -1.1090292264763583e-14
    vertex 203.30731490946513 14.756271412440313 -1.116301360426461e-14
  endloop
endfacet
facet normal -9.48505316072322e-17 -3.7211493150923325e-16 -1.0
  outer loop
    vertex 270.96990823453825 0.0 -1.208981762509987e-14
    vertex 203.30731490946513 14.756271412440313 -1.116301360426461e-14
    vertex 204.41727090322394 14.749423757677611 -1.1265745405750245e-14
  endloop
endfacet
facet normal -9.48505316072322e-17 -3.7211493150923325e-16 -1.0
  outer loop
    vertex 270.96990823453825 0.0 -1.208981762509987e-14
    vertex 204.41727090322394 14.749423757677611 -1.1265745405750245e-14
    vertex 205.524846343771 14.822402124022515 -1.1397955864875338e-14
  endloop
endfacet
facet normal -9.48505316072322e-17 -3.7211493150923325e-16 -1.0
  outer loop
    vertex 270.96990823453825 0.0 -1.208981762509987e-14
    vertex 205.524846343771 14.822402124022515 -1.1397955864875338e-14
    vertex 206.62430772479746 14.974828729602542 -1.1558960577242915e-14
  endloop
endfacet
facet normal -9.48505316072322e-17 -3.7211493150923325e-16 -1.0
  outer loop
    vertex 270.96990823453825 0.0 -1.208981762509987e-14
    vertex 206.62430772479746 14.974828729602542 -1.1558960577242915e-14
    vertex 209.74155590424348 15.674622619628227 -1.2115036979672535e-14
  endloop
endfacet
facet normal -9.48505316072322e-17 -3.7211493150923325e-16 -1.0
  outer loop
    vertex 270.96990823453825 0.0 -1.208981762509987e-14
    vertex 209.74155590424348 15.674622619628227 -1.2115036979672535e-14
    vertex 212.8856131852813 16.241942207101193 -1.2624360573618913e-14
  endloop
endfacet
facet normal -9.48505316072322e-17 -3.7211493150923325e-16 -1.0
  outer loop
    vertex 270.96990823453825 0.0 -1.208981762509987e-14
    vertex 212.8856131852813 16.241942207101193 -1.2624360573618913e-14
    vertex 216.05085240387493 16.675772115998026 -1.308601978300238e-14
  endloop
endfacet
facet normal -9.48505316072322e-17 -3.7211493150923325e-16 -1.0
  outer loop
    vertex 270.96990823453825 0.0 -1.208981762509987e-14
    vertex 216.05085240387493 16.675772115998026 -1.308601978300238e-14
    vertex 219.2316084850265 16.97533588716336 -1.3499188340402376e-14
  endloop
endfacet
facet normal -9.48505316072322e-17 -3.7211493150923325e-16 -1.0
  outer loop
    vertex 270.96990823453825 0.0 -1.208981762509987e-14
    vertex 219.2316084850265 16.97533588716336 -1.3499188340402376e-14
    vertex 222.42218858200098 17.14009736799915 -1.3863126765892429e-14
  endloop
endfacet
facet normal -9.48505316072322e-17 -3.7211493150923325e-16 -1.0
  outer loop
    vertex 270.96990823453825 0.0 -1.208981762509987e-14
    vertex 222.42218858200098 17.14009736799915 -1.3863126765892429e-14
    vertex 225.61688226525803 17.16976167205885 -1.417718369054507e-14
  endloop
endfacet
facet normal -9.48505316072322e-17 -3.7211493150923325e-16 -1.0
  outer loop
    vertex 270.96990823453825 0.0 -1.208981762509987e-14
    vertex 225.61688226525803 17.16976167205885 -1.417718369054507e-14
    vertex 228.8099717428513 17.064275706828486 -1.4440797022237372e-14
  endloop
endfacet
facet normal -9.48505316072322e-17 -3.7211493150923325e-16 -1.0
  outer loop
    vertex 270.96990823453825 0.0 -1.208981762509987e-14
    vertex 228.8099717428513 17.064275706828486 -1.4440797022237372e-14
    vertex 231.99574209400637 16.823828268750677 -1.4653494951671097e-14
  endloop
endfacet
facet normal -9.48505316072322e-17 -3.7211493150923325e-16 -1.0
  outer loop
    vertex 270.96990823453825 0.0 -1.208981762509987e-14
    vertex 231.99574209400637 16.823828268750677 -1.4653494951671097e-14
    vertex 235.16849149755924 16.448849705320704 -1.481489679680644e-14
  endloop
endfacet
facet normal -9.48505316072322e-17 -3.7211493150923325e-16 -1.0
  outer loop
    vertex 270.96990823453825 0.0 -1.208981762509987e-14
    vertex 235.16849149755924 16.448849705320704 -1.481489679680644e-14
    vertex 238.32254143694914 15.940011144860243 -1.4924713684198328e-14
  endloop
endfacet
facet normal -9.48505316072322e-17 -3.7211493150923325e-16 -1.0
  outer loop
    vertex 270.96990823453825 0.0 -1.208981762509987e-14
    vertex 238.32254143694914 15.940011144860243 -1.4924713684198328e-14
    vertex 241.452246863502 15.29822329534679 -1.498274906601575e-14
  endloop
endfacet
facet normal -9.48505316072322e-17 -3.7211493150923325e-16 -1.0
  outer loop
    vertex 270.96990823453825 0.0 -1.208981762509987e-14
    vertex 241.452246863502 15.29822329534679 -1.498274906601575e-14
    vertex 244.552006299813 14.524634814448612 -1.498889907181862e-14
  endloop
endfacet
facet normal -9.48505316072322e-17 -3.7211493150923325e-16 -1.0
  outer loop
    vertex 270.96990823453825 0.0 -1.208981762509987e-14
    vertex 244.552006299813 14.524634814448612 -1.498889907181862e-14
    vertex 246.708534935842 13.748870957137076 -1.4904773644741373e-14
  endloop
endfacet
facet normal -9.48505316072322e-17 -3.7211493150923325e-16 -1.0
  outer loop
    vertex 270.96990823453825 0.0 -1.208981762509987e-14
    vertex 246.708534935842 13.748870957137076 -1.4904773644741373e-14
    vertex 248.87984255784315 13.015489384580992 -1.4837821093329172e-14
  endloop
endfacet
facet normal -9.48505316072322e-17 -3.7211493150923325e-16 -1.0
  outer loop
    vertex 270.96990823453825 0.0 -1.208981762509987e-14
    vertex 248.87984255784315 13.015489384580992 -1.4837821093329172e-14
    vertex 251.06509631581892 12.324771400467817 -1.4788067098619412e-14
  endloop
endfacet
facet normal -9.48505316072322e-17 -3.7211493150923325e-16 -1.0
  outer loop
    vertex 270.96990823453825 0.0 -1.208981762509987e-14
    vertex 251.06509631581892 12.324771400467817 -1.4788067098619412e-14
    vertex 253.263458010443 11.676981943982188 -1.4755530744786923e-14
  endloop
endfacet
facet normal -9.48505316072322e-17 -3.7211493150923325e-16 -1.0
  outer loop
    vertex 270.96990823453825 0.0 -1.208981762509987e-14
    vertex 253.263458010443 11.676981943982188 -1.4755530744786923e-14
    vertex 255.47408441456864 11.072369488183236 -1.474022451182397e-14
  endloop
endfacet
facet normal -9.48505316072322e-17 -3.7211493150923325e-16 -1.0
  outer loop
    vertex 270.96990823453825 0.0 -1.208981762509987e-14
    vertex 255.47408441456864 11.072369488183236 -1.474022451182397e-14
    vertex 257.6961275966656 10.511165944697321 -1.474215427075309e-14
  endloop
endfacet
facet normal -9.48505316072322e-17 -3.7211493150923325e-16 -1.0
  outer loop
    vertex 270.96990823453825 0.0 -1.208981762509987e-14
    vertex 257.6961275966656 10.511165944697321 -1.474215427075309e-14
    vertex 259.92873524606205 9.99358657476378 -1.4761319281375304e-14
  endloop
endfacet
facet normal -9.48505316072322e-17 -3.7211493150923325e-16 -1.0
  outer loop
    vertex 270.96990823453825 0.0 -1.208981762509987e-14
    vertex 259.92873524606205 9.99358657476378 -1.4761319281375304e-14
    vertex 262.1710509998662 9.519829906666864 -1.4797712192553976e-14
  endloop
endfacet
facet normal -9.48505316072322e-17 -3.7211493150923325e-16 -1.0
  outer loop
    vertex 270.96990823453825 0.0 -1.208981762509987e-14
    vertex 262.1710509998662 9.519829906666864 -1.4797712192553976e-14
    vertex 264.42221477144165 9.090077659586106 -1.485131904503445e-14
  endloop
endfacet
facet normal -9.48505316072322e-17 -3.7211493150923325e-16 -1.0
  outer loop
    vertex 270.96990823453825 0.0 -1.208981762509987e-14
    vertex 264.42221477144165 9.090077659586106 -1.485131904503445e-14
    vertex 266.68136308031154 8.704494673894244 -1.4922119276798488e-14
  endloop
endfacet
facet normal -9.48505316072322e-17 -3.7211493150923325e-16 -1.0
  outer loop
    vertex 270.96990823453825 0.0 -1.208981762509987e-14
    vertex 266.68136308031154 8.704494673894244 -1.4922119276798488e-14
    vertex 268.9476293833645 8.363228847929344 -1.5010085730951246e-14
  endloop
endfacet
facet normal -9.48505316072322e-17 -3.7211493150923325e-16 -1.0
  outer loop
    vertex 270.96990823453825 0.0 -1.208981762509987e-14
    vertex 268.9476293833645 8.363228847929344 -1.5010085730951246e-14
    vertex 271.22014440723495 8.066411081265016 -1.511518466613776e-14
  endloop
endfacet
facet normal -9.48505316072322e-17 -3.7211493150923325e-16 -1.0
  outer loop
    vertex 270.96990823453825 0.0 -1.208981762509987e-14
    vertex 271.22014440723495 8.066411081265016 -1.511518466613776e-14
    vertex 271.6536157237351 0.44204208294133346 -1.2319158103331951e-14
  endloop
endfacet
facet normal -9.48505316072322e-17 -3.7211493150923325e-16 -1.0
  outer loop
    vertex 271.6536157237351 0.44204208294133346 -1.2319158103331951e-14
    vertex 271.22014440723495 8.066411081265016 -1.511518466613776e-14
    vertex 271.8751375233412 7.58283983343446 -1.4997367029633216e-14
  endloop
endfacet
facet normal -9.48505316072322e-17 -3.7211493150923325e-16 -1.0
  outer loop
    vertex 271.6536157237351 0.44204208294133346 -1.2319158103331951e-14
    vertex 271.8751375233412 7.58283983343446 -1.4997367029633216e-14
    vertex 272.2495800173287 0.9967345154086741 -1.2582094969914506e-14
  endloop
endfacet
facet normal -9.48505316072322e-17 -3.7211493150923325e-16 -1.0
  outer loop
    vertex 272.2495800173287 0.9967345154086741 -1.2582094969914506e-14
    vertex 271.8751375233412 7.58283983343446 -1.4997367029633216e-14
    vertex 272.43557360566984 6.992273553073661 -1.4830766159005842e-14
  endloop
endfacet
facet normal -9.48505316072322e-17 -3.7211493150923325e-16 -1.0
  outer loop
    vertex 272.2495800173287 0.9967345154086741 -1.2582094969914506e-14
    vertex 272.43557360566984 6.992273553073661 -1.4830766159005842e-14
    vertex 272.7394697174093 1.647015389823763 -1.2870540491440788e-14
  endloop
endfacet
facet normal -9.48505316072322e-17 -3.7211493150923325e-16 -1.0
  outer loop
    vertex 272.7394697174093 1.647015389823763 -1.2870540491440788e-14
    vertex 272.43557360566984 6.992273553073661 -1.4830766159005842e-14
    vertex 272.8842140764424 6.3128775994060415 -1.4620506567392462e-14
  endloop
endfacet
facet normal -9.48505316072322e-17 -3.7211493150923325e-16 -1.0
  outer loop
    vertex 272.7394697174093 1.647015389823763 -1.2870540491440788e-14
    vertex 272.8842140764424 6.3128775994060415 -1.4620506567392462e-14
    vertex 273.2072591038962 5.565549663281368 -1.437305567621356e-14
  endloop
endfacet
facet normal -9.48505316072322e-17 -3.7211493150923325e-16 -1.0
  outer loop
    vertex 272.7394697174093 1.647015389823763 -1.2870540491440788e-14
    vertex 273.2072591038962 5.565549663281368 -1.437305567621356e-14
    vertex 273.10821619801925 2.3728825725181344 -1.3175622308128061e-14
  endloop
endfacet
facet normal -9.48505316072322e-17 -3.7211493150923325e-16 -1.0
  outer loop
    vertex 273.10821619801925 2.3728825725181344 -1.3175622308128061e-14
    vertex 273.2072591038962 5.565549663281368 -1.437305567621356e-14
    vertex 273.3947720743706 4.7732769704672835 -1.4096024882323161e-14
  endloop
endfacet
facet normal -9.48505316072322e-17 -3.7211493150923325e-16 -1.0
  outer loop
    vertex 273.10821619801925 2.3728825725181344 -1.3175622308128061e-14
    vertex 273.3947720743706 4.7732769704672835 -1.4096024882323161e-14
    vertex 273.3444771043624 3.152008953799739 -1.3487956340700357e-14
  endloop
endfacet
facet normal -9.48505316072322e-17 -3.7211493150923325e-16 -1.0
  outer loop
    vertex 273.3444771043624 3.152008953799739 -1.3487956340700357e-14
    vertex 273.3947720743706 4.7732769704672835 -1.4096024882323161e-14
    vertex 273.44098523481046 3.9604292124724734 -1.3797935437364452e-14
  endloop
endfacet
facet normal 9.48505316072322e-17 3.7211493150923325e-16 1.0
  outer loop
    vertex 157.95625 -5.639932965095795e-15 9.68434987279362
    vertex 158.0298251662862 1.9797198033032715 9.68434987279362
    vertex 157.9470916834369 0.9915674550162055 9.68434987279362
  endloop
endfacet
facet normal 9.48505316072322e-17 3.7211493150923325e-16 1.0
  outer loop
    vertex 158.0298251662862 1.9797198033032715 9.68434987279362
    vertex 157.95625 -5.639932965095795e-15 9.68434987279362
    vertex 270.96990823453825 5.639932965095795e-15 9.684349872793609
  endloop
endfacet
facet normal 9.48505316072322e-17 3.7211493150923325e-16 1.0
  outer loop
    vertex 158.0298251662862 1.9797198033032715 9.68434987279362
    vertex 270.96990823453825 5.639932965095795e-15 9.684349872793609
    vertex 158.20373898496385 2.9559594645967446 9.68434987279362
  endloop
endfacet
facet normal 9.48505316072322e-17 3.7211493150923325e-16 1.0
  outer loop
    vertex 158.20373898496385 2.9559594645967446 9.68434987279362
    vertex 270.96990823453825 5.639932965095795e-15 9.684349872793609
    vertex 158.46733757389666 3.911891301351973 9.68434987279362
  endloop
endfacet
facet normal 9.48505316072322e-17 3.7211493150923325e-16 1.0
  outer loop
    vertex 158.46733757389666 3.911891301351973 9.68434987279362
    vertex 270.96990823453825 5.639932965095795e-15 9.684349872793609
    vertex 158.8183541265837 4.839294812424266 9.68434987279362
  endloop
endfacet
facet normal 9.48505316072322e-17 3.7211493150923325e-16 1.0
  outer loop
    vertex 158.8183541265837 4.839294812424266 9.68434987279362
    vertex 270.96990823453825 5.639932965095795e-15 9.684349872793609
    vertex 159.2537700889167 5.730194824970693 9.684349872793618
  endloop
endfacet
facet normal 9.48505316072322e-17 3.7211493150923325e-16 1.0
  outer loop
    vertex 159.2537700889167 5.730194824970693 9.684349872793618
    vertex 270.96990823453825 5.639932965095795e-15 9.684349872793609
    vertex 159.76984111712636 6.576930076659294 9.684349872793618
  endloop
endfacet
facet normal 9.48505316072322e-17 3.7211493150923325e-16 1.0
  outer loop
    vertex 159.76984111712636 6.576930076659294 9.684349872793618
    vertex 270.96990823453825 5.639932965095795e-15 9.684349872793609
    vertex 160.36212927713112 7.3722190984166724 9.684349872793618
  endloop
endfacet
facet normal 9.48505316072322e-17 3.7211493150923325e-16 1.0
  outer loop
    vertex 160.36212927713112 7.3722190984166724 9.684349872793618
    vertex 270.96990823453825 5.639932965095795e-15 9.684349872793609
    vertex 161.02554120838985 8.109222831156943 9.684349872793618
  endloop
endfacet
facet normal 9.48505316072322e-17 3.7211493150923325e-16 1.0
  outer loop
    vertex 161.02554120838985 8.109222831156943 9.684349872793618
    vertex 270.96990823453825 5.639932965095795e-15 9.684349872793609
    vertex 161.75437192407142 8.781603438022287 9.684349872793616
  endloop
endfacet
facet normal 9.48505316072322e-17 3.7211493150923325e-16 1.0
  outer loop
    vertex 161.75437192407142 8.781603438022287 9.684349872793616
    vertex 270.96990823453825 5.639932965095795e-15 9.684349872793609
    vertex 162.54235387088178 9.383578806381069 9.684349872793616
  endloop
endfacet
facet normal 9.48505316072322e-17 3.7211493150923325e-16 1.0
  outer loop
    vertex 162.54235387088178 9.383578806381069 9.684349872793616
    vertex 270.96990823453825 5.639932965095795e-15 9.684349872793609
    vertex 163.38271082666068 9.909972270895508 9.684349872793616
  endloop
endfacet
facet normal 9.48505316072322e-17 3.7211493150923325e-16 1.0
  outer loop
    vertex 163.38271082666068 9.909972270895508 9.684349872793616
    vertex 270.96990823453825 5.639932965095795e-15 9.684349872793609
    vertex 165.41134956101078 10.805715088866112 9.684349872793616
  endloop
endfacet
facet normal 9.48505316072322e-17 3.7211493150923325e-16 1.0
  outer loop
    vertex 165.41134956101078 10.805715088866112 9.684349872793616
    vertex 270.96990823453825 5.639932965095795e-15 9.684349872793609
    vertex 167.4019264217164 11.783127014348384 9.684349872793614
  endloop
endfacet
facet normal 9.48505316072322e-17 3.7211493150923325e-16 1.0
  outer loop
    vertex 167.4019264217164 11.783127014348384 9.684349872793614
    vertex 270.96990823453825 5.639932965095795e-15 9.684349872793609
    vertex 169.35115521871575 12.84059446415489 9.684349872793614
  endloop
endfacet
facet normal 9.48505316072322e-17 3.7211493150923325e-16 1.0
  outer loop
    vertex 169.35115521871575 12.84059446415489 9.684349872793614
    vertex 270.96990823453825 5.639932965095795e-15 9.684349872793609
    vertex 171.25581802235857 13.976371693575771 9.684349872793613
  endloop
endfacet
facet normal 9.48505316072322e-17 3.7211493150923325e-16 1.0
  outer loop
    vertex 171.25581802235857 13.976371693575771 9.684349872793613
    vertex 270.96990823453825 5.639932965095795e-15 9.684349872793609
    vertex 173.11277047580057 15.188583678381901 9.684349872793613
  endloop
endfacet
facet normal 9.48505316072322e-17 3.7211493150923325e-16 1.0
  outer loop
    vertex 173.11277047580057 15.188583678381901 9.684349872793613
    vertex 270.96990823453825 5.639932965095795e-15 9.684349872793609
    vertex 174.9189469859374 16.475229210252206 9.684349872793613
  endloop
endfacet
facet normal 9.48505316072322e-17 3.7211493150923325e-16 1.0
  outer loop
    vertex 174.9189469859374 16.475229210252206 9.684349872793613
    vertex 270.96990823453825 5.639932965095795e-15 9.684349872793609
    vertex 176.67136578431038 17.8341842005151 9.684349872793613
  endloop
endfacet
facet normal 9.48505316072322e-17 3.7211493150923325e-16 1.0
  outer loop
    vertex 176.67136578431038 17.8341842005151 9.684349872793613
    vertex 270.96990823453825 5.639932965095795e-15 9.684349872793609
    vertex 178.36713384962886 19.263205186749364 9.684349872793613
  endloop
endfacet
facet normal 9.48505316072322e-17 3.7211493150923325e-16 1.0
  outer loop
    vertex 178.36713384962886 19.263205186749364 9.684349872793613
    vertex 270.96990823453825 5.639932965095795e-15 9.684349872793609
    vertex 201.10322715971694 15.008889948100665 9.68434987279361
  endloop
endfacet
facet normal 9.48505316072322e-17 3.7211493150923325e-16 1.0
  outer loop
    vertex 178.36713384962886 19.263205186749364 9.684349872793613
    vertex 201.10322715971694 15.008889948100665 9.68434987279361
    vertex 200.02050514662668 15.253353116751494 9.68434987279361
  endloop
endfacet
facet normal 9.48505316072322e-17 3.7211493150923325e-16 1.0
  outer loop
    vertex 178.36713384962886 19.263205186749364 9.684349872793613
    vertex 200.02050514662668 15.253353116751494 9.68434987279361
    vertex 180.0034516837805 20.759933036456417 9.68434987279361
  endloop
endfacet
facet normal 9.48505316072322e-17 3.7211493150923325e-16 1.0
  outer loop
    vertex 180.0034516837805 20.759933036456417 9.68434987279361
    vertex 200.02050514662668 15.253353116751494 9.68434987279361
    vertex 198.95816300212473 15.575033651556453 9.68434987279361
  endloop
endfacet
facet normal 9.48505316072322e-17 3.7211493150923325e-16 1.0
  outer loop
    vertex 180.0034516837805 20.759933036456417 9.68434987279361
    vertex 198.95816300212473 15.575033651556453 9.68434987279361
    vertex 197.92170007656213 15.97226633197334 9.68434987279361
  endloop
endfacet
facet normal 9.48505316072322e-17 3.7211493150923325e-16 1.0
  outer loop
    vertex 180.0034516837805 20.759933036456417 9.68434987279361
    vertex 197.92170007656213 15.97226633197334 9.68434987279361
    vertex 181.57761793344898 22.321896841688904 9.68434987279361
  endloop
endfacet
facet normal 9.48505316072322e-17 3.7211493150923325e-16 1.0
  outer loop
    vertex 181.57761793344898 22.321896841688904 9.68434987279361
    vertex 197.92170007656213 15.97226633197334 9.68434987279361
    vertex 196.91648175319355 16.442994832089013 9.68434987279361
  endloop
endfacet
facet normal 9.48505316072322e-17 3.7211493150923325e-16 1.0
  outer loop
    vertex 181.57761793344898 22.321896841688904 9.68434987279361
    vertex 196.91648175319355 16.442994832089013 9.68434987279361
    vertex 183.087033849705 23.94651799820653 9.684349872793609
  endloop
endfacet
facet normal 9.48505316072322e-17 3.7211493150923325e-16 1.0
  outer loop
    vertex 183.087033849705 23.94651799820653 9.684349872793609
    vertex 196.91648175319355 16.442994832089013 9.68434987279361
    vertex 195.9477116735837 16.98478236545428 9.68434987279361
  endloop
endfacet
facet normal 9.48505316072322e-17 3.7211493150923325e-16 1.0
  outer loop
    vertex 183.087033849705 23.94651799820653 9.684349872793609
    vertex 195.9477116735837 16.98478236545428 9.68434987279361
    vertex 195.02040480028938 17.594824299421305 9.68434987279361
  endloop
endfacet
facet normal 9.48505316072322e-17 3.7211493150923325e-16 1.0
  outer loop
    vertex 183.087033849705 23.94651799820653 9.684349872793609
    vertex 195.02040480028938 17.594824299421305 9.68434987279361
    vertex 184.52920757821187 25.631114462424758 9.684349872793607
  endloop
endfacet
facet normal 9.48505316072322e-17 3.7211493150923325e-16 1.0
  outer loop
    vertex 184.52920757821187 25.631114462424758 9.684349872793607
    vertex 195.02040480028938 17.594824299421305 9.68434987279361
    vertex 194.1393614562622 18.26996267368436 9.68434987279361
  endloop
endfacet
facet normal 9.48505316072322e-17 3.7211493150923325e-16 1.0
  outer loop
    vertex 201.10322715971694 15.008889948100665 9.68434987279361
    vertex 270.96990823453825 5.639932965095795e-15 9.684349872793609
    vertex 202.20072419204178 14.842909640547553 9.68434987279361
  endloop
endfacet
facet normal 9.48505316072322e-17 3.7211493150923325e-16 1.0
  outer loop
    vertex 202.20072419204178 14.842909640547553 9.68434987279361
    vertex 270.96990823453825 5.639932965095795e-15 9.684349872793609
    vertex 203.30731490946513 14.756271412440318 9.68434987279361
  endloop
endfacet
facet normal 9.48505316072322e-17 3.7211493150923325e-16 1.0
  outer loop
    vertex 203.30731490946513 14.756271412440318 9.68434987279361
    vertex 270.96990823453825 5.639932965095795e-15 9.684349872793609
    vertex 204.41727090322394 14.749423757677613 9.68434987279361
  endloop
endfacet
facet normal 9.48505316072322e-17 3.7211493150923325e-16 1.0
  outer loop
    vertex 204.41727090322394 14.749423757677613 9.68434987279361
    vertex 270.96990823453825 5.639932965095795e-15 9.684349872793609
    vertex 205.524846343771 14.82240212402252 9.68434987279361
  endloop
endfacet
facet normal 9.48505316072322e-17 3.7211493150923325e-16 1.0
  outer loop
    vertex 205.524846343771 14.82240212402252 9.68434987279361
    vertex 270.96990823453825 5.639932965095795e-15 9.684349872793609
    vertex 206.62430772479746 14.974828729602546 9.68434987279361
  endloop
endfacet
facet normal 9.48505316072322e-17 3.7211493150923325e-16 1.0
  outer loop
    vertex 206.62430772479746 14.974828729602546 9.68434987279361
    vertex 270.96990823453825 5.639932965095795e-15 9.684349872793609
    vertex 209.74155590424348 15.674622619628229 9.684349872793609
  endloop
endfacet
facet normal 9.48505316072322e-17 3.7211493150923325e-16 1.0
  outer loop
    vertex 209.74155590424348 15.674622619628229 9.684349872793609
    vertex 270.96990823453825 5.639932965095795e-15 9.684349872793609
    vertex 212.8856131852813 16.2419422071012 9.684349872793609
  endloop
endfacet
facet normal 9.48505316072322e-17 3.7211493150923325e-16 1.0
  outer loop
    vertex 212.8856131852813 16.2419422071012 9.684349872793609
    vertex 270.96990823453825 5.639932965095795e-15 9.684349872793609
    vertex 216.05085240387493 16.67577211599803 9.684349872793609
  endloop
endfacet
facet normal 9.48505316072322e-17 3.7211493150923325e-16 1.0
  outer loop
    vertex 216.05085240387493 16.67577211599803 9.684349872793609
    vertex 270.96990823453825 5.639932965095795e-15 9.684349872793609
    vertex 219.2316084850265 16.975335887163364 9.684349872793607
  endloop
endfacet
facet normal 9.48505316072322e-17 3.7211493150923325e-16 1.0
  outer loop
    vertex 219.2316084850265 16.975335887163364 9.684349872793607
    vertex 270.96990823453825 5.639932965095795e-15 9.684349872793609
    vertex 222.42218858200098 17.140097367999154 9.684349872793607
  endloop
endfacet
facet normal 9.48505316072322e-17 3.7211493150923325e-16 1.0
  outer loop
    vertex 222.42218858200098 17.140097367999154 9.684349872793607
    vertex 270.96990823453825 5.639932965095795e-15 9.684349872793609
    vertex 225.61688226525803 17.169761672058854 9.684349872793607
  endloop
endfacet
facet normal 9.48505316072322e-17 3.7211493150923325e-16 1.0
  outer loop
    vertex 225.61688226525803 17.169761672058854 9.684349872793607
    vertex 270.96990823453825 5.639932965095795e-15 9.684349872793609
    vertex 228.8099717428513 17.06427570682849 9.684349872793607
  endloop
endfacet
facet normal 9.48505316072322e-17 3.7211493150923325e-16 1.0
  outer loop
    vertex 228.8099717428513 17.06427570682849 9.684349872793607
    vertex 270.96990823453825 5.639932965095795e-15 9.684349872793609
    vertex 231.99574209400637 16.82382826875068 9.684349872793607
  endloop
endfacet
facet normal 9.48505316072322e-17 3.7211493150923325e-16 1.0
  outer loop
    vertex 231.99574209400637 16.82382826875068 9.684349872793607
    vertex 270.96990823453825 5.639932965095795e-15 9.684349872793609
    vertex 235.16849149755924 16.44884970532071 9.684349872793607
  endloop
endfacet
facet normal 9.48505316072322e-17 3.7211493150923325e-16 1.0
  outer loop
    vertex 235.16849149755924 16.44884970532071 9.684349872793607
    vertex 270.96990823453825 5.639932965095795e-15 9.684349872793609
    vertex 238.32254143694914 15.940011144860247 9.684349872793607
  endloop
endfacet
facet normal 9.48505316072322e-17 3.7211493150923325e-16 1.0
  outer loop
    vertex 238.32254143694914 15.940011144860247 9.684349872793607
    vertex 270.96990823453825 5.639932965095795e-15 9.684349872793609
    vertex 241.452246863502 15.298223295346792 9.684349872793607
  endloop
endfacet
facet normal 9.48505316072322e-17 3.7211493150923325e-16 1.0
  outer loop
    vertex 241.452246863502 15.298223295346792 9.684349872793607
    vertex 270.96990823453825 5.639932965095795e-15 9.684349872793609
    vertex 244.552006299813 14.524634814448616 9.684349872793607
  endloop
endfacet
facet normal 9.48505316072322e-17 3.7211493150923325e-16 1.0
  outer loop
    vertex 244.552006299813 14.524634814448616 9.684349872793607
    vertex 270.96990823453825 5.639932965095795e-15 9.684349872793609
    vertex 246.708534935842 13.748870957137079 9.684349872793607
  endloop
endfacet
facet normal 9.48505316072322e-17 3.7211493150923325e-16 1.0
  outer loop
    vertex 246.708534935842 13.748870957137079 9.684349872793607
    vertex 270.96990823453825 5.639932965095795e-15 9.684349872793609
    vertex 248.87984255784315 13.015489384580993 9.684349872793607
  endloop
endfacet
facet normal 9.48505316072322e-17 3.7211493150923325e-16 1.0
  outer loop
    vertex 248.87984255784315 13.015489384580993 9.684349872793607
    vertex 270.96990823453825 5.639932965095795e-15 9.684349872793609
    vertex 251.06509631581892 12.32477140046782 9.684349872793607
  endloop
endfacet
facet normal 9.48505316072322e-17 3.7211493150923325e-16 1.0
  outer loop
    vertex 251.06509631581892 12.32477140046782 9.684349872793607
    vertex 270.96990823453825 5.639932965095795e-15 9.684349872793609
    vertex 253.263458010443 11.67698194398219 9.684349872793607
  endloop
endfacet
facet normal 9.48505316072322e-17 3.7211493150923325e-16 1.0
  outer loop
    vertex 253.263458010443 11.67698194398219 9.684349872793607
    vertex 270.96990823453825 5.639932965095795e-15 9.684349872793609
    vertex 255.47408441456864 11.07236948818324 9.684349872793607
  endloop
endfacet
facet normal 9.48505316072322e-17 3.7211493150923325e-16 1.0
  outer loop
    vertex 255.47408441456864 11.07236948818324 9.684349872793607
    vertex 270.96990823453825 5.639932965095795e-15 9.684349872793609
    vertex 257.6961275966656 10.511165944697325 9.684349872793607
  endloop
endfacet
facet normal 9.48505316072322e-17 3.7211493150923325e-16 1.0
  outer loop
    vertex 257.6961275966656 10.511165944697325 9.684349872793607
    vertex 270.96990823453825 5.639932965095795e-15 9.684349872793609
    vertex 259.92873524606205 9.993586574763782 9.684349872793607
  endloop
endfacet
facet normal 9.48505316072322e-17 3.7211493150923325e-16 1.0
  outer loop
    vertex 259.92873524606205 9.993586574763782 9.684349872793607
    vertex 270.96990823453825 5.639932965095795e-15 9.684349872793609
    vertex 262.1710509998662 9.519829906666867 9.684349872793607
  endloop
endfacet
facet normal 9.48505316072322e-17 3.7211493150923325e-16 1.0
  outer loop
    vertex 262.1710509998662 9.519829906666867 9.684349872793607
    vertex 270.96990823453825 5.639932965095795e-15 9.684349872793609
    vertex 264.42221477144165 9.09007765958611 9.684349872793607
  endloop
endfacet
facet normal 9.48505316072322e-17 3.7211493150923325e-16 1.0
  outer loop
    vertex 264.42221477144165 9.09007765958611 9.684349872793607
    vertex 270.96990823453825 5.639932965095795e-15 9.684349872793609
    vertex 266.68136308031154 8.704494673894246 9.684349872793607
  endloop
endfacet
facet normal 9.48505316072322e-17 3.7211493150923325e-16 1.0
  outer loop
    vertex 266.68136308031154 8.704494673894246 9.684349872793607
    vertex 270.96990823453825 5.639932965095795e-15 9.684349872793609
    vertex 268.9476293833645 8.363228847929348 9.684349872793607
  endloop
endfacet
facet normal 9.48505316072322e-17 3.7211493150923325e-16 1.0
  outer loop
    vertex 268.9476293833645 8.363228847929348 9.684349872793607
    vertex 270.96990823453825 5.639932965095795e-15 9.684349872793609
    vertex 271.22014440723495 8.066411081265018 9.684349872793607
  endloop
endfacet
facet normal 9.48505316072322e-17 3.7211493150923325e-16 1.0
  outer loop
    vertex 271.22014440723495 8.066411081265018 9.684349872793607
    vertex 270.96990823453825 5.639932965095795e-15 9.684349872793609
    vertex 271.6536157237351 0.4420420829413391 9.684349872793609
  endloop
endfacet
facet normal 9.48505316072322e-17 3.7211493150923325e-16 1.0
  outer loop
    vertex 271.22014440723495 8.066411081265018 9.684349872793607
    vertex 271.6536157237351 0.4420420829413391 9.684349872793609
    vertex 271.8751375233412 7.582839833434463 9.684349872793607
  endloop
endfacet
facet normal 9.48505316072322e-17 3.7211493150923325e-16 1.0
  outer loop
    vertex 271.8751375233412 7.582839833434463 9.684349872793607
    vertex 271.6536157237351 0.4420420829413391 9.684349872793609
    vertex 272.2495800173287 0.9967345154086797 9.684349872793609
  endloop
endfacet
facet normal 9.48505316072322e-17 3.7211493150923325e-16 1.0
  outer loop
    vertex 271.8751375233412 7.582839833434463 9.684349872793607
    vertex 272.2495800173287 0.9967345154086797 9.684349872793609
    vertex 272.43557360566984 6.992273553073663 9.684349872793607
  endloop
endfacet
facet normal 9.48505316072322e-17 3.7211493150923325e-16 1.0
  outer loop
    vertex 272.43557360566984 6.992273553073663 9.684349872793607
    vertex 272.2495800173287 0.9967345154086797 9.684349872793609
    vertex 272.7394697174093 1.6470153898237656 9.684349872793609
  endloop
endfacet
facet normal 9.48505316072322e-17 3.7211493150923325e-16 1.0
  outer loop
    vertex 272.43557360566984 6.992273553073663 9.684349872793607
    vertex 272.7394697174093 1.6470153898237656 9.684349872793609
    vertex 272.8842140764424 6.312877599406044 9.684349872793607
  endloop
endfacet
facet normal 9.48505316072322e-17 3.7211493150923325e-16 1.0
  outer loop
    vertex 272.8842140764424 6.312877599406044 9.684349872793607
    vertex 272.7394697174093 1.6470153898237656 9.684349872793609
    vertex 273.10821619801925 2.372882572518137 9.684349872793609
  endloop
endfacet
facet normal 9.48505316072322e-17 3.7211493150923325e-16 1.0
  outer loop
    vertex 272.8842140764424 6.312877599406044 9.684349872793607
    vertex 273.10821619801925 2.372882572518137 9.684349872793609
    vertex 273.2072591038962 5.565549663281371 9.684349872793607
  endloop
endfacet
facet normal 9.48505316072322e-17 3.7211493150923325e-16 1.0
  outer loop
    vertex 273.2072591038962 5.565549663281371 9.684349872793607
    vertex 273.10821619801925 2.372882572518137 9.684349872793609
    vertex 273.3947720743706 4.773276970467286 9.684349872793607
  endloop
endfacet
facet normal 9.48505316072322e-17 3.7211493150923325e-16 1.0
  outer loop
    vertex 273.3947720743706 4.773276970467286 9.684349872793607
    vertex 273.10821619801925 2.372882572518137 9.684349872793609
    vertex 273.3444771043624 3.152008953799742 9.684349872793607
  endloop
endfacet
facet normal 9.48505316072322e-17 3.7211493150923325e-16 1.0
  outer loop
    vertex 273.3947720743706 4.773276970467286 9.684349872793607
    vertex 273.3444771043624 3.152008953799742 9.684349872793607
    vertex 273.44098523481046 3.9604292124724765 9.684349872793607
  endloop
endfacet
facet normal -0.5308474079656385 0.8474674208818668 -2.6500412242990026e-16
  outer loop
    vertex 163.38271082666068 9.909972270895507 -5.5727634096731375e-15
    vertex 162.54235387088178 9.383578806381069 9.684349872793616
    vertex 163.38271082666068 9.909972270895508 9.684349872793616
  endloop
endfacet
facet normal -0.5308474079656385 0.8474674208818668 -2.6500412242990026e-16
  outer loop
    vertex 162.54235387088178 9.383578806381069 9.684349872793616
    vertex 163.38271082666068 9.909972270895507 -5.5727634096731375e-15
    vertex 162.54235387088178 9.383578806381067 -5.297176237682975e-15
  endloop
endfacet
facet normal -0.6070688287271193 0.7946492541919885 -2.38120051670568e-16
  outer loop
    vertex 162.54235387088178 9.383578806381067 -5.297176237682975e-15
    vertex 161.75437192407142 8.781603438022287 9.684349872793616
    vertex 162.54235387088178 9.383578806381069 9.684349872793616
  endloop
endfacet
facet normal -0.6070688287271193 0.7946492541919885 -2.38120051670568e-16
  outer loop
    vertex 161.75437192407142 8.781603438022287 9.684349872793616
    vertex 162.54235387088178 9.383578806381067 -5.297176237682975e-15
    vertex 161.75437192407142 8.781603438022286 -4.998431708164037e-15
  endloop
endfacet
facet normal -0.6780697831232835 0.7349975300741788 -2.0918827616696454e-16
  outer loop
    vertex 161.75437192407142 8.781603438022286 -4.998431708164037e-15
    vertex 161.02554120838985 8.109222831156943 9.684349872793618
    vertex 161.75437192407142 8.781603438022287 9.684349872793616
  endloop
endfacet
facet normal -0.6780697831232835 0.7349975300741788 -2.0918827616696454e-16
  outer loop
    vertex 161.02554120838985 8.109222831156943 9.684349872793618
    vertex 161.75437192407142 8.781603438022286 -4.998431708164037e-15
    vertex 161.02554120838985 8.10922283115694 -4.679098863858127e-15
  endloop
endfacet
facet normal -0.7432397010229738 0.669025221365593 -1.784575936727778e-16
  outer loop
    vertex 160.36212927713112 7.37221909841667 -4.3419237959729584e-15
    vertex 161.02554120838985 8.109222831156943 9.684349872793618
    vertex 161.02554120838985 8.10922283115694 -4.679098863858127e-15
  endloop
endfacet
facet normal -0.7432397010229738 0.669025221365593 -1.784575936727778e-16
  outer loop
    vertex 161.02554120838985 8.109222831156943 9.684349872793618
    vertex 160.36212927713112 7.37221909841667 -4.3419237959729584e-15
    vertex 160.36212927713112 7.3722190984166724 9.684349872793618
  endloop
endfacet
facet normal -0.8020181560818529 0.5972996545412231 -1.4619227157708005e-16
  outer loop
    vertex 159.76984111712636 6.576930076659291 -3.98980602927055e-15
    vertex 160.36212927713112 7.3722190984166724 9.684349872793618
    vertex 160.36212927713112 7.37221909841667 -4.3419237959729584e-15
  endloop
endfacet
facet normal -0.8020181560818529 0.5972996545412231 -1.4619227157708005e-16
  outer loop
    vertex 160.36212927713112 7.3722190984166724 9.684349872793618
    vertex 159.76984111712636 6.576930076659291 -3.98980602927055e-15
    vertex 159.76984111712636 6.576930076659294 9.684349872793618
  endloop
endfacet
facet normal -0.8538996851084282 0.5204376310104099 -1.1266977434648365e-16
  outer loop
    vertex 159.2537700889167 5.73019482497069 -3.625773587709211e-15
    vertex 159.76984111712636 6.576930076659294 9.684349872793618
    vertex 159.76984111712636 6.576930076659291 -3.98980602927055e-15
  endloop
endfacet
facet normal -0.8538996851084282 0.5204376310104099 -1.1266977434648365e-16
  outer loop
    vertex 159.76984111712636 6.576930076659294 9.684349872793618
    vertex 159.2537700889167 5.73019482497069 -3.625773587709211e-15
    vertex 159.2537700889167 5.730194824970693 9.684349872793618
  endloop
endfacet
facet normal -0.8984381347763335 0.43910012295559975 -7.817837747957355e-17
  outer loop
    vertex 158.8183541265837 4.839294812424264 -3.2529569550613648e-15
    vertex 159.2537700889167 5.730194824970693 9.684349872793618
    vertex 159.2537700889167 5.73019482497069 -3.625773587709211e-15
  endloop
endfacet
facet normal -0.8984381347763335 0.43910012295559975 -7.817837747957355e-17
  outer loop
    vertex 159.2537700889167 5.730194824970693 9.684349872793618
    vertex 158.8183541265837 4.839294812424264 -3.2529569550613648e-15
    vertex 158.8183541265837 4.839294812424266 9.68434987279362
  endloop
endfacet
facet normal -0.9352504983037173 0.3539865893259922 -4.301468849219227e-17
  outer loop
    vertex 158.46733757389666 3.9118913013519703 -2.8745621544319723e-15
    vertex 158.8183541265837 4.839294812424266 9.68434987279362
    vertex 158.8183541265837 4.839294812424264 -3.2529569550613648e-15
  endloop
endfacet
facet normal -0.9352504983037173 0.3539865893259922 -4.301468849219227e-17
  outer loop
    vertex 158.8183541265837 4.839294812424266 9.68434987279362
    vertex 158.46733757389666 3.9118913013519703 -2.8745621544319723e-15
    vertex 158.46733757389666 3.911891301351973 9.68434987279362
  endloop
endfacet
facet normal -0.9640202091061364 0.2658289608657434 -7.48109625189461e-18
  outer loop
    vertex 158.20373898496385 2.9559594645967415 -2.4938431781791127e-15
    vertex 158.46733757389666 3.911891301351973 9.68434987279362
    vertex 158.46733757389666 3.9118913013519703 -2.8745621544319723e-15
  endloop
endfacet
facet normal -0.9640202091061364 0.2658289608657434 -7.48109625189461e-18
  outer loop
    vertex 158.46733757389666 3.911891301351973 9.68434987279362
    vertex 158.20373898496385 2.9559594645967415 -2.4938431781791127e-15
    vertex 158.20373898496385 2.9559594645967446 9.68434987279362
  endloop
endfacet
facet normal -0.9844998630994399 0.17538534590205648 2.811682940416221e-17
  outer loop
    vertex 158.0298251662862 1.9797198033032686 -2.1140740053248743e-15
    vertex 158.20373898496385 2.9559594645967446 9.68434987279362
    vertex 158.20373898496385 2.9559594645967415 -2.4938431781791127e-15
  endloop
endfacet
facet normal -0.9844998630994399 0.17538534590205648 2.811682940416221e-17
  outer loop
    vertex 158.20373898496385 2.9559594645967446 9.68434987279362
    vertex 158.0298251662862 1.9797198033032686 -2.1140740053248743e-15
    vertex 158.0298251662862 1.9797198033032715 9.68434987279362
  endloop
endfacet
facet normal -0.9965133462422144 0.08343351102012063 6.347296540594877e-17
  outer loop
    vertex 157.9470916834369 0.9915674550161998 -1.7385204470913712e-15
    vertex 158.0298251662862 1.9797198033032715 9.68434987279362
    vertex 158.0298251662862 1.9797198033032686 -2.1140740053248743e-15
  endloop
endfacet
facet normal -0.9965133462422144 0.08343351102012063 6.347296540594877e-17
  outer loop
    vertex 158.0298251662862 1.9797198033032715 9.68434987279362
    vertex 157.9470916834369 0.9915674550161998 -1.7385204470913712e-15
    vertex 157.9470916834369 0.9915674550162055 9.68434987279362
  endloop
endfacet
facet normal -0.9999573490220897 -0.009235807312563814 9.828326794485091e-17
  outer loop
    vertex 157.95625 -1.127986593019159e-14 -1.3704120626758682e-15
    vertex 157.9470916834369 0.9915674550162055 9.68434987279362
    vertex 157.9470916834369 0.9915674550161998 -1.7385204470913712e-15
  endloop
endfacet
facet normal -0.9999573490220897 -0.009235807312563814 9.828326794485091e-17
  outer loop
    vertex 157.9470916834369 0.9915674550162055 9.68434987279362
    vertex 157.95625 -1.127986593019159e-14 -1.3704120626758682e-15
    vertex 157.95625 -5.639932965095795e-15 9.68434987279362
  endloop
endfacet
facet normal 6.824718778530734e-17 -1.0 3.7211493150923315e-16
  outer loop
    vertex 157.95625 -1.127986593019159e-14 -1.3704120626758682e-15
    vertex 270.96990823453825 5.639932965095795e-15 9.684349872793609
    vertex 157.95625 -5.639932965095795e-15 9.68434987279362
  endloop
endfacet
facet normal 6.824718778530734e-17 -1.0 3.7211493150923315e-16
  outer loop
    vertex 270.96990823453825 5.639932965095795e-15 9.684349872793609
    vertex 157.95625 -1.127986593019159e-14 -1.3704120626758682e-15
    vertex 270.96990823453825 0.0 -1.208981762509987e-14
  endloop
endfacet
facet normal 0.5429422637457361 -0.8397700269946861 2.6099260373031733e-16
  outer loop
    vertex 270.96990823453825 0.0 -1.208981762509987e-14
    vertex 271.6536157237351 0.4420420829413391 9.684349872793609
    vertex 270.96990823453825 5.639932965095795e-15 9.684349872793609
  endloop
endfacet
facet normal 0.5429422637457361 -0.8397700269946861 2.6099260373031733e-16
  outer loop
    vertex 271.6536157237351 0.4420420829413391 9.684349872793609
    vertex 270.96990823453825 0.0 -1.208981762509987e-14
    vertex 271.6536157237351 0.44204208294133346 -1.2319158103331951e-14
  endloop
endfacet
facet normal 0.6813060941222051 -0.7319986380533403 2.0776537784933257e-16
  outer loop
    vertex 271.6536157237351 0.44204208294133346 -1.2319158103331951e-14
    vertex 272.2495800173287 0.9967345154086797 9.684349872793609
    vertex 271.6536157237351 0.4420420829413391 9.684349872793609
  endloop
endfacet
facet normal 0.6813060941222051 -0.7319986380533403 2.0776537784933257e-16
  outer loop
    vertex 272.2495800173287 0.9967345154086797 9.684349872793609
    vertex 271.6536157237351 0.44204208294133346 -1.2319158103331951e-14
    vertex 272.2495800173287 0.9967345154086741 -1.2582094969914506e-14
  endloop
endfacet
facet normal 0.7987134792148448 -0.6017115406243408 1.4814745062235179e-16
  outer loop
    vertex 272.2495800173287 0.9967345154086797 9.684349872793609
    vertex 272.7394697174093 1.647015389823763 -1.2870540491440788e-14
    vertex 272.7394697174093 1.6470153898237656 9.684349872793609
  endloop
endfacet
facet normal 0.7987134792148448 -0.6017115406243408 1.4814745062235179e-16
  outer loop
    vertex 272.7394697174093 1.647015389823763 -1.2870540491440788e-14
    vertex 272.2495800173287 0.9967345154086797 9.684349872793609
    vertex 272.2495800173287 0.9967345154086741 -1.2582094969914506e-14
  endloop
endfacet
facet normal 0.8915530592211226 -0.4529162644390877 8.397262309799126e-17
  outer loop
    vertex 272.7394697174093 1.6470153898237656 9.684349872793609
    vertex 273.10821619801925 2.3728825725181344 -1.3175622308128061e-14
    vertex 273.10821619801925 2.372882572518137 9.684349872793609
  endloop
endfacet
facet normal 0.8915530592211226 -0.4529162644390877 8.397262309799126e-17
  outer loop
    vertex 273.10821619801925 2.3728825725181344 -1.3175622308128061e-14
    vertex 272.7394697174093 1.6470153898237656 9.684349872793609
    vertex 272.7394697174093 1.647015389823763 -1.2870540491440788e-14
  endloop
endfacet
facet normal 0.9569691609048873 -0.29018963640522394 1.7214863032063766e-17
  outer loop
    vertex 273.10821619801925 2.372882572518137 9.684349872793609
    vertex 273.3444771043624 3.152008953799739 -1.3487956340700357e-14
    vertex 273.3444771043624 3.152008953799742 9.684349872793607
  endloop
endfacet
facet normal 0.9569691609048873 -0.29018963640522394 1.7214863032063766e-17
  outer loop
    vertex 273.3444771043624 3.152008953799739 -1.3487956340700357e-14
    vertex 273.10821619801925 2.372882572518137 9.684349872793609
    vertex 273.10821619801925 2.3728825725181344 -1.3175622308128061e-14
  endloop
endfacet
facet normal 0.992949635883179 -0.11853700097211169 -5.007241282467986e-17
  outer loop
    vertex 273.3444771043624 3.152008953799742 9.684349872793607
    vertex 273.44098523481046 3.9604292124724734 -1.3797935437364452e-14
    vertex 273.44098523481046 3.9604292124724765 9.684349872793607
  endloop
endfacet
facet normal 0.992949635883179 -0.11853700097211169 -5.007241282467986e-17
  outer loop
    vertex 273.44098523481046 3.9604292124724734 -1.3797935437364452e-14
    vertex 273.3444771043624 3.152008953799742 9.684349872793607
    vertex 273.3444771043624 3.152008953799739 -1.3487956340700357e-14
  endloop
endfacet
facet normal 0.9983877527445414 0.05676174036888502 -1.158195002276821e-16
  outer loop
    vertex 273.44098523481046 3.9604292124724765 9.684349872793607
    vertex 273.3947720743706 4.7732769704672835 -1.4096024882323161e-14
    vertex 273.3947720743706 4.773276970467286 9.684349872793607
  endloop
endfacet
facet normal 0.9983877527445414 0.05676174036888502 -1.158195002276821e-16
  outer loop
    vertex 273.3947720743706 4.7732769704672835 -1.4096024882323161e-14
    vertex 273.44098523481046 3.9604292124724765 9.684349872793607
    vertex 273.44098523481046 3.9604292124724734 -1.3797935437364452e-14
  endloop
endfacet
facet normal 0.9731162392460929 0.2303145347465959 -1.7800406993093285e-16
  outer loop
    vertex 273.3947720743706 4.773276970467286 9.684349872793607
    vertex 273.2072591038962 5.565549663281368 -1.437305567621356e-14
    vertex 273.2072591038962 5.565549663281371 9.684349872793607
  endloop
endfacet
facet normal 0.9731162392460929 0.2303145347465959 -1.7800406993093285e-16
  outer loop
    vertex 273.2072591038962 5.565549663281368 -1.437305567621356e-14
    vertex 273.3947720743706 4.773276970467286 9.684349872793607
    vertex 273.3947720743706 4.7732769704672835 -1.4096024882323161e-14
  endloop
endfacet
facet normal 0.9179124274775924 0.3967830332589763 -2.347133729603243e-16
  outer loop
    vertex 273.2072591038962 5.565549663281371 9.684349872793607
    vertex 272.8842140764424 6.3128775994060415 -1.4620506567392462e-14
    vertex 272.8842140764424 6.312877599406044 9.684349872793607
  endloop
endfacet
facet normal 0.9179124274775924 0.3967830332589763 -2.347133729603243e-16
  outer loop
    vertex 272.8842140764424 6.3128775994060415 -1.4620506567392462e-14
    vertex 273.2072591038962 5.565549663281371 9.684349872793607
    vertex 273.2072591038962 5.565549663281368 -1.437305567621356e-14
  endloop
endfacet
facet normal 0.8344743437310517 0.5510467944327693 -2.8420307528421885e-16
  outer loop
    vertex 272.8842140764424 6.312877599406044 9.684349872793607
    vertex 272.43557360566984 6.992273553073661 -1.4830766159005842e-14
    vertex 272.43557360566984 6.992273553073663 9.684349872793607
  endloop
endfacet
facet normal 0.8344743437310517 0.5510467944327693 -2.8420307528421885e-16
  outer loop
    vertex 272.43557360566984 6.992273553073661 -1.4830766159005842e-14
    vertex 272.8842140764424 6.312877599406044 9.684349872793607
    vertex 272.8842140764424 6.3128775994060415 -1.4620506567392462e-14
  endloop
endfacet
facet normal 0.7253684785335612 0.6883607850174984 -3.2495091217046575e-16
  outer loop
    vertex 272.43557360566984 6.992273553073661 -1.4830766159005842e-14
    vertex 271.8751375233412 7.582839833434463 9.684349872793607
    vertex 272.43557360566984 6.992273553073663 9.684349872793607
  endloop
endfacet
facet normal 0.7253684785335612 0.6883607850174984 -3.2495091217046575e-16
  outer loop
    vertex 271.8751375233412 7.582839833434463 9.684349872793607
    vertex 272.43557360566984 6.992273553073661 -1.4830766159005842e-14
    vertex 271.8751375233412 7.58283983343446 -1.4997367029633216e-14
  endloop
endfacet
facet normal 0.5939508433958369 0.8045013335162188 -3.5570351186513347e-16
  outer loop
    vertex 271.8751375233412 7.58283983343446 -1.4997367029633216e-14
    vertex 271.22014440723495 8.066411081265018 9.684349872793607
    vertex 271.8751375233412 7.582839833434463 9.684349872793607
  endloop
endfacet
facet normal 0.5939508433958369 0.8045013335162188 -3.5570351186513347e-16
  outer loop
    vertex 271.22014440723495 8.066411081265018 9.684349872793607
    vertex 271.8751375233412 7.58283983343446 -1.4997367029633216e-14
    vertex 271.22014440723495 8.066411081265016 -1.511518466613776e-14
  endloop
endfacet
facet normal 0.12951198205457368 0.991577857005841 -3.8126520669318334e-16
  outer loop
    vertex 271.22014440723495 8.066411081265016 -1.511518466613776e-14
    vertex 268.9476293833645 8.363228847929348 9.684349872793607
    vertex 271.22014440723495 8.066411081265018 9.684349872793607
  endloop
endfacet
facet normal 0.12951198205457368 0.991577857005841 -3.8126520669318334e-16
  outer loop
    vertex 268.9476293833645 8.363228847929348 9.684349872793607
    vertex 271.22014440723495 8.066411081265016 -1.511518466613776e-14
    vertex 268.9476293833645 8.363228847929344 -1.5010085730951246e-14
  endloop
endfacet
facet normal 0.14890622628460046 0.9888513213692337 -3.820901764468482e-16
  outer loop
    vertex 268.9476293833645 8.363228847929344 -1.5010085730951246e-14
    vertex 266.68136308031154 8.704494673894246 9.684349872793607
    vertex 268.9476293833645 8.363228847929348 9.684349872793607
  endloop
endfacet
facet normal 0.14890622628460046 0.9888513213692337 -3.820901764468482e-16
  outer loop
    vertex 266.68136308031154 8.704494673894246 9.684349872793607
    vertex 268.9476293833645 8.363228847929344 -1.5010085730951246e-14
    vertex 266.68136308031154 8.704494673894244 -1.4922119276798488e-14
  endloop
endfacet
facet normal 0.16824335444834493 0.9857454913333201 -3.8276858760184334e-16
  outer loop
    vertex 266.68136308031154 8.704494673894244 -1.4922119276798488e-14
    vertex 264.42221477144165 9.09007765958611 9.684349872793607
    vertex 266.68136308031154 8.704494673894246 9.684349872793607
  endloop
endfacet
facet normal 0.16824335444834493 0.9857454913333201 -3.8276858760184334e-16
  outer loop
    vertex 264.42221477144165 9.09007765958611 9.684349872793607
    vertex 266.68136308031154 8.704494673894244 -1.4922119276798488e-14
    vertex 264.42221477144165 9.090077659586106 -1.485131904503445e-14
  endloop
endfacet
facet normal 0.18751594938985444 0.9822615582035273 -3.833001799395207e-16
  outer loop
    vertex 264.42221477144165 9.090077659586106 -1.485131904503445e-14
    vertex 262.1710509998662 9.519829906666867 9.684349872793607
    vertex 264.42221477144165 9.09007765958611 9.684349872793607
  endloop
endfacet
facet normal 0.18751594938985444 0.9822615582035273 -3.833001799395207e-16
  outer loop
    vertex 262.1710509998662 9.519829906666867 9.684349872793607
    vertex 264.42221477144165 9.090077659586106 -1.485131904503445e-14
    vertex 262.1710509998662 9.519829906666864 -1.4797712192553976e-14
  endloop
endfacet
facet normal 0.20671661870630667 0.9784008583145415 -3.8368474955663324e-16
  outer loop
    vertex 262.1710509998662 9.519829906666864 -1.4797712192553976e-14
    vertex 259.92873524606205 9.993586574763782 9.684349872793607
    vertex 262.1710509998662 9.519829906666867 9.684349872793607
  endloop
endfacet
facet normal 0.20671661870630667 0.9784008583145415 -3.8368474955663324e-16
  outer loop
    vertex 259.92873524606205 9.993586574763782 9.684349872793607
    vertex 262.1710509998662 9.519829906666864 -1.4797712192553976e-14
    vertex 259.92873524606205 9.99358657476378 -1.4761319281375304e-14
  endloop
endfacet
facet normal 0.22583799758341552 0.9741648725177444 -3.83922148943541e-16
  outer loop
    vertex 259.92873524606205 9.99358657476378 -1.4761319281375304e-14
    vertex 257.6961275966656 10.511165944697325 9.684349872793607
    vertex 259.92873524606205 9.993586574763782 9.684349872793607
  endloop
endfacet
facet normal 0.22583799758341552 0.9741648725177444 -3.83922148943541e-16
  outer loop
    vertex 257.6961275966656 10.511165944697325 9.684349872793607
    vertex 259.92873524606205 9.99358657476378 -1.4761319281375304e-14
    vertex 257.6961275966656 10.511165944697321 -1.474215427075309e-14
  endloop
endfacet
facet normal 0.24487275162039215 0.9695552256131973 -3.840122870407939e-16
  outer loop
    vertex 257.6961275966656 10.511165944697321 -1.474215427075309e-14
    vertex 255.47408441456864 11.07236948818324 9.684349872793607
    vertex 257.6961275966656 10.511165944697325 9.684349872793607
  endloop
endfacet
facet normal 0.24487275162039215 0.9695552256131973 -3.840122870407939e-16
  outer loop
    vertex 255.47408441456864 11.07236948818324 9.684349872793607
    vertex 257.6961275966656 10.511165944697321 -1.474215427075309e-14
    vertex 255.47408441456864 11.072369488183236 -1.474022451182397e-14
  endloop
endfacet
facet normal 0.26381357964317154 0.964573685726423 -3.8395512927405817e-16
  outer loop
    vertex 255.47408441456864 11.072369488183236 -1.474022451182397e-14
    vertex 253.263458010443 11.67698194398219 9.684349872793607
    vertex 255.47408441456864 11.07236948818324 9.684349872793607
  endloop
endfacet
facet normal 0.26381357964317154 0.964573685726423 -3.8395512927405817e-16
  outer loop
    vertex 253.263458010443 11.67698194398219 9.684349872793607
    vertex 255.47408441456864 11.072369488183236 -1.474022451182397e-14
    vertex 253.263458010443 11.676981943982188 -1.4755530744786923e-14
  endloop
endfacet
facet normal 0.2826532165050368 0.9592221636301764 -3.837506975673783e-16
  outer loop
    vertex 253.263458010443 11.676981943982188 -1.4755530744786923e-14
    vertex 251.06509631581892 12.32477140046782 9.684349872793607
    vertex 253.263458010443 11.67698194398219 9.684349872793607
  endloop
endfacet
facet normal 0.2826532165050368 0.9592221636301764 -3.837506975673783e-16
  outer loop
    vertex 251.06509631581892 12.32477140046782 9.684349872793607
    vertex 253.263458010443 11.676981943982188 -1.4755530744786923e-14
    vertex 251.06509631581892 12.324771400467817 -1.4788067098619412e-14
  endloop
endfacet
facet normal 0.30138443587309593 0.9535027120115894 -3.833990703347696e-16
  outer loop
    vertex 251.06509631581892 12.324771400467817 -1.4788067098619412e-14
    vertex 248.87984255784315 13.015489384580993 9.684349872793607
    vertex 251.06509631581892 12.32477140046782 9.684349872793607
  endloop
endfacet
facet normal 0.30138443587309593 0.9535027120115894 -3.833990703347696e-16
  outer loop
    vertex 248.87984255784315 13.015489384580993 9.684349872793607
    vertex 251.06509631581892 12.324771400467817 -1.4788067098619412e-14
    vertex 248.87984255784315 13.015489384580992 -1.4837821093329172e-14
  endloop
endfacet
facet normal 0.3200000530003847 0.9474175246847354 -3.8290038245013645e-16
  outer loop
    vertex 248.87984255784315 13.015489384580992 -1.4837821093329172e-14
    vertex 246.708534935842 13.748870957137079 9.684349872793607
    vertex 248.87984255784315 13.015489384580993 9.684349872793607
  endloop
endfacet
facet normal 0.3200000530003847 0.9474175246847354 -3.8290038245013645e-16
  outer loop
    vertex 246.708534935842 13.748870957137079 9.684349872793607
    vertex 248.87984255784315 13.015489384580992 -1.4837821093329172e-14
    vertex 246.708534935842 13.748870957137076 -1.4904773644741373e-14
  endloop
endfacet
facet normal 0.33849292748148657 0.9409689357492166 -3.8225482519554296e-16
  outer loop
    vertex 246.708534935842 13.748870957137076 -1.4904773644741373e-14
    vertex 244.552006299813 14.524634814448616 9.684349872793607
    vertex 246.708534935842 13.748870957137079 9.684349872793607
  endloop
endfacet
facet normal 0.33849292748148657 0.9409689357492166 -3.8225482519554296e-16
  outer loop
    vertex 244.552006299813 14.524634814448616 9.684349872793607
    vertex 246.708534935842 13.748870957137076 -1.4904773644741373e-14
    vertex 244.552006299813 14.524634814448612 -1.498889907181862e-14
  endloop
endfacet
facet normal 0.2421374974277511 0.9702419452587207 -3.840083853604009e-16
  outer loop
    vertex 244.552006299813 14.524634814448612 -1.498889907181862e-14
    vertex 241.452246863502 15.298223295346792 9.684349872793607
    vertex 244.552006299813 14.524634814448616 9.684349872793607
  endloop
endfacet
facet normal 0.2421374974277511 0.9702419452587207 -3.840083853604009e-16
  outer loop
    vertex 241.452246863502 15.298223295346792 9.684349872793607
    vertex 244.552006299813 14.524634814448612 -1.498889907181862e-14
    vertex 241.452246863502 15.29822329534679 -1.498274906601575e-14
  endloop
endfacet
facet normal 0.20088316669386427 0.9796152067720496 -3.8358332072524175e-16
  outer loop
    vertex 241.452246863502 15.29822329534679 -1.498274906601575e-14
    vertex 238.32254143694914 15.940011144860247 9.684349872793607
    vertex 241.452246863502 15.298223295346792 9.684349872793607
  endloop
endfacet
facet normal 0.20088316669386427 0.9796152067720496 -3.8358332072524175e-16
  outer loop
    vertex 238.32254143694914 15.940011144860247 9.684349872793607
    vertex 241.452246863502 15.29822329534679 -1.498274906601575e-14
    vertex 238.32254143694914 15.940011144860243 -1.4924713684198328e-14
  endloop
endfacet
facet normal 0.15926929972067758 0.9872351747007828 -3.824717271645055e-16
  outer loop
    vertex 238.32254143694914 15.940011144860243 -1.4924713684198328e-14
    vertex 235.16849149755924 16.44884970532071 9.684349872793607
    vertex 238.32254143694914 15.940011144860247 9.684349872793607
  endloop
endfacet
facet normal 0.15926929972067758 0.9872351747007828 -3.824717271645055e-16
  outer loop
    vertex 235.16849149755924 16.44884970532071 9.684349872793607
    vertex 238.32254143694914 15.940011144860243 -1.4924713684198328e-14
    vertex 235.16849149755924 16.448849705320704 -1.481489679680644e-14
  endloop
endfacet
facet normal 0.11737037608492827 0.993088210995218 -3.806755941837086e-16
  outer loop
    vertex 235.16849149755924 16.448849705320704 -1.481489679680644e-14
    vertex 231.99574209400637 16.82382826875068 9.684349872793607
    vertex 235.16849149755924 16.44884970532071 9.684349872793607
  endloop
endfacet
facet normal 0.11737037608492827 0.993088210995218 -3.806755941837086e-16
  outer loop
    vertex 231.99574209400637 16.82382826875068 9.684349872793607
    vertex 235.16849149755924 16.448849705320704 -1.481489679680644e-14
    vertex 231.99574209400637 16.823828268750677 -1.4653494951671097e-14
  endloop
endfacet
facet normal 0.07526138555149728 0.9971638400207206 -3.781981364618507e-16
  outer loop
    vertex 231.99574209400637 16.823828268750677 -1.4653494951671097e-14
    vertex 228.8099717428513 17.06427570682849 9.684349872793607
    vertex 231.99574209400637 16.82382826875068 9.684349872793607
  endloop
endfacet
facet normal 0.07526138555149728 0.9971638400207206 -3.781981364618507e-16
  outer loop
    vertex 228.8099717428513 17.06427570682849 9.684349872793607
    vertex 231.99574209400637 16.823828268750677 -1.4653494951671097e-14
    vertex 228.8099717428513 17.064275706828486 -1.4440797022237372e-14
  endloop
endfacet
facet normal 0.033017693858333204 0.9994547673067938 -3.750437880978519e-16
  outer loop
    vertex 228.8099717428513 17.064275706828486 -1.4440797022237372e-14
    vertex 225.61688226525803 17.169761672058854 9.684349872793607
    vertex 228.8099717428513 17.06427570682849 9.684349872793607
  endloop
endfacet
facet normal 0.033017693858333204 0.9994547673067938 -3.750437880978519e-16
  outer loop
    vertex 225.61688226525803 17.169761672058854 9.684349872793607
    vertex 228.8099717428513 17.064275706828486 -1.4440797022237372e-14
    vertex 225.61688226525803 17.16976167205885 -1.417718369054507e-14
  endloop
endfacet
facet normal -0.009285092171502418 0.9999568926025595 -3.712181946744978e-16
  outer loop
    vertex 225.61688226525803 17.16976167205885 -1.417718369054507e-14
    vertex 222.42218858200098 17.140097367999154 9.684349872793607
    vertex 225.61688226525803 17.169761672058854 9.684349872793607
  endloop
endfacet
facet normal -0.009285092171502418 0.9999568926025595 -3.712181946744978e-16
  outer loop
    vertex 222.42218858200098 17.140097367999154 9.684349872793607
    vertex 225.61688226525803 17.16976167205885 -1.417718369054507e-14
    vertex 222.42218858200098 17.14009736799915 -1.3863126765892429e-14
  endloop
endfacet
facet normal -0.0515712599491487 0.998669317215292 -3.667282031541095e-16
  outer loop
    vertex 222.42218858200098 17.14009736799915 -1.3863126765892429e-14
    vertex 219.2316084850265 16.975335887163364 9.684349872793607
    vertex 222.42218858200098 17.140097367999154 9.684349872793607
  endloop
endfacet
facet normal -0.0515712599491487 0.998669317215292 -3.667282031541095e-16
  outer loop
    vertex 219.2316084850265 16.975335887163364 9.684349872793607
    vertex 222.42218858200098 17.14009736799915 -1.3863126765892429e-14
    vertex 219.2316084850265 16.97533588716336 -1.3499188340402376e-14
  endloop
endfacet
facet normal -0.09376512662879416 0.9955943456188802 -3.615818496239888e-16
  outer loop
    vertex 219.2316084850265 16.97533588716336 -1.3499188340402376e-14
    vertex 216.05085240387493 16.67577211599803 9.684349872793609
    vertex 219.2316084850265 16.975335887163364 9.684349872793607
  endloop
endfacet
facet normal -0.09376512662879416 0.9955943456188802 -3.615818496239888e-16
  outer loop
    vertex 216.05085240387493 16.67577211599803 9.684349872793609
    vertex 219.2316084850265 16.97533588716336 -1.3499188340402376e-14
    vertex 216.05085240387493 16.675772115998026 -1.308601978300238e-14
  endloop
endfacet
facet normal -0.1357911745630242 0.990737481329335 -3.5578834491362226e-16
  outer loop
    vertex 216.05085240387493 16.675772115998026 -1.308601978300238e-14
    vertex 212.8856131852813 16.2419422071012 9.684349872793609
    vertex 216.05085240387493 16.67577211599803 9.684349872793609
  endloop
endfacet
facet normal -0.1357911745630242 0.990737481329335 -3.5578834491362226e-16
  outer loop
    vertex 212.8856131852813 16.2419422071012 9.684349872793609
    vertex 216.05085240387493 16.675772115998026 -1.308601978300238e-14
    vertex 212.8856131852813 16.241942207101193 -1.2624360573618913e-14
  endloop
endfacet
facet normal -0.17757418646274678 0.9841074170547105 -3.493580581093286e-16
  outer loop
    vertex 212.8856131852813 16.241942207101193 -1.2624360573618913e-14
    vertex 209.74155590424348 15.674622619628229 9.684349872793609
    vertex 212.8856131852813 16.2419422071012 9.684349872793609
  endloop
endfacet
facet normal -0.17757418646274678 0.9841074170547105 -3.493580581093286e-16
  outer loop
    vertex 209.74155590424348 15.674622619628229 9.684349872793609
    vertex 212.8856131852813 16.241942207101193 -1.2624360573618913e-14
    vertex 209.74155590424348 15.674622619628227 -1.2115036979672535e-14
  endloop
endfacet
facet normal -0.21903938001935244 0.9757160191370939 -3.423024979959072e-16
  outer loop
    vertex 209.74155590424348 15.674622619628227 -1.2115036979672535e-14
    vertex 206.62430772479746 14.974828729602546 9.68434987279361
    vertex 209.74155590424348 15.674622619628229 9.684349872793609
  endloop
endfacet
facet normal -0.21903938001935244 0.9757160191370939 -3.423024979959072e-16
  outer loop
    vertex 206.62430772479746 14.974828729602546 9.68434987279361
    vertex 209.74155590424348 15.674622619628227 -1.2115036979672535e-14
    vertex 206.62430772479746 14.974828729602542 -1.1558960577242915e-14
  endloop
endfacet
facet normal -0.13732409736855075 0.9905261694079128 -3.5556431404943816e-16
  outer loop
    vertex 206.62430772479746 14.974828729602542 -1.1558960577242915e-14
    vertex 205.524846343771 14.82240212402252 9.68434987279361
    vertex 206.62430772479746 14.974828729602546 9.68434987279361
  endloop
endfacet
facet normal -0.13732409736855075 0.9905261694079128 -3.5556431404943816e-16
  outer loop
    vertex 205.524846343771 14.82240212402252 9.68434987279361
    vertex 206.62430772479746 14.974828729602542 -1.1558960577242915e-14
    vertex 205.524846343771 14.822402124022515 -1.1397955864875338e-14
  endloop
endfacet
facet normal -0.0657476314427503 0.9978362836456031 -3.6507358255195e-16
  outer loop
    vertex 205.524846343771 14.822402124022515 -1.1397955864875338e-14
    vertex 204.41727090322394 14.749423757677613 9.68434987279361
    vertex 205.524846343771 14.82240212402252 9.68434987279361
  endloop
endfacet
facet normal -0.0657476314427503 0.9978362836456031 -3.6507358255195e-16
  outer loop
    vertex 204.41727090322394 14.749423757677613 9.68434987279361
    vertex 205.524846343771 14.822402124022515 -1.1397955864875338e-14
    vertex 204.41727090322394 14.749423757677611 -1.1265745405750245e-14
  endloop
endfacet
facet normal 0.006169185529002701 0.9999809703938916 -3.7269300083566905e-16
  outer loop
    vertex 204.41727090322394 14.749423757677611 -1.1265745405750245e-14
    vertex 203.30731490946513 14.756271412440318 9.68434987279361
    vertex 204.41727090322394 14.749423757677613 9.68434987279361
  endloop
endfacet
facet normal 0.006169185529002701 0.9999809703938916 -3.7269300083566905e-16
  outer loop
    vertex 203.30731490946513 14.756271412440318 9.68434987279361
    vertex 204.41727090322394 14.749423757677611 -1.1265745405750245e-14
    vertex 203.30731490946513 14.756271412440313 -1.116301360426461e-14
  endloop
endfacet
facet normal 0.07805406692069576 0.9969491274067798 -3.7838312600469806e-16
  outer loop
    vertex 203.30731490946513 14.756271412440313 -1.116301360426461e-14
    vertex 202.20072419204178 14.842909640547553 9.68434987279361
    vertex 203.30731490946513 14.756271412440318 9.68434987279361
  endloop
endfacet
facet normal 0.07805406692069576 0.9969491274067798 -3.7838312600469806e-16
  outer loop
    vertex 202.20072419204178 14.842909640547553 9.68434987279361
    vertex 203.30731490946513 14.756271412440313 -1.116301360426461e-14
    vertex 202.20072419204178 14.842909640547548 -1.1090292264763583e-14
  endloop
endfacet
facet normal 0.1495348914249671 0.9887564494083078 -3.821145023963728e-16
  outer loop
    vertex 202.20072419204178 14.842909640547548 -1.1090292264763583e-14
    vertex 201.10322715971694 15.008889948100665 9.68434987279361
    vertex 202.20072419204178 14.842909640547553 9.68434987279361
  endloop
endfacet
facet normal 0.1495348914249671 0.9887564494083078 -3.821145023963728e-16
  outer loop
    vertex 201.10322715971694 15.008889948100665 9.68434987279361
    vertex 202.20072419204178 14.842909640547548 -1.1090292264763583e-14
    vertex 201.10322715971694 15.008889948100663 -1.104795783858722e-14
  endloop
endfacet
facet normal 0.22024162938671943 0.9754453468468046 -3.838678140622722e-16
  outer loop
    vertex 201.10322715971694 15.008889948100663 -1.104795783858722e-14
    vertex 200.02050514662668 15.253353116751494 9.68434987279361
    vertex 201.10322715971694 15.008889948100665 9.68434987279361
  endloop
endfacet
facet normal 0.22024162938671943 0.9754453468468046 -3.838678140622722e-16
  outer loop
    vertex 200.02050514662668 15.253353116751494 9.68434987279361
    vertex 201.10322715971694 15.008889948100663 -1.104795783858722e-14
    vertex 200.02050514662668 15.253353116751493 -1.103622947532179e-14
  endloop
endfacet
facet normal 0.2898082583091457 0.9570847263517581 -3.836339847597061e-16
  outer loop
    vertex 200.02050514662668 15.253353116751493 -1.103622947532179e-14
    vertex 198.95816300212473 15.575033651556453 9.68434987279361
    vertex 200.02050514662668 15.253353116751494 9.68434987279361
  endloop
endfacet
facet normal 0.2898082583091457 0.9570847263517581 -3.836339847597061e-16
  outer loop
    vertex 198.95816300212473 15.575033651556453 9.68434987279361
    vertex 200.02050514662668 15.253353116751493 -1.103622947532179e-14
    vertex 198.95816300212473 15.575033651556447 -1.1055167888343816e-14
  endloop
endfacet
facet normal 0.35787465761614196 0.9337696340297909 -3.8141422493604453e-16
  outer loop
    vertex 198.95816300212473 15.575033651556447 -1.1055167888343816e-14
    vertex 197.92170007656213 15.97226633197334 9.68434987279361
    vertex 198.95816300212473 15.575033651556453 9.68434987279361
  endloop
endfacet
facet normal 0.35787465761614196 0.9337696340297909 -3.8141422493604453e-16
  outer loop
    vertex 197.92170007656213 15.97226633197334 9.68434987279361
    vertex 198.95816300212473 15.575033651556447 -1.1055167888343816e-14
    vertex 197.92170007656213 15.972266331973335 -1.1104675040529574e-14
  endloop
endfacet
facet normal 0.4240884728624371 0.9056207634463812 -3.77220025462691e-16
  outer loop
    vertex 197.92170007656213 15.972266331973335 -1.1104675040529574e-14
    vertex 196.91648175319355 16.442994832089013 9.68434987279361
    vertex 197.92170007656213 15.97226633197334 9.68434987279361
  endloop
endfacet
facet normal 0.4240884728624371 0.9056207634463812 -3.77220025462691e-16
  outer loop
    vertex 196.91648175319355 16.442994832089013 9.68434987279361
    vertex 197.92170007656213 15.972266331973335 -1.1104675040529574e-14
    vertex 196.91648175319355 16.442994832089006 -1.1184494651756722e-14
  endloop
endfacet
facet normal 0.48810693974193115 0.8727838308400121 -3.7107309815109864e-16
  outer loop
    vertex 196.91648175319355 16.442994832089006 -1.1184494651756722e-14
    vertex 195.9477116735837 16.98478236545428 9.68434987279361
    vertex 196.91648175319355 16.442994832089013 9.68434987279361
  endloop
endfacet
facet normal 0.48810693974193115 0.8727838308400121 -3.7107309815109864e-16
  outer loop
    vertex 195.9477116735837 16.98478236545428 9.68434987279361
    vertex 196.91648175319355 16.442994832089006 -1.1184494651756722e-14
    vertex 195.9477116735837 16.984782365454272 -1.1294213525571316e-14
  endloop
endfacet
facet normal 0.5495986584507824 0.8354288208034845 -3.6300526335880636e-16
  outer loop
    vertex 195.9477116735837 16.984782365454272 -1.1294213525571316e-14
    vertex 195.02040480028938 17.594824299421305 9.68434987279361
    vertex 195.9477116735837 16.98478236545428 9.68434987279361
  endloop
endfacet
facet normal 0.5495986584507824 0.8354288208034845 -3.6300526335880636e-16
  outer loop
    vertex 195.02040480028938 17.594824299421305 9.68434987279361
    vertex 195.9477116735837 16.984782365454272 -1.1294213525571316e-14
    vertex 195.02040480028938 17.5948242994213 -1.1433263688152211e-14
  endloop
endfacet
facet normal 0.6082453092211011 0.7937491063368368 -3.530582852672738e-16
  outer loop
    vertex 195.02040480028938 17.5948242994213 -1.1433263688152211e-14
    vertex 194.1393614562622 18.26996267368436 9.68434987279361
    vertex 195.02040480028938 17.594824299421305 9.68434987279361
  endloop
endfacet
facet normal 0.6082453092211011 0.7937491063368368 -3.530582852672738e-16
  outer loop
    vertex 194.1393614562622 18.26996267368436 9.68434987279361
    vertex 195.02040480028938 17.5948242994213 -1.1433263688152211e-14
    vertex 194.1393614562622 18.269962673684358 -1.1600925328500374e-14
  endloop
endfacet
facet normal 0.6080863979869392 0.7938708538441689 -3.5308851651758744e-16
  outer loop
    vertex 194.1393614562622 18.269962673684358 -1.1600925328500374e-14
    vertex 184.52920757821187 25.631114462424758 9.684349872793607
    vertex 194.1393614562622 18.26996267368436 9.68434987279361
  endloop
endfacet
facet normal 0.6080863979869392 0.7938708538441689 -3.5308851651758744e-16
  outer loop
    vertex 184.52920757821187 25.631114462424758 9.684349872793607
    vertex 194.1393614562622 18.269962673684358 -1.1600925328500374e-14
    vertex 184.52920757821187 25.631114462424758 -1.3428591618036197e-14
  endloop
endfacet
facet normal -0.7596499799294582 0.6503321520524523 -1.6994509978751817e-16
  outer loop
    vertex 183.087033849705 23.946517998206527 -1.2664937175314075e-14
    vertex 184.52920757821187 25.631114462424758 9.684349872793607
    vertex 184.52920757821187 25.631114462424758 -1.3428591618036197e-14
  endloop
endfacet
facet normal -0.7596499799294582 0.6503321520524523 -1.6994509978751817e-16
  outer loop
    vertex 184.52920757821187 25.631114462424758 9.684349872793607
    vertex 183.087033849705 23.946517998206527 -1.2664937175314075e-14
    vertex 183.087033849705 23.94651799820653 9.684349872793609
  endloop
endfacet
facet normal -0.7326047840865701 0.6806542663742512 -1.8379366248470912e-16
  outer loop
    vertex 181.57761793344898 22.3218968416889 -1.1917222482854766e-14
    vertex 183.087033849705 23.94651799820653 9.684349872793609
    vertex 183.087033849705 23.946517998206527 -1.2664937175314075e-14
  endloop
endfacet
facet normal -0.7326047840865701 0.6806542663742512 -1.8379366248470912e-16
  outer loop
    vertex 183.087033849705 23.94651799820653 9.684349872793609
    vertex 181.57761793344898 22.3218968416889 -1.1917222482854766e-14
    vertex 181.57761793344898 22.321896841688904 9.68434987279361
  endloop
endfacet
facet normal -0.7043501506137012 0.7098527067853276 -1.9733880514372233e-16
  outer loop
    vertex 180.0034516837805 20.75993303645641 -1.1186681922831558e-14
    vertex 181.57761793344898 22.321896841688904 9.68434987279361
    vertex 181.57761793344898 22.3218968416889 -1.1917222482854766e-14
  endloop
endfacet
facet normal -0.7043501506137012 0.7098527067853276 -1.9733880514372233e-16
  outer loop
    vertex 181.57761793344898 22.321896841688904 9.68434987279361
    vertex 180.0034516837805 20.75993303645641 -1.1186681922831558e-14
    vertex 180.0034516837805 20.759933036456417 9.68434987279361
  endloop
endfacet
facet normal -0.6749327243290263 0.7378792703618923 -2.1055816645107288e-16
  outer loop
    vertex 180.0034516837805 20.75993303645641 -1.1186681922831558e-14
    vertex 178.36713384962886 19.263205186749364 9.684349872793613
    vertex 180.0034516837805 20.759933036456417 9.68434987279361
  endloop
endfacet
facet normal -0.6749327243290263 0.7378792703618923 -2.1055816645107288e-16
  outer loop
    vertex 178.36713384962886 19.263205186749364 9.684349872793613
    vertex 180.0034516837805 20.75993303645641 -1.1186681922831558e-14
    vertex 178.36713384962886 19.26320518674936 -1.0474521525102177e-14
  endloop
endfacet
facet normal -0.6444010696742178 0.7646876888002866 -2.2342992291700383e-16
  outer loop
    vertex 178.36713384962886 19.26320518674936 -1.0474521525102177e-14
    vertex 176.67136578431038 17.8341842005151 9.684349872793613
    vertex 178.36713384962886 19.263205186749364 9.684349872793613
  endloop
endfacet
facet normal -0.6444010696742178 0.7646876888002866 -2.2342992291700383e-16
  outer loop
    vertex 176.67136578431038 17.8341842005151 9.684349872793613
    vertex 178.36713384962886 19.26320518674936 -1.0474521525102177e-14
    vertex 176.67136578431038 17.8341842005151 -9.781916976206334e-15
  endloop
endfacet
facet normal -0.6128055905408498 0.7902337047999665 -2.3593282490324365e-16
  outer loop
    vertex 176.67136578431038 17.8341842005151 -9.781916976206334e-15
    vertex 174.9189469859374 16.475229210252206 9.684349872793613
    vertex 176.67136578431038 17.8341842005151 9.684349872793613
  endloop
endfacet
facet normal -0.6128055905408498 0.7902337047999665 -2.3593282490324365e-16
  outer loop
    vertex 174.9189469859374 16.475229210252206 9.684349872793613
    vertex 176.67136578431038 17.8341842005151 -9.781916976206334e-15
    vertex 174.9189469859374 16.475229210252202 -9.110011678456342e-15
  endloop
endfacet
facet normal -0.5801984470596605 0.8144751451269452 -2.480462317035866e-16
  outer loop
    vertex 174.9189469859374 16.475229210252202 -9.110011678456342e-15
    vertex 173.11277047580057 15.188583678381901 9.684349872793613
    vertex 174.9189469859374 16.475229210252206 9.684349872793613
  endloop
endfacet
facet normal -0.5801984470596605 0.8144751451269452 -2.480462317035866e-16
  outer loop
    vertex 173.11277047580057 15.188583678381901 9.684349872793613
    vertex 174.9189469859374 16.475229210252202 -9.110011678456342e-15
    vertex 173.11277047580057 15.188583678381896 -8.459914862324791e-15
  endloop
endfacet
facet normal -0.546633469491201 0.837371990236127 -2.597501456189205e-16
  outer loop
    vertex 173.11277047580057 15.188583678381896 -8.459914862324791e-15
    vertex 171.25581802235857 13.976371693575771 9.684349872793613
    vertex 173.11277047580057 15.188583678381901 9.684349872793613
  endloop
endfacet
facet normal -0.546633469491201 0.837371990236127 -2.597501456189205e-16
  outer loop
    vertex 171.25581802235857 13.976371693575771 9.684349872793613
    vertex 173.11277047580057 15.188583678381896 -8.459914862324791e-15
    vertex 171.25581802235857 13.976371693575768 -7.83269975524566e-15
  endloop
endfacet
facet normal -0.5121660693585289 0.858886440338788 -2.7102524497103417e-16
  outer loop
    vertex 171.25581802235857 13.976371693575768 -7.83269975524566e-15
    vertex 169.35115521871575 12.84059446415489 9.684349872793614
    vertex 171.25581802235857 13.976371693575771 9.684349872793613
  endloop
endfacet
facet normal -0.5121660693585289 0.858886440338788 -2.7102524497103417e-16
  outer loop
    vertex 169.35115521871575 12.84059446415489 9.684349872793614
    vertex 171.25581802235857 13.976371693575768 -7.83269975524566e-15
    vertex 169.35115521871575 12.840594464154886 -7.229401809851917e-15
  endloop
endfacet
facet normal -0.47685314796998723 0.8789829778050958 -2.8185291600018964e-16
  outer loop
    vertex 169.35115521871575 12.840594464154886 -7.229401809851917e-15
    vertex 167.4019264217164 11.783127014348384 9.684349872793614
    vertex 169.35115521871575 12.84059446415489 9.684349872793614
  endloop
endfacet
facet normal -0.47685314796998723 0.8789829778050958 -2.8185291600018964e-16
  outer loop
    vertex 167.4019264217164 11.783127014348384 9.684349872793614
    vertex 169.35115521871575 12.840594464154886 -7.229401809851917e-15
    vertex 167.4019264217164 11.783127014348382 -6.651016994574412e-15
  endloop
endfacet
facet normal -0.44075300248240934 0.8976284257991952 -2.922152835940681e-16
  outer loop
    vertex 167.4019264217164 11.783127014348382 -6.651016994574412e-15
    vertex 165.41134956101078 10.805715088866112 9.684349872793616
    vertex 167.4019264217164 11.783127014348384 9.684349872793614
  endloop
endfacet
facet normal -0.44075300248240934 0.8976284257991952 -2.922152835940681e-16
  outer loop
    vertex 165.41134956101078 10.805715088866112 9.684349872793616
    vertex 167.4019264217164 11.783127014348382 -6.651016994574412e-15
    vertex 165.41134956101078 10.805715088866108 -6.098500149424286e-15
  endloop
endfacet
facet normal -0.40392522965974104 0.9147920030500516 -3.020952407973643e-16
  outer loop
    vertex 165.41134956101078 10.805715088866108 -6.098500149424286e-15
    vertex 163.38271082666068 9.909972270895508 9.684349872793616
    vertex 165.41134956101078 10.805715088866112 9.684349872793616
  endloop
endfacet
facet normal -0.40392522965974104 0.9147920030500516 -3.020952407973643e-16
  outer loop
    vertex 163.38271082666068 9.909972270895508 9.684349872793616
    vertex 165.41134956101078 10.805715088866108 -6.098500149424286e-15
    vertex 163.38271082666068 9.909972270895507 -5.5727634096731375e-15
  endloop
endfacet
endsolid Izzy Hold Down Clamp Small
